<svg width="850" height="759" viewBox="0 0 850 759" fill="none" xmlns="http://www.w3.org/2000/svg">
<path d="M846.416 82.4517C844.443 107.592 830.908 131.579 810.424 146.28C789.94 160.982 762.886 166.14 738.427 159.98C725.317 184.119 691.04 193.753 667.264 179.977C664.745 178.521 662.09 176.776 659.192 177.094C655.929 177.443 653.593 180.25 651.301 182.602C634.793 199.473 602.989 196.848 589.485 177.489C574.494 201.719 542.918 213.037 514.984 207.408C487.065 201.794 463.47 181.176 450.452 155.839C442.713 164.32 432.486 170.495 421.379 173.423C419.27 163.576 419.331 153.29 421.546 143.473C414.567 146.523 407.587 149.557 400.607 152.607C399.773 142.548 399.545 132.428 399.939 122.339C369.138 131.943 332.418 114.814 319.976 85.0461C319.065 82.8614 318.216 80.5401 316.501 78.9167C312.511 75.1237 306.107 76.6712 300.721 77.8243C276.14 83.1041 248.995 73.7886 232.85 54.5202C216.706 35.2518 212.26 6.89537 221.759 -16.3784H840.589" fill="url(#paint0_linear_21_2920)"/>
<path d="M1154.72 396.056C1096.21 344.836 1035.64 295.967 973.219 249.601C967.347 245.247 960.701 240.68 953.433 241.424C947.273 242.046 942.205 246.37 937.562 250.481C909.886 275.045 882.194 299.608 854.518 324.171C814.734 278.231 769.745 236.796 720.689 200.93C716.425 197.819 711.889 194.648 706.654 194.042C695.319 192.737 611.76 296.907 582.156 341.179C573.401 334.67 538.7 300.276 520.826 291.992C504.893 284.603 441.256 374.952 435.582 381.522C416.008 364.438 311.615 237.251 243.654 176.063C231.819 165.412 218.936 154.245 203.141 152.197C182.232 149.481 163.174 163.303 146.635 176.381C130.218 189.369 113.8 202.356 97.3824 215.343C87.5046 223.157 75.2902 231.44 63.3184 227.511C57.2186 225.508 3.08008 181.373 -19.8469 192.813C-39.5571 202.644 -45.0802 227.708 -47.9631 249.541C-64.3807 374.042 -68.0527 500.212 -58.9032 625.456C-58.5542 630.327 -58.0533 635.53 -54.9733 639.323C-50.9674 644.27 -43.9574 645.301 -37.6149 645.923C273.97 676.495 586.299 590.257 899.189 601.318C995.721 604.731 1093.98 617.248 1187.77 594.157C1163.34 511.469 1152.52 424.777 1155.89 338.63" fill="url(#paint1_linear_21_2920)"/>
<path d="M64.8508 109.579C64.8508 109.579 105.91 139.21 155.208 190.294C156.24 116.194 158.228 17.7889 158.228 -20.8541L199.029 -34.8882C199.636 78.5526 200.273 192.266 206.009 305.556L263.531 211.96H269.342C269.342 211.96 254.745 238.89 238.131 271.646L263.076 255.579L264.214 260.51C264.214 260.51 233.397 286.454 225.673 296.619C219.27 309.697 213.004 322.852 207.602 334.944C212.609 420.256 219.012 503.504 226.083 589.18L141.127 585.175C143.403 540.16 146.438 493.127 148.547 447.14C140.536 414.627 125.575 375.422 125.575 375.422L131.265 366.699C138.153 378.032 146.21 395.707 151.718 408.437C154.814 364.817 156.255 320.409 154.814 275.03C154.525 265.972 154.571 247.674 154.814 224.31C142.675 206.483 114.483 168.811 65.2757 122.43C64.8964 116.619 64.8812 109.564 64.8812 109.564L64.8508 109.579Z" fill="url(#paint2_linear_21_2920)"/>
<path d="M263.106 256.262L265.139 247.386C265.139 247.386 296.563 269.719 324.573 295.102C328.655 194.087 335.726 93.1025 329.292 -7.71521L369.153 -5.74285C365.359 116.149 367.924 238.238 376.785 359.856C383.704 344.365 397.163 315.751 408.952 299.957L412.746 306.026C412.746 306.026 388.65 373.071 381.155 414.02C386.435 473.782 393.233 533.408 401.578 592.821L320.992 593.125C325.59 528.841 322.646 350.191 323.466 325.355C313.618 310.638 290.98 279.187 263.121 256.262H263.106Z" fill="url(#paint3_linear_21_2920)"/>
<path d="M699.659 256.262L697.626 247.386C697.626 247.386 666.202 269.719 638.192 295.102C634.11 194.087 627.039 93.1025 633.473 -7.71521L593.612 -5.74285C597.406 116.149 594.841 238.238 585.98 359.856C579.061 344.365 565.602 315.751 553.813 299.957L550.019 306.026C550.019 306.026 574.114 373.071 581.61 414.02C576.33 473.782 569.532 533.408 561.187 592.821L641.773 593.125C637.175 528.841 640.119 350.191 639.299 325.355C649.147 310.638 671.785 279.187 699.644 256.262H699.659Z" fill="url(#paint4_linear_21_2920)"/>
<path d="M1243.38 476.923C1181.25 432.272 1100.48 421.818 1024.08 426.112C1022.84 405.766 1018.63 388.212 1008.27 373.541C991.078 389.472 985.252 417.039 986.602 432.287C976.254 406.237 966.801 388.455 941.507 372.282C935.696 401.867 939.626 416.478 945.725 442.786C931.356 430.406 901.829 429.222 883.848 435.246C865.868 441.269 854.442 453.391 847.812 468.669C840.862 451.267 829.755 435.534 815.659 423.184C812.109 440.768 812.351 459.111 816.388 476.604C810.364 466.5 792.672 456.608 781.61 453.573C777.164 461.538 781.99 484.099 789.197 492.808C783.81 493.157 737.729 498.513 718.595 550.704C708.839 538.976 680.859 537.838 666.095 541.692C635.916 549.581 620.53 573.932 610.864 603.578C821.547 605.627 1032.18 612.955 1242.52 625.547" fill="url(#paint5_linear_21_2920)"/>
<path d="M-15.659 263.408C19.7405 236.599 74.486 231.228 117.745 247.811C161.005 264.394 191.746 300.989 199.697 340.648C209.392 330.513 229.467 330.726 241.059 339.328C252.652 347.931 256.172 362.541 252.849 375.286C262.302 366.714 279.964 366.774 290.448 374.436C300.933 382.098 303.938 395.707 299.067 406.692C310.538 400.137 324.892 397.315 338.594 398.908C341.568 399.257 344.663 399.864 346.878 401.594C352.022 405.614 349.382 413.185 344.299 417.251C339.216 421.317 333.177 424.488 327.274 427.568C352.219 432.636 374.737 445.851 389.106 463.844C403.475 481.854 411.942 507.585 408.194 529.084C420.454 510.999 433.291 508.647 445.869 509.998C446.127 523.182 436.765 538.308 423.109 544.635C440.468 556.181 448.176 577.498 437.964 594.065H-15.6286" fill="url(#paint6_linear_21_2920)"/>
<path d="M232.517 583.218L290.312 593.034C290.312 593.034 314.559 565.026 335.104 503.899C320.158 501.517 306.123 500.045 306.123 500.045C317.184 498.558 329.884 497.632 337.319 497.162C342.114 482.112 346.651 465.18 350.55 446.306L330.552 444.045L352.143 438.249C356.043 417.858 359.184 395.298 361.126 370.507C361.126 370.507 342.812 382.735 318.883 411.183C321.645 414.111 326.06 419.148 328.883 424.185L316.046 414.627C288.597 448.126 254.7 502.427 232.517 583.218Z" fill="url(#paint7_linear_21_2920)"/>
<path d="M509.582 602.789L557.014 601.53C557.014 601.53 571.884 575.495 578.636 523.728C566.391 524.183 555.011 525.2 555.011 525.2C563.569 522.287 573.508 519.571 579.334 518.024C580.791 505.325 581.732 491.169 581.883 475.557L565.648 476.892L581.883 468.912C581.792 452.101 580.745 433.698 578.409 413.701C578.409 413.701 565.784 426.279 551.233 452.617C553.888 454.514 558.182 457.821 561.217 461.371L549.518 455.788C532.964 486.693 514.544 535.122 509.582 602.759V602.789Z" fill="url(#paint8_linear_21_2920)"/>
<path d="M750.823 584.143C749.777 576.087 745.073 568.122 737.547 565.042C730.021 561.962 719.946 565.36 717.306 573.037C716.653 567.287 715.561 561.598 714.013 556.029C711.509 560.991 709.764 566.346 708.869 571.839C707.504 568.379 706.138 564.92 704.772 561.461C703.483 564.784 702.193 568.106 700.888 571.429C697.823 566.392 692.148 563.024 686.261 562.751C680.358 562.478 674.41 565.3 670.89 570.048L667.719 555.286C665.185 560.52 662.97 565.906 661.088 571.399C654.685 563.843 642.425 562.129 634.201 567.651C633.169 562.189 631.166 556.909 628.314 552.13C626.584 557.031 624.839 561.931 623.109 566.832C612.473 561.173 598.984 561.233 588.393 566.999C587.194 562.948 585.161 559.14 582.46 555.908C580.472 559.458 578.484 562.993 576.497 566.544C566.422 558.487 550.429 559.14 541.052 567.985C535.62 562.25 527.563 559.125 519.688 559.701C511.813 560.278 504.302 564.556 499.765 571.004C495.213 567.636 488.916 566.802 483.651 568.85C478.386 570.898 474.319 575.783 473.242 581.336C481.269 584.022 489.66 585.645 498.111 586.176" fill="url(#paint9_linear_21_2920)"/>
<path d="M864.836 506.356L894.47 482.521C894.47 482.521 890.509 452.799 864.502 407.541C855.034 415.325 846.613 423.032 846.613 423.032C851.651 415.537 857.902 407.344 861.604 402.58C855.064 391.596 847.235 379.762 837.888 367.26L825.78 378.168L833.852 361.98C823.595 348.674 811.608 334.655 797.618 320.181C797.618 320.181 795.206 337.841 799.591 367.609C802.853 367.503 808.27 367.533 812.837 368.534L800.152 371.174C805.721 405.781 814.794 448.142 864.821 506.372L864.836 506.356Z" fill="url(#paint10_linear_21_2920)"/>
<path d="M144.39 533.438L178.196 525.306C178.196 525.306 178.044 494.613 165.86 457.108C157.651 461.387 150.216 465.771 150.216 465.771C155.102 461.008 161.005 455.925 164.479 452.981C161.354 443.848 157.408 433.88 152.447 423.184L141.795 429.359L150.292 418.647C144.769 407.208 138.093 394.994 130.005 382.113C130.005 382.113 125.469 394.797 124.088 417.479C126.515 417.904 130.521 418.769 133.738 420.225H123.951C122.677 446.67 125.833 485.677 144.375 533.438H144.39Z" fill="url(#paint11_linear_21_2920)"/>
<path d="M353.539 247.113L358.592 237.509C372.567 251.134 388.65 268.885 403.581 286.12L395.008 247.128H400.061L420.241 305.692C429.391 316.601 437.463 326.447 443.426 333.821C427.327 219.136 405.69 105.24 378.59 -7.35107L412.139 -7.03246C429.482 54.3381 450.042 139.984 469.373 221.108C489.007 165.518 518.914 109.261 518.914 109.261H525.954C514.195 131.715 489.204 220.259 478.477 259.296C480.328 267.049 482.164 274.741 483.969 282.297C493.68 322.882 503.149 363.497 512.359 404.173L527.016 393.78L532.585 403.9L520.446 438.295C529.808 480.928 542.235 540.979 550.823 583.824L469.889 587.086C466.444 536.913 460.511 475.087 454.381 420.301C451.134 391.277 440.907 363.482 424.52 339.298C391.533 290.611 353.539 247.113 353.539 247.113Z" fill="url(#paint12_linear_21_2920)"/>
<path d="M900.099 603.548C900.099 603.548 882.012 413.762 835.036 418.116C785.464 422.698 857.28 516.461 868.857 548.944C868.857 548.944 814.309 450.797 790.987 475.072C763.782 503.368 845.839 543.33 853.229 555.483C853.229 555.483 749.003 478.425 742.812 528.234C741.993 534.865 749.018 549.035 768.349 552.949C791.928 557.714 864.609 584.72 884.911 606.719" fill="url(#paint13_linear_21_2920)"/>
<path d="M837.509 433.728C844.898 447.14 851.393 461.023 857.31 475.148C862.697 488.014 867.507 501.137 871.831 514.398C875.594 525.943 878.963 537.626 881.952 549.399C884.319 558.745 886.458 568.167 888.325 577.634C889.599 584.098 890.767 590.667 891.45 597.236C891.511 597.783 891.496 598.359 891.572 598.89C891.693 599.77 890.358 600.134 890.236 599.254C890.069 598.071 889.751 596.888 889.523 595.719C889.265 594.323 889.007 592.943 888.765 591.547C888.127 588.103 887.46 584.674 886.746 581.26C884.85 572.157 882.908 563.084 880.647 554.072C877.764 542.617 874.517 531.254 870.966 519.981C866.854 506.933 862.226 494.052 857.219 481.323C851.666 467.213 845.399 453.421 838.753 439.782C837.903 438.022 837.023 436.277 836.158 434.532C835.703 433.622 837.039 432.818 837.539 433.728H837.509Z" fill="#0D6B27"/>
<path d="M800.41 482.643C807.648 487.225 813.884 493.248 819.817 499.393C827.479 507.328 834.611 515.733 841.484 524.366C848.752 533.499 855.747 542.86 862.484 552.388C868.508 560.915 874.365 569.548 879.979 578.347C883.833 584.401 887.763 590.561 890.798 597.085C891.041 597.616 891.223 598.192 891.481 598.708C891.875 599.512 890.676 600.21 890.282 599.406C889.736 598.314 888.992 597.252 888.37 596.19C887.581 594.855 886.792 593.504 885.988 592.184C883.985 588.892 881.906 585.66 879.843 582.414C874.441 573.932 868.796 565.603 862.985 557.38C856.339 547.973 849.496 538.673 842.41 529.585C835.324 520.497 828.496 512.167 820.985 503.929C815.037 497.405 808.771 490.927 801.745 485.556C801.047 485.025 800.334 484.509 799.621 483.993C798.787 483.417 799.545 482.051 800.425 482.612L800.41 482.643Z" fill="#0D6B27"/>
<path d="M761.157 526.217C768.698 527.081 776.102 528.599 783.431 530.601C792.019 532.953 800.486 535.866 808.695 539.31C817.95 543.209 826.948 547.7 835.643 552.752C845.111 558.26 854.154 564.465 862.757 571.232C872.028 578.53 880.89 586.495 888.704 595.34C889.675 596.432 890.601 597.54 891.481 598.708C891.981 599.361 890.95 600.059 890.388 599.543C888.203 597.494 886.155 595.325 884.03 593.231C881.906 591.137 879.706 589.089 877.536 587.041C873.318 583.081 868.963 579.273 864.472 575.647C855.96 568.759 846.947 562.523 837.585 556.864C829.027 551.69 820.135 547.063 810.971 543.012C802.777 539.401 794.386 536.2 785.813 533.59C778.485 531.36 771.004 529.524 763.463 528.189C762.628 528.037 761.794 527.901 760.959 527.764C760.079 527.628 760.277 526.095 761.172 526.186L761.157 526.217Z" fill="#0D6B27"/>
<path d="M851.377 345.063C857.432 357.11 864.26 369.369 873.546 381.992C874.077 355.198 874.213 328.405 873.986 301.611C873.758 275.727 868.007 250.193 857.067 226.737C840.801 191.857 825.31 158.479 809.302 122.005L814.051 121.944C833.018 159.981 857.674 203.448 873.986 228.831C874.046 204.404 873.394 172.133 872.848 147.661L905.85 147.509C908.368 204.116 910.902 256.702 914.195 312.838C942.842 280.021 979.698 248.388 1014.92 222.747C1014.92 222.747 983.689 257.825 971.475 269.34C958.016 282.024 944.466 297.621 933.951 313.005C924.316 327.1 919.582 343.956 920.219 361.024C923.284 443.302 929.566 525.458 939.079 607.235L860.648 602.607C866.05 547.29 869.813 491.822 871.952 436.277C872.499 422.167 869.965 408.118 864.578 395.055C857.022 376.758 848.874 355.213 848.828 354.167C848.783 352.892 850.027 348.78 851.377 345.033V345.063Z" fill="url(#paint14_linear_21_2920)"/>
<path d="M151.354 145.203L155.147 141.031L184.736 183.891L191.943 120.169H197.254V150.513C197.254 150.513 197.254 200.08 202.822 213.219C206.403 221.7 222.29 255.291 233.123 278.094C257.932 179.537 285.168 81.6628 313.33 -12.5854L354.07 -5.12084C338.29 40.0006 327.805 86.7757 317.351 133.43C313.77 149.436 307.26 181.176 299.325 221.169C346.863 196.545 394.507 174.409 394.507 174.409L399.56 178.839C339.656 212.612 308.459 236.948 293.574 250.345C285.305 292.492 276.034 340.785 267.097 388.41C275.184 382.872 286.276 375.726 295.38 371.523L300.19 379.701C300.19 379.701 275.214 405.523 259.009 431.892C245.247 506.432 233.427 573.917 229.133 606.431L157.924 625.411C175.723 524.426 198.194 420.377 223.564 316.646C207.071 254.593 151.369 145.203 151.369 145.203H151.354Z" fill="url(#paint15_linear_21_2920)"/>
<path d="M565.238 95.3024C565.238 95.3024 624.854 139.195 674.137 190.294C675.169 116.194 677.157 17.7889 677.157 -20.8541L717.958 -34.8882C718.565 78.5526 719.202 192.266 724.938 305.556L782.46 211.96H788.271C788.271 211.96 773.675 238.89 757.06 271.646L782.005 255.579L783.143 260.51C783.143 260.51 752.326 286.454 744.602 296.619C738.199 309.697 731.933 322.852 726.531 334.944C731.538 420.256 737.941 503.504 745.012 589.18L660.056 585.175C662.332 540.16 665.367 493.127 667.476 447.14C659.465 414.627 644.504 375.422 644.504 375.422L650.194 366.699C657.082 378.032 665.14 395.707 670.647 408.437C673.743 364.817 675.184 320.409 673.743 275.03C673.455 265.972 673.5 247.674 673.743 224.31C661.604 206.483 633.412 168.811 584.205 122.43C559.002 98.6858 553.357 97.1079 552.326 97.0927L565.253 95.2873L565.238 95.3024Z" fill="url(#paint16_linear_21_2920)"/>
<path d="M552.295 97.1079L552.098 97.1382C552.098 97.1382 552.159 97.1079 552.295 97.1079Z" stroke="url(#paint17_linear_21_2920)" stroke-miterlimit="10"/>
<path d="M44.1998 395.085C49.5864 408.133 52.1203 422.182 51.5741 436.307C49.4346 491.837 45.6717 547.321 40.27 602.638L118.701 607.25C109.187 525.473 102.906 443.317 99.8405 361.039C99.2033 343.971 103.937 327.115 113.573 313.02C124.103 297.636 137.637 282.039 151.096 269.355C153.721 266.882 157.226 263.332 161.111 259.266L157.332 251.725C134.497 270.721 112.419 291.537 93.8168 312.853C90.5393 256.717 77.5509 50.1962 75.0169 -6.39526L54.6087 -6.27389C55.155 18.1985 53.6832 204.404 53.6074 228.831C37.3112 203.448 12.6393 159.996 -6.32744 121.96L-11.0615 122.02C4.93121 158.478 20.4232 191.857 36.7042 226.737C47.6442 250.193 53.3949 275.727 53.6074 301.611C53.8501 328.404 53.6984 355.198 53.1674 381.992C43.8813 369.369 37.0532 357.11 30.999 345.063C29.6486 348.811 28.4044 352.922 28.4499 354.197C28.4954 355.244 36.6435 376.788 44.1998 395.085Z" fill="url(#paint18_linear_21_2920)"/>
<path d="M237.22 598.086C237.22 598.086 311.069 478.228 295.896 446.868C280.722 415.507 215.978 556.743 215.978 556.743C215.978 556.743 248.782 468.078 223.564 455.47C200.046 443.712 193.597 551.433 193.597 551.433C193.597 551.433 201.411 421.394 177.331 405.312C153.266 389.214 165.905 547.002 165.905 547.002C165.905 547.002 151.749 451.92 127.972 452.936C104.195 453.953 135.058 550.538 135.058 550.538C135.058 550.538 110.28 468.108 85.4866 471.643C60.7085 475.178 121.402 599.088 121.402 599.088L237.22 598.071V598.086Z" fill="url(#paint19_linear_21_2920)"/>
<path d="M234.186 598.086C234.186 598.086 310.568 477.317 295.395 445.957C280.222 414.597 212.943 556.743 212.943 556.743C212.943 556.743 247.174 467.471 221.956 454.863C198.437 443.105 190.562 551.432 190.562 551.432C190.562 551.432 199.332 420.984 175.267 404.902C151.203 388.804 162.871 547.017 162.871 547.017C162.871 547.017 148.714 451.935 124.937 452.951C101.161 453.968 132.023 550.552 132.023 550.552C132.023 550.552 107.245 468.123 82.452 471.658C57.6739 475.193 118.367 599.103 118.367 599.103L234.186 598.086Z" fill="url(#paint20_linear_21_2920)"/>
<path d="M622.866 599.603H685.335C862.864 246.097 1146.09 195.528 1146.09 195.528V173.271C785.98 245.08 622.866 599.603 622.866 599.603Z" fill="url(#paint21_linear_21_2920)"/>
<path d="M622.866 599.603H636.265C814.309 231.941 1146.09 177.322 1146.09 177.322V173.271C785.98 245.08 622.866 599.603 622.866 599.603Z" fill="url(#paint22_linear_21_2920)"/>
<path style="mix-blend-mode:multiply" opacity="0.3" d="M676.732 599.603C676.732 599.603 781.428 311.336 1128.14 192.995C1128.14 192.995 837.57 244.079 650.436 599.603H676.732Z" fill="url(#paint23_linear_21_2920)"/>
<path d="M484.03 587.967C484.03 587.967 497.944 560.156 511.342 552.57C511.342 552.57 491.799 553.071 478.143 568.501C478.143 568.501 477.961 552.57 475.427 538.157C475.427 538.157 468.174 559.974 462.863 564.526C462.863 564.526 462.287 550.052 450.907 538.157C450.907 538.157 450.907 560.657 449.132 567.742C449.132 567.742 441.545 557.38 430.165 553.83C430.165 553.83 441.803 576.33 444.837 587.967H484.03Z" fill="url(#paint24_linear_21_2920)"/>
<path d="M278.81 409.423C278.81 409.423 263.394 425.384 253.031 449.143C242.668 472.917 239.375 489.607 237.099 510.847C234.823 532.088 224.96 558.381 225.461 588.224H235.384C235.384 588.224 239.997 535.623 244.291 513.76C248.585 491.882 266.672 444.607 266.672 444.607L278.795 409.438L278.81 409.423Z" fill="url(#paint25_linear_21_2920)"/>
<path d="M233.306 588.224C233.472 526.095 249.253 464.072 278.81 409.423C274.198 421.742 275.154 434.775 274.016 447.884C271.618 475.436 253.577 494.158 249.602 523.167C248.555 530.829 249.116 544.575 249.238 552.312C249.45 565.527 249.905 577.058 242.258 587.83" fill="url(#paint26_linear_21_2920)"/>
<path d="M811.107 90.1439C817.177 96.941 820.424 105.452 819.619 114.631C818.588 126.329 809.802 133.824 805.357 144.095C794.538 169.053 815.037 194.102 821.38 217.361C824.399 228.436 823.974 239.163 820.545 250.056C817.222 260.571 811.942 270.599 810.303 281.599C808.376 294.525 815.159 304.418 817.981 316.494C820.621 327.828 818.239 339.207 812.306 349.053C811.608 350.222 805.569 359.31 804.006 358.657C802.443 358.005 806.297 349.812 807.132 348.416C814.461 336.233 813.656 321.152 808.771 308.089C805.25 298.667 802.185 290.05 803.703 279.839C805.205 269.628 809.909 260.252 813.186 250.572C817.01 239.299 817.92 228.345 814.718 216.784C808.801 195.377 793.385 175.699 796.116 152.425C797.345 141.926 803.581 134.719 808.664 125.919C815.113 114.768 814.415 101.629 805.675 91.8432C802.944 88.7936 809.286 88.0805 811.138 90.1439H811.107Z" fill="url(#paint27_linear_21_2920)"/>
<path d="M437.22 -6.83534C444.139 3.87606 447.265 16.1957 445.52 28.8946C443.472 43.7631 435.506 58.0855 437.311 73.4092C438.965 87.4432 448.889 98.8829 450.209 113.053C451.347 125.343 447.781 138.77 440.043 148.237C439.405 149.011 430.605 159.07 429.042 158.478C427.479 157.887 430.741 151.833 435.293 145.961C443.396 135.508 445.626 120.518 442.971 107.425C440.316 94.3768 431.318 83.4833 430.544 69.9348C429.846 57.7669 434.701 46.2969 437.478 34.6751C440.968 20.0494 439.405 5.83324 431.151 -6.94155C429.664 -9.24769 436.189 -8.45874 437.235 -6.85052L437.22 -6.83534Z" fill="url(#paint28_linear_21_2920)"/>
<path d="M35.5056 34.569C35.02 46.6459 29.0113 57.0235 26.4319 68.6149C23.5793 81.4655 25.8402 94.2707 31.9095 105.817C35.9608 113.539 41.5143 121.353 41.7874 130.38C41.9695 136.373 39.3141 141 37.1746 146.402C35.1414 151.53 34.2158 156.703 34.5345 162.256C35.6725 182.01 48.4788 199.23 48.2967 219.273C48.0995 240.877 31.0446 261.177 37.6602 282.98C38.0699 284.315 41.499 294.252 39.5569 293.782C38.1761 293.448 34.6256 286.909 32.7744 281.781C25.4457 261.496 39.4354 242.319 41.4383 222.17C43.6385 199.959 28.1768 181.1 27.8582 159.267C27.7975 155.05 28.3589 150.938 29.6942 146.933C31.4998 141.547 34.8531 136.692 35.1717 130.865C35.7938 119.532 27.0995 109.898 22.8813 100.006C18.4507 89.5977 17.3886 77.885 19.8315 66.8398C22.411 55.2484 28.4196 44.8708 28.9051 32.7939C28.981 30.7002 35.5966 32.0201 35.5056 34.5538V34.569Z" fill="url(#paint29_linear_21_2920)"/>
<path d="M47.0677 49.1492C42.1819 55.3394 39.7997 62.895 40.6494 70.7845C41.6053 79.6449 46.6125 85.6985 52.7577 91.7218C61.2093 100.006 70.814 110.929 63.7432 123.158C57.7953 133.445 43.3806 138.816 43.3958 152.137C43.4261 168.886 58.9484 178.172 60.4961 194.891C60.6478 196.59 61.1486 209.972 59.2671 209.487C57.8711 209.122 57.689 197.956 57.4614 196.909C53.7288 179.583 36.765 168.28 36.6284 151.166C36.5222 138.194 48.7975 132.428 55.7014 123.295C68.5077 106.363 45.8386 95.1658 38.1912 82.5124C31.3177 71.1486 32.8806 56.6745 40.968 46.4335C42.546 44.4459 48.8733 46.8431 47.0525 49.1492H47.0677Z" fill="url(#paint30_linear_21_2920)"/>
<path d="M306.259 551.872C299.401 550.567 292.649 551.736 286.306 554.3C265.61 562.66 249.435 585.873 249.435 585.873H240.285C241.347 574.145 245.444 563.828 250.178 555.513C258.16 541.479 267.931 533.105 267.931 533.105C285.138 525.018 324.164 555.301 306.244 551.887L306.259 551.872Z" fill="url(#paint31_linear_21_2920)"/>
<path style="mix-blend-mode:multiply" opacity="0.3" d="M306.259 551.872C301.995 551.053 297.762 551.205 293.635 552.039C293.635 552.039 268.159 550.097 250.178 555.498C258.16 541.464 267.931 533.09 267.931 533.09C285.138 525.003 324.164 555.286 306.244 551.872H306.259Z" fill="url(#paint32_linear_21_2920)"/>
<path d="M1141.04 607.644C1141.04 607.644 1068.2 590.212 705.561 578.863C342.918 567.515 -0.00012207 597.51 -0.00012207 597.51V759H1138L1141.04 607.66V607.644Z" fill="url(#paint33_linear_21_2920)"/>
<path d="M366.073 584.098C360.291 564.222 364.737 551.493 364.737 551.493C374.782 558.502 377.453 572.552 377.453 572.552C383.704 564.966 392.049 561.749 392.049 561.749C393.567 566.968 391.215 578.514 386.921 583.612C486.367 581.276 592.489 580.911 705.561 584.447C1068.2 595.795 1141.04 613.228 1141.04 613.228L1138 764.568H-0.00012207V603.078C-0.00012207 603.078 154.647 589.544 366.073 584.098Z" fill="url(#paint34_linear_21_2920)"/>
<path style="mix-blend-mode:multiply" opacity="0.16" d="M717.169 738.578C717.169 738.578 423.837 714.819 -0.00012207 735.043V770.531H732.373L717.169 738.578Z" fill="url(#paint35_linear_21_2920)"/>
<path style="mix-blend-mode:multiply" opacity="0.16" d="M803.915 611.787C803.915 611.787 575.192 584.295 295.441 617.279C295.441 617.279 502.102 616.035 602.382 632.299C602.382 632.299 305.743 636.926 104.362 675.342C104.362 675.342 587.285 660.079 829.528 698.479" fill="url(#paint36_linear_21_2920)"/>
<path d="M790.031 636.517L642.774 663.917L619.073 709.342L563.448 718.445L542.706 759H843.639L790.031 636.517Z" fill="url(#paint37_linear_21_2920)"/>
<path style="mix-blend-mode:color-dodge" d="M790.031 636.516L653.532 671.731L639.557 714.151L663.835 734.254L620.848 717.444L574.691 730.082L562.932 759H542.706L563.448 718.445L619.073 709.342L642.774 663.917L790.031 636.516Z" fill="url(#paint38_linear_21_2920)"/>
<path style="mix-blend-mode:color-dodge" d="M620.591 722.314L579.622 734.634L576.724 743.479L620.591 722.314Z" fill="url(#paint39_linear_21_2920)"/>
<path d="M341.841 763.035C328.003 751.125 309.764 744.465 291.511 744.677C295.152 733.086 295.956 720.63 293.847 708.674C282.68 715.32 275.29 727.897 274.926 740.884C274.35 727.199 270.298 718.005 265.534 708.841C256.141 717.095 251.969 728.565 251.696 741.506C238.753 727.078 217.692 722.177 198.437 724.301C197.375 724.423 196.207 724.529 195.342 723.892C194.34 723.164 194.174 721.768 194.067 720.524C193.172 711.011 189.895 701.726 184.599 693.775C184.068 692.987 183.446 692.152 182.535 691.924C181.58 691.697 180.624 692.182 179.759 692.668C173.72 696.142 168.197 700.481 163.387 705.519C161.687 707.309 159.988 709.236 157.727 710.222C155.618 711.132 153.251 711.102 150.96 711.056C133.131 710.677 115.06 709.645 97.6406 713.454C67.7946 720.008 41.6205 741.506 29.4059 769.514" fill="url(#paint40_linear_21_2920)"/>
<path d="M781.049 759C781.049 759 764.388 619.858 732.266 621.891C690.358 624.531 736.257 713.954 764.737 759H781.049Z" fill="url(#paint41_linear_21_2920)"/>
<path d="M1138 437.263C1118.28 461.796 1091.98 506.796 1080.78 567.97C1080.37 550.128 1076.91 510.043 1064.64 493.339C1052.53 476.847 1031.29 482.279 1026.6 488.347C1004.76 516.673 1046.58 563.221 1057.36 575.814C1050.09 570.625 1034.1 550.568 1018.6 551.796C998.377 553.42 1000.14 573.659 1005.93 579.197C1012.55 585.539 1024.51 587.86 1033.18 590.788C1021.53 589.362 1009.8 588.604 998.058 588.482C998.134 598.132 1010.8 606.795 1019.13 608.054C998.635 631.449 965.693 646.318 935.65 654.389C919.9 658.622 903.452 660.443 888.188 666.193C872.924 671.943 858.342 682.715 853.532 698.312C850.512 680.288 844.049 661.581 821.015 648.412C817.723 673.991 830.226 690.089 842.228 702.97C828.648 691.212 814.825 690.711 811.836 690.878C815.143 696.507 816.964 712.24 805.508 716.655C794.052 721.055 781.656 723.164 770.974 729.202C760.292 735.241 751.339 746.969 753.752 759H1138V437.263Z" fill="url(#paint42_linear_21_2920)"/>
<path d="M799.682 567.09C804.355 573.295 810.5 578.241 815.447 584.204C836.947 610.057 833.806 657.317 850.801 686.326L874.501 679.256C870.921 661.201 867.173 642.722 857.629 626.974C853.198 619.661 847.599 613.106 843.442 605.627C834.262 589.135 832.304 568.652 819.801 554.543C815.75 549.976 810.773 546.319 806.236 542.253C799.09 535.866 790.047 518.357 786.997 516.582C786.754 516.431 786.526 516.385 786.375 516.506C786.253 516.537 786.177 516.643 786.117 516.795C787.422 534.379 789.106 553.01 799.697 567.105L799.682 567.09Z" fill="url(#paint43_linear_21_2920)"/>
<path style="mix-blend-mode:multiply" opacity="0.2" d="M799.682 567.09C804.355 573.295 810.5 578.241 815.447 584.204C836.947 610.057 833.807 657.317 850.801 686.326L862.606 682.806C858.357 661.217 845.824 634.484 836.841 615.003C827.859 595.522 828.526 586.404 818.406 572.4C808.285 558.396 804.446 560.126 797.163 545.682C789.895 531.223 786.982 516.597 786.982 516.597L786.359 516.522C786.238 516.552 786.162 516.658 786.101 516.81C787.406 534.394 789.091 553.025 799.682 567.12V567.09Z" fill="url(#paint44_linear_21_2920)"/>
<path d="M839.603 531.739C844.58 544.225 845.733 558.229 852.53 569.805C858.827 580.577 868.736 601.985 872.878 620.358C878.735 646.302 880.237 673.126 885.73 699.162C897.459 754.615 907.367 792.591 907.367 792.591L921.205 768.862L935.893 743.661C936.424 710.738 916.001 669.88 913.816 660.519C911.691 651.4 911.024 641.978 908.793 632.875C905.986 621.572 900.858 611.028 895.592 600.65C884.728 579.197 873.212 558.093 861.103 537.337C858.251 532.452 851.832 525.139 848.145 520.845C839.117 510.407 819.331 499.756 817.01 501.243C815.856 501.987 831.47 511.439 839.557 531.724L839.603 531.739Z" fill="url(#paint45_linear_21_2920)"/>
<path style="mix-blend-mode:multiply" opacity="0.2" d="M839.603 531.739C844.58 544.226 845.733 558.229 852.531 569.806C858.827 580.578 868.736 601.985 872.878 620.359C878.735 646.303 880.237 673.127 885.73 699.162C897.459 754.615 907.367 792.591 907.367 792.591L921.205 768.862C918.99 751.687 915.47 732.252 910.007 720.342C898.445 695.141 904.12 686.706 899.158 653.934C894.181 621.178 889.113 621.026 878.462 594.672C867.81 568.319 872.681 570.215 852.212 537.004C831.743 503.777 817.025 501.244 817.025 501.244C815.872 501.987 831.485 511.439 839.572 531.724L839.603 531.739Z" fill="url(#paint46_linear_21_2920)"/>
<path d="M865.124 769.013C865.124 769.013 762.34 614.639 655.687 642.282C599.803 656.771 630.863 709.19 717.169 727.048C803.475 744.89 832.426 775.75 832.426 775.75L865.124 769.013Z" fill="url(#paint47_linear_21_2920)"/>
<mask id="mask0_21_2920" style="mask-type:luminance" maskUnits="userSpaceOnUse" x="627" y="638" width="239" height="138">
<path d="M865.124 769.013C865.124 769.013 762.34 614.639 655.687 642.282C599.803 656.771 630.863 709.19 717.169 727.048C803.475 744.89 832.426 775.75 832.426 775.75L865.124 769.013Z" fill="white"/>
</mask>
<g mask="url(#mask0_21_2920)">
<path d="M863.592 772.822C863.592 772.822 760.808 618.447 654.154 646.09C598.271 660.579 629.33 712.999 715.636 730.856C801.943 748.698 830.893 779.558 830.893 779.558L863.592 772.822Z" fill="url(#paint48_linear_21_2920)"/>
<g style="mix-blend-mode:screen">
<path d="M849.359 779.664C840.756 770.88 832.562 761.685 823.474 753.386C814.385 745.087 805.038 737.258 795.266 729.9C780.229 718.567 764.313 708.341 747.546 699.769C737.183 694.474 726.47 689.77 715.424 686.114C700.281 681.092 684.47 677.966 668.736 675.493C659.889 674.113 650.998 673.02 642.167 671.564C635.081 670.411 627.95 669.03 621.213 666.466C619.695 665.89 618.193 665.252 616.721 664.554C614.961 663.72 616.494 661.11 618.254 661.945C624.52 664.903 631.318 666.542 638.101 667.801C646.491 669.364 654.973 670.411 663.41 671.64C680.525 674.143 697.702 677.284 714.21 682.533C724.589 685.826 734.664 690.074 744.451 694.838C760.838 702.833 776.421 712.437 791.185 723.133C800.592 729.946 809.696 737.213 818.451 744.86C827.859 753.068 836.553 761.867 845.141 770.91C847.25 773.14 849.374 775.355 851.514 777.54C852.879 778.936 850.74 781.075 849.374 779.679L849.359 779.664Z" fill="#209E44"/>
</g>
<g style="mix-blend-mode:color-burn" opacity="0.5">
<path d="M850.983 777.57C842.38 768.786 834.186 759.592 825.097 751.293C816.008 742.994 806.661 735.165 796.89 727.806C781.853 716.473 765.936 706.247 749.17 697.675C738.806 692.38 728.094 687.677 717.048 684.02C701.905 678.998 686.094 675.873 670.359 673.4C661.513 672.019 652.621 670.927 643.791 669.47C636.705 668.317 629.573 666.937 622.836 664.372C621.319 663.796 619.817 663.159 618.345 662.461C616.585 661.626 618.117 659.017 619.877 659.851C626.144 662.81 632.942 664.448 639.724 665.708C648.115 667.27 656.597 668.317 665.033 669.546C682.149 672.049 699.325 675.19 715.834 680.44C726.212 683.732 736.287 687.98 746.074 692.744C762.461 700.74 778.044 710.344 792.808 721.04C802.216 727.852 811.32 735.119 820.075 742.766C829.482 750.974 838.177 759.774 846.765 768.816C848.874 771.047 850.998 773.262 853.137 775.446C854.503 776.842 852.364 778.981 850.998 777.586L850.983 777.57Z" fill="#0D6B27"/>
</g>
<g style="mix-blend-mode:screen" opacity="0.5">
<path d="M654.989 618.826C654.989 618.826 668.144 702.773 688.871 736.91C702.102 758.696 667.37 735.392 667.37 735.392C667.37 735.392 631.713 641.068 634.247 623.878C636.78 606.689 654.989 618.826 654.989 618.826Z" fill="url(#paint49_linear_21_2920)"/>
<path d="M669.145 620.844C669.145 620.844 688.37 726.456 696.958 742.72C705.561 758.985 714.665 746.862 714.665 746.862C714.665 746.862 710.933 645.802 723.011 628.43C735.089 611.058 669.145 620.844 669.145 620.844Z" fill="url(#paint50_linear_21_2920)"/>
</g>
</g>
<path d="M883.924 782.638C883.924 782.638 879.342 597.237 774.388 563.737C719.384 546.183 717.7 607.098 781.17 668.226C844.64 729.354 852.682 770.895 852.682 770.895L883.924 782.638Z" fill="url(#paint51_linear_21_2920)"/>
<mask id="mask1_21_2920" style="mask-type:luminance" maskUnits="userSpaceOnUse" x="733" y="560" width="151" height="223">
<path d="M883.924 782.638C883.924 782.638 879.342 597.237 774.388 563.737C719.384 546.183 717.7 607.098 781.17 668.226C844.64 729.354 852.682 770.895 852.682 770.895L883.924 782.638Z" fill="white"/>
</mask>
<g mask="url(#mask1_21_2920)">
<path d="M880.601 785.035C880.601 785.035 876.019 599.634 771.065 566.134C716.061 548.58 714.377 609.495 777.847 670.623C841.317 731.751 849.359 773.292 849.359 773.292L880.601 785.035Z" fill="url(#paint52_linear_21_2920)"/>
<g style="mix-blend-mode:screen">
<path d="M864.942 783.305C862.181 770.485 859.965 757.574 856.415 744.935C853.259 733.678 849.617 722.557 845.46 711.633C838.905 694.383 831.03 677.587 821.622 661.687C815.781 651.81 809.347 642.237 802.094 633.331C792.216 621.193 780.791 610.284 769.062 599.952C762.082 593.808 754.875 587.921 747.895 581.776C742.372 576.906 736.97 571.839 732.479 565.982C731.447 564.647 730.491 563.266 729.581 561.84C728.534 560.187 731.144 558.669 732.19 560.308C736.029 566.346 741.082 571.49 746.332 576.314C752.857 582.322 759.745 587.921 766.467 593.701C779.349 604.777 791.928 616.444 802.838 629.492C809.787 637.806 816.008 646.712 821.683 655.922C830.954 670.972 838.768 686.888 845.414 703.258C849.648 713.696 853.395 724.332 856.688 735.089C860.481 747.5 863.334 760.032 865.868 772.746C866.52 776.008 867.173 779.254 867.871 782.501C868.28 784.398 865.367 785.202 864.957 783.305H864.942Z" fill="#209E44"/>
</g>
<g style="mix-blend-mode:color-burn" opacity="0.5">
<path d="M867.416 782.395C864.654 769.575 862.439 756.663 858.888 744.025C855.732 732.768 852.09 721.647 847.933 710.723C841.378 693.472 833.503 676.677 824.096 660.777C818.254 650.9 811.82 641.326 804.567 632.42C794.69 620.283 783.264 609.374 771.535 599.042C764.555 592.897 757.348 587.011 750.368 580.866C744.845 575.996 739.443 570.928 734.952 565.072C733.92 563.737 732.964 562.356 732.054 560.93C731.007 559.276 733.617 557.759 734.664 559.398C738.503 565.436 743.555 570.579 748.805 575.404C755.33 581.412 762.219 587.011 768.94 592.791C781.823 603.867 794.401 615.534 805.311 628.582C812.26 636.896 818.481 645.802 824.156 655.011C833.427 670.062 841.241 685.977 847.887 702.348C852.121 712.786 855.869 723.422 859.161 734.179C862.955 746.589 865.807 759.121 868.341 771.835C868.994 775.097 869.646 778.344 870.344 781.591C870.754 783.488 867.84 784.292 867.431 782.395H867.416Z" fill="#0D6B27"/>
</g>
<path style="mix-blend-mode:screen" opacity="0.5" d="M818.36 548.019C818.36 548.019 791.473 653.388 795.6 703.789C799.742 754.19 772.84 686.326 772.84 686.326C772.84 686.326 758.987 570.276 769.714 539.431C780.427 508.587 818.36 548.034 818.36 548.034V548.019Z" fill="url(#paint53_linear_21_2920)"/>
<path style="mix-blend-mode:screen" opacity="0.5" d="M752.25 526.566C752.25 526.566 750.505 635.288 766.209 683.368C781.914 731.448 740.02 671.655 740.02 671.655C740.02 671.655 699.659 561.977 702.936 529.479C706.214 496.98 752.25 526.566 752.25 526.566Z" fill="url(#paint54_linear_21_2920)"/>
</g>
<path style="mix-blend-mode:screen" opacity="0.3" d="M928.762 47.1467L341.841 763.036L660.041 759L949.063 46.7522L928.762 47.1467Z" fill="url(#paint55_linear_21_2920)"/>
<path style="mix-blend-mode:screen" opacity="0.3" d="M828.845 76.3071L-6.10352e-05 701.255V282.236L791.412 68.2205L828.845 76.3071Z" fill="url(#paint56_linear_21_2920)"/>
<path d="M1114.13 111.734C1036.37 138.77 944.754 121.11 882.604 67.1281C834.945 111.506 765.8 131.654 701.768 119.82C695.714 132.489 689.386 139.013 682.619 143.276C678.492 133.672 676.641 123.098 677.278 112.659C672.984 122.415 667.84 131.806 661.923 140.682C655.171 132.944 651.392 122.673 651.529 112.401C624.505 119.365 594.902 115.815 570.306 102.646C545.695 89.4764 526.333 66.8247 517.154 40.471C485.441 44.1881 472.787 31.1554 467.855 15.6041C465.185 7.18369 466.975 -4.87802 467.977 -13.6019C582.672 -11.5233 697.474 -14.7398 811.866 -23.2361C836.826 -25.0871 861.801 -27.196 886.837 -27.5449C920.371 -28.0153 953.858 -25.3147 987.285 -22.6292L1107.58 -12.9343" fill="url(#paint57_linear_21_2920)"/>
<path d="M378.317 -34.7061C371.808 -11.6143 348.714 2.66249 326.167 10.8705C301.51 19.8523 274.137 24.2674 249.056 16.56C252.333 26.7556 252.287 37.998 248.934 48.1632C242.091 39.9855 236.386 30.8672 232.031 21.1268C232.152 28.3486 230.726 35.6008 227.904 42.2461C223.473 36.5415 220.712 29.5472 220.074 22.3557C211.502 38.5138 195.554 50.5604 177.665 54.3989C159.775 58.2374 140.293 53.792 125.848 42.5799C129.626 48.9825 128.533 56.9629 126.88 64.2C121.478 60.8773 117.958 55.3851 115.697 46.0088C114.62 52.8362 112.374 60.407 107.625 66.3696C102.784 62.1973 100.235 54.7023 98.2323 45.6295C77.2324 59.8456 48.1147 60.9532 26.0829 48.3756C24.0952 53.8223 21.622 59.0718 18.7087 64.0786C14.0808 59.087 11.1828 52.5327 10.591 45.7509C3.96027 47.6777 -6.32733 49.0432 -12.685 44.2185C-16.2204 41.5331 -16.7515 36.496 -16.9791 32.0506C-18.0412 11.2043 -19.1033 -9.6268 -20.1806 -30.4731" fill="url(#paint58_linear_21_2920)"/>
<path d="M175.905 -13.3592C237.281 3.32997 303.088 49.2403 347.88 67.1129C373.31 77.2629 394.614 89.446 420.803 97.4113C435.202 101.781 448.13 114.1 462.044 119.835C470.723 123.401 574.372 107.743 621.607 102.979C671.679 97.912 736.985 94.1493 776.375 107.379C802.413 116.118 824.9 132.823 846.901 149.269C953.418 228.922 1059.94 308.56 1166.47 388.197L1166.29 349.357L1165.31 135.842C1112.71 120.67 1065.82 104.982 1017.92 78.416C981.17 58.0249 954.086 23.9183 919.749 -0.3113C913.71 -4.57462 907.367 -8.56485 900.342 -10.8255C889.038 -14.4364 736.363 -14.2392 671.042 -19.2307C691.496 -3.9374 711.949 11.3711 732.388 26.6645C668.645 32.1719 596.662 43.0502 530.567 49.3617C464.457 55.6884 398.665 44.4763 337.88 17.7585C311.236 6.04575 286.837 -10.7041 259.358 -20.3079C237.19 -28.0456 211.456 -30.3518 190.244 -21.5976C185.176 -19.519 180.351 -16.7881 175.905 -13.3592Z" fill="url(#paint59_linear_21_2920)"/>
<mask id="mask2_21_2920" style="mask-type:luminance" maskUnits="userSpaceOnUse" x="175" y="-28" width="992" height="417">
<path d="M175.905 -13.3592C237.281 3.32997 303.088 49.2403 347.88 67.1129C373.31 77.2629 394.614 89.446 420.803 97.4113C435.202 101.781 448.13 114.1 462.044 119.835C470.723 123.401 574.372 107.743 621.607 102.979C671.679 97.912 736.985 94.1493 776.375 107.379C802.413 116.118 824.9 132.823 846.901 149.269C953.418 228.922 1059.94 308.56 1166.47 388.197L1166.29 349.357L1165.31 135.842C1112.71 120.67 1065.82 104.982 1017.92 78.416C981.17 58.0249 954.086 23.9183 919.749 -0.3113C913.71 -4.57462 907.367 -8.56485 900.342 -10.8255C889.038 -14.4364 736.363 -14.2392 671.042 -19.2307C691.496 -3.9374 711.949 11.3711 732.388 26.6645C668.645 32.1719 596.662 43.0502 530.567 49.3617C464.457 55.6884 398.665 44.4763 337.88 17.7585C311.236 6.04575 286.837 -10.7041 259.358 -20.3079C237.19 -28.0456 211.456 -30.3518 190.244 -21.5976C185.176 -19.519 180.351 -16.7881 175.905 -13.3592Z" fill="white"/>
</mask>
<g mask="url(#mask2_21_2920)">
<g style="mix-blend-mode:multiply" opacity="0.18">
<path d="M1178.77 189.46C1141.64 174.485 1104.51 159.495 1067.39 144.52C1053.3 138.831 1039.18 133.141 1025.87 125.828C1015.04 119.866 1004.81 112.887 994.599 105.908C983.082 98.0334 971.55 90.1592 960.034 82.3001C941.447 69.6012 922.662 56.7354 907.731 39.9096C900.114 31.3375 892.922 21.3392 882.043 17.6524C885.457 24.8136 891.314 30.4879 897.034 35.9801C923.132 61.0442 949.23 86.0931 975.344 111.157C936.576 100.476 911.919 63.229 878.356 41.0779C864.426 31.8837 848.874 25.2839 835.278 15.6042C821.592 5.86377 810.091 -6.9262 801.836 -21.5671C828.435 -17.85 855.292 -15.9535 882.149 -15.8625C891.814 -15.8321 901.616 -16.0294 910.963 -13.5563C921.145 -10.8709 930.218 -5.15107 939.034 0.5991C963.827 16.7876 987.953 33.9926 1011.34 52.1534C1032.55 68.6302 1053.47 86.1083 1078.08 96.85C1110.08 110.823 1146.18 112.477 1178.94 124.524C1180.81 125.206 1182.79 126.026 1183.9 127.679C1184.78 129.015 1184.96 130.668 1185.13 132.261C1186.25 143.747 1187.36 155.232 1188.48 166.717" fill="url(#paint60_linear_21_2920)"/>
</g>
<g style="mix-blend-mode:screen" opacity="0.26">
<path d="M695.699 -29.2745L756.013 25.7239C756.013 25.7239 746.287 25.3901 732.388 26.6646C718.489 27.939 651.317 -21.5975 651.317 -21.5975L686.974 -35.3433" fill="#F3C040"/>
</g>
<path style="mix-blend-mode:multiply" opacity="0.18" d="M1185.56 259.251C1185.56 259.251 1161.16 246.461 1124.36 227.511C1085.29 207.408 1059.62 196.818 1030.79 180.493C1001.96 164.168 920.522 110.05 920.522 110.05C920.522 110.05 841.12 50.8789 824.43 37.7248C807.739 24.5707 772.84 -21.6127 772.84 -21.6127L715.682 -24.4802C715.682 -24.4802 745.528 -6.27387 768.789 19.0178C792.05 44.3095 838.586 87.2916 861.346 109.549C884.106 131.806 891.693 136.858 891.693 136.858C891.693 136.858 876.019 115.618 859.328 94.3769C842.638 73.1362 809.757 42.7923 809.757 42.7923C809.757 42.7923 848.707 76.6712 885.123 102.979C921.539 129.272 968.576 171.754 999.94 194.512C1031.3 217.27 1067.72 240.528 1067.72 240.528C1067.72 240.528 1003.49 181.358 984.766 169.22C984.766 169.22 1023.72 190.962 1058.1 214.736C1092.5 238.511 1182.52 304.251 1182.52 304.251L1185.56 259.235V259.251Z" fill="url(#paint61_linear_21_2920)"/>
<g style="mix-blend-mode:screen" opacity="0.26">
<path d="M175.905 -13.359C237.281 3.33012 303.088 49.2405 347.88 67.113C373.31 77.2631 394.614 89.4462 420.803 97.4115C435.202 101.781 448.13 114.101 462.044 119.836C470.723 123.401 574.372 107.744 621.607 102.98C671.679 97.9121 736.985 94.1495 776.375 107.379C802.413 116.118 824.9 132.823 846.901 149.269C953.418 228.922 1059.94 308.56 1166.47 388.197L1166.29 332.061C1089.54 272.89 993.188 208.531 905.061 140.075C945.68 189.46 1005.9 222.853 1046.9 273.755C983.097 226.206 919.278 178.657 855.474 131.108C839.33 119.092 823.079 106.985 805.038 98.079C761.308 76.4742 710.265 75.1239 661.786 80.5251C613.323 85.9415 565.587 97.639 516.911 100.613C468.22 103.571 416.873 96.8956 376.876 68.9792C376.876 68.9792 355.815 57.9644 312.571 36.7236C278.932 20.2013 216.372 -9.30812 190.244 -21.5974C185.176 -19.5189 180.351 -16.7879 175.905 -13.359Z" fill="#F3C040"/>
</g>
<g style="mix-blend-mode:screen" opacity="0.26">
<path d="M1175.94 379.701C1175.94 379.701 1157.73 361.919 1126.36 338.145C1095 314.37 1060.1 293.13 1041.39 278.474C1022.68 263.802 976.148 230.424 976.148 230.424C976.148 230.424 1000.93 253.182 1012.56 263.302C1024.2 273.421 1041.89 287.076 1041.89 287.076C1041.89 287.076 962.492 225.888 927.593 199.579C892.694 173.286 853.244 136.358 813.292 114.616C773.341 92.875 765.238 88.3234 735.407 86.8062C705.561 85.289 678.765 83.2711 647.402 86.8062L689.25 93.6336C689.25 93.6336 639.557 92.1164 599.727 97.4266C559.897 102.737 522.722 112.219 488.961 112.219C455.201 112.219 462.408 110.702 447.235 103.875C432.061 97.0473 390.532 85.9717 390.532 85.9717C390.532 85.9717 446.855 160.39 521.205 173.286C595.554 186.183 769.775 153.563 865.124 211.216C960.474 268.87 1166.47 406.935 1166.47 406.935L1175.94 379.716V379.701Z" fill="#F3C040"/>
</g>
<path style="mix-blend-mode:multiply" opacity="0.18" d="M749.822 35.2063C749.822 35.2063 735.908 31.0341 695.319 36.7235C654.731 42.413 613.762 46.9646 578.484 52.2748C543.206 57.585 496.928 62.1366 455.58 58.7229C414.233 55.3092 350.884 30.6548 350.884 30.6548C350.884 30.6548 380.093 47.3439 385.403 49.999C390.714 52.6541 354.677 46.206 334.193 30.6548C313.709 15.1035 278.81 -3.10286 273.12 -6.89585C267.43 -10.6888 246.946 -19.4127 246.946 -19.4127C246.946 -19.4127 248.464 -15.2404 254.533 -6.89585C260.602 1.44873 325.469 33.6892 346.332 44.6888C367.195 55.6885 401.335 66.3089 434.717 72.757C468.098 79.205 506.411 75.7914 539.792 76.1706C573.174 76.5499 609.969 69.7226 609.969 69.7226C609.969 69.7226 568.242 68.964 545.862 68.2054C545.862 68.2054 604.279 63.6538 651.696 57.9643C699.113 52.2748 734.33 43.5509 748.047 44.3095C775.617 45.8267 805.326 60.9987 805.326 60.9987C805.326 60.9987 778.348 38.4228 749.822 35.2063Z" fill="url(#paint62_linear_21_2920)"/>
<path style="mix-blend-mode:multiply" opacity="0.18" d="M877.597 134.006C877.597 134.006 841.757 98.9285 809.893 80.7222C778.029 62.5158 760.58 56.8263 735.544 54.5505C710.508 52.2747 678.264 57.9642 678.264 57.9642C678.264 57.9642 718.474 58.3435 736.303 62.5158C736.303 62.5158 687.49 61.9848 651.711 67.4467C612.139 73.4851 579.425 81.7387 546.575 85.3041C511.919 89.0667 462.605 90.2046 462.605 90.2046C462.605 90.2046 477.597 97.4113 541.689 92.1011C583.188 88.6571 622.866 78.0671 680.905 74.6534C738.943 71.2397 774.6 76.9292 795.646 84.5152C815.143 91.5398 877.582 134.006 877.582 134.006H877.597Z" fill="url(#paint63_linear_21_2920)"/>
</g>
<path d="M846.431 148.92C847.569 184.316 849.678 221.078 859.48 255.275C867.021 281.644 882.103 310.683 909.067 321.471C937.775 332.971 963.114 309.94 973.553 284.846C978.014 274.134 980.958 262.77 983.431 251.346C984.584 246.081 985.646 240.786 986.709 235.552C990.517 216.724 993.597 197.743 996.253 178.703C1001.18 143.413 1004.64 107.941 1008.06 72.4837C1008.18 71.3458 1008.29 70.2231 1008.39 69.0852C1008.63 66.6576 1004.84 66.688 1004.6 69.0852C1004.57 69.4341 1004.54 69.7831 1004.49 70.132C1000.85 107.925 997.239 145.734 991.807 183.315C988.681 204.996 985.586 227.435 980.488 249.146C978.196 258.871 975.511 268.445 972.233 277.73C966.923 292.765 958.319 307.073 944.132 315.205C928.822 324.004 912.238 321.274 898.384 311.078C875.033 293.903 864.639 264.849 859.085 237.509C853.365 209.411 851.332 180.463 850.33 151.833C849.192 150.983 848.039 150.119 846.901 149.269C846.75 149.148 846.583 149.041 846.431 148.92Z" fill="url(#paint64_linear_21_2920)"/>
<path d="M777.953 0.29562C779.122 38.2407 778.773 76.6713 772.521 114.207C769.229 134.036 764.343 154.701 753.889 172.118C748.775 180.614 741.902 188.777 732.691 192.949C722.252 197.683 708.748 197.819 698.248 193.313C682.968 186.744 673.712 169.6 667.673 155.034C652.075 117.423 647.994 76.201 644.974 35.9649H648.767C649.025 55.385 645.778 75.1693 642.653 94.2859C639.33 114.571 634.732 135.963 620.621 151.757C608.513 165.321 587.513 173.089 570.169 165.124C550.095 155.899 547.258 131.017 540.855 112.523H544.511C538.852 127.376 527.73 140.773 511.008 142.593C494.348 144.399 483.181 132.292 476.155 118.637C457.386 82.1635 458.069 39.5 458.858 -0.432634C458.903 -2.87532 462.697 -2.87532 462.651 -0.432634C461.999 32.4298 461.376 66.3392 471.694 97.9576C476.322 112.143 484.045 132.792 499.841 137.799C518.929 143.853 534.633 127.816 540.855 111.506C541.522 109.761 543.874 109.67 544.511 111.506C550.657 129.303 553.312 154.731 573.523 162.438C594.508 170.434 615.872 155.672 625.78 137.875C634.656 121.929 637.479 103.45 640.164 85.6379C642.622 69.2977 645.171 52.5327 644.959 35.9649C644.929 33.4919 648.57 33.5526 648.752 35.9649C651.286 69.7225 654.685 103.738 664.912 136.145C673.804 164.305 693.62 205.952 730.78 189.672C755.891 178.657 763.706 141.653 768.03 118.045C775.116 79.3719 775.359 39.4848 774.16 0.310792C774.084 -2.13189 777.878 -2.13189 777.953 0.310792V0.29562Z" fill="url(#paint65_linear_21_2920)"/>
<path d="M732.813 188.701C732.813 188.701 726.379 189.02 720.78 190.249C715.181 191.478 716.941 203.19 716.941 211.732C716.941 220.274 717.761 222.717 718.398 219.485C719.035 216.269 717.472 203.281 719.885 203.281C722.297 203.281 719.703 227.041 721.493 228.012C724.513 229.65 721.948 197.44 723.132 197.288C724.74 197.091 723.663 215.571 725.757 214.949C727.32 214.478 725.909 199.67 727.168 194.937C727.714 192.904 729.641 190.856 732.797 188.686L732.813 188.701Z" fill="url(#paint66_linear_21_2920)"/>
<path d="M774.615 100.036C774.615 100.036 776.118 154.868 773.462 154.868C770.139 154.868 772.203 102.843 772.203 102.843" fill="url(#paint67_linear_21_2920)"/>
<path d="M514.165 138.376C514.165 138.376 511.403 137.92 508.945 138.846C505.44 140.181 506.79 161.452 508.308 161.255C509.825 161.058 509.643 142.791 509.643 142.791C509.643 142.791 511.039 139.316 514.165 138.36V138.376Z" fill="url(#paint68_linear_21_2920)"/>
<path d="M12.791 685.856C10.8943 667.513 10.0143 640.871 14.7939 609.844C23.8979 550.674 77.384 549.156 77.384 549.156C45.52 596.19 43.244 667.119 43.244 667.119C86.488 583.673 168.424 580.001 168.424 580.001C75.108 660.412 43.244 767.253 43.244 767.253H-22.0015V612.499C-2.18509 631.859 7.87483 663.401 12.791 685.856Z" fill="url(#paint69_linear_21_2920)"/>
<path d="M12.791 688.45C10.8943 670.684 10.0143 644.892 14.7939 614.881C23.8979 557.607 77.384 549.156 77.384 549.156C45.52 594.688 43.244 670.32 43.244 670.32C86.488 589.544 168.424 580.001 168.424 580.001C75.108 657.833 43.244 767.253 43.244 767.253H-22.0015V617.446C-2.18509 636.183 7.87483 666.724 12.791 688.45Z" fill="url(#paint70_linear_21_2920)"/>
<path d="M646.036 0.371481C646.036 0.371481 640.346 20.884 623.064 27.5596C623.064 27.5596 613.125 13.2373 625.355 -8.41309L646.036 0.356308V0.371481Z" fill="url(#paint71_linear_21_2920)"/>
<path d="M1014.17 -8.51927C990.638 22.1281 947.015 35.6008 910.295 23.5543C908.657 23.0081 906.897 22.4164 905.228 22.8867C903.786 23.2812 902.132 24.0701 901.647 25.4811C898.779 33.7195 891.056 44.6888 880.222 47.7232C875.199 40.9868 873.804 31.7168 876.595 23.797C867.552 35.5098 852.743 42.5192 837.949 42.0792C823.155 41.6392 808.786 33.765 800.455 21.5364C801.533 33.0974 798.68 44.9922 792.489 54.8237C784.857 48.7701 780.32 33.0519 778.742 20.7778C778.348 31.4589 772.461 42.413 763.22 47.3439C756.513 39.3786 754.935 25.5114 753.995 17.1213C729.99 23.8274 706.229 33.6891 681.481 30.6396C656.749 27.59 631.788 12.1905 625.34 -11.8875L1014.17 -8.51927Z" fill="url(#paint72_linear_21_2920)"/>
<path d="M267.946 533.105C277.43 527.385 297.064 523.592 307.215 528.037C317.366 532.483 325.469 540.782 331.295 550.219C341.173 566.24 344.875 585.251 347.273 603.912C346.878 605.187 329.125 580.821 309.43 560.718C299.234 550.31 286.822 544.378 279.645 536.67C276.929 533.757 270.875 532.119 267.962 533.105H267.946Z" fill="url(#paint73_linear_21_2920)"/>
<path d="M267.946 533.105C277.43 527.385 297.064 523.592 307.215 528.037C317.366 532.483 325.469 540.782 331.295 550.219C341.173 566.24 344.875 585.251 347.273 603.912C346.878 605.187 329.125 580.821 309.43 560.718C299.234 550.31 286.822 544.378 279.645 536.67C276.929 533.757 270.875 532.119 267.962 533.105H267.946Z" fill="url(#paint74_linear_21_2920)"/>
<mask id="mask3_21_2920" style="mask-type:luminance" maskUnits="userSpaceOnUse" x="267" y="526" width="81" height="78">
<path d="M267.946 533.105C277.43 527.385 297.064 523.592 307.215 528.037C317.366 532.483 325.469 540.782 331.295 550.219C341.173 566.24 344.875 585.251 347.273 603.912C346.878 605.187 329.125 580.821 309.43 560.718C299.234 550.31 286.822 544.378 279.645 536.67C276.929 533.757 270.875 532.119 267.962 533.105H267.946Z" fill="white"/>
</mask>
<g mask="url(#mask3_21_2920)">
<path d="M266.399 534.045C275.882 528.326 295.516 524.533 305.667 528.978C315.818 533.423 323.921 541.722 329.747 551.159C339.625 567.181 343.328 586.191 345.725 604.853C345.331 606.127 327.578 581.761 307.883 561.658C297.686 551.25 285.274 545.318 278.097 537.611C275.381 534.698 269.327 533.059 266.414 534.045H266.399Z" fill="url(#paint75_linear_21_2920)"/>
<g style="mix-blend-mode:screen">
<path d="M282.498 524.017C293.923 526.672 303.604 535.138 311.464 543.422C321.994 554.497 330.734 567.348 338.078 580.714C342.448 588.664 346.302 596.888 349.594 605.338C350.034 606.476 348.213 606.962 347.773 605.839C342.099 591.274 334.709 577.346 325.878 564.45C318.079 553.056 309.005 541.92 297.808 533.681C293.043 530.177 287.778 527.157 281.982 525.822C280.798 525.549 281.299 523.713 282.482 524.002L282.498 524.017Z" fill="#209E44"/>
</g>
<g style="mix-blend-mode:color-burn" opacity="0.5">
<path d="M281.39 524.093C292.816 526.748 302.496 535.214 310.356 543.497C320.886 554.573 329.626 567.424 336.97 580.79C341.34 588.74 345.194 596.963 348.487 605.414C348.927 606.552 347.106 607.038 346.666 605.915C340.991 591.35 333.602 577.422 324.771 564.526C316.972 553.132 307.898 541.995 296.7 533.757C291.936 530.252 286.67 527.233 280.874 525.898C279.691 525.625 280.191 523.789 281.375 524.077L281.39 524.093Z" fill="#0D6B27"/>
</g>
<path style="mix-blend-mode:screen" opacity="0.5" d="M277.066 534.743C277.066 534.743 306.608 534.364 330.643 539.295L335.711 554.664C335.711 554.664 300.842 544.969 285.79 543.24C270.738 541.51 277.05 534.743 277.05 534.743H277.066Z" fill="url(#paint76_linear_21_2920)"/>
<path style="mix-blend-mode:screen" opacity="0.5" d="M294.758 547.29C294.758 547.29 324.391 553.708 337.152 558.138L343.1 566.073C343.1 566.073 308.232 556.378 293.18 554.649C278.128 552.919 294.758 547.275 294.758 547.275V547.29Z" fill="url(#paint77_linear_21_2920)"/>
</g>
<path d="M423.155 641.159C423.155 641.159 388.939 601.621 261.482 614.259C134.026 626.897 22.76 732.6 22.76 732.6L45.5048 772.533C45.5048 772.533 240.392 644.285 423.155 641.159Z" fill="url(#paint78_linear_21_2920)"/>
<path d="M-68.6292 791.559C-63.455 807.019 -59.0396 818.231 -52.8944 830.141C18.4508 787.887 94.1507 740.809 172.111 712.559C254.882 682.564 340.399 671.154 423.155 641.159C383.81 618.599 323.435 642.752 278.097 641.645C232.759 640.552 202.306 613.91 158.44 625.456C154.616 626.473 150.778 627.535 146.984 628.673C153.357 646.803 165.223 678.057 176.739 695.278C176.739 695.278 144.89 657.621 130.582 633.922C54.4723 660.048 -11.2283 735.832 -68.614 791.559H-68.6292Z" fill="url(#paint79_linear_21_2920)"/>
<mask id="mask4_21_2920" style="mask-type:luminance" maskUnits="userSpaceOnUse" x="-69" y="622" width="493" height="209">
<path d="M-68.6292 791.559C-63.455 807.019 -59.0396 818.231 -52.8944 830.141C18.4508 787.887 94.1507 740.809 172.111 712.559C254.882 682.564 340.399 671.154 423.155 641.159C383.81 618.599 323.435 642.752 278.097 641.645C232.759 640.552 202.306 613.91 158.44 625.456C154.616 626.473 150.778 627.535 146.984 628.673C153.357 646.803 165.223 678.057 176.739 695.278C176.739 695.278 144.89 657.621 130.582 633.922C54.4723 660.048 -11.2283 735.832 -68.614 791.559H-68.6292Z" fill="white"/>
</mask>
<g mask="url(#mask4_21_2920)">
<path d="M-68.6292 796.111C-63.455 811.571 -59.0396 822.783 -52.8944 834.693C18.4508 792.439 94.1507 745.36 172.111 717.11C254.882 687.115 340.399 675.706 423.155 645.711C383.81 623.15 323.435 647.304 278.097 646.196C232.759 645.104 202.306 618.462 158.44 630.008C154.616 631.024 150.778 632.086 146.984 633.224C153.357 651.355 165.223 682.609 176.739 699.829C176.739 699.829 144.89 662.172 130.582 638.474C54.4723 664.6 -11.2283 740.384 -68.614 796.111H-68.6292Z" fill="url(#paint80_linear_21_2920)"/>
<path style="mix-blend-mode:screen" opacity="0.3" d="M79.2807 642.085C79.2807 642.085 118.731 717.565 154.768 733.617L131.507 745.755C131.507 745.755 100.144 708.842 83.4534 679.499C83.4534 679.499 101.661 745.755 112.784 765.979L99.6283 775.082C99.6283 775.082 66.2468 720.964 55.1248 698.206C55.1248 698.206 72.3162 756.815 81.9361 772.518L67.7793 778.617C67.7793 778.617 38.95 714.895 36.9319 678.983C34.9139 643.071 79.2959 642.07 79.2959 642.07L79.2807 642.085Z" fill="url(#paint81_linear_21_2920)"/>
<path style="mix-blend-mode:screen" opacity="0.3" d="M326.227 630.448C326.227 630.448 328.761 663.326 331.538 677.223L315.105 681.775C315.105 681.775 309.537 659.517 305.743 644.103L309.279 683.292L290.57 689.361C290.57 689.361 280.707 654.207 279.448 635.5" fill="url(#paint82_linear_21_2920)"/>
<path style="mix-blend-mode:screen" opacity="0.3" d="M210.91 616.672C210.91 616.672 235.187 683.808 246.567 702.014C257.947 720.22 235.946 704.29 235.946 704.29C235.946 704.29 199.15 660.67 187.77 620.465" fill="url(#paint83_linear_21_2920)"/>
<path style="mix-blend-mode:screen" opacity="0.3" d="M-7.89022 715.79C-7.89022 715.79 16.3872 782.926 27.7672 801.133C39.1472 819.339 17.1458 803.408 17.1458 803.408C17.1458 803.408 -19.6496 759.789 -31.0296 719.583" fill="url(#paint84_linear_21_2920)"/>
</g>
<path d="M-15.8412 138.816C12.1689 178.126 70.4043 151.09 94.3934 121.717C114.528 97.0624 123.632 64.4275 126.637 33.2188C127.744 21.7336 128.169 10.0512 127.213 -1.4643C126.895 -6.36484 134.39 -6.28898 134.8 -1.4643C136.044 17.4855 141.962 39.8338 152.841 55.4761C159.32 64.7765 169.714 70.7998 180.563 64.3517C191.639 57.767 195.842 42.8075 198.27 31.034C200.44 20.5199 201.866 9.04987 200.971 -1.73739C200.622 -6.62277 208.163 -6.56208 208.558 -1.73739C210.288 22.7957 216.797 47.8598 225.37 70.8149C237.114 102.266 256.293 129.257 290.145 138.527C316.744 145.81 345.012 142.457 367.908 126.754C390.259 111.415 403.733 86.6696 411.137 61.1504C417.586 38.9386 419.923 15.7407 419.953 -7.33585C419.953 -12.2212 427.54 -12.2212 427.54 -7.33585C427.479 40.9262 417.51 97.2748 377.528 129.015C355.132 146.796 327.487 152.713 299.492 148.283C264.912 142.821 239.906 120.791 225.188 89.7799C216.66 71.8011 210.045 52.0624 205.796 32.0202C203.141 45.5081 198.225 60.9835 186.632 69.4039C160.337 88.5054 141.522 55.112 134.663 33.9926C129.793 88.3386 103.391 143.974 49.374 161.27C23.6552 169.509 -5.73569 166.004 -22.3657 142.654C-25.2031 138.664 -18.633 134.871 -15.8108 138.831L-15.8412 138.816Z" fill="url(#paint85_linear_21_2920)"/>
<path d="M326.849 141.713C326.849 141.713 331.796 144.384 332.737 155.186C333.677 165.989 333.526 187.245 330.901 188.489C330.036 188.898 329.763 176.032 329.201 164.881C328.776 156.445 327.942 148.996 327.942 148.996C327.942 148.996 325.18 142.047 321.008 142.138C321.008 142.138 323.496 140.5 326.849 141.713Z" fill="url(#paint86_linear_21_2920)"/>
<path d="M25.6125 158.403C25.6125 158.403 26.1891 160.056 26.447 170.95C26.705 181.798 27.2361 203.008 24.6111 204.252C23.7462 204.662 23.4731 191.796 22.9117 180.645C22.4868 172.209 21.6067 165.245 21.6067 165.245C21.6067 165.245 18.8755 157.811 14.718 157.902C14.718 157.902 20.666 155.368 25.6277 158.403H25.6125Z" fill="url(#paint87_linear_21_2920)"/>
<path d="M173.872 63.2743C173.872 63.2743 181.382 57.9489 184.402 62.015C185.57 63.5929 185.509 97.9271 183.856 98.807C182.217 99.687 182.975 76.6256 181.322 75.9277C180.73 75.6698 179.47 77.7029 179.455 91.7369C179.425 105.771 178.924 111.46 177.028 110.58C175.965 110.08 176.148 100.188 175.859 91.1756C175.632 84.1509 174.858 77.627 174.676 76.7622C174.296 74.9567 173.538 76.7622 173.477 78.598C173.447 79.5387 172.87 87.9591 172.218 88.3384C171.55 88.7177 170.7 86.1536 170.321 79.5235C169.942 72.8933 168.697 67.128 166.679 66.4149C166.679 66.4149 168.576 63.0164 173.856 63.3046L173.872 63.2743Z" fill="url(#paint88_linear_21_2920)"/>
<path d="M-25.2789 404.386C-8.96751 384.632 13.0793 370.476 35.6421 358.323C85.8356 331.287 140.475 312.519 196.707 303.006C182.171 318.831 165.405 332.592 147.03 343.743C146.241 344.229 145.361 344.714 144.435 344.593C143.646 344.487 142.994 343.94 142.387 343.409C138.138 339.677 133.89 335.945 129.641 332.212C133.283 339.237 136.909 346.262 140.551 353.286C128.609 365.12 114.726 374.982 99.6283 382.386C94.3934 374.648 89.1586 366.926 83.9086 359.188C85.1831 367.123 86.4729 375.058 87.7475 382.978C88.0965 385.132 88.4151 387.484 87.3075 389.365C86.5943 390.579 85.3956 391.414 84.2424 392.187C52.4239 413.474 15.0367 426.385 -23.1395 429.283" fill="url(#paint89_linear_21_2920)"/>
<path d="M173.856 227.496C163.023 233.382 153.843 242.258 147.591 252.878C143.585 259.675 140.778 267.125 136.788 273.952C131.629 282.782 124.604 290.353 117.609 297.803C85.4867 332.046 52.1205 366.001 11.7897 390.048C9.45299 373.207 12.8821 355.85 19.9226 340.375C26.963 324.9 37.4933 311.199 49.4348 299.092C54.9275 293.539 60.7389 288.29 67.0662 283.723C73.0294 279.414 79.4325 275.727 85.6384 271.783C95.2128 265.714 104.438 258.962 112.374 250.86C115.317 247.856 118.109 244.64 121.614 242.304C128.837 237.479 137.971 236.978 146.453 235.082C156.134 232.927 165.253 228.816 174.296 224.734" fill="url(#paint90_linear_21_2920)"/>
<path d="M-57.6588 436.505C-51.8474 411.137 -33.0932 368.474 -17.5405 347.612C37.2505 274.119 118.944 221.169 208.406 201.142C196.465 208.546 196.556 226.024 188.317 237.403C181.322 247.068 169.107 251.331 160.246 259.327C152.887 265.972 148.001 275.303 146.726 285.119C134.906 274.392 120.659 266.351 105.364 261.754C116.683 271.692 126.485 283.359 134.345 296.21C119.126 311.488 103.907 326.766 88.7034 342.029C87.5958 343.136 86.3061 344.32 84.7432 344.244C83.4838 344.183 82.4368 343.303 81.4809 342.469L46.8098 311.837C55.2614 325.067 63.7129 338.312 72.1644 351.542C72.9231 352.74 73.7274 354.045 73.6363 355.456C73.5453 356.852 72.6045 358.035 71.6941 359.113C57.6739 375.741 41.4081 390.473 23.4732 402.777C0.0910339 418.829 -26.7507 431.392 -43.8814 453.998" fill="url(#paint91_linear_21_2920)"/>
<mask id="mask5_21_2920" style="mask-type:luminance" maskUnits="userSpaceOnUse" x="-58" y="201" width="267" height="253">
<path d="M-57.6588 436.505C-51.8474 411.137 -33.0932 368.474 -17.5405 347.612C37.2505 274.119 118.944 221.169 208.406 201.142C196.465 208.546 196.556 226.024 188.317 237.403C181.322 247.068 169.107 251.331 160.246 259.327C152.887 265.972 148.001 275.303 146.726 285.119C134.906 274.392 120.659 266.351 105.364 261.754C116.683 271.692 126.485 283.359 134.345 296.21C119.126 311.488 103.907 326.766 88.7034 342.029C87.5958 343.136 86.3061 344.32 84.7432 344.244C83.4838 344.183 82.4368 343.303 81.4809 342.469L46.8098 311.837C55.2614 325.067 63.7129 338.312 72.1644 351.542C72.9231 352.74 73.7274 354.045 73.6363 355.456C73.5453 356.852 72.6045 358.035 71.6941 359.113C57.6739 375.741 41.4081 390.473 23.4732 402.777C0.0910339 418.829 -26.7507 431.392 -43.8814 453.998" fill="white"/>
</mask>
<g mask="url(#mask5_21_2920)">
<path d="M-54.6242 438.022C-48.8128 412.654 -30.0585 369.991 -14.5058 349.129C40.2852 275.636 121.979 222.686 211.441 202.659C199.499 210.063 199.59 227.541 191.351 238.92C184.356 248.585 172.142 252.848 163.28 260.844C155.921 267.489 151.036 276.82 149.761 286.636C137.941 275.91 123.693 267.868 108.398 263.271C119.718 273.209 129.52 284.876 137.38 297.727C122.161 313.005 106.942 328.283 91.7381 343.546C90.6305 344.654 89.3407 345.837 87.7779 345.761C86.5185 345.701 85.4715 344.821 84.5156 343.986L49.8445 313.354C58.296 326.584 66.7476 339.829 75.1991 353.059C75.9578 354.258 76.762 355.562 76.671 356.973C76.5799 358.369 75.6391 359.553 74.7287 360.63C60.7085 377.258 44.4428 391.99 26.5078 404.295C3.12569 420.347 -23.716 432.909 -40.8467 455.515" fill="url(#paint92_linear_21_2920)"/>
<g style="mix-blend-mode:screen" opacity="0.3">
<path d="M192.96 241.545C192.96 241.545 163.371 222.838 138.335 217.528L121.205 225.812C121.205 225.812 168.424 249.146 179.804 261.284L183.416 253.121C183.416 253.121 162.552 237.009 148.137 229.605C148.137 229.605 174.873 243.077 187.012 251.604C199.15 260.131 192.96 241.56 192.96 241.56V241.545Z" fill="url(#paint93_linear_21_2920)"/>
<path d="M165.39 275.682C165.39 275.682 125.939 238.693 110.386 233.58L105.652 236.038C105.652 236.038 152.432 278.701 157.879 286.864C163.311 295.026 165.405 275.667 165.405 275.667L165.39 275.682Z" fill="url(#paint94_linear_21_2920)"/>
<path d="M63.1666 262.786C63.1666 262.786 107.928 295.405 122.343 317.981L115.697 324.232C115.697 324.232 87.9751 295.785 75.3812 287.637C75.3812 287.637 104.135 316.843 113.239 328.981L104.317 338.084C104.317 338.084 68.4773 291.81 42.8647 277.578C42.8647 277.578 92.0567 328.92 101.024 339.966L95.3948 345.321C95.3948 345.321 49.8748 295.588 31.6667 285.544C13.4587 275.5 63.1514 262.786 63.1514 262.786H63.1666Z" fill="url(#paint95_linear_21_2920)"/>
<path d="M-19.0274 344.972C-19.0274 344.972 25.734 377.592 40.1487 400.168L33.5179 406.419C33.5179 406.419 5.79619 377.971 -6.7977 369.824C-6.7977 369.824 21.9558 399.03 31.0599 411.167L22.1531 420.271C22.1531 420.271 -13.6864 373.996 -39.299 359.765C-39.299 359.765 9.89296 411.107 18.8604 422.152L13.2312 427.508C13.2312 427.508 -32.2889 377.774 -50.497 367.73C-68.705 357.686 -19.0122 344.972 -19.0122 344.972H-19.0274Z" fill="url(#paint96_linear_21_2920)"/>
<path d="M8.34528 310.957C8.34528 310.957 55.2006 351.542 66.7627 374.861L60.6934 379.686C60.6934 379.686 20.666 334.276 -1.51741 322.32L8.34528 310.942V310.957Z" fill="url(#paint97_linear_21_2920)"/>
<path d="M131.507 309.318C131.507 309.318 93.5741 266.336 72.5893 254.441L69.5547 256.975C69.5547 256.975 109.263 293.888 126.455 313.612" fill="url(#paint98_linear_21_2920)"/>
<path d="M52.864 384.161C52.864 384.161 14.9305 341.179 -6.05424 329.284L-9.08891 331.818C-9.08891 331.818 30.6198 368.731 47.8112 388.455" fill="url(#paint99_linear_21_2920)"/>
</g>
</g>
<path d="M649.739 114.252C649.739 114.252 651.317 119.502 645.566 120.382C645.566 120.382 644.686 114.95 649.739 114.252Z" fill="url(#paint100_linear_21_2920)"/>
<path d="M547.667 137.071C547.667 137.071 550.201 145.491 540.976 146.917C540.976 146.917 539.565 138.194 547.667 137.071Z" fill="url(#paint101_linear_21_2920)"/>
<path d="M515.105 42.3219C515.105 42.3219 519.445 56.7201 503.665 59.1476C503.665 59.1476 501.252 44.2336 515.105 42.3219Z" fill="url(#paint102_linear_21_2920)"/>
<path d="M135.331 52.032C135.331 52.032 149.852 55.9615 143.57 70.6328C143.57 70.6328 129.641 64.8068 135.331 52.032Z" fill="url(#paint103_linear_21_2920)"/>
<path d="M256.506 24.0549C256.506 24.0549 271.027 27.9845 264.745 42.6558C264.745 42.6558 250.816 36.8297 256.506 24.0549Z" fill="url(#paint104_linear_21_2920)"/>
<path d="M303.938 214.251C303.938 214.251 301.813 199.367 317.791 199.352C317.791 199.352 317.927 214.463 303.938 214.251Z" fill="url(#paint105_linear_21_2920)"/>
<g opacity="0.5">
<path opacity="0.3" d="M255.17 92.359C255.17 94.7258 257.097 96.6526 259.464 96.6526C261.832 96.6526 263.759 94.7258 263.759 92.359C263.759 89.9921 261.832 88.0653 259.464 88.0653C257.097 88.0653 255.17 89.9921 255.17 92.359Z" fill="url(#paint106_linear_21_2920)"/>
<path d="M762.719 193.495C762.719 194.891 763.857 196.029 765.253 196.029C766.649 196.029 767.787 194.891 767.787 193.495C767.787 192.099 766.649 190.962 765.253 190.962C763.857 190.962 762.719 192.099 762.719 193.495Z" fill="url(#paint107_linear_21_2920)"/>
<path d="M220.014 131.29C220.014 132.686 221.152 133.824 222.548 133.824C223.944 133.824 225.082 132.686 225.082 131.29C225.082 129.894 223.944 128.757 222.548 128.757C221.152 128.757 220.014 129.894 220.014 131.29Z" fill="url(#paint108_linear_21_2920)"/>
<path d="M13.4133 270.372C13.4133 271.767 14.5513 272.905 15.9472 272.905C17.3432 272.905 18.4811 271.767 18.4811 270.372C18.4811 268.976 17.3432 267.838 15.9472 267.838C14.5513 267.838 13.4133 268.976 13.4133 270.372Z" fill="url(#paint109_linear_21_2920)"/>
<path d="M47.7961 69.3433C47.7961 70.7391 48.934 71.877 50.33 71.877C51.7259 71.877 52.864 70.7391 52.864 69.3433C52.864 67.9475 51.7259 66.8096 50.33 66.8096C48.934 66.8096 47.7961 67.9475 47.7961 69.3433Z" fill="url(#paint110_linear_21_2920)"/>
<path opacity="0.5" d="M526.516 359.886C526.516 361.282 527.654 362.42 529.05 362.42C530.446 362.42 531.584 361.282 531.584 359.886C531.584 358.49 530.446 357.353 529.05 357.353C527.654 357.353 526.516 358.49 526.516 359.886Z" fill="url(#paint111_linear_21_2920)"/>
<path opacity="0.5" d="M299.674 354.834C299.674 356.23 300.812 357.368 302.208 357.368C303.604 357.368 304.742 356.23 304.742 354.834C304.742 353.438 303.604 352.3 302.208 352.3C300.812 352.3 299.674 353.438 299.674 354.834Z" fill="url(#paint112_linear_21_2920)"/>
<path opacity="0.5" d="M782.187 507.312C780.787 507.312 779.653 506.178 779.653 504.779C779.653 503.379 780.787 502.245 782.187 502.245C783.586 502.245 784.721 503.379 784.721 504.779C784.721 506.178 783.586 507.312 782.187 507.312Z" fill="url(#paint113_linear_21_2920)"/>
<path opacity="0.5" d="M18.4659 535.881C18.4659 537.277 19.604 538.415 20.9999 538.415C22.3959 538.415 23.5339 537.277 23.5339 535.881C23.5339 534.485 22.3959 533.347 20.9999 533.347C19.604 533.347 18.4659 534.485 18.4659 535.881Z" fill="url(#paint114_linear_21_2920)"/>
<path opacity="0.5" d="M186.132 390.23C186.132 391.626 187.27 392.764 188.666 392.764C190.062 392.764 191.2 391.626 191.2 390.23C191.2 388.834 190.062 387.697 188.666 387.697C187.27 387.697 186.132 388.834 186.132 390.23Z" fill="url(#paint115_linear_21_2920)"/>
<path d="M388.438 522.226C388.438 523.622 389.576 524.76 390.972 524.76C392.368 524.76 393.506 523.622 393.506 522.226C393.506 520.83 392.368 519.693 390.972 519.693C389.576 519.693 388.438 520.83 388.438 522.226Z" fill="url(#paint116_linear_21_2920)"/>
<path d="M97.3674 201.84C95.2724 201.84 93.574 200.142 93.574 198.047C93.574 195.952 95.2724 194.254 97.3674 194.254C99.4624 194.254 101.161 195.952 101.161 198.047C101.161 200.142 99.4624 201.84 97.3674 201.84Z" fill="url(#paint117_linear_21_2920)"/>
<path d="M170.458 364.938C170.458 366.334 171.596 367.472 172.992 367.472C174.387 367.472 175.525 366.334 175.525 364.938C175.525 363.543 174.387 362.405 172.992 362.405C171.596 362.405 170.458 363.543 170.458 364.938Z" fill="url(#paint118_linear_21_2920)"/>
</g>
<defs>
<linearGradient id="paint0_linear_21_2920" x1="531.629" y1="-9.55103" x2="531.629" y2="211.353" gradientUnits="userSpaceOnUse">
<stop stop-color="#548843"/>
<stop offset="1" stop-color="#94D072"/>
</linearGradient>
<linearGradient id="paint1_linear_21_2920" x1="561.991" y1="585.948" x2="561.991" y2="279.171" gradientUnits="userSpaceOnUse">
<stop stop-color="#5E8D47"/>
<stop offset="1" stop-color="#A8DC8A"/>
</linearGradient>
<linearGradient id="paint2_linear_21_2920" x1="167.089" y1="579.88" x2="167.089" y2="45.8267" gradientUnits="userSpaceOnUse">
<stop stop-color="#458647"/>
<stop offset="1" stop-color="#9CD57E"/>
</linearGradient>
<linearGradient id="paint3_linear_21_2920" x1="327.062" y1="560.035" x2="345.266" y2="91.7217" gradientUnits="userSpaceOnUse">
<stop stop-color="#6B9347"/>
<stop offset="1" stop-color="#94CB7C"/>
</linearGradient>
<linearGradient id="paint4_linear_21_2920" x1="635.688" y1="560.035" x2="617.483" y2="91.7217" gradientUnits="userSpaceOnUse">
<stop stop-color="#5E8D47"/>
<stop offset="1" stop-color="#A8DC8A"/>
</linearGradient>
<linearGradient id="paint5_linear_21_2920" x1="926.106" y1="523.971" x2="911.467" y2="292.765" gradientUnits="userSpaceOnUse">
<stop stop-color="#548843"/>
<stop offset="1" stop-color="#94C185"/>
</linearGradient>
<linearGradient id="paint6_linear_21_2920" x1="205.857" y1="473.676" x2="241.205" y2="231.409" gradientUnits="userSpaceOnUse">
<stop stop-color="#548843"/>
<stop offset="1" stop-color="#94C185"/>
</linearGradient>
<linearGradient id="paint7_linear_21_2920" x1="297.99" y1="495.19" x2="286.263" y2="310.061" gradientUnits="userSpaceOnUse">
<stop stop-color="#133D11"/>
<stop offset="1" stop-color="#89C647"/>
</linearGradient>
<linearGradient id="paint8_linear_21_2920" x1="547.759" y1="522.632" x2="509.48" y2="377.44" gradientUnits="userSpaceOnUse">
<stop stop-color="#458647"/>
<stop offset="1" stop-color="#9CD57E"/>
</linearGradient>
<linearGradient id="paint9_linear_21_2920" x1="599.94" y1="595.901" x2="655.574" y2="528.138" gradientUnits="userSpaceOnUse">
<stop stop-color="#548843"/>
<stop offset="1" stop-color="#94C185"/>
</linearGradient>
<linearGradient id="paint10_linear_21_2920" x1="850.604" y1="442.801" x2="816.925" y2="294.706" gradientUnits="userSpaceOnUse">
<stop stop-color="#458647"/>
<stop offset="1" stop-color="#9CD57E"/>
</linearGradient>
<linearGradient id="paint11_linear_21_2920" x1="155.223" y1="499.347" x2="117.297" y2="352.177" gradientUnits="userSpaceOnUse">
<stop stop-color="#133D11"/>
<stop offset="1" stop-color="#89C647"/>
</linearGradient>
<linearGradient id="paint12_linear_21_2920" x1="473.576" y1="562.751" x2="425.03" y2="10.4904" gradientUnits="userSpaceOnUse">
<stop stop-color="#5E8D47"/>
<stop offset="1" stop-color="#A8DC8A"/>
</linearGradient>
<linearGradient id="paint13_linear_21_2920" x1="812.018" y1="500.864" x2="688.492" y2="316.014" gradientUnits="userSpaceOnUse">
<stop stop-color="#133D11"/>
<stop offset="1" stop-color="#89C647"/>
</linearGradient>
<linearGradient id="paint14_linear_21_2920" x1="912.116" y1="561.673" x2="912.116" y2="102.843" gradientUnits="userSpaceOnUse">
<stop stop-color="#133D11"/>
<stop offset="1" stop-color="#349838"/>
</linearGradient>
<linearGradient id="paint15_linear_21_2920" x1="137.031" y1="576.663" x2="355.475" y2="-77.7612" gradientUnits="userSpaceOnUse">
<stop stop-color="#133D11"/>
<stop offset="1" stop-color="#349838"/>
</linearGradient>
<linearGradient id="paint16_linear_21_2920" x1="670.283" y1="-35.3433" x2="670.283" y2="-35.3433" gradientUnits="userSpaceOnUse">
<stop stop-color="#458647"/>
<stop offset="1" stop-color="#9CD57E"/>
</linearGradient>
<linearGradient id="paint17_linear_21_2920" x1="550.083" y1="99.0004" x2="551.097" y2="95.9417" gradientUnits="userSpaceOnUse">
<stop stop-color="#133D11"/>
<stop offset="1" stop-color="#349838"/>
</linearGradient>
<linearGradient id="paint18_linear_21_2920" x1="75.0321" y1="549.612" x2="75.0321" y2="-30.5794" gradientUnits="userSpaceOnUse">
<stop stop-color="#458647"/>
<stop offset="1" stop-color="#9CD57E"/>
</linearGradient>
<linearGradient id="paint19_linear_21_2920" x1="188.741" y1="624.319" x2="188.741" y2="361.328" gradientUnits="userSpaceOnUse">
<stop stop-color="#367211"/>
<stop offset="1" stop-color="#A9FF00"/>
</linearGradient>
<linearGradient id="paint20_linear_21_2920" x1="186.951" y1="624.364" x2="186.951" y2="360.827" gradientUnits="userSpaceOnUse">
<stop stop-color="#133D11"/>
<stop offset="1" stop-color="#89C647"/>
</linearGradient>
<linearGradient id="paint21_linear_21_2920" x1="906.457" y1="534.925" x2="862.462" y2="237.538" gradientUnits="userSpaceOnUse">
<stop stop-color="#245411"/>
<stop offset="1" stop-color="#89C647"/>
</linearGradient>
<linearGradient id="paint22_linear_21_2920" x1="905.501" y1="528.447" x2="862.386" y2="237.098" gradientUnits="userSpaceOnUse">
<stop stop-color="#367211"/>
<stop offset="1" stop-color="#A9FF00"/>
</linearGradient>
<linearGradient id="paint23_linear_21_2920" x1="909.78" y1="534.789" x2="868.045" y2="252.65" gradientUnits="userSpaceOnUse">
<stop stop-color="#245411"/>
<stop offset="1" stop-color="#89C647"/>
</linearGradient>
<linearGradient id="paint24_linear_21_2920" x1="420.166" y1="612.697" x2="518.024" y2="501.933" gradientUnits="userSpaceOnUse">
<stop stop-color="#367211"/>
<stop offset="1" stop-color="#FFFF00"/>
</linearGradient>
<linearGradient id="paint25_linear_21_2920" x1="252.136" y1="424.625" x2="252.136" y2="580.76" gradientUnits="userSpaceOnUse">
<stop stop-color="#367211"/>
<stop offset="1" stop-color="#2C4700"/>
</linearGradient>
<linearGradient id="paint26_linear_21_2920" x1="231.105" y1="584.659" x2="275.359" y2="441.539" gradientUnits="userSpaceOnUse">
<stop stop-color="#367211"/>
<stop offset="1" stop-color="#A6DB47"/>
</linearGradient>
<linearGradient id="paint27_linear_21_2920" x1="809.59" y1="356.882" x2="809.59" y2="90.2501" gradientUnits="userSpaceOnUse">
<stop stop-color="#315247"/>
<stop offset="1" stop-color="#133D11"/>
</linearGradient>
<linearGradient id="paint28_linear_21_2920" x1="439.527" y1="157.431" x2="439.527" y2="-7.47256" gradientUnits="userSpaceOnUse">
<stop stop-color="#315247"/>
<stop offset="1" stop-color="#133D11"/>
</linearGradient>
<linearGradient id="paint29_linear_21_2920" x1="33.4268" y1="292.371" x2="33.4268" y2="33.7497" gradientUnits="userSpaceOnUse">
<stop stop-color="#315247"/>
<stop offset="1" stop-color="#133D11"/>
</linearGradient>
<linearGradient id="paint30_linear_21_2920" x1="50.0265" y1="207.271" x2="50.0265" y2="47.1617" gradientUnits="userSpaceOnUse">
<stop stop-color="#315247"/>
<stop offset="1" stop-color="#133D11"/>
</linearGradient>
<linearGradient id="paint31_linear_21_2920" x1="275.624" y1="585.797" x2="275.472" y2="531.724" gradientUnits="userSpaceOnUse">
<stop stop-color="#367211"/>
<stop offset="1" stop-color="#2C4700"/>
</linearGradient>
<linearGradient id="paint32_linear_21_2920" x1="250.194" y1="543.619" x2="310.857" y2="543.619" gradientUnits="userSpaceOnUse">
<stop stop-color="#367211"/>
<stop offset="1" stop-color="#2C4700"/>
</linearGradient>
<linearGradient id="paint33_linear_21_2920" x1="570.518" y1="782.638" x2="570.518" y2="536.154" gradientUnits="userSpaceOnUse">
<stop stop-color="#367211"/>
<stop offset="1" stop-color="#FFFF00"/>
</linearGradient>
<linearGradient id="paint34_linear_21_2920" x1="570.518" y1="792.12" x2="570.518" y2="504.688" gradientUnits="userSpaceOnUse">
<stop stop-color="#133D11"/>
<stop offset="1" stop-color="#89C647"/>
</linearGradient>
<linearGradient id="paint35_linear_21_2920" x1="345.528" y1="858.058" x2="381.179" y2="676.312" gradientUnits="userSpaceOnUse">
<stop stop-color="#133D11"/>
<stop offset="1" stop-color="#89C647"/>
</linearGradient>
<linearGradient id="paint36_linear_21_2920" x1="451.347" y1="766.404" x2="492.808" y2="555.012" gradientUnits="userSpaceOnUse">
<stop stop-color="#133D11"/>
<stop offset="1" stop-color="#89C647"/>
</linearGradient>
<linearGradient id="paint37_linear_21_2920" x1="645.414" y1="632.147" x2="693.961" y2="761.112" gradientUnits="userSpaceOnUse">
<stop stop-color="#367211"/>
<stop offset="1" stop-color="#152E00"/>
</linearGradient>
<linearGradient id="paint38_linear_21_2920" x1="721.797" y1="657.438" x2="583.726" y2="741.411" gradientUnits="userSpaceOnUse">
<stop stop-color="#367211"/>
<stop offset="1" stop-color="#152E00"/>
</linearGradient>
<linearGradient id="paint39_linear_21_2920" x1="704.545" y1="664.979" x2="581.753" y2="739.65" gradientUnits="userSpaceOnUse">
<stop stop-color="#367211"/>
<stop offset="1" stop-color="#152E00"/>
</linearGradient>
<linearGradient id="paint40_linear_21_2920" x1="341.841" y1="730.719" x2="29.3908" y2="730.719" gradientUnits="userSpaceOnUse">
<stop stop-color="#003B11"/>
<stop offset="1" stop-color="#004214"/>
</linearGradient>
<linearGradient id="paint41_linear_21_2920" x1="774.039" y1="742.129" x2="722.67" y2="624.892" gradientUnits="userSpaceOnUse">
<stop stop-color="#2C3600"/>
<stop offset="1" stop-color="#367211"/>
</linearGradient>
<linearGradient id="paint42_linear_21_2920" x1="886.458" y1="505.249" x2="1066.85" y2="787.22" gradientUnits="userSpaceOnUse">
<stop stop-color="#367211"/>
<stop offset="1" stop-color="#004214"/>
</linearGradient>
<linearGradient id="paint43_linear_21_2920" x1="858.522" y1="684.747" x2="799.226" y2="512.061" gradientUnits="userSpaceOnUse">
<stop stop-color="#2C4700"/>
<stop offset="1" stop-color="#367211"/>
</linearGradient>
<linearGradient id="paint44_linear_21_2920" x1="851.612" y1="686.585" x2="792.483" y2="514.403" gradientUnits="userSpaceOnUse">
<stop stop-color="#2C4700"/>
<stop offset="1" stop-color="#367211"/>
</linearGradient>
<linearGradient id="paint45_linear_21_2920" x1="946.953" y1="657.662" x2="799.346" y2="638.699" gradientUnits="userSpaceOnUse">
<stop stop-color="#2C4700"/>
<stop offset="1" stop-color="#367211"/>
</linearGradient>
<linearGradient id="paint46_linear_21_2920" x1="912.833" y1="768.448" x2="850.793" y2="548.876" gradientUnits="userSpaceOnUse">
<stop stop-color="#2C4700"/>
<stop offset="1" stop-color="#367211"/>
</linearGradient>
<linearGradient id="paint47_linear_21_2920" x1="848.281" y1="687.487" x2="640.03" y2="730.39" gradientUnits="userSpaceOnUse">
<stop stop-color="#367211"/>
<stop offset="1" stop-color="#A9FF00"/>
</linearGradient>
<linearGradient id="paint48_linear_21_2920" x1="834.14" y1="788.873" x2="666.476" y2="655.726" gradientUnits="userSpaceOnUse">
<stop stop-color="#245411"/>
<stop offset="1" stop-color="#89C647"/>
</linearGradient>
<linearGradient id="paint49_linear_21_2920" x1="662.924" y1="710.055" x2="663.273" y2="592.321" gradientUnits="userSpaceOnUse">
<stop stop-color="#367211"/>
<stop offset="1" stop-color="#A6DB47"/>
</linearGradient>
<linearGradient id="paint50_linear_21_2920" x1="696.548" y1="714.637" x2="696.897" y2="595.385" gradientUnits="userSpaceOnUse">
<stop stop-color="#367211"/>
<stop offset="1" stop-color="#A6DB47"/>
</linearGradient>
<linearGradient id="paint51_linear_21_2920" x1="913.208" y1="704.674" x2="714.184" y2="629.858" gradientUnits="userSpaceOnUse">
<stop stop-color="#367211"/>
<stop offset="1" stop-color="#A9FF00"/>
</linearGradient>
<linearGradient id="paint52_linear_21_2920" x1="847.162" y1="782.871" x2="776.373" y2="580.834" gradientUnits="userSpaceOnUse">
<stop stop-color="#245411"/>
<stop offset="1" stop-color="#89C647"/>
</linearGradient>
<linearGradient id="paint53_linear_21_2920" x1="791.685" y1="668.939" x2="792.201" y2="494.462" gradientUnits="userSpaceOnUse">
<stop stop-color="#367211"/>
<stop offset="1" stop-color="#A6DB47"/>
</linearGradient>
<linearGradient id="paint54_linear_21_2920" x1="754.381" y1="650.369" x2="714.436" y2="480.523" gradientUnits="userSpaceOnUse">
<stop stop-color="#367211"/>
<stop offset="1" stop-color="#A6DB47"/>
</linearGradient>
<linearGradient id="paint55_linear_21_2920" x1="410.652" y1="879.691" x2="984.988" y2="124.203" gradientUnits="userSpaceOnUse">
<stop stop-color="#0E4B56" stop-opacity="0"/>
<stop offset="0.03" stop-color="#195356" stop-opacity="0.05"/>
<stop offset="0.25" stop-color="#5E875C" stop-opacity="0.33"/>
<stop offset="0.44" stop-color="#97B160" stop-opacity="0.57"/>
<stop offset="0.62" stop-color="#C4D363" stop-opacity="0.76"/>
<stop offset="0.78" stop-color="#E4EB66" stop-opacity="0.89"/>
<stop offset="0.91" stop-color="#F7F967" stop-opacity="0.97"/>
<stop offset="1" stop-color="#FFFF68"/>
</linearGradient>
<linearGradient id="paint56_linear_21_2920" x1="-37.1444" y1="512.334" x2="786.733" y2="55.5935" gradientUnits="userSpaceOnUse">
<stop stop-color="#0E4B56" stop-opacity="0"/>
<stop offset="0.03" stop-color="#195356" stop-opacity="0.05"/>
<stop offset="0.25" stop-color="#5E875C" stop-opacity="0.33"/>
<stop offset="0.44" stop-color="#97B160" stop-opacity="0.57"/>
<stop offset="0.62" stop-color="#C4D363" stop-opacity="0.76"/>
<stop offset="0.78" stop-color="#E4EB66" stop-opacity="0.89"/>
<stop offset="0.91" stop-color="#F7F967" stop-opacity="0.97"/>
<stop offset="1" stop-color="#FFFF68"/>
</linearGradient>
<linearGradient id="paint57_linear_21_2920" x1="1114.13" y1="57.8429" x2="466.444" y2="57.8429" gradientUnits="userSpaceOnUse">
<stop stop-color="#367211"/>
<stop offset="1" stop-color="#004214"/>
</linearGradient>
<linearGradient id="paint58_linear_21_2920" x1="378.317" y1="15.8469" x2="-20.1502" y2="15.8469" gradientUnits="userSpaceOnUse">
<stop stop-color="#367211"/>
<stop offset="1" stop-color="#004214"/>
</linearGradient>
<linearGradient id="paint59_linear_21_2920" x1="895.562" y1="-87.1253" x2="722.62" y2="124.539" gradientUnits="userSpaceOnUse">
<stop stop-color="#4D3F10"/>
<stop offset="0.99" stop-color="#7F6C42"/>
</linearGradient>
<linearGradient id="paint60_linear_21_2920" x1="1188.47" y1="83.9235" x2="801.821" y2="83.9235" gradientUnits="userSpaceOnUse">
<stop stop-color="#4D3F10"/>
<stop offset="0.99" stop-color="#7F6C42"/>
</linearGradient>
<linearGradient id="paint61_linear_21_2920" x1="1185.56" y1="139.893" x2="715.682" y2="139.893" gradientUnits="userSpaceOnUse">
<stop stop-color="#4D3F10"/>
<stop offset="0.99" stop-color="#7F6C42"/>
</linearGradient>
<linearGradient id="paint62_linear_21_2920" x1="805.326" y1="28.6672" x2="246.946" y2="28.6672" gradientUnits="userSpaceOnUse">
<stop stop-color="#4D3F10"/>
<stop offset="0.99" stop-color="#7F6C42"/>
</linearGradient>
<linearGradient id="paint63_linear_21_2920" x1="744.026" y1="21.6577" x2="666.013" y2="117.127" gradientUnits="userSpaceOnUse">
<stop stop-color="#4D3F10"/>
<stop offset="0.99" stop-color="#7F6C42"/>
</linearGradient>
<linearGradient id="paint64_linear_21_2920" x1="1050.03" y1="140.075" x2="856.47" y2="257.764" gradientUnits="userSpaceOnUse">
<stop stop-color="#367211"/>
<stop offset="1" stop-color="#155900"/>
</linearGradient>
<linearGradient id="paint65_linear_21_2920" x1="770.124" y1="-10.1124" x2="499.445" y2="154.495" gradientUnits="userSpaceOnUse">
<stop stop-color="#367211"/>
<stop offset="1" stop-color="#155900"/>
</linearGradient>
<linearGradient id="paint66_linear_21_2920" x1="735.741" y1="190.901" x2="722.997" y2="206.499" gradientUnits="userSpaceOnUse">
<stop stop-color="#367211"/>
<stop offset="1" stop-color="#155900"/>
</linearGradient>
<linearGradient id="paint67_linear_21_2920" x1="787.816" y1="110.611" x2="773.145" y2="128.546" gradientUnits="userSpaceOnUse">
<stop stop-color="#367211"/>
<stop offset="1" stop-color="#155900"/>
</linearGradient>
<linearGradient id="paint68_linear_21_2920" x1="516.577" y1="140.242" x2="509.31" y2="149.148" gradientUnits="userSpaceOnUse">
<stop stop-color="#367211"/>
<stop offset="1" stop-color="#155900"/>
</linearGradient>
<linearGradient id="paint69_linear_21_2920" x1="73.4845" y1="767.162" x2="72.8625" y2="549.172" gradientUnits="userSpaceOnUse">
<stop stop-color="#2C4700"/>
<stop offset="1" stop-color="#367211"/>
</linearGradient>
<linearGradient id="paint70_linear_21_2920" x1="73.4845" y1="767.162" x2="72.8625" y2="549.172" gradientUnits="userSpaceOnUse">
<stop stop-color="#367211"/>
<stop offset="1" stop-color="#2C4700"/>
</linearGradient>
<linearGradient id="paint71_linear_21_2920" x1="635.896" y1="-5.45836" x2="623.979" y2="27.0324" gradientUnits="userSpaceOnUse">
<stop stop-color="#002511"/>
<stop offset="1" stop-color="#004214"/>
</linearGradient>
<linearGradient id="paint72_linear_21_2920" x1="819.756" y1="-11.3261" x2="819.756" y2="51.8955" gradientUnits="userSpaceOnUse">
<stop stop-color="#003B11"/>
<stop offset="1" stop-color="#004214"/>
</linearGradient>
<linearGradient id="paint73_linear_21_2920" x1="307.701" y1="604.064" x2="307.488" y2="526.05" gradientUnits="userSpaceOnUse">
<stop stop-color="#367211"/>
<stop offset="1" stop-color="#A6DB47"/>
</linearGradient>
<linearGradient id="paint74_linear_21_2920" x1="330.294" y1="597.1" x2="295.703" y2="534.468" gradientUnits="userSpaceOnUse">
<stop stop-color="#367211"/>
<stop offset="1" stop-color="#A9FF00"/>
</linearGradient>
<linearGradient id="paint75_linear_21_2920" x1="306.168" y1="605.02" x2="305.941" y2="527.006" gradientUnits="userSpaceOnUse">
<stop stop-color="#367211"/>
<stop offset="1" stop-color="#A6DB47"/>
</linearGradient>
<linearGradient id="paint76_linear_21_2920" x1="275.745" y1="544.696" x2="335.726" y2="544.696" gradientUnits="userSpaceOnUse">
<stop stop-color="#367211"/>
<stop offset="1" stop-color="#A6DB47"/>
</linearGradient>
<linearGradient id="paint77_linear_21_2920" x1="286.868" y1="556.682" x2="343.1" y2="556.682" gradientUnits="userSpaceOnUse">
<stop stop-color="#367211"/>
<stop offset="1" stop-color="#A6DB47"/>
</linearGradient>
<linearGradient id="paint78_linear_21_2920" x1="223.215" y1="772.017" x2="222.745" y2="612.029" gradientUnits="userSpaceOnUse">
<stop stop-color="#367211"/>
<stop offset="1" stop-color="#2C4700"/>
</linearGradient>
<linearGradient id="paint79_linear_21_2920" x1="190.013" y1="785.933" x2="160.644" y2="624.867" gradientUnits="userSpaceOnUse">
<stop stop-color="#367211"/>
<stop offset="1" stop-color="#FFFF00"/>
</linearGradient>
<linearGradient id="paint80_linear_21_2920" x1="190.014" y1="790.496" x2="160.643" y2="629.415" gradientUnits="userSpaceOnUse">
<stop stop-color="#245411"/>
<stop offset="1" stop-color="#89C647"/>
</linearGradient>
<linearGradient id="paint81_linear_21_2920" x1="96.0322" y1="778.557" x2="95.6377" y2="642.039" gradientUnits="userSpaceOnUse">
<stop stop-color="#367211"/>
<stop offset="1" stop-color="#A6DB47"/>
</linearGradient>
<linearGradient id="paint82_linear_21_2920" x1="305.591" y1="689.33" x2="305.425" y2="630.509" gradientUnits="userSpaceOnUse">
<stop stop-color="#367211"/>
<stop offset="1" stop-color="#A6DB47"/>
</linearGradient>
<linearGradient id="paint83_linear_21_2920" x1="218.936" y1="710.829" x2="218.663" y2="616.657" gradientUnits="userSpaceOnUse">
<stop stop-color="#367211"/>
<stop offset="1" stop-color="#A6DB47"/>
</linearGradient>
<linearGradient id="paint84_linear_21_2920" x1="0.13649" y1="809.948" x2="-0.13658" y2="715.775" gradientUnits="userSpaceOnUse">
<stop stop-color="#367211"/>
<stop offset="1" stop-color="#A6DB47"/>
</linearGradient>
<linearGradient id="paint85_linear_21_2920" x1="202.23" y1="162.742" x2="202.23" y2="-7.33585" gradientUnits="userSpaceOnUse">
<stop stop-color="#365511"/>
<stop offset="1" stop-color="#154700"/>
</linearGradient>
<linearGradient id="paint86_linear_21_2920" x1="327.138" y1="187.821" x2="327.138" y2="142.244" gradientUnits="userSpaceOnUse">
<stop stop-color="#365511"/>
<stop offset="1" stop-color="#154700"/>
</linearGradient>
<linearGradient id="paint87_linear_21_2920" x1="20.6812" y1="203.585" x2="20.6812" y2="157.887" gradientUnits="userSpaceOnUse">
<stop stop-color="#365511"/>
<stop offset="1" stop-color="#154700"/>
</linearGradient>
<linearGradient id="paint88_linear_21_2920" x1="175.95" y1="109.928" x2="175.95" y2="61.5295" gradientUnits="userSpaceOnUse">
<stop stop-color="#365511"/>
<stop offset="1" stop-color="#154700"/>
</linearGradient>
<linearGradient id="paint89_linear_21_2920" x1="196.692" y1="366.137" x2="-25.2789" y2="366.137" gradientUnits="userSpaceOnUse">
<stop stop-color="#367211"/>
<stop offset="1" stop-color="#2C4700"/>
</linearGradient>
<linearGradient id="paint90_linear_21_2920" x1="101.479" y1="273.224" x2="74.5509" y2="335.81" gradientUnits="userSpaceOnUse">
<stop stop-color="#367211"/>
<stop offset="1" stop-color="#2C4700"/>
</linearGradient>
<linearGradient id="paint91_linear_21_2920" x1="-37.8879" y1="400.062" x2="103.214" y2="287.792" gradientUnits="userSpaceOnUse">
<stop stop-color="#367211"/>
<stop offset="1" stop-color="#FFFF00"/>
</linearGradient>
<linearGradient id="paint92_linear_21_2920" x1="-16.9639" y1="399.819" x2="190.892" y2="191.944" gradientUnits="userSpaceOnUse">
<stop stop-color="#245411"/>
<stop offset="1" stop-color="#89C647"/>
</linearGradient>
<linearGradient id="paint93_linear_21_2920" x1="194.538" y1="239.391" x2="121.205" y2="239.391" gradientUnits="userSpaceOnUse">
<stop stop-color="#367211"/>
<stop offset="1" stop-color="#A6DB47"/>
</linearGradient>
<linearGradient id="paint94_linear_21_2920" x1="165.39" y1="261.223" x2="105.652" y2="261.223" gradientUnits="userSpaceOnUse">
<stop stop-color="#367211"/>
<stop offset="1" stop-color="#A6DB47"/>
</linearGradient>
<linearGradient id="paint95_linear_21_2920" x1="122.343" y1="304.054" x2="27.6609" y2="304.054" gradientUnits="userSpaceOnUse">
<stop stop-color="#367211"/>
<stop offset="1" stop-color="#A6DB47"/>
</linearGradient>
<linearGradient id="paint96_linear_21_2920" x1="40.1487" y1="386.24" x2="-54.5179" y2="386.24" gradientUnits="userSpaceOnUse">
<stop stop-color="#367211"/>
<stop offset="1" stop-color="#A6DB47"/>
</linearGradient>
<linearGradient id="paint97_linear_21_2920" x1="66.7627" y1="345.321" x2="-1.51741" y2="345.321" gradientUnits="userSpaceOnUse">
<stop stop-color="#367211"/>
<stop offset="1" stop-color="#A6DB47"/>
</linearGradient>
<linearGradient id="paint98_linear_21_2920" x1="131.507" y1="284.026" x2="69.5547" y2="284.026" gradientUnits="userSpaceOnUse">
<stop stop-color="#367211"/>
<stop offset="1" stop-color="#A6DB47"/>
</linearGradient>
<linearGradient id="paint99_linear_21_2920" x1="52.864" y1="358.87" x2="-9.10408" y2="358.87" gradientUnits="userSpaceOnUse">
<stop stop-color="#367211"/>
<stop offset="1" stop-color="#A6DB47"/>
</linearGradient>
<linearGradient id="paint100_linear_21_2920" x1="643.396" y1="122.081" x2="649.662" y2="115.253" gradientUnits="userSpaceOnUse">
<stop stop-color="#367211"/>
<stop offset="1" stop-color="#004214"/>
</linearGradient>
<linearGradient id="paint101_linear_21_2920" x1="540.536" y1="147.312" x2="547.924" y2="137.449" gradientUnits="userSpaceOnUse">
<stop stop-color="#367211"/>
<stop offset="1" stop-color="#004214"/>
</linearGradient>
<linearGradient id="paint102_linear_21_2920" x1="502.906" y1="59.8455" x2="515.544" y2="42.9883" gradientUnits="userSpaceOnUse">
<stop stop-color="#367211"/>
<stop offset="1" stop-color="#004214"/>
</linearGradient>
<linearGradient id="paint103_linear_21_2920" x1="143.704" y1="71.6448" x2="136.08" y2="52.0048" gradientUnits="userSpaceOnUse">
<stop stop-color="#367211"/>
<stop offset="1" stop-color="#004214"/>
</linearGradient>
<linearGradient id="paint104_linear_21_2920" x1="264.889" y1="43.6677" x2="257.265" y2="24.0276" gradientUnits="userSpaceOnUse">
<stop stop-color="#367211"/>
<stop offset="1" stop-color="#004214"/>
</linearGradient>
<linearGradient id="paint105_linear_21_2920" x1="318.642" y1="198.746" x2="303.585" y2="213.495" gradientUnits="userSpaceOnUse">
<stop stop-color="#367211"/>
<stop offset="1" stop-color="#004214"/>
</linearGradient>
<linearGradient id="paint106_linear_21_2920" x1="264.957" y1="86.8667" x2="248.101" y2="103.724" gradientUnits="userSpaceOnUse">
<stop stop-color="#458647"/>
<stop offset="1" stop-color="#9CD57E"/>
</linearGradient>
<linearGradient id="paint107_linear_21_2920" x1="768.47" y1="190.279" x2="758.563" y2="200.187" gradientUnits="userSpaceOnUse">
<stop stop-color="#458647"/>
<stop offset="1" stop-color="#9CD57E"/>
</linearGradient>
<linearGradient id="paint108_linear_21_2920" x1="225.764" y1="128.074" x2="215.857" y2="137.982" gradientUnits="userSpaceOnUse">
<stop stop-color="#458647"/>
<stop offset="1" stop-color="#9CD57E"/>
</linearGradient>
<linearGradient id="paint109_linear_21_2920" x1="19.1639" y1="267.14" x2="9.24148" y2="277.063" gradientUnits="userSpaceOnUse">
<stop stop-color="#458647"/>
<stop offset="1" stop-color="#9CD57E"/>
</linearGradient>
<linearGradient id="paint110_linear_21_2920" x1="53.5468" y1="66.1117" x2="43.6395" y2="76.0351" gradientUnits="userSpaceOnUse">
<stop stop-color="#458647"/>
<stop offset="1" stop-color="#9CD57E"/>
</linearGradient>
<linearGradient id="paint111_linear_21_2920" x1="532.266" y1="356.655" x2="522.359" y2="366.578" gradientUnits="userSpaceOnUse">
<stop stop-color="#458647"/>
<stop offset="1" stop-color="#9CD57E"/>
</linearGradient>
<linearGradient id="paint112_linear_21_2920" x1="305.425" y1="351.602" x2="295.517" y2="361.526" gradientUnits="userSpaceOnUse">
<stop stop-color="#458647"/>
<stop offset="1" stop-color="#9CD57E"/>
</linearGradient>
<linearGradient id="paint113_linear_21_2920" x1="785.419" y1="501.547" x2="775.496" y2="511.47" gradientUnits="userSpaceOnUse">
<stop stop-color="#458647"/>
<stop offset="1" stop-color="#9CD57E"/>
</linearGradient>
<linearGradient id="paint114_linear_21_2920" x1="24.2167" y1="532.649" x2="14.3093" y2="542.573" gradientUnits="userSpaceOnUse">
<stop stop-color="#458647"/>
<stop offset="1" stop-color="#9CD57E"/>
</linearGradient>
<linearGradient id="paint115_linear_21_2920" x1="191.882" y1="386.999" x2="181.975" y2="396.922" gradientUnits="userSpaceOnUse">
<stop stop-color="#458647"/>
<stop offset="1" stop-color="#9CD57E"/>
</linearGradient>
<linearGradient id="paint116_linear_21_2920" x1="394.189" y1="518.995" x2="384.281" y2="528.918" gradientUnits="userSpaceOnUse">
<stop stop-color="#458647"/>
<stop offset="1" stop-color="#9CD57E"/>
</linearGradient>
<linearGradient id="paint117_linear_21_2920" x1="102.208" y1="193.222" x2="87.3391" y2="208.092" gradientUnits="userSpaceOnUse">
<stop stop-color="#458647"/>
<stop offset="1" stop-color="#9CD57E"/>
</linearGradient>
<linearGradient id="paint118_linear_21_2920" x1="176.208" y1="361.722" x2="166.286" y2="371.63" gradientUnits="userSpaceOnUse">
<stop stop-color="#458647"/>
<stop offset="1" stop-color="#9CD57E"/>
</linearGradient>
</defs>
</svg>
