<svg width="90" height="90" viewBox="0 0 90 90" fill="none" xmlns="http://www.w3.org/2000/svg">
<g clip-path="url(#clip0_25_3239)">
<path d="M73.8303 27.8021C73.9076 27.8793 73.9401 27.9688 73.9433 28.0549C73.9464 28.1409 73.915 28.2257 73.8851 28.3067C73.8516 28.3861 73.8105 28.4623 73.7796 28.525C73.7551 28.5726 73.7252 28.6536 73.6964 28.7217L73.5205 29.1376L73.326 29.5457C73.2593 29.6824 73.1868 29.8122 73.1127 29.9458L72.9987 30.1428C72.9587 30.2061 72.9187 30.2694 72.875 30.3312C72.7114 30.5829 72.5232 30.8198 72.3346 31.0476C71.9423 31.4969 71.5175 31.919 71.0262 32.2595C70.7853 32.434 70.5268 32.5876 70.2699 32.7375C70.1378 32.8109 70.0072 32.8805 69.8766 32.9501C69.8132 32.9857 69.7344 33.0058 69.6416 33.0067C69.5505 33.0039 69.4461 32.9909 69.3113 32.925C69.2916 32.774 69.3038 32.6722 69.3278 32.5843C69.3518 32.4963 69.3859 32.4261 69.4339 32.375C69.5277 32.2676 69.6194 32.1548 69.7132 32.0474C69.8987 31.8272 70.0767 31.6038 70.2627 31.3927C70.6304 30.9599 71.0264 30.5746 71.4256 30.1818C71.6233 29.9846 71.8269 29.7943 72.0268 29.6024L72.6541 29.0342L72.9701 28.7444L73.2744 28.4407C73.324 28.3859 73.3762 28.3455 73.4285 28.274C73.478 28.2192 73.5137 28.1764 73.5489 28.1244C73.5862 28.0777 73.6049 28.0232 73.6454 27.969C73.6859 27.9148 73.7429 27.8632 73.8319 27.7983L73.8303 27.8021Z" fill="black"/>
<path d="M73.7285 28.2715C73.6795 28.2107 73.6475 28.1615 73.623 28.1155C73.5985 28.0694 73.5798 28.0304 73.5665 27.9891C73.5553 27.9531 73.5458 27.9134 73.5399 27.8753C73.5378 27.8387 73.5394 27.8037 73.541 27.7688C73.5442 27.6988 73.5437 27.6272 73.5394 27.5541L73.5341 27.3379C73.5171 27.0454 73.4948 26.7552 73.4687 26.4633C73.415 25.8834 73.3666 25.3013 73.3075 24.7235C73.2447 24.1442 73.1569 23.5722 73.0888 22.9951L72.9892 22.1283C72.9717 21.9827 72.9541 21.8371 72.9365 21.6915C72.9232 21.619 72.9387 21.5408 72.9734 21.4485C73.0133 21.354 73.0677 21.2566 73.1839 21.1274C73.3539 21.1414 73.4562 21.1802 73.5484 21.2326C73.6331 21.2818 73.6949 21.3436 73.7354 21.4142C73.8073 21.556 73.8739 21.7001 73.9458 21.8419C74.072 22.136 74.1892 22.4308 74.276 22.735C74.4497 23.3433 74.5316 23.9708 74.579 24.5971C74.621 25.2255 74.614 25.8556 74.5217 26.4896C74.4801 26.8063 74.4054 27.118 74.3217 27.4303C74.3009 27.5107 74.2727 27.5879 74.2481 27.6666C74.2236 27.7454 74.1991 27.8242 74.1671 27.8998C74.1335 27.9792 74.1069 28.0527 74.0381 28.1216C74.0019 28.1554 73.9582 28.1859 73.9123 28.2111C73.8612 28.2385 73.8079 28.2605 73.7375 28.2709L73.7285 28.2715Z" fill="black"/>
<path d="M75.9262 34.5636C75.8185 34.5894 75.7423 34.5929 75.6768 34.5919C75.6128 34.5871 75.559 34.5688 75.4988 34.5656C75.4402 34.5587 75.3821 34.5609 75.3112 34.5621C75.2217 34.5554 75.1588 34.569 75.0864 34.574L74.6627 34.6088L74.2401 34.6618L73.4078 34.7689C73.1312 34.7991 72.8584 34.8308 72.5813 34.8518C72.0292 34.8991 71.4846 34.9496 70.9224 34.9481C70.6442 34.9508 70.3618 34.9428 70.0778 34.9386C69.9376 34.9373 69.7937 34.9343 69.652 34.9368C69.5811 34.938 69.5055 34.9194 69.425 34.8809C69.3461 34.8387 69.2609 34.7803 69.1634 34.6678C69.2039 34.52 69.2625 34.4333 69.3201 34.3596C69.3798 34.2912 69.4443 34.2427 69.5173 34.2156C69.6558 34.1584 69.7965 34.1064 69.9335 34.0529C70.2133 33.9528 70.4968 33.8543 70.784 33.7885C71.359 33.635 71.951 33.5867 72.542 33.5826C72.8388 33.5878 73.134 33.5967 73.4292 33.6369C73.5044 33.6464 73.5758 33.6543 73.6493 33.6675L73.8683 33.7111C74.0154 33.7377 74.1609 33.768 74.3053 33.8112L74.738 33.9318L75.1626 34.0713C75.2292 34.0906 75.3076 34.1237 75.3609 34.1329C75.4291 34.1483 75.5138 34.1663 75.5937 34.1957C75.672 34.2288 75.7536 34.2544 75.8154 34.3162C75.8772 34.378 75.9219 34.4593 75.9267 34.5728L75.9262 34.5636Z" fill="black"/>
<path d="M75.5127 34.3353C75.5681 34.2874 75.6193 34.26 75.6726 34.238C75.7259 34.2159 75.7744 34.2052 75.825 34.1999C75.9209 34.1914 75.9971 34.2192 76.0733 34.247C76.1511 34.271 76.2257 34.3025 76.2987 34.3378C76.3733 34.3694 76.4479 34.4009 76.5225 34.4325C76.8107 34.5722 77.0889 34.7255 77.35 34.8984C77.8775 35.2418 78.3506 35.6514 78.7859 36.0985C79.2212 36.5456 79.6309 37.022 79.9692 37.5529C80.1392 37.8165 80.2814 38.1039 80.4146 38.3921C80.4742 38.5421 80.5408 38.6862 80.5967 38.8346C80.6212 38.9119 80.6282 38.9995 80.6084 39.0981C80.5871 39.2005 80.5498 39.3096 80.4485 39.445C80.2743 39.4516 80.1656 39.4279 80.0728 39.3976C79.9833 39.3597 79.9157 39.3222 79.8688 39.2667C79.775 39.1557 79.6759 39.047 79.5821 38.936L79.0025 38.2896C78.6226 37.8571 78.255 37.4163 77.8697 36.9859C77.4776 36.5615 77.0839 36.1409 76.688 35.715C76.4903 35.5066 76.2905 35.2928 76.086 35.0904L75.9282 34.9434C75.8744 34.8939 75.8243 34.846 75.7673 34.804C75.7423 34.7801 75.7103 34.7621 75.6869 34.7344C75.6618 34.7104 75.6379 34.6735 75.6176 34.6382C75.5974 34.6029 75.5787 34.5638 75.5612 34.5118C75.542 34.4636 75.526 34.4078 75.5159 34.3277L75.5127 34.3353Z" fill="black"/>
<path d="M67.059 41.8993C64.347 43.0613 61.0786 41.4116 59.7575 38.2139C58.4365 35.0163 59.564 31.4769 62.276 30.3148C64.988 29.1528 69.2184 30.3892 70.5378 33.5906C71.8573 36.792 69.771 40.7372 67.0611 41.9046L67.059 41.8993Z" fill="url(#paint0_linear_25_3239)"/>
<path d="M65.0417 32.9556C63.0845 32.3329 62.5528 31.1675 62.9122 30.058C63.2715 28.9485 64.3821 28.3082 66.3377 28.9347C68.2949 29.5574 69.5901 30.9655 69.2345 32.0766C68.8752 33.1861 67.001 33.5837 65.0454 32.9572L65.0417 32.9556Z" fill="url(#paint1_linear_25_3239)"/>
<path style="mix-blend-mode:screen" opacity="0.69" d="M65.6389 31.3673C64.0893 30.8724 63.596 30.1779 63.7869 29.5811C63.9793 28.9805 64.7856 28.7063 66.3352 29.2012C67.8847 29.6961 68.905 30.7561 68.7141 31.3529C68.5217 31.9536 67.1884 31.8622 65.6373 31.3711L65.6389 31.3673Z" fill="url(#paint2_linear_25_3239)"/>
<path d="M69.2309 32.0751C69.248 32.0243 69.2613 31.972 69.2693 31.9219C68.6868 32.7899 66.9922 33.0539 65.2295 32.4912C63.3203 31.8799 62.7694 30.7598 63.0755 29.6723C63.0062 29.7946 62.9518 29.9232 62.9108 30.0618C62.5514 31.1713 63.0831 32.3367 65.0402 32.9594C66.9958 33.5859 68.8737 33.19 69.2293 32.0789L69.2309 32.0751Z" fill="black"/>
<path d="M67.1363 38.0362C66.2078 39.8991 66.6504 41.0982 67.6809 41.6142C68.7115 42.1303 69.9345 41.765 70.8652 39.9075C71.7937 38.0446 71.7125 36.1158 70.682 35.5997C69.6515 35.0836 68.0649 36.1734 67.1347 38.04L67.1363 38.0362Z" fill="url(#paint3_linear_25_3239)"/>
<path style="mix-blend-mode:screen" opacity="0.69" d="M68.671 38.7121C67.9327 40.1873 68.0764 41.0327 68.6311 41.3118C69.1858 41.591 69.9468 41.1952 70.6798 39.7221C71.418 38.2468 71.3863 36.7624 70.8316 36.4832C70.2769 36.2041 69.4039 37.239 68.6694 38.7158L68.671 38.7121Z" fill="url(#paint4_linear_25_3239)"/>
<path d="M70.6836 35.5958C70.7321 35.6163 70.7758 35.6481 70.8173 35.6746C69.8027 35.4952 68.432 36.5425 67.5946 38.221C66.689 40.04 67.089 41.2255 68.0678 41.7599C67.9367 41.7267 67.8062 41.6715 67.6788 41.6087C66.6483 41.0927 66.2057 39.8936 67.1342 38.0307C68.0628 36.1679 69.6509 35.0744 70.6814 35.5904L70.6836 35.5958Z" fill="black"/>
<path d="M59.8939 24.3862C59.9237 24.4613 59.9536 24.5363 59.9813 24.6059C60.0031 24.6687 60.0287 24.733 60.0505 24.7957L60.1091 24.9587C60.1267 25.0107 60.1517 25.0658 60.165 25.1071C60.2268 25.2937 60.2657 25.4617 60.2822 25.5891C60.2896 25.6546 60.2912 25.7133 60.2891 25.7703C60.2854 25.8311 60.2758 25.885 60.2603 25.932C60.2448 25.9789 60.2219 26.0227 60.1953 26.0649C60.1702 26.1034 60.1377 26.1387 60.1073 26.1793L59.755 26.6588L59.4038 27.1566C58.939 27.8293 58.47 28.5224 58.0105 29.2241C57.5473 29.9242 57.0863 30.6297 56.6242 31.348L56.2793 31.8931C56.17 32.0787 56.0533 32.2611 55.9387 32.4489C55.8295 32.6345 55.7223 32.8254 55.6008 33.0192C55.4921 33.2139 55.387 33.4102 55.266 33.6131C55.2165 33.3871 55.1867 33.1561 55.1622 32.9229C55.149 32.6944 55.1426 32.4599 55.14 32.227C55.1539 31.9966 55.164 31.7646 55.1832 31.5321C55.2062 31.3011 55.2403 31.0748 55.2761 30.8447C55.4286 29.933 55.6829 29.051 56.0044 28.1974C56.3296 27.3453 56.7235 26.5178 57.1941 25.7273C57.3098 25.5266 57.4367 25.3306 57.5619 25.1384C57.6888 24.9425 57.8321 24.749 57.9665 24.5562C58.0038 24.5096 58.0389 24.4576 58.08 24.4125C58.121 24.3675 58.1658 24.324 58.2164 24.2875C58.267 24.2509 58.3251 24.2175 58.3891 24.1911C58.453 24.1647 58.5298 24.1392 58.6054 24.1266C58.6449 24.1165 58.6864 24.1118 58.728 24.1071L58.8586 24.0999C58.9513 24.099 59.0408 24.1057 59.1527 24.1218C59.2039 24.1256 59.2705 24.1448 59.3259 24.1594C59.385 24.1755 59.4383 24.1846 59.4996 24.2061C59.563 24.2329 59.6243 24.2544 59.6877 24.2812C59.7548 24.3096 59.8246 24.3525 59.8923 24.39L59.8939 24.3862Z" fill="black"/>
<path d="M63.5877 21.9322C63.5855 21.9892 63.5871 22.0478 63.5882 22.0973C63.5855 22.1452 63.5844 22.1893 63.5855 22.2388C63.5833 22.3271 63.5823 22.4024 63.5769 22.467C63.5668 22.6053 63.5518 22.7238 63.5241 22.8102C63.5087 22.8571 63.4964 22.8965 63.4767 22.9328C63.4607 22.9706 63.4372 23.0052 63.4133 23.0308C63.3658 23.0909 63.3077 23.1243 63.2496 23.1577L62.8888 23.3974L62.5248 23.6446C62.0388 23.9829 61.5464 24.3363 61.0635 24.6982C60.5732 25.0569 60.0888 25.4226 59.5974 25.7943C59.4775 25.8907 59.3501 25.9839 59.2302 26.0803C59.1103 26.1767 58.9867 26.2715 58.8652 26.3717C58.7474 26.4734 58.6259 26.5736 58.499 26.676C58.3796 26.7815 58.2587 26.8908 58.1265 26.9954C58.1553 26.8337 58.1947 26.6676 58.2379 26.5031C58.287 26.3456 58.3451 26.1874 58.4032 26.0292C58.4672 25.8779 58.5365 25.7245 58.6132 25.5742C58.6884 25.4277 58.7689 25.279 58.8515 25.1356C59.1873 24.5599 59.586 24.0332 60.0193 23.5389C60.4563 23.0461 60.9301 22.5912 61.4481 22.1774C61.5766 22.0712 61.7109 21.972 61.8452 21.8728C61.9795 21.7735 62.125 21.6791 62.2667 21.583C62.3403 21.5339 62.4159 21.4901 62.5017 21.464C62.5465 21.4517 62.5934 21.4448 62.6387 21.4417C62.6877 21.4401 62.7442 21.4417 62.7975 21.4509C62.9094 21.467 63.0282 21.5083 63.1614 21.578C63.2291 21.6156 63.2989 21.6585 63.3676 21.7143C63.4039 21.743 63.4385 21.7755 63.4731 21.8079C63.5099 21.8458 63.545 21.8874 63.5818 21.9252L63.5877 21.9322Z" fill="black"/>
<path d="M65.7758 21.2707C65.7661 21.4494 65.747 21.5572 65.7347 21.659C65.7245 21.7037 65.7181 21.7501 65.7096 21.791L65.6963 21.8434L65.6771 21.8887C65.6622 21.9448 65.6339 21.9908 65.6078 22.011C65.5822 22.0403 65.5497 22.0444 65.5172 22.0484C65.3914 22.0755 65.2657 22.1025 65.1415 22.1258C64.8879 22.1745 64.6321 22.2179 64.372 22.2506C64.112 22.2832 63.8482 22.3143 63.5801 22.3347C63.3068 22.3573 63.035 22.376 62.7131 22.4093C62.7414 22.3321 62.7771 22.2581 62.8128 22.184C62.8544 22.1169 62.896 22.0498 62.9429 21.9805C62.9903 21.9203 63.0393 21.8563 63.0942 21.7993C63.1454 21.7407 63.204 21.6853 63.2573 21.632C63.4833 21.42 63.737 21.2465 63.996 21.102C64.255 20.9574 64.523 20.8434 64.8033 20.7525C64.9408 20.7081 65.0842 20.6707 65.2259 20.637C65.2973 20.6137 65.3725 20.6232 65.4668 20.7121L65.4998 20.7484L65.5371 20.7954C65.5627 20.8285 65.5888 20.8707 65.6128 20.9076C65.6655 21.0012 65.7182 21.0948 65.7736 21.2654L65.7758 21.2707Z" fill="black"/>
<path d="M69.3336 18.7947C69.1812 19.3008 68.8848 19.7416 68.5357 20.0887C68.1866 20.4359 67.7821 20.7061 67.367 20.9183C66.9503 21.1344 66.5197 21.2999 66.0832 21.4274C65.6452 21.5586 65.2013 21.6517 64.7536 21.712C64.6417 21.7271 64.5389 21.6479 64.5251 21.5351C64.5134 21.4276 64.5821 21.3274 64.6844 21.3038C65.1065 21.2104 65.5211 21.0827 65.9197 20.9303C66.3199 20.7742 66.7057 20.5896 67.0639 20.3667C67.4183 20.1421 67.7434 19.8829 68.004 19.5785C68.2646 19.2742 68.4432 18.9352 68.5205 18.5756C68.569 18.3465 68.795 18.1969 69.0215 18.2436C69.2479 18.2904 69.3939 18.5171 69.3454 18.7462C69.3406 18.7575 69.3374 18.7651 69.3363 18.778L69.3331 18.7855L69.3336 18.7947Z" fill="black"/>
<path d="M34.7239 31.126L34.7543 31.0541L34.7889 30.993C34.8103 30.953 34.8332 30.9092 34.8582 30.8708L34.9281 30.7576L35.0021 30.6552C35.1002 30.5273 35.1993 30.4177 35.3011 30.3226C35.4029 30.2274 35.5021 30.149 35.6054 30.0813C35.6545 30.0485 35.7072 30.0173 35.7584 29.99C35.808 29.9663 35.8591 29.9389 35.9071 29.9191C36.1059 29.8338 36.2945 29.7932 36.4762 29.7898C36.6611 29.7789 36.8258 29.8262 36.9936 29.866C37.6618 30.0327 38.3029 30.2325 38.929 30.4572C40.1828 30.9028 41.3827 31.4548 42.5384 32.0907C43.6926 32.7304 44.8008 33.4577 45.8254 34.31C46.3359 34.7354 46.8245 35.1917 47.2768 35.6816C47.7275 36.1754 48.1458 36.7044 48.4691 37.2914C47.8702 37.0024 47.291 36.7396 46.7038 36.4958C46.122 36.2497 45.5358 36.0241 44.9518 35.8038C43.7838 35.3633 42.6158 34.954 41.4435 34.5652C40.2766 34.1742 39.1016 33.8021 37.9411 33.4584C37.3603 33.293 36.7795 33.1276 36.213 32.9905C36.1411 32.9735 36.0713 32.9618 36.0009 32.941C35.9306 32.9201 35.8635 32.8917 35.7995 32.8558C35.7356 32.8198 35.6695 32.7785 35.6098 32.7221C35.5486 32.6694 35.4889 32.6129 35.4319 32.5398C35.3109 32.3995 35.2044 32.2252 35.0931 31.9998C35.0377 31.8916 34.9812 31.7652 34.9199 31.619L34.8267 31.3923L34.7756 31.2637L34.75 31.1994L34.7239 31.126Z" fill="black"/>
<path d="M28.2253 31.9256C28.2269 31.8906 28.2338 31.8534 28.2376 31.8238C28.2429 31.7904 28.2445 31.7554 28.252 31.7274C28.2632 31.6697 28.2797 31.6098 28.2946 31.5537C28.3282 31.4431 28.3661 31.3432 28.4172 31.2534C28.4647 31.1621 28.5079 31.0912 28.5601 31.0197L28.6379 30.9188C28.6635 30.8895 28.6944 30.858 28.7221 30.8341C28.7791 30.7824 28.8362 30.7308 28.8959 30.6936C28.9518 30.6549 29.012 30.6269 29.0723 30.5988C29.1911 30.5466 29.3174 30.5287 29.4437 30.5107C29.6877 30.4847 29.9334 30.4549 30.178 30.438C30.421 30.4248 30.6619 30.4063 30.9054 30.4024C31.8678 30.3725 32.8222 30.424 33.7717 30.5492C34.716 30.6767 35.6586 30.8703 36.5692 31.1707C36.7957 31.2487 37.0222 31.3266 37.2454 31.4121C37.4692 31.5068 37.6893 31.5999 37.9062 31.7005C38.122 31.8141 38.334 31.926 38.5429 32.0456C38.747 32.1765 38.9479 32.3149 39.1327 32.46C38.8903 32.451 38.6542 32.427 38.424 32.4099C38.189 32.4041 37.9572 32.3907 37.7329 32.3806C37.5016 32.3764 37.2725 32.3775 37.0481 32.3673C36.8206 32.3647 36.592 32.375 36.366 32.3686C35.4591 32.3817 34.5638 32.4088 33.6675 32.4487C32.7749 32.4902 31.8813 32.5447 31.0052 32.6199C30.8928 32.6258 30.7862 32.6387 30.6796 32.6516L30.354 32.6833L29.7146 32.7605C29.6101 32.7788 29.5094 32.7986 29.4028 32.7802C29.3496 32.7711 29.2925 32.7603 29.2387 32.742C29.1849 32.7237 29.1327 32.7016 29.0746 32.6726C28.9622 32.6162 28.8348 32.5222 28.7043 32.4046C28.6409 32.3465 28.5716 32.2816 28.4944 32.2043C28.4555 32.1611 28.4113 32.1202 28.3708 32.0807L28.3047 32.0082C28.2834 31.9858 28.2599 31.9581 28.2328 31.9288L28.2253 31.9256Z" fill="black"/>
<path d="M25.1147 33.2712L25.0817 33.1414L25.0604 33.0254C25.0545 32.9872 25.0529 32.9598 25.0492 32.927C25.0455 32.8942 25.0396 32.8561 25.0418 32.8303C25.0386 32.713 25.0455 32.6134 25.0684 32.5384C25.1047 32.3799 25.1894 32.3043 25.287 32.2609C25.4777 32.1633 25.6707 32.071 25.8641 31.9879C26.2563 31.8194 26.6576 31.6816 27.0738 31.5812C27.49 31.4809 27.9211 31.418 28.357 31.4063C28.4678 31.4041 28.5771 31.4057 28.6885 31.4127C28.7998 31.4197 28.9096 31.4305 29.0178 31.445C29.1281 31.4649 29.2368 31.4886 29.3455 31.5123C29.4547 31.5451 29.557 31.5839 29.6615 31.6281C29.2623 31.8337 28.9175 32.0356 28.569 32.2359C28.2242 32.4377 27.8868 32.6428 27.5468 32.8333C27.2052 33.0276 26.8652 33.2181 26.5231 33.4033L26.0115 33.6772C25.971 33.7002 25.9289 33.727 25.8761 33.727C25.8218 33.7307 25.7647 33.72 25.6939 33.69C25.6267 33.6616 25.5441 33.6178 25.453 33.5525C25.4322 33.5392 25.4035 33.5137 25.3806 33.4951C25.3539 33.4749 25.331 33.4563 25.3006 33.4346L25.2143 33.3579L25.1126 33.2659L25.1147 33.2712Z" fill="black"/>
<path d="M19.4198 32.9713C19.8674 33.3166 20.4184 33.5318 21.0077 33.6251C21.5971 33.7183 22.2232 33.6934 22.8435 33.5991C23.4638 33.5048 24.0798 33.3374 24.682 33.1196C25.2842 32.9018 25.8747 32.6389 26.439 32.3337C26.552 32.2745 26.689 32.3146 26.7465 32.4281C26.8019 32.5362 26.764 32.6673 26.6623 32.7313C26.0952 33.0843 25.5021 33.3951 24.8828 33.6637C24.2652 33.9284 23.6268 34.1488 22.9585 34.2941C22.294 34.441 21.5996 34.5128 20.8973 34.4476C20.1987 34.3839 19.4783 34.1639 18.8666 33.7492L18.8629 33.7476C18.6524 33.6007 18.5954 33.3091 18.7409 33.0898C18.8865 32.8705 19.1779 32.8155 19.39 32.9587C19.3975 32.9619 19.4071 32.9704 19.4129 32.9773L19.4198 32.9713Z" fill="black"/>
<path d="M46.8769 26.459L47.1844 26.5222C47.2712 26.5456 47.356 26.5636 47.4444 26.5831C47.5238 26.6034 47.5888 26.6264 47.6645 26.645L47.7716 26.6725L47.827 26.687L47.8718 26.7059C48.126 26.7911 48.3279 26.8855 48.4792 26.9851C48.638 27.0879 48.7451 27.209 48.8213 27.3304C48.8975 27.4518 48.922 27.5914 48.9502 27.7326L49.128 28.5701L49.3101 29.4183C49.5562 30.552 49.7937 31.6955 50.012 32.8532C50.2303 34.0109 50.4342 35.1715 50.6104 36.3559L50.7387 37.2482C50.785 37.5442 50.8137 37.8505 50.8547 38.1487L50.9101 38.6L50.9585 39.0574C50.9963 39.3631 51.0287 39.671 51.0436 39.9894C50.8129 39.7759 50.5977 39.5467 50.3877 39.3152C50.1831 39.0816 49.9908 38.8398 49.7969 38.6018C49.4229 38.1137 49.068 37.6115 48.7505 37.0939C48.1048 36.063 47.5529 34.9871 47.065 33.8847C46.5861 32.7817 46.1711 31.6523 45.8287 30.4867L45.7014 30.0495L45.5864 29.6041C45.5075 29.3122 45.4426 29.0084 45.3723 28.7067C45.3552 28.6327 45.3345 28.557 45.3243 28.477C45.3142 28.3969 45.3132 28.3162 45.3212 28.2349C45.3404 28.0647 45.3921 27.8905 45.4976 27.7033C45.6011 27.5108 45.7567 27.3092 45.9667 27.1038C46.013 27.0565 46.0877 26.9945 46.1463 26.939C46.214 26.8829 46.271 26.8313 46.3424 26.7768C46.4229 26.7217 46.498 26.6688 46.5785 26.6136C46.668 26.5579 46.7703 26.5031 46.862 26.4527L46.8769 26.459Z" fill="black"/>
<path d="M47.1675 22.1019C47.2277 22.1363 47.2916 22.1722 47.3534 22.2028C47.4078 22.2303 47.4584 22.2561 47.5127 22.2836C47.565 22.3056 47.6007 22.3252 47.6454 22.3441C47.6864 22.3615 47.7424 22.3852 47.7765 22.4085C47.9326 22.4968 48.0472 22.5586 48.1335 22.6353C48.2235 22.7135 48.2715 22.7872 48.3029 22.8585C48.3141 22.8944 48.3237 22.9341 48.3242 22.9745C48.3247 23.0148 48.3215 23.0536 48.3183 23.0923C48.297 23.4132 48.2911 23.7494 48.2724 24.0848C48.2515 24.7579 48.2242 25.4462 48.1953 26.1383C48.1611 26.8326 48.1162 27.5313 48.0612 28.2436C47.9972 28.9565 47.9406 29.6725 47.8179 30.4408C47.3176 29.8771 46.9708 29.2311 46.6778 28.5723C46.3864 27.9097 46.1718 27.2216 46.0163 26.5184C45.8608 25.8152 45.7591 25.0991 45.7198 24.3603C45.7002 23.9909 45.6986 23.6203 45.7179 23.2317C45.7211 23.1306 45.7211 23.037 45.768 22.9364C45.8128 22.8306 45.8815 22.7304 45.9902 22.6293C46.0142 22.6037 46.0457 22.5814 46.0766 22.5499L46.181 22.4692C46.2562 22.4163 46.3335 22.3688 46.4289 22.32C46.471 22.2932 46.5301 22.2781 46.5813 22.2507C46.6399 22.2264 46.6895 22.2028 46.7518 22.1802C46.8179 22.1591 46.8824 22.1418 46.9468 22.1245C47.0188 22.1103 47.0982 22.0993 47.1707 22.0943L47.1675 22.1019Z" fill="black"/>
<path d="M47.8956 20.5466C47.9302 20.579 47.9686 20.6131 47.9995 20.644C48.0245 20.668 48.0533 20.6935 48.0784 20.7175C48.1071 20.743 48.1338 20.7632 48.1641 20.785C48.1908 20.8051 48.227 20.8338 48.2425 20.8493L48.3592 20.9477C48.3879 20.9732 48.4167 20.9988 48.4455 21.0243C48.4956 21.0722 48.5211 21.1053 48.5318 21.1321C48.5462 21.1605 48.5307 21.1762 48.519 21.1936C48.4721 21.2629 48.4257 21.3413 48.3719 21.4166C48.2679 21.5688 48.1533 21.7254 48.0244 21.8848C47.8991 22.0458 47.752 22.2065 47.5932 22.3845C47.4344 22.5625 47.2617 22.7524 47.032 22.9941C46.7922 22.8124 46.6585 22.5776 46.5749 22.3282C46.495 22.0805 46.4689 21.8198 46.4924 21.5668C46.5137 21.3083 46.5756 21.0581 46.6833 20.8139C46.736 20.6891 46.7984 20.5729 46.873 20.4484C46.8911 20.416 46.9077 20.3873 46.9519 20.3659C46.9961 20.3445 47.0537 20.3331 47.1374 20.3329L47.2743 20.3418C47.3239 20.3493 47.3883 20.3632 47.4416 20.3724C47.4528 20.3771 47.4693 20.3797 47.4896 20.3838L47.545 20.3983C47.5839 20.4103 47.6191 20.4207 47.658 20.4327C47.6969 20.4447 47.7304 20.4589 47.764 20.4731C47.8088 20.492 47.8572 20.5125 47.8988 20.539L47.8956 20.5466Z" fill="black"/>
<path d="M48.3034 15.9539C48.4446 16.3791 48.5644 16.8131 48.6358 17.2579C48.7055 17.7064 48.7321 18.1634 48.7027 18.6279C48.6733 19.0925 48.5858 19.5592 48.427 20.018C48.2734 20.4746 48.0357 20.9223 47.7079 21.3231C47.6109 21.4381 47.4383 21.472 47.3194 21.3995C47.2081 21.3301 47.1852 21.1867 47.2625 21.0767L47.2673 21.0654C47.5034 20.715 47.666 20.3202 47.7572 19.9175C47.8483 19.5147 47.8793 19.1088 47.8613 18.7044C47.8416 18.3039 47.7713 17.9086 47.6669 17.5212C47.5572 17.136 47.4049 16.7685 47.2365 16.4075L47.2323 16.3968C47.114 16.1462 47.2521 15.8302 47.5441 15.6907C47.8346 15.555 48.1655 15.6459 48.2875 15.8981C48.2938 15.9142 48.3002 15.9302 48.3066 15.9463L48.3034 15.9539Z" fill="black"/>
<path d="M70.2845 49.2234C70.2653 49.3 70.2408 49.3788 70.2179 49.4538C70.1907 49.518 70.1635 49.5823 70.1363 49.6466C70.1107 49.7071 70.0771 49.7553 70.0457 49.8089C70.0158 49.8587 69.9812 49.9198 69.9492 49.9642C69.8799 50.0553 69.8224 50.129 69.7536 50.198L69.6571 50.2909C69.6241 50.317 69.5895 50.347 69.5543 50.3678C69.4898 50.4163 69.4157 50.4563 69.3518 50.4827C69.2878 50.5091 69.2271 50.528 69.1642 50.5416C69.1013 50.5551 69.0395 50.5557 68.9777 50.5563C68.9175 50.5531 68.8551 50.5446 68.7928 50.536C68.5578 50.499 68.3196 50.4696 68.0894 50.4213C67.8629 50.3746 67.6311 50.33 67.4041 50.2741C66.5057 50.0591 65.6372 49.7631 64.7974 49.399C63.9592 49.0312 63.1477 48.5899 62.3927 48.0566C62.2046 47.9191 62.0203 47.7832 61.837 47.6343C61.659 47.4833 61.4827 47.3285 61.3116 47.1714C61.1454 47.0031 60.9845 46.8325 60.8289 46.6597C60.6798 46.4718 60.538 46.2871 60.4139 46.0919C60.6478 46.1418 60.8626 46.2059 61.0789 46.2662C61.3001 46.3151 61.5143 46.3701 61.7247 46.4234C61.9421 46.4708 62.1558 46.5166 62.3642 46.5646L62.9993 46.695C63.8423 46.8643 64.672 47.0236 65.4995 47.1774C66.3255 47.3351 67.1525 47.4798 67.9625 47.6128L68.5646 47.707L69.1587 47.7889C69.2046 47.7949 69.252 47.7971 69.3015 47.8047C69.3458 47.8145 69.3959 47.8312 69.4406 47.8502C69.4875 47.8745 69.5328 47.9025 69.577 47.9435C69.6228 47.9807 69.6617 48.0239 69.7012 48.0763C69.7853 48.1787 69.8775 48.3247 69.9643 48.5041C69.9867 48.5447 70.0064 48.6021 70.0293 48.6519L70.1039 48.8082C70.1311 48.8688 70.1567 48.9331 70.1875 48.9952C70.2152 49.0648 70.2472 49.1452 70.2824 49.218L70.2845 49.2234Z" fill="black"/>
<path d="M74.658 48.2291C74.6612 48.284 74.6644 48.3388 74.6676 48.3936C74.6649 48.4415 74.6622 48.4894 74.6596 48.5374C74.6505 48.6316 74.6334 48.7135 74.6105 48.7885C74.5662 48.9347 74.5113 49.0542 74.442 49.1452C74.4085 49.1934 74.3728 49.2363 74.3328 49.2684C74.2966 49.3021 74.2582 49.3304 74.2177 49.3534C74.1388 49.4048 74.0525 49.4218 73.9645 49.4425C73.7956 49.4781 73.6288 49.5189 73.4615 49.5507C73.2958 49.5787 73.1284 49.6104 72.9622 49.6293C72.2961 49.7175 71.6374 49.7466 70.9756 49.7207C70.3154 49.6911 69.6541 49.612 69.0045 49.4532C68.842 49.4112 68.6811 49.3655 68.5201 49.3197C68.3624 49.2664 68.2026 49.2077 68.0464 49.1505C67.8898 49.0843 67.7363 49.0105 67.5903 48.9398C67.4417 48.8546 67.2983 48.7673 67.1619 48.6739C67.3335 48.6529 67.4966 48.6416 67.6559 48.6288C67.8184 48.6084 67.9756 48.5901 68.1328 48.5719C68.2916 48.5499 68.4467 48.5264 68.6039 48.5082C68.7574 48.4884 68.9157 48.4573 69.0675 48.4412C69.682 48.34 70.2873 48.2395 70.8906 48.1335C71.4938 48.0276 72.0912 47.9147 72.6774 47.7971L73.1122 47.7046L73.5359 47.6074C73.6019 47.5863 73.6717 47.5668 73.7432 47.5747C73.7815 47.5776 73.8183 47.5842 73.8593 47.6016C73.8982 47.6136 73.9339 47.6331 73.9787 47.6521C74.0613 47.6959 74.1582 47.7681 74.2616 47.8564C74.3133 47.9006 74.3692 47.9554 74.4326 48.0134C74.4673 48.0459 74.4982 48.0768 74.5328 48.1093C74.5696 48.1471 74.6101 48.1866 74.6505 48.226L74.658 48.2291Z" fill="black"/>
<path d="M76.6831 47.0798C76.7651 47.2393 76.795 47.3455 76.8248 47.4517C76.8328 47.4952 76.8466 47.5456 76.8509 47.5876L76.8562 47.6478L76.8557 47.701C76.8562 47.835 76.8071 47.8989 76.7384 47.9367C76.6121 48.017 76.4858 48.0973 76.3552 48.1669C76.0941 48.3061 75.8191 48.4261 75.5351 48.5155C75.2473 48.6033 74.9473 48.668 74.6334 48.6824C74.5572 48.6858 74.4773 48.6877 74.3989 48.6858C74.3206 48.6838 74.2401 48.6766 74.1613 48.6655C74.0787 48.6528 74.0014 48.638 73.9257 48.6194C73.848 48.5954 73.7702 48.5714 73.6934 48.5345C73.9466 48.3206 74.1486 48.1341 74.3596 47.947C74.5669 47.7583 74.7716 47.5863 74.9837 47.4175C75.1942 47.2524 75.4047 47.0874 75.6179 46.9368C75.7261 46.8578 75.8348 46.7879 75.9414 46.7126C75.9675 46.6924 75.9936 46.6723 76.0283 46.6735C76.0645 46.671 76.1124 46.6824 76.1668 46.7098L76.2116 46.7288L76.2606 46.7584C76.2963 46.778 76.3362 46.8083 76.3741 46.8332C76.4577 46.8953 76.5451 46.959 76.6794 47.0782L76.6831 47.0798Z" fill="black"/>
<path d="M80.547 46.9576C80.2353 46.7589 79.8618 46.6544 79.4637 46.6287C79.0657 46.603 78.6452 46.6614 78.2365 46.7649C77.8262 46.8722 77.4185 47.0252 77.0236 47.2104C76.6287 47.3955 76.245 47.6166 75.8773 47.8622C75.7829 47.9293 75.654 47.9015 75.5901 47.8032C75.532 47.7118 75.5523 47.5911 75.6391 47.5208C76.0026 47.2332 76.382 46.9702 76.7871 46.7403C77.1884 46.5089 77.6131 46.3052 78.0645 46.1528C78.5121 45.9989 78.988 45.8926 79.4857 45.8802C79.9834 45.8678 80.5056 45.9639 80.9745 46.2067L80.982 46.2099C81.1903 46.3203 81.2691 46.581 81.1615 46.794C81.0501 47.0054 80.7911 47.0876 80.5811 46.9809C80.5699 46.9762 80.5588 46.9715 80.5492 46.963L80.547 46.9576Z" fill="black"/>
<path d="M47.8067 62.8116L47.7752 62.7404L47.7459 62.6745L47.6895 62.5481L47.5962 62.3214C47.5387 62.1768 47.4892 62.0444 47.4535 61.9312C47.372 61.6872 47.3278 61.4902 47.3097 61.3043C47.3007 61.2113 47.2996 61.1306 47.3076 61.0493C47.3119 60.9664 47.3258 60.892 47.3487 60.8171C47.37 60.7458 47.3988 60.6778 47.4313 60.6113C47.4638 60.5448 47.5059 60.4868 47.5422 60.4219C47.8417 59.9112 48.1344 59.3752 48.4195 58.8361C48.9931 57.7503 49.5522 56.6361 50.0906 55.5087C50.6365 54.3844 51.1631 53.2431 51.6743 52.0864C51.9281 51.5072 52.1797 50.9227 52.4158 50.3227C52.6557 49.7244 52.8732 49.1165 53.0907 48.4774C53.2739 49.1255 53.3495 49.7994 53.3851 50.4741C53.4117 51.1496 53.3908 51.8227 53.3315 52.4931C53.213 53.8337 52.9496 55.1532 52.5897 56.4408C52.2298 57.7284 51.7719 58.9879 51.2084 60.2162C50.9312 60.83 50.6173 61.4372 50.2703 62.0393C50.1791 62.1924 50.097 62.3449 49.9643 62.4716C49.8316 62.5982 49.6744 62.71 49.4756 62.7953C49.4261 62.819 49.3744 62.8372 49.3227 62.8555C49.2673 62.8722 49.2119 62.8888 49.1527 62.9039C49.036 62.9304 48.9134 62.9498 48.7738 62.9577C48.6342 62.9655 48.4866 62.961 48.331 62.9442L48.2063 62.9271L48.0758 62.9031C48.0315 62.8933 47.9852 62.8782 47.9425 62.8646L47.8759 62.8454L47.8051 62.8154L47.8067 62.8116Z" fill="black"/>
<path d="M42.7069 66.9892C42.7064 66.9488 42.7027 66.916 42.7043 66.881L42.6984 66.7805C42.7006 66.7235 42.7006 66.6611 42.699 66.6024C42.6979 66.4906 42.7033 66.3947 42.7054 66.3065C42.7151 66.1278 42.7385 65.9683 42.7769 65.8464C42.795 65.7827 42.8174 65.7298 42.8435 65.6784C42.8675 65.6217 42.8995 65.5773 42.9331 65.5291C42.997 65.4402 43.0807 65.3776 43.1644 65.3149L43.6643 64.9022L43.9137 64.6868C43.9969 64.615 44.0837 64.5447 44.1631 64.4713C44.8293 63.8838 45.4907 63.2765 46.142 62.6515C46.797 62.0281 47.444 61.3924 48.083 60.7444C48.2371 60.5777 48.4023 60.4158 48.5616 60.2469C48.7119 60.0787 48.875 59.9114 49.0322 59.7372C49.1841 59.5652 49.3339 59.3878 49.4965 59.2114C49.6425 59.0324 49.7917 58.8459 49.9575 58.662C49.9276 58.8989 49.8871 59.1403 49.8375 59.3824C49.7746 59.6143 49.7063 59.8484 49.6365 60.0864C49.5533 60.3142 49.4701 60.542 49.3779 60.7705C49.2836 60.9936 49.1818 61.2135 49.0746 61.4356C48.6471 62.3113 48.129 63.1308 47.5539 63.9084C46.9788 64.6859 46.3483 65.4178 45.6512 66.0992C45.4775 66.2709 45.2979 66.4356 45.1183 66.6004C44.9371 66.7689 44.7441 66.9236 44.5533 67.0836C44.4542 67.162 44.3535 67.2442 44.2309 67.2949C44.1723 67.3192 44.1099 67.3418 44.0417 67.3575C43.9773 67.3749 43.8995 67.3821 43.8232 67.3855C43.7833 67.3864 43.7433 67.3873 43.705 67.3845L43.5824 67.3728C43.4961 67.3586 43.4151 67.3421 43.317 67.314C43.2206 67.2822 43.122 67.2449 43.0224 67.1894C42.9696 67.1582 42.9206 67.1285 42.8678 67.0973C42.8433 67.0825 42.8146 67.057 42.79 67.0421C42.7634 67.022 42.7368 67.0018 42.708 66.9762L42.7069 66.9892Z" fill="black"/>
<path d="M39.5878 68.3134L39.5926 68.1772L39.6022 68.0609C39.6038 68.026 39.6091 67.9926 39.6129 67.9629C39.6166 67.9333 39.6198 67.8945 39.6257 67.8703C39.6427 67.7571 39.6683 67.6654 39.6971 67.5974C39.7259 67.5293 39.7611 67.4773 39.7989 67.4398C39.8368 67.4024 39.8815 67.3901 39.9263 67.3778L40.4778 67.1965C40.8455 67.0757 41.2191 66.9617 41.5927 66.8478C41.9662 66.7339 42.3441 66.6307 42.7288 66.5215C43.1136 66.4123 43.4946 66.3015 43.9188 66.1511C43.8794 66.2548 43.8308 66.3591 43.7786 66.4618C43.7205 66.5576 43.6624 66.6533 43.6006 66.7475C43.5329 66.8348 43.4636 66.9259 43.3922 67.0116C43.3208 67.0973 43.2435 67.176 43.1662 67.2548C42.8534 67.5682 42.5069 67.8363 42.1478 68.0722C41.7848 68.3065 41.407 68.5033 41.0148 68.6717C40.8197 68.7586 40.622 68.831 40.4206 68.9019C40.323 68.9453 40.2106 68.9512 40.0731 68.8708C40.0055 68.8333 39.9309 68.7705 39.8531 68.6841C39.8339 68.6671 39.8121 68.6356 39.7923 68.6094C39.7726 68.5832 39.7513 68.5609 39.7295 68.5293L39.6639 68.4348L39.5952 68.3165L39.5878 68.3134Z" fill="black"/>
<path d="M34.8893 72.5401C35.0263 71.8002 35.3728 71.1265 35.8189 70.5708C36.2666 70.0112 36.8006 69.5595 37.3677 69.1753C37.9347 68.791 38.5369 68.4796 39.1546 68.2148C39.7722 67.9501 40.4074 67.7373 41.0506 67.568C41.1743 67.5356 41.2968 67.6097 41.3277 67.7342C41.3565 67.8534 41.2888 67.9718 41.1763 68.009C40.564 68.2092 39.9672 68.456 39.3943 68.7397C38.8198 69.0272 38.2735 69.3623 37.7736 69.7437C37.2721 70.1289 36.8191 70.5659 36.4716 71.0652C36.122 71.5593 35.8885 72.1113 35.8196 72.6795C35.7892 72.9386 35.5563 73.1254 35.2963 73.0956C35.04 73.0675 34.8572 72.8342 34.8893 72.5713C34.8925 72.5638 34.8919 72.5546 34.893 72.5417L34.8962 72.5342L34.8893 72.5401Z" fill="black"/>
<path d="M61.4927 55.1334C61.4288 55.191 61.3648 55.2487 61.2987 55.301C61.2374 55.3419 61.1761 55.3828 61.1133 55.4276C61.0536 55.4647 60.9949 55.489 60.9331 55.5208L60.8409 55.562L60.793 55.5819L60.7519 55.5957C60.5345 55.6731 60.3256 55.7096 60.1434 55.7039C60.0469 55.7032 59.9681 55.6921 59.8871 55.6757C59.8061 55.6593 59.7336 55.6331 59.659 55.6015C59.5881 55.5716 59.5221 55.5302 59.4576 55.4851C59.3931 55.44 59.3446 55.3883 59.2855 55.341C59.0596 55.1474 58.8299 54.9522 58.6163 54.7504L58.2913 54.448C58.1852 54.3452 58.0829 54.244 57.9785 54.1375C57.1484 53.3139 56.3785 52.4311 55.6609 51.5079C54.9448 50.581 54.2874 49.5987 53.7089 48.565C53.4169 48.0493 53.1527 47.5096 52.9119 46.9665C52.7974 46.6862 52.685 46.4113 52.5795 46.1305C52.4847 45.8452 52.3915 45.5562 52.3164 45.2659L54.8766 47.5299L57.3552 49.7372L59.7992 51.9119C60.0006 52.0907 60.2036 52.2657 60.4066 52.4408C60.608 52.6195 60.8104 52.7854 61.0076 52.9535C61.1072 53.0402 61.2079 53.114 61.2836 53.2262C61.3592 53.3385 61.4221 53.4809 61.4604 53.6398C61.4988 53.7987 61.5195 53.9991 61.528 54.239C61.5312 54.2938 61.5243 54.3622 61.5227 54.4284C61.521 54.4946 61.5226 54.5532 61.5178 54.6269C61.5114 54.7044 61.5103 54.7798 61.5077 54.8589C61.5018 54.9455 61.4965 55.0414 61.4927 55.1334Z" fill="black"/>
<path d="M65.625 56.5912C65.6047 56.6495 65.5829 56.7116 65.5605 56.7646C65.5397 56.8137 65.5114 56.8597 65.4832 56.9057C65.4283 56.9939 65.3617 57.0683 65.3052 57.1291C65.1938 57.2469 65.0733 57.3342 64.9582 57.388C64.8431 57.4418 64.744 57.4579 64.6422 57.4594C64.5895 57.4594 64.5436 57.4534 64.4957 57.442C64.4493 57.4269 64.4083 57.4095 64.3619 57.3944L64.096 57.2953C64.0102 57.259 63.9282 57.2243 63.8424 57.188L63.5888 57.0807L63.3468 56.9561C62.6968 56.6322 62.0851 56.2487 61.5017 55.8191C60.9182 55.3896 60.3678 54.9028 59.8686 54.3573C59.3731 53.8134 58.9107 53.2122 58.5921 52.5203C59.2539 52.8269 59.8635 53.1115 60.48 53.39C61.0943 53.6632 61.6906 53.9377 62.2932 54.197C62.8943 54.4601 63.4895 54.7163 64.0767 54.9602C64.2221 55.0217 64.3676 55.0832 64.5125 55.1356L64.7283 55.218L64.9383 55.2934C64.9718 55.3076 65.0086 55.3142 65.0443 55.3338C65.0779 55.348 65.1099 55.366 65.1386 55.3915C65.1978 55.4388 65.2548 55.512 65.3059 55.6094C65.3512 55.6998 65.3949 55.8253 65.4476 55.9813C65.4625 56.0188 65.4705 56.0623 65.4801 56.102L65.5152 56.2373C65.5291 56.2877 65.5451 56.3435 65.5626 56.3955C65.5808 56.4567 65.5973 56.5216 65.6207 56.5805L65.625 56.5912Z" fill="black"/>
<path d="M67.5492 56.4601C67.5572 56.5036 67.5636 56.5508 67.5716 56.5943L67.5796 56.7002L67.5838 56.8046L67.5833 56.8578L67.5849 56.8852L67.5785 56.9004C67.5833 56.9514 67.5774 57.0069 67.571 57.0532L67.5619 57.1162L67.5486 57.1686C67.5091 57.3034 67.4462 57.3482 67.3791 57.351C67.2459 57.3749 67.1105 57.3934 66.9762 57.399C66.7061 57.414 66.4375 57.394 66.1668 57.3375C65.8961 57.281 65.6228 57.1787 65.3681 57.022C65.1171 56.8668 64.8741 56.6615 64.7207 56.3693C65.0149 56.2976 65.2435 56.2249 65.4668 56.1544C65.6901 56.0839 65.8974 56.02 66.1068 55.9615C66.3162 55.9029 66.5241 55.8482 66.7271 55.8048L67.0308 55.7416C67.0559 55.7343 67.0793 55.7309 67.1076 55.7473C67.1374 55.7599 67.1726 55.8015 67.2083 55.8523L67.2381 55.8961L67.2685 55.9491L67.3415 56.078L67.4336 56.2552L67.4826 56.3472L67.546 56.4676L67.5492 56.4601Z" fill="black"/>
<path d="M71.0233 58.6426C70.7899 58.2898 70.5166 57.9691 70.2044 57.6989C69.8921 57.4287 69.5373 57.2073 69.159 57.0517C68.3986 56.7391 67.5364 56.6775 66.7333 56.8505C66.6166 56.8769 66.4973 56.7952 66.4664 56.6707C66.4376 56.5516 66.5 56.4353 66.6071 56.4004C67.0393 56.2622 67.4933 56.1868 67.9585 56.1785C68.4184 56.1724 68.8932 56.235 69.3525 56.3758C69.8118 56.5165 70.2541 56.7393 70.6622 57.0322C71.0666 57.3236 71.4279 57.6859 71.7438 58.0825C71.9068 58.2897 71.8881 58.5938 71.6995 58.7592C71.5108 58.9245 71.2268 58.8891 71.06 58.6804C71.052 58.6681 71.0424 58.6596 71.0345 58.6473L71.0307 58.6457L71.0233 58.6426Z" fill="black"/>
<mask id="mask0_25_3239" style="mask-type:luminance" maskUnits="userSpaceOnUse" x="18" y="36" width="30" height="25">
<path d="M41.4283 57.8897C34.8367 60.7185 21.067 61.3585 18.7887 55.8392C16.5104 50.32 26.5817 40.7296 33.177 37.9024C39.7686 35.0736 44.368 38.3694 46.6463 43.8887C48.9245 49.4079 48.0237 55.0625 41.432 57.8913L41.4283 57.8897Z" fill="white"/>
</mask>
<g mask="url(#mask0_25_3239)">
<path d="M52.448 38.3922L21.8057 30.3738L14.0577 59.5251L44.7001 67.5436L52.448 38.3922Z" fill="#B57F12"/>
<path d="M17.4026 56.4344C15.3763 51.5254 20.5894 44.6054 29.0446 40.9779C37.5014 37.3466 46.0007 38.387 48.027 43.2959C50.0534 48.2049 44.8402 55.1248 36.385 58.7524C27.9282 62.3837 19.4289 61.3433 17.401 56.4382L17.4026 56.4344Z" fill="#B57F12"/>
<path d="M17.4841 56.3975C15.4684 51.5153 20.6544 44.6284 29.067 41.0185C37.4796 37.4086 45.9346 38.4392 47.954 43.323C49.9697 48.2051 44.7837 55.092 36.3712 58.7019C27.9586 62.3118 19.5035 61.2813 17.4841 56.3975Z" fill="#B68012"/>
<path d="M17.5603 56.3628C15.5553 51.5074 20.7125 44.6574 29.0824 41.0651C37.4524 37.4728 45.8653 38.499 47.8688 43.3582C49.8738 48.2136 44.7166 55.0636 36.3467 58.6558C27.9767 62.2481 19.5638 61.222 17.5603 56.3628Z" fill="#B78113"/>
<path d="M17.6403 56.3299C15.6438 51.496 20.7759 44.6844 29.1032 41.1097C37.4305 37.5351 45.7961 38.559 47.7942 43.3892C49.7907 48.2231 44.6585 55.0347 36.3312 58.6093C28.0055 62.1802 19.6347 61.1585 17.6403 56.3299Z" fill="#B88213"/>
<path d="M17.7202 56.2969C15.7344 51.4897 20.8393 44.7112 29.1224 41.158C37.4055 37.6047 45.7305 38.6204 47.7163 43.4276C49.7022 48.2348 44.5972 55.0132 36.3142 58.5665C28.0311 62.1197 19.7061 61.104 17.7202 56.2969Z" fill="#B98313"/>
<path d="M17.7964 56.2623C15.8212 51.4819 20.899 44.7365 29.1395 41.2009C37.3799 37.6653 45.6591 38.675 47.6343 43.4553C49.6095 48.2357 44.5317 54.9811 36.2913 58.5167C28.0508 62.0523 19.7716 61.0426 17.7964 56.2623Z" fill="#BB8413"/>
<path d="M17.8764 56.2292C15.9134 51.4718 20.9661 44.7648 29.1586 41.2491C37.3564 37.7311 45.5935 38.7364 47.5565 43.4937C49.5194 48.2511 44.4667 54.958 36.2705 58.4722C28.0727 61.9902 19.8356 60.9849 17.8726 56.2276L17.8764 56.2292Z" fill="#BC8414"/>
<path d="M17.9526 56.1945C16.0003 51.4639 21.0258 44.79 29.1794 41.2935C37.3346 37.7931 45.5259 38.7924 47.4819 43.5245C49.4379 48.2567 44.4086 54.929 36.2588 58.4271C28.1036 61.9275 19.9123 60.9282 17.9563 56.1961L17.9526 56.1945Z" fill="#BD8514"/>
<path d="M18.0325 56.1615C16.0871 51.4562 21.0876 44.8207 29.1948 41.3402C37.3058 37.8613 45.455 38.8561 47.4003 43.5614C49.3457 48.2668 44.3452 54.9022 36.2327 58.3849C28.1217 61.8639 19.9725 60.869 18.0309 56.1653L18.0325 56.1615Z" fill="#BE8614"/>
<path d="M18.1124 56.1283C16.1793 51.446 21.151 44.8474 29.2193 41.3861C37.2877 37.9248 45.391 38.9136 47.3241 43.596C49.2572 48.2783 44.2855 54.8769 36.221 58.3398C28.1526 61.8011 20.0493 60.8122 18.1162 56.1299L18.1124 56.1283Z" fill="#BF8714"/>
<path d="M18.1887 56.0937C16.2662 51.4382 21.2107 44.8727 29.2327 41.4274C37.2568 37.9875 45.3196 38.9681 47.2421 43.6237C49.1645 48.2792 44.22 54.8447 36.1943 58.2884C28.1702 61.7283 20.1074 60.7477 18.1849 56.0921L18.1887 56.0937Z" fill="#C08815"/>
<path d="M18.2686 56.0607C16.3568 51.432 21.2741 44.8995 29.2556 41.4772C37.2333 38.0534 45.254 39.0296 47.168 43.6637C49.0798 48.2924 44.1625 54.8249 36.181 58.2471C28.2033 61.671 20.1825 60.6948 18.2686 56.0607Z" fill="#C18915"/>
<path d="M18.3485 56.0275C16.4452 51.4202 21.3375 44.9262 29.2763 41.5216C37.2114 38.1154 45.1885 39.0909 47.0896 43.6929C48.9929 48.3002 44.1007 54.7942 36.1618 58.1988C28.2267 61.605 20.2497 60.6295 18.3485 56.0275Z" fill="#C28A15"/>
<path d="M18.4247 55.9929C16.5321 51.4123 21.3956 44.9552 29.2918 41.5682C37.1842 38.1796 45.1155 39.1491 47.0081 43.7297C48.9007 48.3102 44.0319 54.7695 36.141 58.1543C28.2486 61.5429 20.3173 60.5734 18.4247 55.9929Z" fill="#C38B15"/>
<path d="M18.5047 55.9599C16.6227 51.4062 21.459 44.9822 29.3126 41.6128C37.1608 38.2456 45.0515 39.2069 46.9319 43.7644C48.8139 48.3181 43.9738 54.7406 36.124 58.1116C28.2758 61.4787 20.3851 60.5174 18.5047 55.9599Z" fill="#C48C16"/>
<path d="M18.5846 55.9268C16.7149 51.3961 21.5261 45.0105 29.3317 41.6609C37.1373 38.3114 44.9822 39.2667 46.852 43.7974C48.7217 48.3281 43.9104 54.7137 36.1048 58.0633C28.2992 61.4128 20.4543 60.4575 18.5846 55.9268Z" fill="#C58D16"/>
<path d="M18.6608 55.8923C16.8017 51.3883 21.5858 45.0358 29.3488 41.7039C37.1118 38.372 44.913 39.3266 46.772 43.8306C48.6311 48.3345 43.847 54.687 36.0841 58.0189C28.3211 61.3508 20.5199 60.3962 18.6608 55.8923Z" fill="#C78E16"/>
<path d="M18.7408 55.8592C16.8923 51.3821 21.6492 45.0627 29.368 41.7522C37.0883 38.4379 44.8437 39.3865 46.6958 43.8652C48.548 48.3439 43.7873 54.6618 36.0686 57.9723C28.3483 61.2866 20.5929 60.3379 18.7408 55.8592Z" fill="#C88E16"/>
<path d="M18.8207 55.826C16.9808 51.3704 21.7127 45.0893 29.3887 41.7965C37.0648 38.5036 44.7797 39.444 46.6159 43.8981C48.4558 48.3538 43.7239 54.6348 36.0478 57.9277C28.3717 61.2206 20.6569 60.2801 18.8207 55.826Z" fill="#C98F17"/>
<path d="M18.8969 55.7915C17.0676 51.3627 21.7707 45.1185 29.4042 41.8433C37.0376 38.568 44.7067 39.5025 46.5359 43.9313C48.3652 48.3602 43.6621 54.6044 36.0286 57.8796C28.3952 61.1549 20.7261 60.2204 18.8969 55.7915Z" fill="#CA9017"/>
<path d="M18.9768 55.7584C17.1598 51.3525 21.8341 45.1453 29.425 41.8876C37.0142 38.6338 44.6411 39.5638 46.4597 43.9659C48.2783 48.368 43.6024 54.5791 36.0116 57.8367C28.4224 61.0905 20.7954 60.1605 18.9768 55.7584Z" fill="#CB9117"/>
<path d="M19.053 55.7237C17.2467 51.3446 21.8938 45.1704 29.4404 41.9342C36.987 38.698 44.5681 39.622 46.3782 44.0027C48.1845 48.3818 43.5374 54.556 35.9908 57.7922C28.448 61.0299 20.8631 60.1044 19.0568 55.7253L19.053 55.7237Z" fill="#CC9217"/>
<path d="M19.133 55.6907C17.3373 51.3384 21.961 45.1989 29.4612 41.9787C36.9651 38.7601 44.5005 39.6781 46.2999 44.032C48.0993 48.3859 43.4756 54.5254 35.9717 57.744C28.4677 60.9626 20.9287 60.043 19.133 55.6907Z" fill="#CD9318"/>
<path d="M19.2129 55.6577C17.4257 51.3269 22.0243 45.2257 29.4803 42.027C36.9379 38.8245 44.4349 39.7396 46.2221 44.0705C48.0092 48.4013 43.4106 54.5024 35.9546 57.7012C28.497 60.9037 21.0001 59.9886 19.2129 55.6577Z" fill="#CE9418"/>
<path d="M19.2891 55.6231C17.5126 51.319 22.084 45.251 29.4974 42.0699C36.9108 38.8887 44.3619 39.7979 46.14 44.0981C47.9165 48.4022 43.3451 54.4702 35.9317 57.6513C28.5183 60.8325 21.0635 59.9218 19.2854 55.6215L19.2891 55.6231Z" fill="#CF9518"/>
<path d="M19.3691 55.5901C17.6032 51.3128 22.1458 45.2816 29.5166 42.1182C36.8873 38.9547 44.2963 39.8594 46.0622 44.1366C47.828 48.4139 43.2854 54.4451 35.9131 57.6123C28.5423 60.7758 21.1333 59.8711 19.3675 55.5939L19.3691 55.5901Z" fill="#D09518"/>
<path d="M19.449 55.5569C17.6917 51.3011 22.2093 45.3084 29.5374 42.1625C36.8655 39.0167 44.2324 39.9169 45.986 44.1712C47.7449 48.4232 43.2257 54.4198 35.8976 57.5656C28.5695 60.7115 21.2026 59.8112 19.4474 55.5607L19.449 55.5569Z" fill="#D19619"/>
<path d="M19.5252 55.5224C17.7785 51.2934 22.2689 45.3337 29.5528 42.2093C36.8367 39.0848 44.1594 39.9753 45.9061 44.2043C47.6527 48.4334 43.1623 54.393 35.8784 57.5175C28.5946 60.6419 21.2719 59.7514 19.5252 55.5224Z" fill="#D29719"/>
<path d="M19.6051 55.4893C17.8691 51.2871 22.3323 45.3605 29.5736 42.2537C36.8148 39.1469 44.0917 40.0313 45.8261 44.2373C47.5621 48.4396 43.0989 54.3662 35.8577 57.473C28.6164 60.5798 21.3396 59.6953 19.6051 55.4893Z" fill="#D39819"/>
<path d="M19.6813 55.4546C17.956 51.2791 22.392 45.3857 29.589 42.3003C36.7876 39.2111 44.0208 40.0949 45.7462 44.2703C47.4715 48.4458 43.0355 54.3393 35.8385 57.4247C28.6399 60.5138 21.4067 59.63 19.6813 55.4546Z" fill="#D49919"/>
<path d="M19.7613 55.4215C18.0481 51.2691 22.4554 45.4124 29.6098 42.3447C36.7658 39.2731 43.9531 40.1509 45.6699 44.3049C47.3831 48.4574 42.9721 54.3124 35.8214 57.3818C28.6655 60.4533 21.4744 59.5739 19.7613 55.4215Z" fill="#D59A1A"/>
<path d="M19.8412 55.3885C18.1387 51.2628 22.521 45.4446 29.6306 42.3891C36.7423 39.339 43.8892 40.2086 45.59 44.338C47.2962 48.4652 42.9103 54.2818 35.8007 57.3373C28.6889 60.3875 21.5421 59.5179 19.8412 55.3885Z" fill="#D79B1A"/>
<path d="M19.9174 55.3539C18.2219 51.2535 22.5806 45.4699 29.6498 42.4374C36.7189 39.4049 43.8183 40.2723 45.5138 44.3727C47.2094 48.4731 42.8506 54.2567 35.7852 57.2908C28.7161 60.3233 21.613 59.4543 19.9212 55.3555L19.9174 55.3539Z" fill="#D89C1A"/>
<path d="M19.9973 55.3209C18.3141 51.2434 22.644 45.4968 29.6668 42.4803C36.6933 39.4654 43.7506 40.3284 45.4339 44.4058C47.1172 48.4832 42.7872 54.2299 35.7607 57.2448C28.7342 60.2596 21.6769 59.3967 19.9936 55.3193L19.9973 55.3209Z" fill="#D99C1A"/>
<path d="M20.0773 55.2877C18.4047 51.2371 22.7075 45.5235 29.6897 42.53C36.6719 39.5366 43.6888 40.3913 45.3614 44.4419C47.034 48.4925 42.7312 54.2061 35.7527 57.2012C28.7705 60.1946 21.7574 59.3415 20.081 55.2893L20.0773 55.2877Z" fill="#DA9D1B"/>
<path d="M20.1535 55.2532C18.4878 51.2278 22.7671 45.5488 29.703 42.5714C36.6426 39.5956 43.6136 40.4443 45.274 44.4719C46.936 48.4957 42.6604 54.1762 35.7208 57.1521C28.7849 60.1295 21.8101 59.2792 20.1498 55.2516L20.1535 55.2532Z" fill="#DB9E1B"/>
<path d="M20.2334 55.2201C18.58 51.2177 22.8306 45.5756 29.7259 42.6212C36.6192 39.6614 43.5481 40.5057 45.2015 44.5081C46.855 48.5105 42.6044 54.1526 35.7128 57.1086C28.8195 60.0683 21.8906 59.2241 20.2372 55.2217L20.2334 55.2201Z" fill="#DC9F1B"/>
<path d="M20.3134 55.187C18.6706 51.2114 22.8924 45.6062 29.743 42.6641C36.5957 39.7273 43.4788 40.5655 45.1216 44.5411C46.7644 48.5167 42.5426 54.1219 35.6883 57.0625C28.8393 60.0009 21.9524 59.161 20.3134 55.187Z" fill="#DDA01B"/>
<path d="M20.3896 55.1525C18.7574 51.2037 22.952 45.6315 29.7621 42.7124C36.5722 39.7932 43.4095 40.6255 45.0416 44.5743C46.6738 48.5231 42.4755 54.0936 35.6691 57.0144C28.8627 59.9351 22.0217 59.1013 20.3896 55.1525Z" fill="#DEA11C"/>
<path d="M20.4695 55.1193C18.8496 51.1935 23.0192 45.6598 29.7829 42.7567C36.5467 39.8536 43.3456 40.683 44.9654 44.6088C46.5853 48.5345 42.4158 54.0682 35.652 56.9713C28.8883 59.8745 22.0894 59.045 20.4695 55.1193Z" fill="#DFA11C"/>
<path d="M20.5473 55.0809C18.9381 51.1819 23.0805 45.6813 29.8 42.7996C36.5211 39.9142 43.2725 40.7413 44.8855 44.6419C46.4948 48.5409 42.3524 54.0415 35.6329 56.9232C28.9118 59.8087 22.1603 58.9815 20.5473 55.0809Z" fill="#E0A21C"/>
<path d="M20.6273 55.0479C19.0249 51.1742 23.1439 45.7082 29.8207 42.8441C36.4976 39.9801 43.2086 40.799 44.8072 44.6712C46.4095 48.545 42.2906 54.011 35.6137 56.875C28.9368 59.7391 22.2259 58.9201 20.6273 55.0479Z" fill="#E1A31C"/>
<path d="M20.7072 55.0147C19.1171 51.1639 23.2057 45.7386 29.8399 42.8922C36.4742 40.0458 43.1393 40.8587 44.7294 44.7095C46.3194 48.5603 42.2309 53.9856 35.5967 56.832C28.9624 59.6784 22.2973 58.8655 20.7072 55.0147Z" fill="#E2A41D"/>
<path d="M20.7834 54.9801C19.204 51.1561 23.2654 45.7639 29.857 42.9351C36.4486 40.1063 43.0716 40.9148 44.651 44.7388C46.2304 48.5628 42.1691 53.955 35.5775 56.7838C28.9875 59.6088 22.3628 58.8041 20.785 54.9763L20.7834 54.9801Z" fill="#E3A51D"/>
<path d="M20.8634 54.9471C19.2946 51.1499 23.3288 45.7907 29.8762 42.9833C36.4235 40.1759 43.0023 40.9747 44.5695 44.7756C46.1367 48.5766 42.1041 53.932 35.5567 56.7394C29.0093 59.5468 22.4321 58.7442 20.8634 54.9471Z" fill="#E4A61D"/>
<path d="M20.9433 54.9139C19.3868 51.1398 23.3922 45.8175 29.8969 43.0277C36.4017 40.238 42.9368 41.036 44.4949 44.8064C46.0514 48.5806 42.046 53.9029 35.5413 56.6927C29.0365 59.4824 22.5014 58.6843 20.9449 54.9102L20.9433 54.9139Z" fill="#E5A61D"/>
<path d="M21.0195 54.8794C19.4699 51.1304 23.4556 45.8444 29.9124 43.0744C36.3745 40.3023 42.8638 41.0944 44.4134 44.8433C45.9629 48.5923 41.981 53.8799 35.5205 56.6483C29.0621 59.422 22.5691 58.6283 21.0195 54.8794Z" fill="#E6A71E"/>
<path d="M21.0994 54.8464C19.5621 51.1204 23.5153 45.8697 29.9331 43.1189C36.3489 40.3629 42.7998 41.1521 44.3334 44.8764C45.8707 48.6024 41.9176 53.8531 35.4997 56.6039C29.0802 59.3584 22.633 58.5707 21.0994 54.8464Z" fill="#E7A81E"/>
<path d="M21.1794 54.8133C19.6527 51.1142 23.5808 45.9018 29.9539 43.1634C36.3254 40.4287 42.7305 41.2119 44.2588 44.9073C45.7855 48.6064 41.8558 53.8226 35.4843 56.5572C29.1127 59.2919 22.7076 58.5087 21.1794 54.8133Z" fill="#E8A91E"/>
<path d="M21.2556 54.7786C19.7395 51.1063 23.6405 45.927 29.9694 43.21C36.2982 40.4929 42.6612 41.2717 44.1773 44.9441C45.6933 48.6164 41.7924 53.7957 35.4635 56.5127C29.1346 59.2298 22.7716 58.451 21.2556 54.7786Z" fill="#E9AA1E"/>
<path d="M21.3355 54.7457C19.828 51.0948 23.7039 45.954 29.9901 43.2546C36.2764 40.5551 42.5935 41.3279 44.1026 44.9751C45.6064 48.6244 41.7343 53.7668 35.448 56.4662C29.1618 59.1656 22.8446 58.3928 21.3355 54.7457Z" fill="#EAAA1F"/>
<path d="M21.4117 54.7109C19.9149 51.0868 23.7636 45.9791 30.0056 43.3011C36.2476 40.6231 42.5206 41.3861 44.0174 45.0102C45.5142 48.6343 41.6655 53.7421 35.4235 56.4201C29.1815 59.0981 22.9048 58.3335 21.4117 54.7109Z" fill="#EBAB1F"/>
<path d="M21.4917 54.6779C20.0055 51.0805 23.827 46.0059 30.0264 43.3455C36.2258 40.6852 42.455 41.4475 43.9412 45.0448C45.4274 48.6421 41.6059 53.7168 35.4065 56.3772C29.2071 59.0375 22.9778 58.2752 21.4917 54.6779Z" fill="#EBAC1F"/>
<path d="M21.5716 54.6449C20.0976 51.0705 23.8904 46.0327 30.0455 43.3938C36.2023 40.751 42.3894 41.509 43.865 45.0795C45.3405 48.65 41.5462 53.6916 35.391 56.3305C29.2343 58.9733 23.0471 58.2154 21.5716 54.6449Z" fill="#ECAD1F"/>
<path d="M21.6478 54.6102C20.1845 51.0627 23.9485 46.0618 30.0626 43.4367C36.1751 40.8153 42.318 41.5634 43.7851 45.1125C45.2483 48.6601 41.4844 53.661 35.3703 56.2861C29.2577 58.9074 23.1148 58.1593 21.6515 54.6118L21.6478 54.6102Z" fill="#EDAD1F"/>
<path d="M21.7277 54.5772C20.2714 51.0549 24.0119 46.0886 30.0818 43.4849C36.1517 40.8812 42.2525 41.6249 43.7051 45.1456C45.1615 48.6679 41.4173 53.6326 35.3511 56.2379C29.2812 58.8416 23.1804 58.0979 21.7277 54.5772Z" fill="#EEAE20"/>
<path d="M21.8077 54.544C20.362 51.0485 24.079 46.1169 30.1025 43.5292C36.1298 40.9431 42.1832 41.6846 43.6289 45.1801C45.0746 48.6756 41.3576 53.6072 35.334 56.1949C29.3068 58.7809 23.2534 58.0395 21.8077 54.544Z" fill="#EFAF20"/>
<path d="M21.8839 54.5095C20.4504 51.037 24.1387 46.1423 30.118 43.5761C36.1026 41.0076 42.1102 41.7431 43.5436 45.2156C44.9771 48.6881 41.2888 53.5828 35.3095 56.149C29.3249 58.7175 23.3173 57.982 21.8785 54.5117L21.8839 54.5095Z" fill="#F0B020"/>
<path d="M21.9638 54.4763C20.541 51.0306 24.2021 46.1689 30.1388 43.6203C36.0792 41.0733 42.0462 41.8006 43.469 45.2463C44.8918 48.692 41.2307 53.5536 35.2904 56.1007C29.35 58.6477 23.3829 57.9205 21.9601 54.4747L21.9638 54.4763Z" fill="#F1B020"/>
<path d="M22.04 54.4418C20.6279 51.0229 24.2618 46.1943 30.1579 43.6687C36.052 41.1377 41.9769 41.8605 43.3912 45.2848C44.8034 48.7037 41.1695 53.5323 35.277 56.0595C29.383 58.5905 23.4543 57.8661 22.0437 54.4434L22.04 54.4418Z" fill="#F2B120"/>
<path d="M22.1199 54.4087C20.7163 51.0113 24.3236 46.2249 30.175 43.7115C36.0301 41.1998 41.9076 41.9204 43.3129 45.3141C44.7165 48.7115 41.1092 53.4979 35.2541 56.0097C29.4043 58.5192 23.5214 57.8009 22.1162 54.4072L22.1199 54.4087Z" fill="#F3B221"/>
<path d="M22.1999 54.3756C20.8069 51.005 24.387 46.2517 30.1979 43.7613C36.0051 41.2694 41.8421 41.9817 43.2351 45.3524C44.6281 48.7231 41.048 53.4764 35.2408 55.9683C29.4337 58.4603 23.5929 57.7463 22.2036 54.3772L22.1999 54.3756Z" fill="#F3B221"/>
<path d="M22.2761 54.341C20.8938 50.9971 24.4467 46.2769 30.2149 43.8042C35.9795 41.3299 41.7744 42.0378 43.1567 45.3817C44.5391 48.7256 40.9862 53.4458 35.2179 55.9185C29.4534 58.3928 23.6584 57.6849 22.2761 54.341Z" fill="#F4B321"/>
<path d="M22.356 54.3079C20.986 50.9871 24.5138 46.3053 30.2341 43.8524C35.956 41.3957 41.7051 42.0976 43.0789 45.4201C44.449 48.741 40.9249 53.4243 35.2046 55.8772C29.4827 58.3339 23.7336 57.632 22.3598 54.3095L22.356 54.3079Z" fill="#F4B321"/>
<path d="M22.5388 54.2294C21.1922 50.9674 24.6556 46.3654 30.2783 43.9559C35.8974 41.5449 41.5474 42.2316 42.8978 45.4952C44.2444 48.7571 40.781 53.3592 35.1583 55.7686C29.5392 58.1796 23.8855 57.4913 22.5388 54.2294Z" fill="#F4B322"/>
<path d="M22.7216 54.1505C21.3984 50.9475 24.801 46.4267 30.3225 44.0591C35.844 41.6916 41.3933 42.3669 42.7165 45.5699C44.0397 48.7729 40.6371 53.2937 35.1156 55.6613C29.5941 58.0288 24.0448 57.3535 22.7216 54.1505Z" fill="#F4B423"/>
<path d="M22.8991 54.0741C21.5993 50.9301 24.9411 46.4906 30.3614 44.1649C35.7817 41.8392 41.2303 42.5031 42.5284 45.651C43.8282 48.795 40.4863 53.2345 35.0661 55.5602C29.6458 57.8859 24.1972 57.2219 22.8991 54.0741Z" fill="#F4B424"/>
<path d="M23.0819 53.9953C21.8072 50.9064 25.0866 46.552 30.4078 44.2735C35.7268 41.9897 41.0747 42.6423 42.3494 45.7311C43.6241 48.82 40.3462 53.1707 35.0256 55.4583C29.7029 57.7405 24.3587 57.0895 23.084 54.0006L23.0819 53.9953Z" fill="#F4B425"/>
<path d="M23.2647 53.9167C22.0134 50.8867 25.2305 46.6174 30.452 44.377C35.6735 42.1366 40.9169 42.7762 42.1682 45.8062C43.4195 48.8361 40.2024 53.1054 34.9809 55.3458C29.7594 57.5862 24.5159 56.9466 23.2647 53.9167Z" fill="#F4B526"/>
<path d="M23.4475 53.838C22.2196 50.867 25.376 46.679 30.4962 44.4805C35.6164 42.282 40.7592 42.9102 41.987 45.8812C43.2148 48.8521 40.0585 53.0402 34.9383 55.2387C29.8196 57.4334 24.6753 56.809 23.4475 53.838Z" fill="#F4B527"/>
<path d="M23.6286 53.763C22.4242 50.851 25.5198 46.7442 30.5388 44.5876C35.5562 42.4347 40.6035 43.0494 41.8026 45.9636C43.007 48.8756 39.9114 52.9824 34.8924 55.139C29.8751 57.2919 24.8277 56.6773 23.6233 53.7652L23.6286 53.763Z" fill="#F4B528"/>
<path d="M23.8114 53.6843C22.632 50.8274 25.6653 46.8057 30.5814 44.6947C35.5013 42.5853 40.4442 43.187 41.6235 46.0438C42.8045 48.8969 39.7697 52.9224 34.8498 55.0318C29.9299 57.1412 24.987 56.5396 23.8114 53.6843Z" fill="#F4B629"/>
<path d="M23.9905 53.6039C22.8383 50.8076 25.807 46.8656 30.6256 44.798C35.4442 42.7305 40.2864 43.3208 41.4424 46.1187C42.5983 48.9166 39.6258 52.857 34.8072 54.9246C29.9886 56.9921 25.1464 56.4019 23.9905 53.6039Z" fill="#F4B62A"/>
<path d="M24.1733 53.5253C23.0408 50.7863 25.9525 46.9271 30.6699 44.9015C35.3872 42.8758 40.1287 43.4547 41.2612 46.1937C42.3937 48.9326 39.482 52.7918 34.7646 54.8175C30.0472 56.8431 25.3058 56.2642 24.1733 53.5253Z" fill="#F4B62B"/>
<path d="M24.3545 53.4504C23.2491 50.772 26.0926 46.991 30.7125 45.0088C35.3323 43.0265 39.9693 43.5925 41.0784 46.2725C42.1837 48.9509 39.3402 52.732 34.7204 54.7142C30.1005 56.6964 25.4635 56.1305 24.3545 53.4504Z" fill="#F4B72C"/>
<path d="M24.5372 53.3717C23.4554 50.7522 26.2381 47.0525 30.7551 45.1159C35.2736 43.1756 39.8137 43.7317 40.894 46.355C41.9796 48.9761 39.1931 52.6742 34.6762 54.6108C30.1576 56.5511 25.6175 55.995 24.5372 53.3717Z" fill="#F4B72D"/>
<path d="M24.72 53.293C23.6616 50.7325 26.3836 47.114 30.7993 45.2193C35.215 43.3247 39.6559 43.8656 40.7128 46.4299C41.7696 48.9943 39.0493 52.6089 34.6298 54.502C30.2141 56.3967 25.7732 55.8558 24.7163 53.2915L24.72 53.293Z" fill="#F4B72E"/>
<path d="M24.9028 53.2141C23.8694 50.7087 26.529 47.1753 30.8472 45.3241C35.1654 43.4729 39.5019 44.0008 40.5353 46.5062C41.5688 49.0116 38.9092 52.545 34.5909 54.3962C30.2765 56.249 25.9363 55.7195 24.9028 53.2141Z" fill="#F4B82F"/>
<path d="M25.084 53.1394C24.074 50.6929 26.6729 47.2408 30.8898 45.4315C35.1068 43.6221 39.3426 44.1387 40.3525 46.5851C41.3625 49.0316 38.7637 52.4837 34.5467 54.293C30.3298 56.1024 26.094 55.5858 25.084 53.1394Z" fill="#F4B830"/>
<path d="M25.2631 53.0589C24.2766 50.6714 26.813 47.3044 30.9287 45.5369C35.0444 43.7694 39.1795 44.2746 40.166 46.6621C41.1526 49.0496 38.6161 52.4166 34.5004 54.1841C30.3847 55.9516 26.2496 55.4464 25.2631 53.0589Z" fill="#F4B831"/>
<path d="M25.4459 52.9803C24.4828 50.6518 26.9585 47.366 30.9729 45.6404C34.9874 43.9148 39.0217 44.4085 39.9886 46.7387C40.9516 49.0672 38.4759 52.353 34.4615 54.0786C30.4433 55.8026 26.409 55.3089 25.4512 52.9781L25.4459 52.9803Z" fill="#F4B832"/>
<path d="M25.6271 52.9053C24.689 50.6319 27.1024 47.4312 31.0193 45.749C34.9346 44.0706 38.8698 44.5492 39.8079 46.8226C40.746 49.096 38.3326 52.2967 34.4157 53.9789C30.5004 55.6573 26.5651 55.1786 25.6271 52.9053Z" fill="#F4B933"/>
<path d="M25.8099 52.8268C24.8952 50.6123 27.2478 47.4929 31.0619 45.8564C34.876 44.2199 38.7105 44.6871 39.6251 46.9015C40.5397 49.116 38.1871 52.2354 34.3731 53.8719C30.559 55.5084 26.7245 55.0412 25.8099 52.8268Z" fill="#F4B934"/>
<path d="M25.9926 52.748C25.1015 50.5925 27.3896 47.5528 31.1061 45.9597C34.8189 44.3651 38.5527 44.8209 39.4439 46.9764C40.3351 49.1319 38.0433 52.17 34.3304 53.7647C30.6176 55.3593 26.8838 54.9035 25.9926 52.748Z" fill="#F4B935"/>
<path d="M26.1717 52.6677C25.304 50.5711 27.5313 47.6127 31.1466 46.0615C34.7619 44.5103 38.3913 44.9532 39.259 47.0497C40.1268 49.1463 37.8994 52.1047 34.2841 53.6559C30.6688 55.2071 27.0394 54.7642 26.1717 52.6677Z" fill="#F4BA36"/>
<path d="M26.3529 52.5927C25.5102 50.5514 27.6752 47.678 31.1892 46.1687C34.7032 44.6594 38.2356 45.0924 39.0746 47.1322C39.9173 49.1736 37.7523 52.0469 34.2346 53.5547C30.7205 55.064 27.1919 54.6325 26.3492 52.5912L26.3529 52.5927Z" fill="#F4BA37"/>
<path d="M26.5357 52.5141C25.7202 50.5333 27.8207 47.7396 31.2356 46.2776C34.6467 44.8139 38.08 45.2317 38.8956 47.2126C39.7111 49.1935 37.6106 51.9871 34.1957 53.4492C30.7845 54.9129 27.3512 54.495 26.5357 52.5141Z" fill="#F4BA38"/>
<path d="M26.7185 52.4353C25.9264 50.5133 27.9661 47.801 31.2798 46.3808C34.5934 44.9606 37.9223 45.3655 38.7144 47.2874C39.5102 49.2109 37.4667 51.9216 34.1531 53.3419C30.8394 54.7621 27.5106 54.3572 26.7185 52.4353Z" fill="#F4BB39"/>
<path d="M26.9013 52.3566C26.1326 50.4937 28.1116 47.8626 31.324 46.4843C34.5364 45.1059 37.7645 45.4994 38.5332 47.3624C39.3019 49.2254 37.3229 51.8564 34.1105 53.2348C30.8981 54.6131 27.6699 54.2196 26.9013 52.3566Z" fill="#F4BB3A"/>
<path d="M27.0824 52.2817C26.3372 50.4777 28.2554 47.9279 31.3666 46.5914C34.4777 45.2549 37.6052 45.637 38.3504 47.4411C39.0956 49.2451 37.1774 51.7949 34.0662 53.1313C30.9551 54.4678 27.8277 54.0857 27.0824 52.2817Z" fill="#F4BB3B"/>
<path d="M27.2615 52.2014C26.5413 50.4526 28.3956 47.9917 31.4092 46.6986C34.4191 45.404 37.4458 45.7747 38.1697 47.5252C38.8899 49.274 37.0357 51.735 34.0258 53.0296C31.0121 54.3226 27.9892 53.9535 27.2652 52.203L27.2615 52.2014Z" fill="#F4BC3C"/>
<path d="M27.4443 52.1226C26.7476 50.4327 28.5411 48.053 31.4534 46.8019C34.3658 45.5507 37.2918 45.91 37.9885 47.5999C38.6853 49.2899 36.8902 51.6733 33.9794 52.9207C31.0686 54.168 28.1411 53.8125 27.4443 52.1226Z" fill="#F4BC3E"/>
<path d="M27.6271 52.0439C26.9538 50.4129 28.6865 48.1146 31.4976 46.9053C34.3072 45.6998 37.134 46.0439 37.8074 47.6749C38.4807 49.3059 36.7479 51.6042 33.9368 52.8135C31.1273 54.019 28.3004 53.6748 27.6271 52.0439Z" fill="#F4BC3F"/>
<path d="M27.8099 51.9654C27.16 50.3934 28.832 48.1763 31.5402 47.0127C34.2522 45.8506 36.9747 46.1818 37.6246 47.7538C38.2744 49.3258 36.6025 51.5429 33.8942 52.7065C31.1859 53.8702 28.4597 53.5374 27.8099 51.9654Z" fill="#F4BD40"/>
<path d="M27.9911 51.8903C27.3646 50.3772 28.9721 48.2398 31.5829 47.1197C34.1936 45.9995 36.8153 46.3193 37.4418 47.8323C38.0682 49.3454 36.457 51.4812 33.85 52.603C31.2392 53.7232 28.6175 53.4034 27.9911 51.8903Z" fill="#F4BD41"/>
<path d="M28.1738 51.8116C27.5724 50.3537 29.1176 48.3014 31.6308 47.2247C34.1403 46.1464 36.6613 46.4548 37.2627 47.9127C37.8641 49.3706 36.319 51.4229 33.8057 52.4996C31.2963 53.578 28.7752 53.2695 28.1738 51.8116Z" fill="#F4BD42"/>
<path d="M28.3529 51.7313C27.775 50.3323 29.2593 48.3613 31.6713 47.3265C34.0833 46.2916 36.5035 46.5886 37.0778 47.986C37.6557 49.385 36.1714 51.356 33.7594 52.3908C31.3512 53.4273 28.9309 53.1303 28.3529 51.7313Z" fill="#F4BE43"/>
<path d="M28.5341 51.6564C27.9796 50.3164 29.4032 48.4267 31.7123 47.4374C34.0214 46.4482 36.3426 46.7301 36.8971 48.0701C37.4516 49.4101 36.028 51.2998 33.7189 52.289C31.4098 53.2783 29.0886 52.9964 28.5378 51.658L28.5341 51.6564Z" fill="#F4BE44"/>
<path d="M28.7169 51.5778C28.1858 50.2967 29.5487 48.4883 31.7565 47.5409C33.9644 46.5936 36.1848 46.864 36.7122 48.1435C37.2433 49.4246 35.8804 51.233 33.6726 52.1804C31.4647 53.1277 29.2443 52.8572 28.7132 51.5762L28.7169 51.5778Z" fill="#F4BE45"/>
<path d="M28.8997 51.4989C28.392 50.2768 29.6941 48.5496 31.8007 47.6441C33.9073 46.7387 36.0271 46.9977 36.5347 48.2199C37.0424 49.442 35.7403 51.1691 33.63 52.073C31.5234 52.9785 29.4036 52.7194 28.8997 51.4989Z" fill="#F4BF46"/>
<path d="M29.0825 51.4203C28.6036 50.2549 29.8396 48.6112 31.8487 47.7492C33.8578 46.8872 35.8731 47.1333 36.3557 48.3002C36.8346 49.4656 35.5986 51.1093 33.5911 51.9675C31.582 52.8295 29.5667 52.5834 29.0841 51.4165L29.0825 51.4203Z" fill="#F4BF47"/>
<path d="M29.2637 51.3454C28.8082 50.239 29.9835 48.6766 31.8897 47.8603C33.7975 47.0401 35.7121 47.2748 36.1713 48.3828C36.6305 49.4908 35.4515 51.0516 33.5453 51.868C31.6374 52.6882 29.7191 52.4519 29.2637 51.3454Z" fill="#F4BF48"/>
<path d="M29.4465 51.2667C29.0145 50.2193 30.1273 48.7419 31.9339 47.9637C33.7389 47.1892 35.5581 47.4103 35.9901 48.4578C36.4221 49.5053 35.3076 50.9863 33.5027 51.7608C31.6977 52.5353 29.8785 52.3142 29.4465 51.2667Z" fill="#F4C049"/>
<path d="M29.6255 51.1864C29.2169 50.1979 30.269 48.8018 31.9744 48.0654C33.6818 47.3344 35.3966 47.5425 35.8052 48.5311C36.2137 49.5196 35.16 50.9194 33.4563 51.652C31.7488 52.3831 30.0341 52.1749 29.6255 51.1864Z" fill="#F4C04A"/>
<path d="M29.8083 51.1076C29.4248 50.1743 30.4145 48.8633 32.0207 48.1741C33.6269 47.485 35.241 47.6817 35.6245 48.6151C36.0081 49.5485 35.0183 50.8594 33.4158 51.5502C31.8096 52.2393 30.1956 52.0426 29.812 51.1092L29.8083 51.1076Z" fill="#F4C04B"/>
<path d="M29.9895 51.0328C29.6294 50.1584 30.5547 48.9271 32.0633 48.2814C33.5683 47.6341 35.0816 47.8194 35.4417 48.6939C35.8018 49.5683 34.8766 50.7995 33.3679 51.4453C31.8629 52.0926 30.3496 51.9072 29.9895 51.0328Z" fill="#F4C14C"/>
<path d="M30.1723 50.9539C29.8356 50.1384 30.7001 48.9885 32.1076 48.3846C33.515 47.7808 34.9239 47.9531 35.2605 48.7686C35.5972 49.5841 34.7327 50.7341 33.3253 51.3379C31.9178 51.9418 30.5089 51.7694 30.1723 50.9539Z" fill="#F4C14D"/>
<path d="M30.3551 50.8752C30.0419 50.1187 30.8456 49.05 32.1518 48.488C33.4563 47.9298 34.7699 48.0886 35.0831 48.8452C35.3963 49.6017 34.5926 50.6704 33.2864 51.2324C31.9818 51.7906 30.672 51.6333 30.3551 50.8752Z" fill="#F4C14E"/>
<path d="M30.5379 50.7965C30.2481 50.0989 30.9911 49.1115 32.1944 48.5952C33.3977 48.0789 34.6105 48.2263 34.8987 48.9276C35.1885 49.6252 34.4455 50.6126 33.2422 51.129C32.0388 51.6453 30.826 51.4979 30.5379 50.7965Z" fill="#F4C14F"/>
<path d="M30.7153 50.72C30.4506 50.0776 31.1312 49.1753 32.237 48.7024C33.3428 48.2295 34.4512 48.3639 34.7159 49.0064C34.9806 49.6488 34.3 50.5511 33.1942 51.024C32.0884 51.4969 30.9801 51.3624 30.7153 50.72Z" fill="#F4C250"/>
<path d="M30.8981 50.6414C30.6568 50.0579 31.2767 49.2369 32.2812 48.8059C33.2857 48.3749 34.2934 48.4979 34.5347 49.0814C34.776 49.6649 34.1562 50.4859 33.1516 50.9169C32.1471 51.3479 31.1394 51.2249 30.8981 50.6414Z" fill="#F4C251"/>
<path d="M31.0809 50.5628C30.863 50.0382 31.4221 49.2985 32.3254 48.9093C33.2287 48.5202 34.1357 48.6319 34.3535 49.1564C34.5714 49.6809 34.0123 50.4207 33.1106 50.806C32.2073 51.1952 31.3004 51.0835 31.0825 50.559L31.0809 50.5628Z" fill="#F4C252"/>
<path d="M31.2637 50.484C31.073 50.02 31.5676 49.3599 32.368 49.0164C33.1685 48.673 33.9763 48.7694 34.1707 49.235C34.3614 49.699 33.8668 50.3591 33.0664 50.7026C32.266 51.0461 31.4544 50.948 31.2637 50.484Z" fill="#F4C353"/>
<path d="M31.4449 50.409C31.2792 50.0002 31.7115 49.4252 32.4144 49.1252C33.1189 48.8213 33.8244 48.9102 33.9917 49.3153C34.1627 49.7219 33.7251 50.2991 33.0259 50.6007C32.3214 50.9045 31.6159 50.8157 31.4486 50.4106L31.4449 50.409Z" fill="#F4C354"/>
<path d="M31.6277 50.3302C31.4817 49.9787 31.8532 49.485 32.4586 49.2285C33.0603 48.9703 33.6667 49.044 33.8089 49.3939C33.9548 49.7454 33.5834 50.2391 32.978 50.4956C32.3763 50.7538 31.7699 50.6801 31.6277 50.3302Z" fill="#F4C355"/>
<path d="M31.8067 50.2499C31.6879 49.959 31.9971 49.5503 32.4975 49.334C33.0016 49.1193 33.5036 49.1801 33.6261 49.4726C33.7449 49.7635 33.4358 50.1722 32.9353 50.3885C32.4349 50.6048 31.9292 50.5424 31.8105 50.2515L31.8067 50.2499Z" fill="#F4C456"/>
<path d="M31.9879 50.1752C31.8926 49.9432 32.141 49.6158 32.5401 49.4414C32.943 49.2686 33.3442 49.3179 33.4433 49.5515C33.5424 49.7851 33.294 50.1124 32.8911 50.2853C32.4883 50.4581 32.087 50.4088 31.9879 50.1752Z" fill="#F4C457"/>
<path d="M32.1707 50.0964C32.0988 49.9233 32.2827 49.6757 32.5843 49.5447C32.8843 49.4175 33.1865 49.4517 33.2621 49.6263C33.334 49.7994 33.1501 50.047 32.8485 50.178C32.5485 50.3052 32.2464 50.271 32.1707 50.0964Z" fill="#F4C458"/>
<path d="M32.3535 50.0177C32.3066 49.8999 32.4282 49.7373 32.6323 49.6498C32.8326 49.5607 33.0362 49.5888 33.0847 49.7029C33.1315 49.8208 33.01 49.9834 32.8096 50.0725C32.6093 50.1616 32.4057 50.1334 32.3572 50.0193L32.3535 50.0177Z" fill="#F4C559"/>
<path d="M32.5363 49.939C32.5129 49.88 32.5736 49.7987 32.6749 49.7569C32.7761 49.715 32.8768 49.7264 32.9003 49.7853C32.9237 49.8443 32.863 49.9256 32.7617 49.9674C32.6604 50.0093 32.5597 49.9979 32.5363 49.939Z" fill="#F4C55A"/>
</g>
<path d="M26.2169 42.403C24.7742 43.6205 23.4008 44.9653 22.2213 46.3609C23.1398 51.2694 25.0447 55.8729 27.8657 59.9635C29.6695 60.0755 31.5777 60.0133 33.4396 59.8112C29.4944 54.7504 27.0334 48.8107 26.2207 42.4046L26.2169 42.403Z" fill="black"/>
<path d="M19.7642 49.8418C18.5628 52.0172 18.076 54.1248 18.785 55.8377C19.4961 57.556 21.3205 58.6798 23.6992 59.3247C21.9305 56.3746 20.6083 53.1899 19.7642 49.8418Z" fill="black"/>
<path d="M47.3463 51.9543C48.1359 49.4844 47.7936 46.6651 46.6441 43.8833C45.4903 41.0907 43.7439 38.8677 41.4452 37.7217C42.3524 42.875 44.35 47.6961 47.3426 51.9528L47.3463 51.9543Z" fill="black"/>
<path d="M42.3843 57.4383C42.9759 57.1313 43.5152 56.8022 43.9986 56.4494C39.4039 50.9178 36.6387 44.2521 35.9518 37.0389C35.0699 37.2008 34.1405 37.4853 33.1733 37.9009C32.2236 38.3061 31.2041 38.8556 30.1564 39.5135C30.8459 46.7412 33.6116 53.416 38.2197 58.9577C38.9796 58.7621 39.7017 58.5414 40.3737 58.3041C41.0446 58.0173 41.7155 57.7305 42.3827 57.4421L42.3843 57.4383Z" fill="black"/>
<path style="mix-blend-mode:screen" opacity="0.77" d="M45.2351 44.491C45.1056 44.1732 44.9554 43.8423 44.7844 43.498C44.9574 44.5652 44.0534 46.5053 37.8327 49.1745C34.6895 50.5242 30.0772 52.104 26.3555 53.1064C23.0941 53.9871 20.8229 54.346 19.9885 54.1357C19.9937 54.5391 20.0624 54.907 20.1977 55.2316C20.9579 57.0732 24.0878 58.281 28.5618 58.4526C32.7625 58.6155 37.6987 57.8191 40.8418 56.4694C47.7441 53.509 46.5545 47.6924 45.2314 44.4894L45.2351 44.491Z" fill="url(#paint5_linear_25_3239)"/>
<path opacity="0.71" d="M54.1741 33.9492C52.3219 33.5982 42.8087 31.5139 37.3187 29.6378C31.9902 27.8166 23.0985 24.689 17.3462 27.7167C11.8022 30.6365 14.7271 34.45 16.4954 36.4237C18.2792 38.4129 21.6701 41.0104 23.7693 43.1687C26.8883 46.3778 29.8428 44.7255 34.5607 42.709C45.2057 38.1665 49.6474 37.1877 52.9061 36.2613C54.9854 35.6698 54.1741 33.9492 54.1741 33.9492Z" fill="url(#paint6_linear_25_3239)"/>
<path d="M54.3983 35.2387C54.6121 34.5668 54.3106 33.9178 54.2999 33.891L54.2584 33.8021L54.1774 33.7857C52.259 33.4246 42.821 31.3497 37.3422 29.4783L37.0507 29.3773C32.4629 27.8114 25.1873 25.3228 19.6238 26.6875C19.6148 26.6881 19.6057 26.6887 19.5951 26.6931C18.7792 26.8964 17.999 27.1816 17.27 27.5642C15.1836 28.6609 14.0814 30.009 13.9863 31.5647C13.9393 32.3516 14.1534 33.1242 14.4991 33.8454C14.9962 34.8847 15.758 35.8177 16.4038 36.5365C17.3687 37.6132 18.8216 38.8875 20.2282 40.1154C21.451 41.1853 22.7122 42.2892 23.6798 43.2868C26.64 46.3308 29.4063 45.1337 33.5902 43.3193C33.9255 43.1713 34.2734 43.0243 34.6284 42.8713C36.8224 41.9359 38.7451 41.1533 40.4494 40.4922C45.9479 38.3556 49.1406 37.4815 51.6367 36.7988C52.104 36.671 52.5426 36.5489 52.9615 36.4319C53.7363 36.2113 54.2223 35.8106 54.402 35.2402L54.3983 35.2387ZM37.0059 29.7016L37.2974 29.8026C42.5423 31.5929 51.3942 33.5669 53.864 34.0588C54.0057 34.0875 54.1283 34.224 54.1581 34.3927C54.1671 34.4544 54.1783 34.5216 54.1826 34.5947C54.1895 34.7759 54.0754 34.9104 53.9187 34.9066C52.966 34.8825 51.792 34.7783 50.4551 34.6542C46.6642 34.3124 41.9462 33.8861 37.8103 34.8382C37.708 34.8618 37.6153 34.8939 37.5375 34.9323C37.4368 34.9833 37.3115 34.9571 37.2135 34.8666C35.6455 33.4278 33.5143 30.846 34.0091 29.0003C34.0491 28.8434 34.1919 28.7656 34.3438 28.812C35.3003 29.1184 36.1987 29.4271 37.0097 29.7032L37.0059 29.7016ZM32.4623 38.6878C32.1223 39.0343 31.55 39.0463 30.8892 38.7268C30.09 38.3397 29.132 37.413 28.9046 36.2871C28.8732 36.1223 28.8306 35.9527 28.7827 35.7854C28.731 35.6164 28.7939 35.4469 28.9271 35.3918C29.3407 35.2145 29.8363 35.0408 30.3569 34.8598C31.8565 34.3395 33.5325 33.7556 34.5239 32.6905C34.6438 32.5629 34.85 32.6055 34.9725 32.7733C35.5804 33.6232 36.3066 34.4118 36.955 35.0203C37.0744 35.1332 37.1228 35.3097 37.0711 35.4528C37.0445 35.5262 37.0269 35.599 37.0184 35.6712C36.981 35.9362 37.0193 36.2511 37.1173 36.5912C37.1738 36.78 37.0901 36.9675 36.9318 36.9986C35.8703 37.2317 33.2697 37.8703 32.466 38.6894L32.4623 38.6878ZM22.5046 30.4912C22.0529 29.168 21.3715 28.0551 20.7519 27.3785C20.5595 27.1679 20.6235 26.8294 20.8633 26.7927C23.848 26.3477 27.2285 26.8592 30.3687 27.6479C30.5312 27.6899 30.658 27.8683 30.6543 28.0539C30.6145 30.0297 30.2036 30.4086 28.4366 30.4592C27.8099 30.475 27.0734 30.6985 26.2922 30.9342C25.0532 31.3061 23.7785 31.6897 23.032 31.2091C22.7938 31.0549 22.6239 30.8225 22.5099 30.489L22.5046 30.4912ZM26.3987 31.2645C27.164 31.0354 27.8898 30.8164 28.4856 30.8009C30.3688 30.7459 30.8879 30.2567 30.9431 28.1716C30.9479 27.9731 31.0987 27.8452 31.2724 27.8919C32.0136 28.0939 32.7372 28.3064 33.4321 28.5245C33.6154 28.5797 33.7321 28.8029 33.6942 28.9964C33.5443 29.7354 33.7451 30.5602 34.1367 31.3811C34.2198 31.5589 34.3135 31.7323 34.4147 31.9088C34.4957 32.0501 34.4914 32.2265 34.3976 32.334C33.4601 33.4174 31.7538 34.0107 30.2328 34.5398C29.7335 34.712 29.2592 34.8769 28.8473 35.0504C28.6981 35.1121 28.5142 35.0165 28.4364 34.8366C27.9458 33.7197 27.1904 32.6469 26.34 31.8816C26.129 31.6943 26.1541 31.3438 26.3811 31.2749C26.3811 31.2749 26.3902 31.2743 26.3955 31.2721L26.3987 31.2645ZM14.2762 31.6382C14.3633 30.1951 15.4228 28.9271 17.4207 27.8731C18.1269 27.5031 18.882 27.2251 19.6782 27.0269C19.6979 27.0219 19.7176 27.0169 19.7394 27.0172C20.2206 27.0335 21.4924 28.4138 22.2306 30.5671C22.2898 30.7392 22.3622 30.8902 22.4501 31.0254C22.5082 31.1168 22.5327 31.2253 22.5146 31.3201C22.4298 31.7389 22.0237 31.8257 21.3331 31.9304C20.8247 32.0096 20.2497 32.1007 19.7168 32.4147C19.3986 32.6055 18.9797 32.7538 18.5433 32.9125C17.5222 33.2785 16.3019 33.7208 15.9916 34.8912C15.926 35.1398 15.6302 35.1529 15.4699 34.9291C14.7586 33.9284 14.2089 32.7955 14.2794 31.6307L14.2762 31.6382ZM20.3807 39.8589C18.9815 38.6342 17.5381 37.3684 16.5871 36.3109C16.5013 36.2123 16.4118 36.112 16.3223 36.0117C16.26 35.9408 16.2238 35.8497 16.2163 35.7529C16.0951 34.1682 17.3991 33.6945 18.6679 33.2415C19.1188 33.0801 19.5446 32.9258 19.8803 32.7246C20.3743 32.4298 20.9296 32.3437 21.4145 32.268C22.0977 32.1602 22.6999 32.0672 22.806 31.4211C22.8385 31.4482 22.8764 31.4731 22.9105 31.4965C23.5248 31.8945 24.387 31.8 25.3015 31.5716C25.375 31.5537 25.4523 31.5685 25.5258 31.613C26.9517 32.5459 28.2654 34.5235 28.6222 36.3103C28.6632 36.5149 28.7277 36.716 28.806 36.9051C28.8928 37.1157 28.8075 37.3382 28.6215 37.3621C28.2011 37.4205 27.6793 37.5832 27.0574 37.7748C26.3231 38.0036 25.4923 38.263 24.6045 38.4179C22.4127 38.7971 21.4023 39.2835 21.2391 40.0436C21.2391 40.0436 21.2391 40.0436 21.2375 40.0474C21.189 40.2765 20.9588 40.353 20.775 40.195C20.6444 40.0774 20.5123 39.9636 20.3802 39.8497L20.3807 39.8589ZM23.8551 43.049C23.2882 42.466 22.6249 41.8511 21.9264 41.2258C21.9072 41.2088 21.8896 41.188 21.872 41.1672C21.5763 40.7747 21.4613 40.4541 21.5199 40.1802C21.6964 39.3678 23.4129 38.9793 24.6881 38.7609C25.5903 38.6031 26.4302 38.3431 27.1736 38.1137C27.9937 37.8588 28.719 37.6306 29.1357 37.6954C29.2183 37.7081 29.2961 37.7632 29.3531 37.8364C29.783 38.3793 30.326 38.8006 30.8109 39.0369C30.9531 39.106 31.0927 39.1605 31.2243 39.2028C31.4114 39.2596 31.5339 39.4898 31.4817 39.6861C31.2758 40.495 31.4776 41.5254 31.9086 42.4298C32.012 42.6429 32.126 42.8516 32.2517 43.0429C32.3737 43.2327 32.33 43.4817 32.1557 43.5506C28.7696 44.9759 26.3497 45.624 23.8498 43.0512L23.8551 43.049ZM34.4915 42.5504C34.1365 42.7034 33.7869 42.8542 33.4533 42.9984C33.2972 43.0661 33.1411 43.1338 32.9902 43.1993C32.8661 43.2538 32.7174 43.1998 32.6242 43.0668C31.8378 41.963 31.4245 40.3306 31.9432 39.3954C31.981 39.3267 32.0418 39.2766 32.11 39.2609C32.3311 39.2162 32.5251 39.1111 32.6797 38.9536C33.5367 38.0812 36.7469 37.384 37.3725 37.2563C37.3853 37.2884 37.3996 37.3168 37.4124 37.349C37.7789 38.1147 38.3383 38.9129 38.9052 39.5271C39.0235 39.6529 39.1727 39.8096 39.3395 39.9559C39.5409 40.1347 39.5296 40.4732 39.3181 40.5576C37.8653 41.1334 36.2682 41.7907 34.4915 42.5504ZM52.8528 36.0962C52.4323 36.217 51.9954 36.3353 51.5317 36.4646C49.041 37.1452 45.8467 38.0231 40.3604 40.1515C40.3444 40.1581 40.3247 40.1631 40.3066 40.1644C40.1201 40.1791 39.7093 39.9652 39.0902 39.2978C38.1141 38.2475 37.1802 36.6401 37.3082 35.7759C37.3562 35.4441 37.554 35.2469 37.9094 35.1654C42.0074 34.2195 46.7036 34.6455 50.4779 34.9848C51.4893 35.0782 52.4091 35.1596 53.2084 35.2035C53.5313 35.2197 53.6794 35.7325 53.4022 35.8783C53.2434 35.9627 53.0585 36.0361 52.8544 36.0924L52.8528 36.0962Z" fill="#A67C52"/>
<path opacity="0.71" d="M59.2027 45.7847C58.1303 47.3638 52.8221 55.6834 50.2236 60.9543C47.7017 66.0749 43.5562 74.6811 37.3777 76.6683C31.4241 78.5812 30.8642 73.7709 30.7565 71.1043C30.6471 68.4102 31.2552 64.134 31.2567 61.0945C31.2542 56.5779 34.4879 55.6276 39.2308 53.6662C49.9226 49.2417 53.7502 46.7416 56.7031 45.0618C58.587 43.9864 59.1995 45.7922 59.1995 45.7922L59.2027 45.7847Z" fill="url(#paint7_linear_25_3239)"/>
<path d="M58.4745 44.7099C59.0899 45.0326 59.3258 45.7119 59.3365 45.7387L59.3674 45.832L59.3189 45.9051C58.206 47.5384 52.9431 55.7925 50.3514 61.0574L50.215 61.3385C48.0428 65.7466 44.5983 72.737 39.7103 75.7693C39.7033 75.7752 39.6964 75.7812 39.6895 75.7872C38.9711 76.2278 38.2207 76.588 37.4384 76.8366C35.1992 77.5567 33.4871 77.3943 32.3426 76.3575C31.7682 75.8338 31.3836 75.1317 31.1285 74.373C30.7609 73.277 30.6577 72.0655 30.6195 71.0954C30.5585 69.6387 30.7106 67.6882 30.8596 65.8077C30.9882 64.1726 31.1191 62.4806 31.1177 61.0803C31.1141 56.795 33.9039 55.6569 38.1277 53.9352C38.4672 53.7979 38.8173 53.6562 39.1744 53.5086C41.3753 52.5984 43.2826 51.7691 44.9506 51.017C50.3283 48.5841 53.1997 46.91 55.4412 45.6024C55.8616 45.3568 56.2576 45.1275 56.6344 44.9124C57.3368 44.5096 57.9571 44.4466 58.4787 44.7207L58.4745 44.7099ZM49.9576 61.136L50.0941 60.8549C52.577 55.8159 57.4956 48.0537 58.9075 45.9317C58.9896 45.8104 58.9806 45.6238 58.8852 45.4854C58.8495 45.4347 58.8079 45.377 58.7632 45.3269C58.6444 45.1919 58.4691 45.1802 58.3593 45.2942C57.7016 45.9967 56.94 46.9138 56.0749 47.9611C53.6243 50.9276 50.5682 54.6187 46.9763 56.9152C46.8867 56.971 46.7983 57.0138 46.7199 57.0431C46.6128 57.078 46.5446 57.1873 46.536 57.3219C46.419 59.47 46.6908 62.8301 48.3181 63.7858C48.4556 63.8662 48.6112 63.8206 48.6847 63.6779C49.1506 62.7739 49.5733 61.9096 49.9592 61.1322L49.9576 61.136ZM40.5229 58.0239C40.0444 58.0221 39.6276 58.4254 39.3792 59.1271C39.0812 59.9773 39.0394 61.3237 39.6553 62.2795C39.7453 62.4201 39.8322 62.5683 39.9158 62.724C39.9994 62.8798 40.1566 62.9552 40.2899 62.9001C40.7093 62.7297 41.1777 62.4955 41.6728 62.2502C43.0925 61.5445 44.6891 60.7532 46.1268 60.7952C46.3 60.8015 46.4204 60.6207 46.3885 60.4155C46.2299 59.3767 46.2034 58.2956 46.244 57.399C46.251 57.237 46.1615 57.0743 46.0267 57.0084C45.9574 56.9747 45.8951 56.9349 45.838 56.893C45.6249 56.7315 45.4374 56.4784 45.2738 56.1685C45.1801 55.9951 44.9957 55.9216 44.8593 56.0154C43.9464 56.6145 41.6585 58.0317 40.5229 58.0239ZM39.1216 70.9958C39.7135 72.258 40.0042 73.5355 40.0291 74.4643C40.0387 74.7536 40.3173 74.9473 40.5108 74.8017C42.9367 72.9749 44.9792 70.1834 46.6635 67.3653C46.7514 67.2198 46.7168 67.0001 46.5858 66.8733C45.1925 65.4995 44.6394 65.5286 43.3485 66.7613C42.8918 67.1966 42.215 67.5701 41.4977 67.9666C40.3625 68.592 39.1922 69.2382 38.9939 70.1127C38.932 70.3941 38.9725 70.6831 39.12 70.9996L39.1216 70.9958ZM41.3517 67.6463C42.0568 67.258 42.7176 66.8911 43.1519 66.4775C44.527 65.1601 45.2314 65.1371 46.7142 66.58C46.8549 66.7152 47.0505 66.6999 47.1395 66.5414C47.5259 65.8668 47.8926 65.1972 48.2364 64.5403C48.3265 64.3689 48.2562 64.1296 48.0932 64.0161C47.4778 63.5998 47.0478 62.8697 46.7575 62.0069C46.6958 61.8203 46.6409 61.6277 46.5914 61.433C46.5493 61.2725 46.4241 61.1527 46.2887 61.14C44.8772 61.0467 43.2523 61.8528 41.8075 62.5657C41.3354 62.7984 40.8829 63.0261 40.4726 63.1958C40.3234 63.2575 40.2605 63.4582 40.3313 63.6442C40.758 64.7875 40.9613 66.0949 40.8882 67.2452C40.87 67.5273 41.1273 67.7609 41.3389 67.6453C41.3389 67.6453 41.3458 67.6394 41.3512 67.6372L41.3517 67.6463ZM32.4961 76.0881C33.5527 77.0521 35.1832 77.1889 37.3298 76.5009C38.0886 76.2558 38.8161 75.9082 39.5153 75.4817C39.5329 75.4713 39.5505 75.4609 39.5659 75.4452C39.8979 75.0864 39.8444 73.196 38.8786 71.1337C38.8019 70.972 38.747 70.8106 38.7178 70.6512C38.6954 70.5481 38.6389 70.4529 38.5574 70.3961C38.2089 70.1596 37.8604 70.3911 37.2971 70.8081C36.8803 71.1177 36.4113 71.4677 35.8129 71.6247C35.4564 71.7191 35.0583 71.9118 34.6373 72.1171C33.6588 72.5903 32.4928 73.1536 31.4623 72.5439C31.2439 72.4159 31.0227 72.6166 31.0679 72.8942C31.2553 74.1146 31.6468 75.3099 32.5014 76.0859L32.4961 76.0881ZM31.1452 65.8705C30.9994 67.7435 30.8483 69.681 30.9062 71.1141C30.912 71.2459 30.9163 71.3814 30.9259 71.5147C30.9333 71.6114 30.9695 71.7025 31.0281 71.7719C32.0356 72.987 33.2901 72.3809 34.502 71.7924C34.9336 71.5827 35.3408 71.3893 35.7186 71.2861C36.2739 71.1376 36.7237 70.8019 37.1213 70.5064C37.6793 70.0916 38.1728 69.7253 38.6933 70.1059C38.6981 70.0634 38.7083 70.0186 38.7168 69.9777C38.8784 69.2525 39.5541 68.7048 40.3621 68.2084C40.4271 68.1691 40.4724 68.1035 40.491 68.0178C40.859 66.3369 40.424 63.9865 39.4421 62.4613C39.3281 62.2838 39.2354 62.0975 39.1624 61.9062C39.0809 61.6934 38.8625 61.5965 38.7111 61.7153C38.3716 61.9773 37.8883 62.2365 37.3132 62.5461C36.6359 62.9104 35.8669 63.3251 35.1282 63.8552C33.3088 65.163 32.2611 65.5401 31.6164 65.1203C31.6164 65.1203 31.6164 65.1203 31.6126 65.1187C31.4198 64.9926 31.2023 65.1012 31.1836 65.3429C31.1703 65.52 31.1569 65.6972 31.1452 65.8705ZM31.4033 61.1119C31.4037 61.9323 31.3588 62.8494 31.299 63.7914C31.2968 63.8173 31.2984 63.8447 31.3 63.8721C31.3612 64.3616 31.5013 64.6749 31.732 64.826C32.4205 65.2776 33.9036 64.318 34.9599 63.5567C35.7108 63.0184 36.4851 62.6015 37.1694 62.2311C37.9278 61.8208 38.5982 61.4625 38.8508 61.1146C38.9015 61.0469 38.918 60.9558 38.9105 60.8591C38.8392 60.1647 38.9321 59.4774 39.1165 58.9581C39.1714 58.8075 39.2306 58.6676 39.2924 58.5421C39.3841 58.367 39.3149 58.1148 39.1417 58.0148C38.4384 57.5881 37.8673 56.7136 37.5498 55.7591C37.4731 55.535 37.4124 55.3042 37.3682 55.076C37.3224 54.8516 37.1178 54.7116 36.9473 54.7821C33.5611 56.2074 31.3958 57.4803 31.3974 61.105L31.4033 61.1119ZM39.2947 53.827C38.9377 53.9746 38.5876 54.1163 38.2465 54.2573C38.0882 54.3197 37.9321 54.3873 37.7791 54.4475C37.6566 54.4982 37.5867 54.6425 37.6107 54.8042C37.8146 56.1519 38.6489 57.6102 39.6623 57.8962C39.7364 57.9186 39.8142 57.9114 39.8755 57.8705C40.0647 57.7454 40.2736 57.6778 40.4921 57.681C41.7038 57.6853 44.4618 55.8741 44.9958 55.516C44.983 55.4838 44.9702 55.4517 44.9611 55.4211C44.6906 54.6157 44.5378 53.6462 44.516 52.8034C44.5113 52.6276 44.5113 52.4092 44.5311 52.1857C44.5498 51.9128 44.3089 51.6817 44.0995 51.7714C42.6739 52.4077 41.0837 53.0903 39.2985 53.8285L39.2947 53.827ZM56.7793 45.2144C56.4025 45.4295 56.0065 45.6588 55.5861 45.9044C53.3446 47.212 50.4732 48.8861 45.1115 51.3123C45.0955 51.319 45.0779 51.3294 45.0641 51.3413C44.9239 51.4648 44.7789 51.9116 44.7995 52.8297C44.8329 54.2792 45.2818 56.0872 45.9708 56.6103C46.2334 56.8106 46.5116 56.8079 46.8186 56.6123C50.3791 54.3381 53.416 50.6611 55.8602 47.7098C56.5163 46.9174 57.1095 46.201 57.6452 45.5895C57.8637 45.3432 57.6128 44.876 57.3165 44.9735C57.1449 45.0258 56.9658 45.1061 56.7793 45.2144Z" fill="#A67C52"/>
<path style="mix-blend-mode:screen" opacity="0.69" d="M66.2902 40.8788C65.9813 40.133 66.007 39.1053 66.6568 37.7976C67.1472 36.8148 67.8289 35.9932 68.5739 35.4792C68.9656 35.208 69.3594 35.0358 69.7357 34.9676C69.6845 34.6517 69.6009 34.34 69.4763 34.0421C69.3809 33.8101 69.2664 33.5923 69.1327 33.3886C68.2842 34.2512 67.0574 35.083 65.5967 35.7089C63.6835 36.5312 61.8029 36.8191 60.4601 36.5944C60.5373 36.9836 60.6529 37.3758 60.8116 37.7594C61.8402 40.2449 64.2556 41.6141 66.3195 40.9447C66.311 40.9233 66.2988 40.9003 66.2902 40.8788Z" fill="url(#paint8_linear_25_3239)"/>
<path d="M45.0295 44.0207L44.8755 43.9689L44.2307 43.83L44.3955 43.1909L44.5351 43.1207L44.3379 43.015L44.5069 42.9171L43.9261 42.7829L44.3822 42.5568L44.0636 42.4889L44.0866 41.8834L44.7953 41.7776L44.4128 41.5801L45.0277 41.4256L44.1464 41.2223L44.2275 40.6147L44.763 40.6272L44.5834 40.5735L44.6762 39.9798L44.0305 39.5105L45.1309 39.5079L45.012 39.4353L45.197 38.8628L45.3542 38.8758L45.2716 38.7695L45.5797 38.7482L45.2445 38.553L45.3815 38.4059L45.0879 38.2059L45.2878 37.6397L45.4434 37.6564L44.8552 36.9574L45.3476 37.0097L45.3044 36.987L45.5518 36.4229L45.7702 36.4886L45.8998 36.2135L45.9237 36.2192L45.7613 35.8652L45.9115 35.9154L45.1811 35.0225L47.0562 35.7041L46.842 35.4931L47.1874 34.9884L47.1948 34.9916L46.9126 34.1411L47.5141 34.4134L47.154 34.0382L47.5089 33.5419L47.7503 33.6574L47.5601 33.4521L47.5389 32.5873L48.14 32.8816L48.253 32.136L48.9366 32.6926L48.1966 31.6976L49.452 32.077L49.297 31.7261L49.7644 31.3488L49.814 31.3875L49.7378 30.8294L50.1348 30.7744L50.4211 30.472L50.818 30.9474L50.9267 30.7215L51.0647 30.7486L51.1842 30.0503L51.4522 30.4355L51.7986 30.2611L52.033 30.6321L52.301 30.5182L52.4001 30.6894L52.2825 29.8239L52.6315 30.0695L53.1767 29.9346L53.3713 29.1521L53.7687 30.0735L53.7102 29.3177L54.3598 28.9461L54.6299 29.6799L54.6352 29.5217L55.2892 28.3496L55.4606 29.7326L55.6588 29.7318L55.6882 29.6104L55.985 29.6156L56.0666 29.3292L56.52 29.3382L56.7887 28.9526L56.9527 29.4276L56.9943 29.3293L57.582 29.4575L57.5596 29.8536L58.0569 28.7401L58.3035 29.8518L58.6653 30.0048L58.9675 29.6021L59.1652 29.9042L59.7897 29.571L59.5269 30.6812L59.7059 30.5385L60.1103 30.8299L60.1354 30.8227L60.7903 30.7609L60.689 31.4892L60.6644 31.724L60.731 31.7744L61.127 31.4515L61.5841 31.8366L61.3043 32.3735L61.2867 32.4463L62.5065 32.0261L61.8984 32.7362L62.0753 32.6505L61.7481 33.154L61.9042 33.0863L62.2473 33.5747L61.9014 33.9455L61.9019 33.9546L62.5601 33.6357L62.9123 34.1234L62.5498 34.5228L62.5903 34.5935L62.6708 34.6007L63.0055 34.5684L63.8943 34.3381L64.069 34.9647L63.5707 35.4984L63.5062 35.5469L63.7124 35.5272L63.909 36.0917L63.7038 36.2234L63.7741 36.369L63.9431 36.3335L64.1497 36.8845L65.2182 36.7078L64.7486 37.5478L64.5066 37.7352L64.6121 37.9225L64.9659 37.9072L64.8642 37.9711L65.08 37.9287L65.2755 38.5062L64.9275 38.6844L65.3538 38.6641L65.2391 39.1015L65.8284 39.4755L65.1543 39.8635L65.2252 39.8623L65.3396 40.4545L65.2064 40.5096L65.2602 40.9024L65.3406 40.9096L65.4045 41.5072L65.3064 41.5415L65.8462 41.6896L65.5025 41.8161L65.4806 42.4086L65.001 42.4822L64.9988 42.5392L65.31 42.6976L65.1602 43.2806L64.6065 43.2693L65.5853 43.8972L65.0087 43.8673L65.1643 43.9465L65.0486 44.3344L65.8708 44.8649L65.0177 44.8339L65.308 45.1038L64.8157 45.114L64.6616 45.4055L64.7831 45.4925L64.2528 45.665L64.4351 45.8268L64.1105 46.3447L63.713 46.1722L64.3907 46.753L63.4928 47.0151L63.0153 46.7196L62.7547 47.0552L63.1143 47.5772L62.6752 48.0022L62.6064 47.9464L62.3432 48.1738L62.2686 48.1111L62.0735 48.2604L62.1348 48.3754L61.6333 48.7294L61.4633 48.5283L61.3476 49.0722L60.7855 48.4467L60.7482 48.6493L60.3827 48.2763L60.1695 48.3957L60.2249 48.847L60.383 49.6583L60.051 49.7987L60.0579 49.8239L59.6066 49.9763L59.6289 50.1105L59.5085 50.0106L59.4797 50.0162L59.4547 49.9611L59.1307 49.677L59.176 50.017L58.5925 50.1804L58.5754 50.1375L58.2503 50.2407L58.1805 50.1042L57.6983 50.1945L57.5225 49.5807L57.4111 49.605L57.3257 50.5763L56.7887 49.8811L56.7662 50.5893L56.075 51.1216L55.9014 50.0452L55.8087 50.0461L55.7255 50.2739L55.2406 50.2249L54.7951 50.1969L54.7728 49.7506L54.6561 49.9955L54.4665 49.5498L54.0982 50.0671L53.7969 51.2992L53.3116 50.0866L53.2222 49.6743L53.2136 49.6841L52.879 49.654L52.4751 49.6838L52.3647 49.9759L51.7786 49.8439L51.8063 49.5703L51.5809 49.7291L51.3725 50.2115L50.8119 50.0502L50.6212 49.5862L50.7337 49.0186L50.2574 48.835L49.7366 49.5464L49.3972 49.4652L48.8643 49.436L49.1864 48.2171L49.1922 48.1928L49.1928 47.9835L48.2228 49.2271L48.1925 48.5813L47.5897 48.9148L47.9069 48.1128L47.6016 47.8366L47.4615 47.9913L47.0272 47.6561L46.9254 47.7512L46.4571 47.1742L46.7934 46.7013L46.794 46.6793L46.7199 46.7193L46.3166 46.2901L46.3731 46.1981L45.9845 46.4618L45.7704 46.2196L45.1341 46.5701L45.0516 45.8086L45.1091 45.7037L44.742 45.5841L45.2632 45.1002L45.2446 45.0611L44.9046 45.1893L44.6691 44.7687L43.7318 44.7601L45.0295 44.0207Z" fill="#CE9115"/>
<path d="M45.9902 44.1819L45.7291 44.0403L45.1398 43.9783L45.8784 43.5106L44.502 43.5837L45.1463 43.1831L45.5465 42.871L45.2705 42.6606L44.3481 42.4711L45.0095 42.1758L45.9426 41.9241L45.3224 41.6751L45.7972 41.4569L44.2364 41.0821L44.7347 40.8605L45.4696 40.7032L44.4774 40.2836L45.0205 40.1121L44.4189 39.715L44.631 39.4838L45.6973 39.489L45.4139 39.1507L46.4189 39.1969L44.8347 38.4199L46.493 38.72L45.6224 38.1379L45.5052 37.8119L45.6134 37.5769L45.6822 37.3207L45.8442 37.1039L46.6377 37.2032L47.0709 37.1457L47.064 36.8709L47.3576 36.7588L47.3108 36.4537L46.4349 35.6554L46.5655 35.4298L47.3988 35.653L47.7974 35.6254L47.7399 35.2935L48.0405 35.2066L48.4977 35.2485L47.43 34.1238L48.5601 34.6954L48.4936 34.3329L47.671 33.2941L49.0846 34.2039L48.8225 33.6384L48.2268 32.7179L48.4139 32.5251L48.8994 32.6457L48.8072 32.1565L49.6198 32.6785L50.1953 32.9709L49.9305 32.2661L50.1565 32.1477L50.1198 31.673L51 32.4821L51.0325 32.1036L50.7135 31.1529L51.6118 32.148L51.8516 32.1112L51.8181 31.5666L52.1192 31.6449L52.4511 31.8165L52.0309 30.2213L52.7959 31.4586L52.5755 30.1396L52.7866 29.9213L53.5249 31.4816L53.663 31.1344L53.7665 30.5363L53.9264 30.0645L54.0709 29.3589L54.5572 30.8707L54.69 29.9016L55.0405 31.2044L55.2351 30.5155L55.4754 30.3943L55.7082 30.7691L55.9774 30.2054L56.2241 30.225L56.3556 31.141L56.7794 29.9517L57.0267 30.0429L57.1369 30.6868L57.5116 30.248L57.7572 30.3118L58.1884 29.8745L57.8716 31.4344L58.7053 30.0664L58.8971 30.299L59.0899 30.5188L58.6629 31.8404L59.2992 31.2091L59.6792 31.08L60.0224 31.038L59.6093 32.0668L60.0596 31.865L60.2828 31.9817L60.9938 31.5379L61.055 31.8714L60.2342 33.1156L61.4605 32.2123L60.8049 33.201L61.9459 32.4889L60.881 33.7592L61.7848 33.3168L61.2321 34.0726L62.6097 33.3313L61.968 34.1208L62.8084 33.8388L62.9384 34.0721L63.0417 34.3164L63.1872 34.5339L62.5988 35.1766L62.3573 35.5916L63.2814 35.3717L62.8347 35.8871L63.5083 35.8332L63.2887 36.2173L63.4016 36.4389L64.2335 36.3538L63.1074 37.1034L64.1838 36.9391L63.6583 37.4122L63.9445 37.5778L64.0968 37.7894L63.2777 38.3122L64.6456 38.1552L63.2968 38.7972L63.8627 38.8939L64.6812 38.9548L64.443 39.2686L63.6591 39.677L63.8764 39.8804L64.6209 40.0125L63.8012 40.3701L63.7623 40.6077L64.9586 40.7526L64.796 41.0226L65.3997 41.2691L64.1512 41.5389L63.7206 41.7669L65.1465 42.0758L64.2502 42.2717L65.0041 42.5995L64.6972 42.8263L64.2495 43.0114L63.5941 43.1265L63.464 43.33L64.6107 43.8729L64.7716 44.1995L63.3408 43.9956L63.5859 44.331L63.588 44.586L64.6787 45.3548L64.5966 45.6322L62.9117 45.031L63.3891 45.5761L62.6111 45.3675L63.8333 46.4906L62.9547 46.177L63.3787 46.8377L62.2092 46.1826L62.5283 46.7901L62.8708 47.4877L62.9054 47.9258L62.4743 47.8638L62.462 48.2776L61.9243 48.0413L61.0164 47.225L61.2716 48.0149L60.6423 47.4858L60.833 48.2618L60.4744 48.1324L60.7124 49.1291L60.2153 48.7138L59.8716 48.5595L59.3734 48.0011L59.6338 49.3193L58.9865 48.2298L58.9646 48.9159L58.7631 49.0803L58.714 49.8931L58.3815 49.6187L58.2072 50.0621L57.9067 49.8681L57.5801 49.4135L57.2754 48.9904L57.0547 49.169L56.8633 49.7255L56.5847 49.2823L56.39 50.4392L56.0892 48.7696L55.8652 50.1726L55.6245 48.8182L55.39 48.9464L55.0701 50.5763L54.9045 49.1378L54.5927 49.9376L54.3481 49.8609L54.2166 48.8513L53.7677 50.3598L53.545 50.0962L53.3842 49.5201L53.0569 49.8987L52.8022 49.8668L52.4937 50.0662L52.3408 49.5959L52.4231 48.2889L51.9583 49.0864L51.711 49.0576L51.5171 48.8508L51.3509 48.5576L51.1148 48.5023L51.1096 47.8181L50.2578 49.3434L50.4482 48.207L50.2788 47.9838L50.0086 47.9988L49.2358 49.036L49.3308 48.2604L48.7781 48.7666L49.2371 47.4006L49.0746 47.2026L48.878 47.0749L48.6931 46.9298L48.0776 47.4184L47.6923 47.5184L47.5037 47.3406L47.2303 47.2695L47.5027 46.5423L47.4505 46.2394L47.0631 46.3029L46.7157 46.303L46.4205 46.2317L46.0549 46.2019L46.8773 45.2035L46.7345 45.0316L46.0721 45.2151L46.6898 44.5447L45.2931 45.0817L44.7789 45.0292L45.9902 44.1819Z" fill="#6B4628"/>
<path d="M59.3756 48.0064C54.9119 49.921 47.8617 47.6168 46.3755 44.0195C44.8872 40.4168 48.1984 33.6687 52.6621 31.7542C57.1258 29.8396 60.8705 32.5155 62.7232 37.0033C64.5759 41.4912 63.8393 46.0919 59.374 48.0102L59.3756 48.0064Z" fill="url(#paint9_radial_25_3239)"/>
<path style="mix-blend-mode:screen" opacity="0.77" d="M61.5945 37.4888C61.3574 36.916 61.0735 36.3502 60.748 35.8202C60.7989 37.1969 59.6684 38.9342 56.2892 40.3847C54.4667 41.1696 52.131 41.7018 50.0495 41.82C48.8655 41.8853 47.902 41.8033 47.2685 41.6066C47.2151 42.3463 47.2917 43.0072 47.508 43.5355C48.0604 44.8702 49.8283 46.1484 52.1313 46.8683C54.5808 47.6368 57.1306 47.6275 58.9516 46.8464C63.023 45.1003 62.9843 40.867 61.5892 37.491L61.5945 37.4888Z" fill="url(#paint10_linear_25_3239)"/>
</g>
<defs>
<linearGradient id="paint0_linear_25_3239" x1="44.1507" y1="57.5607" x2="54.9013" y2="53.1201" gradientUnits="userSpaceOnUse">
<stop stop-color="#1A1A1A"/>
<stop offset="0.1" stop-color="#2B241E"/>
<stop offset="0.38" stop-color="#543F29"/>
<stop offset="0.63" stop-color="#735232"/>
<stop offset="0.85" stop-color="#855D37"/>
<stop offset="1" stop-color="#8C6239"/>
</linearGradient>
<linearGradient id="paint1_linear_25_3239" x1="50.9859" y1="48.4797" x2="49.8506" y2="52.4688" gradientUnits="userSpaceOnUse">
<stop/>
<stop offset="0.16" stop-color="#111111"/>
<stop offset="0.49" stop-color="#313131"/>
<stop offset="0.78" stop-color="#454545"/>
<stop offset="0.97" stop-color="#4D4D4D"/>
<stop offset="0.98" stop-color="#676767"/>
<stop offset="0.99" stop-color="#797979"/>
<stop offset="1" stop-color="#808080"/>
</linearGradient>
<linearGradient id="paint2_linear_25_3239" x1="-515.64" y1="-905.446" x2="-515.977" y2="-902.728" gradientUnits="userSpaceOnUse">
<stop stop-color="#F2F2F2"/>
<stop offset="0.07" stop-color="#D8D8D8"/>
<stop offset="0.27" stop-color="#979797"/>
<stop offset="0.45" stop-color="#616161"/>
<stop offset="0.62" stop-color="#373737"/>
<stop offset="0.78" stop-color="#191919"/>
<stop offset="0.91" stop-color="#060606"/>
<stop offset="1"/>
</linearGradient>
<linearGradient id="paint3_linear_25_3239" x1="56.577" y1="61.987" x2="52.9728" y2="60.0484" gradientUnits="userSpaceOnUse">
<stop/>
<stop offset="0.16" stop-color="#111111"/>
<stop offset="0.49" stop-color="#313131"/>
<stop offset="0.78" stop-color="#454545"/>
<stop offset="0.97" stop-color="#4D4D4D"/>
<stop offset="0.98" stop-color="#676767"/>
<stop offset="0.99" stop-color="#797979"/>
<stop offset="1" stop-color="#808080"/>
</linearGradient>
<linearGradient id="paint4_linear_25_3239" x1="269.506" y1="903.547" x2="267.34" y2="901.923" gradientUnits="userSpaceOnUse">
<stop stop-color="#F2F2F2"/>
<stop offset="0.07" stop-color="#D8D8D8"/>
<stop offset="0.27" stop-color="#979797"/>
<stop offset="0.45" stop-color="#616161"/>
<stop offset="0.62" stop-color="#373737"/>
<stop offset="0.78" stop-color="#191919"/>
<stop offset="0.91" stop-color="#060606"/>
<stop offset="1"/>
</linearGradient>
<linearGradient id="paint5_linear_25_3239" x1="16.9223" y1="68.1131" x2="20.9769" y2="77.5612" gradientUnits="userSpaceOnUse">
<stop/>
<stop offset="0.02" stop-color="#0A0A0A"/>
<stop offset="0.18" stop-color="#464646"/>
<stop offset="0.33" stop-color="#7B7B7B"/>
<stop offset="0.48" stop-color="#A5A5A5"/>
<stop offset="0.63" stop-color="#C6C6C6"/>
<stop offset="0.76" stop-color="#DEDEDE"/>
<stop offset="0.89" stop-color="#EDEDED"/>
<stop offset="1" stop-color="#F2F2F2"/>
</linearGradient>
<linearGradient id="paint6_linear_25_3239" x1="36.9614" y1="53.2464" x2="-2.29753" y2="55.8696" gradientUnits="userSpaceOnUse">
<stop offset="0.15" stop-color="#704F2E"/>
<stop offset="0.35" stop-color="#967951"/>
<stop offset="0.66" stop-color="#CEB787"/>
<stop offset="0.88" stop-color="#F1DFA8"/>
<stop offset="1" stop-color="#FFEEB5"/>
</linearGradient>
<linearGradient id="paint7_linear_25_3239" x1="44.6593" y1="68.5835" x2="14.4285" y2="94.2743" gradientUnits="userSpaceOnUse">
<stop offset="0.15" stop-color="#704F2E"/>
<stop offset="0.35" stop-color="#967951"/>
<stop offset="0.66" stop-color="#CEB787"/>
<stop offset="0.88" stop-color="#F1DFA8"/>
<stop offset="1" stop-color="#FFEEB5"/>
</linearGradient>
<linearGradient id="paint8_linear_25_3239" x1="53.7001" y1="58.9275" x2="47.4788" y2="54.0094" gradientUnits="userSpaceOnUse">
<stop stop-color="#F2F2F2"/>
<stop offset="0.07" stop-color="#D8D8D8"/>
<stop offset="0.27" stop-color="#979797"/>
<stop offset="0.45" stop-color="#616161"/>
<stop offset="0.62" stop-color="#373737"/>
<stop offset="0.78" stop-color="#191919"/>
<stop offset="0.91" stop-color="#060606"/>
<stop offset="1"/>
</linearGradient>
<radialGradient id="paint9_radial_25_3239" cx="0" cy="0" r="1" gradientUnits="userSpaceOnUse" gradientTransform="translate(38.9864 59.8394) rotate(67.5565) scale(8.76852 8.77089)">
<stop stop-color="#5E3D23"/>
<stop offset="0.42" stop-color="#5B3B21"/>
<stop offset="0.66" stop-color="#53341C"/>
<stop offset="0.85" stop-color="#452A13"/>
<stop offset="1" stop-color="#351E09"/>
</radialGradient>
<linearGradient id="paint10_linear_25_3239" x1="38.2791" y1="58.1268" x2="41.965" y2="66.7157" gradientUnits="userSpaceOnUse">
<stop/>
<stop offset="0.17" stop-color="#303030"/>
<stop offset="0.47" stop-color="#828282"/>
<stop offset="0.72" stop-color="#BEBEBE"/>
<stop offset="0.9" stop-color="#E3E3E3"/>
<stop offset="1" stop-color="#F2F2F2"/>
</linearGradient>
<clipPath id="clip0_25_3239">
<rect width="68" height="68" fill="white" transform="translate(26.9293 0.44165) rotate(22.925)"/>
</clipPath>
</defs>
</svg>
