<svg width="96" height="96" viewBox="0 0 96 96" fill="none" xmlns="http://www.w3.org/2000/svg">
<g clip-path="url(#clip0_25_3432)">
<path d="M81.5474 46.7626C81.5781 46.8675 81.5636 46.9616 81.5251 47.0386C81.4865 47.1156 81.4182 47.1748 81.3531 47.2315C81.2855 47.2851 81.2129 47.3322 81.1557 47.3724C81.1113 47.4023 81.0463 47.459 80.9883 47.5049L80.6342 47.7852L80.2676 48.0497C80.1435 48.1376 80.0176 48.2167 79.8884 48.2983L79.6938 48.4162C79.6283 48.4525 79.5628 48.4889 79.4948 48.5221C79.2304 48.6643 78.9516 48.7817 78.6767 48.8909C78.1168 49.0965 77.5415 49.2628 76.947 49.3254C76.6519 49.3627 76.3514 49.3734 76.0541 49.3815C75.9029 49.3824 75.755 49.3807 75.607 49.379C75.5343 49.3798 75.4555 49.3596 75.3737 49.3158C75.2952 49.2695 75.2098 49.208 75.1232 49.0854C75.1785 48.9435 75.2381 48.8602 75.3014 48.7946C75.3647 48.729 75.4283 48.6837 75.4949 48.662C75.6288 48.6128 75.7634 48.5579 75.8972 48.5088C76.1657 48.4047 76.4291 48.2943 76.6937 48.1985C77.2241 47.9954 77.7565 47.8477 78.2953 47.6949C78.5634 47.6169 78.8334 47.5478 79.1008 47.4755L79.924 47.2783L80.3404 47.1759L80.7531 47.0557C80.8229 47.0315 80.8881 47.0212 80.9683 46.9835C81.0381 46.9593 81.09 46.9388 81.1458 46.9101C81.2009 46.8872 81.2435 46.8483 81.305 46.8202C81.3666 46.7922 81.4414 46.7742 81.5506 46.7601L81.5474 46.7626Z" fill="black"/>
<path d="M81.2326 47.1255C81.2188 47.0486 81.2144 46.9901 81.215 46.9379C81.2156 46.8858 81.218 46.8426 81.2262 46.7999C81.2336 46.7631 81.2443 46.7236 81.2575 46.6874C81.2732 46.6543 81.2914 46.6244 81.3096 46.5944C81.346 46.5346 81.3799 46.4716 81.4113 46.4054L81.5105 46.2133C81.6361 45.9486 81.7559 45.6832 81.8732 45.4147C82.1046 44.8802 82.3418 44.3464 82.5674 43.8113C82.7906 43.2731 82.9883 42.7291 83.2057 42.1902L83.5348 41.3822C83.5893 41.246 83.6438 41.1099 83.6984 40.9737C83.7215 40.9037 83.7726 40.8426 83.8473 40.7783C83.9278 40.7146 84.0223 40.6553 84.1862 40.5978C84.3286 40.6917 84.3997 40.7749 84.4554 40.8651C84.5061 40.9489 84.5306 41.0328 84.5322 41.1142C84.5271 41.2731 84.5164 41.4315 84.5113 41.5904C84.4808 41.909 84.442 42.2238 84.3721 42.5323C84.2322 43.1493 84.0027 43.7391 83.7434 44.3111C83.4784 44.8825 83.1696 45.4317 82.7841 45.9435C82.5955 46.2013 82.3803 46.4389 82.1569 46.6726C82.1001 46.7331 82.0382 46.7872 81.9789 46.8445C81.9195 46.9018 81.8602 46.9592 81.7958 47.0101C81.7282 47.0636 81.6696 47.1152 81.5761 47.1427C81.5282 47.1549 81.4752 47.1607 81.4229 47.1608C81.3648 47.1602 81.3075 47.154 81.2408 47.1293L81.2326 47.1255Z" fill="black"/>
<path d="M80.1382 53.6998C80.0314 53.6707 79.9629 53.6371 79.9059 53.6048C79.852 53.5699 79.8136 53.528 79.7623 53.4963C79.7143 53.462 79.6623 53.436 79.5995 53.4031C79.5242 53.3542 79.4626 53.3359 79.3966 53.3055L79.0083 53.1325L78.6122 52.9761L77.8306 52.6703C77.5736 52.5639 77.319 52.4606 77.0659 52.3459C76.559 52.1223 76.057 51.905 75.5646 51.6337C75.3194 51.5025 75.0755 51.3598 74.8284 51.2197C74.7061 51.1512 74.5813 51.0795 74.4558 51.0136C74.3931 50.9807 74.3356 50.928 74.2835 50.8556C74.2347 50.7806 74.1879 50.6885 74.1565 50.5429C74.263 50.4328 74.356 50.3849 74.4419 50.3479C74.5271 50.3166 74.607 50.3051 74.684 50.3164C74.8331 50.3327 74.9814 50.3547 75.1273 50.3735C75.4207 50.4201 75.7167 50.4699 76.0002 50.5502C76.5783 50.6917 77.1208 50.9337 77.6411 51.2139C77.8989 51.361 78.1536 51.5106 78.3932 51.6876C78.4546 51.732 78.5134 51.7733 78.5715 51.8202L78.7427 51.9637C78.8589 52.0576 78.9719 52.154 79.0778 52.2613L79.3994 52.5749L79.7049 52.9012C79.7541 52.9501 79.8069 53.0168 79.8492 53.0504C79.9016 53.0968 79.9673 53.1532 80.0233 53.2174C80.0761 53.284 80.1353 53.3456 80.1598 53.4295C80.1844 53.5134 80.1845 53.6062 80.1342 53.708L80.1382 53.6998Z" fill="black"/>
<path d="M79.8852 53.3009C79.9568 53.2855 80.0148 53.286 80.0721 53.2923C80.1295 53.2986 80.1771 53.3125 80.2241 53.3321C80.3123 53.3707 80.3658 53.4317 80.4193 53.4927C80.476 53.5511 80.5263 53.6146 80.5734 53.6806C80.6236 53.7441 80.6739 53.8076 80.7242 53.8711C80.9099 54.1321 81.0802 54.4002 81.2262 54.6772C81.5239 55.2318 81.7422 55.8183 81.9092 56.4195C82.0763 57.0207 82.2069 57.6354 82.2486 58.2635C82.2711 58.5763 82.2577 58.8968 82.2362 59.2135C82.2164 59.3737 82.2056 59.5321 82.1834 59.6891C82.1678 59.7686 82.1318 59.8488 82.0671 59.9259C81.9992 60.0054 81.9141 60.0831 81.7602 60.1533C81.6042 60.0754 81.5202 60.0024 81.4535 59.9313C81.3931 59.8551 81.3518 59.7897 81.3373 59.7185C81.3084 59.5761 81.2737 59.4331 81.2448 59.2907L81.0468 58.4454C80.9214 57.8835 80.8106 57.3203 80.6795 56.7578C80.5394 56.1973 80.396 55.6392 80.2534 55.0755C80.1801 54.7978 80.1076 54.5143 80.0253 54.2385L79.9576 54.0338C79.9341 53.9646 79.9132 53.8985 79.8834 53.8343C79.8729 53.8013 79.8535 53.7701 79.8463 53.7346C79.8358 53.7015 79.8325 53.6576 79.8317 53.6169C79.8309 53.5763 79.8333 53.533 79.8429 53.479C79.8492 53.4274 79.862 53.3708 79.8916 53.2958L79.8852 53.3009Z" fill="black"/>
<path d="M68.8373 55.8753C65.9005 55.592 63.8261 52.5751 64.2032 49.136C64.5803 45.6968 67.2693 43.134 70.2061 43.4173C73.143 43.7006 76.2596 46.8169 75.8793 50.2586C75.4989 53.7003 71.7741 56.1586 68.8366 55.881L68.8373 55.8753Z" fill="url(#paint0_linear_25_3432)"/>
<path d="M71.3635 47.0616C69.946 45.5754 70.0394 44.2979 70.8875 43.4973C71.7356 42.6967 73.0172 42.6685 74.4315 44.1573C75.8491 45.6435 76.3088 47.5006 75.4633 48.3044C74.6152 49.105 72.7804 48.5535 71.366 47.0648L71.3635 47.0616Z" fill="url(#paint1_linear_25_3432)"/>
<path style="mix-blend-mode:screen" opacity="0.69" d="M72.6503 45.9552C71.5289 44.7769 71.4297 43.9308 71.8838 43.499C72.3411 43.0646 73.18 43.2114 74.3014 44.3897C75.4228 45.568 75.8086 46.9878 75.3545 47.4196C74.8972 47.854 73.7717 47.1335 72.6471 45.9578L72.6503 45.9552Z" fill="url(#paint2_linear_25_3432)"/>
<path d="M75.4609 48.3016C75.5002 48.2653 75.537 48.2258 75.5681 48.1857C74.6402 48.6672 73.0271 48.0848 71.7513 46.7446C70.3704 45.2915 70.4252 44.0445 71.2159 43.2376C71.0964 43.3116 70.987 43.3982 70.8844 43.5001C70.0363 44.3007 69.9429 45.5783 71.3604 47.0645C72.7748 48.5532 74.6121 49.1079 75.4577 48.3041L75.4609 48.3016Z" fill="black"/>
<path d="M70.7606 52.524C69.0515 53.7119 68.8638 54.9762 69.5198 55.9238C70.1758 56.8715 71.424 57.1384 73.1324 55.9562C74.8416 54.7683 75.6968 53.0375 75.0408 52.0899C74.3848 51.1423 72.4698 51.3361 70.7574 52.5266L70.7606 52.524Z" fill="url(#paint3_linear_25_3432)"/>
<path style="mix-blend-mode:screen" opacity="0.69" d="M71.7821 53.8537C70.426 54.7931 70.146 55.6036 70.4985 56.1149C70.8509 56.6261 71.7085 56.6445 73.0589 55.7045C74.415 54.7651 75.1001 53.4478 74.7477 52.9365C74.3952 52.4253 73.1324 52.9137 71.7788 53.8563L71.7821 53.8537Z" fill="url(#paint4_linear_25_3432)"/>
<path d="M75.044 52.0873C75.0767 52.1286 75.0997 52.1775 75.1234 52.2207C74.3197 51.576 72.6144 51.8362 71.0738 52.9062C69.4057 54.0668 69.1872 55.2987 69.7891 56.2375C69.69 56.1454 69.602 56.0343 69.5205 55.9181C68.8645 54.9705 69.0522 53.7062 70.7613 52.5182C72.4705 51.3303 74.3887 51.134 75.0447 52.0816L75.044 52.0873Z" fill="black"/>
<path d="M70.9643 37.0729C70.9544 37.1531 70.9445 37.2332 70.9354 37.3076C70.9244 37.3731 70.9159 37.4418 70.905 37.5073L70.8781 37.6784C70.8685 37.7324 70.864 37.7928 70.8558 37.8355C70.8204 38.0288 70.7738 38.1948 70.7271 38.3144C70.7022 38.3755 70.6754 38.4277 70.6461 38.4767C70.6136 38.5283 70.5793 38.5709 70.5432 38.6047C70.5071 38.6384 70.466 38.6658 70.4223 38.6901C70.3819 38.7118 70.3364 38.7271 70.2903 38.7481L69.7509 38.9995L69.2038 39.2674C68.473 39.6342 67.7287 40.0169 66.9887 40.4117C66.2462 40.8033 65.503 41.2006 64.7526 41.6087L64.1884 41.9212C64.0034 42.0315 63.8134 42.1354 63.6227 42.2451C63.4377 42.3554 63.252 42.4714 63.0524 42.583C62.8635 42.7015 62.6771 42.8233 62.4735 42.9431C62.5386 42.7211 62.6234 42.5042 62.714 42.2879C62.8121 42.0811 62.9191 41.8723 63.0287 41.6668C63.1515 41.4714 63.2718 41.2728 63.4004 41.078C63.5315 40.8865 63.6701 40.7044 63.8119 40.5198C64.3836 39.7934 65.0303 39.1419 65.7223 38.5475C66.4167 37.9564 67.1597 37.4198 67.9522 36.9525C68.15 36.832 68.3554 36.721 68.5576 36.6126C68.763 36.5017 68.9817 36.4009 69.1921 36.2962C69.2472 36.2733 69.303 36.2446 69.3607 36.2248C69.4183 36.205 69.4784 36.1883 69.5404 36.1806C69.6023 36.1729 69.6693 36.1715 69.7381 36.179C69.8069 36.1865 69.8865 36.201 69.9589 36.2263C69.9983 36.2365 70.037 36.2523 70.0757 36.2681L70.1937 36.3245C70.2755 36.3683 70.3508 36.4171 70.4412 36.485C70.4842 36.5129 70.5334 36.5618 70.575 36.6011C70.6192 36.6437 70.6615 36.6773 70.705 36.7255C70.7477 36.7795 70.7911 36.8278 70.8339 36.8818C70.8791 36.9389 70.9197 37.0101 70.9611 37.0755L70.9643 37.0729Z" fill="black"/>
<path d="M75.3828 36.6947C75.3535 36.7437 75.3268 36.7958 75.3039 36.8397C75.2786 36.8805 75.2564 36.9187 75.2336 36.9626C75.1893 37.0389 75.1522 37.1045 75.1165 37.1586C75.0412 37.2751 74.9711 37.3718 74.9054 37.4342C74.8692 37.468 74.8396 37.4967 74.8049 37.519C74.7727 37.5445 74.7355 37.5636 74.7022 37.5745C74.6317 37.6045 74.5647 37.6058 74.4977 37.6072L74.0661 37.6441L73.6281 37.6862C73.0393 37.7494 72.4377 37.8229 71.8404 37.9084C71.238 37.9876 70.6375 38.0756 70.028 38.1656C69.8765 38.1926 69.72 38.2132 69.5685 38.2401C69.417 38.2671 69.2631 38.2908 69.1084 38.3203C68.9562 38.353 68.8015 38.3825 68.6411 38.4114C68.4857 38.4466 68.3271 38.4844 68.1609 38.5126C68.2638 38.3846 68.3782 38.2579 68.4951 38.1344C68.6138 38.0198 68.7407 37.9089 68.8677 37.7981C68.9964 37.6961 69.1309 37.5948 69.2704 37.4999C69.4067 37.4075 69.5488 37.3157 69.6901 37.2296C70.2611 36.886 70.8638 36.6154 71.4812 36.39C72.1012 36.1677 72.7353 35.9963 73.3884 35.8821C73.5521 35.8507 73.7175 35.8281 73.883 35.8056C74.0484 35.7831 74.2214 35.7701 74.3919 35.7539C74.48 35.7462 74.5674 35.7441 74.6552 35.7624C74.7004 35.7732 74.7448 35.7896 74.786 35.8086C74.8298 35.8308 74.8786 35.8593 74.9209 35.893C75.0113 35.9609 75.0957 36.0542 75.179 36.1793C75.2203 36.2447 75.261 36.3159 75.2944 36.3979C75.3124 36.4404 75.3272 36.4856 75.342 36.5307C75.3561 36.5815 75.3669 36.6349 75.381 36.6858L75.3828 36.6947Z" fill="black"/>
<path d="M77.6197 37.1653C77.5255 37.3175 77.4568 37.4028 77.3972 37.4862C77.3668 37.5205 77.339 37.5581 77.3118 37.5899L77.275 37.6294L77.2363 37.66C77.1963 37.702 77.1494 37.7288 77.1169 37.7339C77.0803 37.7474 77.0499 37.7353 77.0194 37.7233C76.8961 37.6866 76.7728 37.6499 76.6527 37.6107C76.4068 37.5316 76.1616 37.4468 75.9179 37.3506C75.6741 37.2543 75.4278 37.1549 75.1829 37.044C74.9323 36.9325 74.6849 36.8184 74.3866 36.693C74.4485 36.6389 74.5154 36.5911 74.5823 36.5433C74.651 36.5044 74.7197 36.4655 74.7941 36.4272C74.8646 36.3972 74.9383 36.3647 75.0139 36.341C75.0869 36.3142 75.1649 36.2937 75.2372 36.2727C75.5373 36.1952 75.8431 36.1649 76.1397 36.1625C76.4363 36.1601 76.7262 36.1889 77.0157 36.2437C77.1576 36.2708 77.3013 36.3069 77.4418 36.3454C77.5157 36.3593 77.577 36.4037 77.617 36.527L77.6286 36.5747L77.6387 36.6338C77.6452 36.6751 77.6479 36.7247 77.6512 36.7685C77.6525 36.876 77.6537 36.9834 77.6204 37.1596L77.6197 37.1653Z" fill="black"/>
<path d="M81.9295 36.7026C81.5527 37.0732 81.0811 37.3175 80.6082 37.4543C80.1352 37.5912 79.6507 37.6339 79.1846 37.6207C78.7153 37.61 78.2581 37.5484 77.8141 37.4505C77.3668 37.3553 76.9328 37.2237 76.5112 37.0616C76.4058 37.0211 76.3536 36.9023 76.3957 36.7966C76.437 36.6968 76.5455 36.6419 76.6465 36.6703C77.0616 36.7911 77.4866 36.8782 77.9094 36.936C78.3354 36.9913 78.7625 37.0148 79.1837 36.9912C79.6024 36.9644 80.012 36.8932 80.3868 36.7515C80.7616 36.6097 81.081 36.3981 81.3215 36.1199C81.4741 35.9422 81.7442 35.9195 81.9204 36.0693C82.0966 36.2191 82.1157 36.488 81.9631 36.6656C81.9535 36.6733 81.947 36.6784 81.9399 36.6892L81.9335 36.6943L81.9295 36.7026Z" fill="black"/>
<path d="M45.6506 30.8951L45.7117 30.8467L45.7715 30.8098C45.8094 30.7849 45.8505 30.7575 45.891 30.7358L46.0065 30.6701L46.1207 30.6159C46.2681 30.5508 46.4077 30.5023 46.5427 30.4677C46.6777 30.4332 46.8023 30.412 46.9255 30.4022C46.9843 30.3971 47.0455 30.3951 47.1035 30.3956C47.1584 30.3987 47.2164 30.3992 47.268 30.4049C47.4833 30.4255 47.6683 30.4805 47.8293 30.5648C47.9967 30.644 48.1184 30.7647 48.2465 30.8802C48.7525 31.3473 49.2188 31.8305 49.66 32.3282C50.5458 33.3212 51.3331 34.3818 52.0414 35.4946C52.7464 36.61 53.3692 37.7802 53.8585 39.0199C54.1019 39.6382 54.3113 40.2731 54.4727 40.9201C54.6309 41.5696 54.7436 42.2345 54.7453 42.9047C54.3588 42.3636 53.977 41.8549 53.5791 41.359C53.1869 40.8636 52.7812 40.3842 52.3748 39.9106C51.5619 38.9632 50.734 38.0432 49.8925 37.1392C49.0568 36.2357 48.2049 35.345 47.3521 34.4861C46.9221 34.0621 46.4921 33.638 46.0611 33.2458C46.0062 33.1963 45.9506 33.1525 45.8989 33.1004C45.8472 33.0484 45.802 32.9912 45.7632 32.929C45.7244 32.8667 45.6863 32.7988 45.661 32.7206C45.6326 32.645 45.6073 32.5668 45.5925 32.4753C45.5538 32.2941 45.5441 32.09 45.5547 31.8389C45.558 31.7174 45.5692 31.5794 45.5857 31.4217L45.6128 31.1781L45.6297 31.0408L45.6382 30.9721L45.6506 30.8951Z" fill="black"/>
<path d="M39.5665 28.4755C39.5847 28.4455 39.6086 28.4163 39.6261 28.3921C39.6468 28.3653 39.665 28.3354 39.6851 28.3144C39.7226 28.2692 39.7658 28.2246 39.8059 28.1826C39.8885 28.1017 39.9696 28.0323 40.0577 27.9781C40.1431 27.9207 40.2151 27.8793 40.2952 27.8416L40.4119 27.7906C40.4484 27.7772 40.4907 27.7644 40.5265 27.7567C40.6013 27.7388 40.6761 27.7209 40.7463 27.7169C40.814 27.7098 40.8803 27.7142 40.9466 27.7185C41.0759 27.7298 41.1953 27.7747 41.3147 27.8197C41.5412 27.914 41.771 28.0059 41.9937 28.1085C42.2131 28.2137 42.4333 28.3132 42.6488 28.4266C43.5072 28.8627 44.3196 29.3663 45.0923 29.9322C45.8593 30.4975 46.5931 31.12 47.2475 31.8209C47.4087 31.9981 47.5699 32.1752 47.7247 32.3575C47.8755 32.548 48.0238 32.7353 48.1657 32.9277C48.3004 33.131 48.4327 33.331 48.5585 33.5362C48.6746 33.749 48.7843 33.9669 48.8768 34.183C48.6684 34.0587 48.4729 33.9242 48.2792 33.7986C48.0759 33.6807 47.879 33.5576 47.6871 33.441C47.4863 33.3262 47.2847 33.2172 47.0928 33.1005C46.8945 32.9889 46.6891 32.8881 46.494 32.774C45.6922 32.3499 44.894 31.9436 44.0886 31.5482C43.2858 31.1559 42.4758 30.7744 41.6713 30.4196C41.5698 30.3708 41.4701 30.3309 41.3705 30.291L41.0697 30.1624L40.4717 29.9231C40.3713 29.8889 40.2735 29.8579 40.1888 29.7906C40.1465 29.757 40.1016 29.7202 40.0632 29.6783C40.0248 29.6364 39.9896 29.5919 39.9526 29.5386C39.8811 29.4351 39.8145 29.2915 39.7565 29.1256C39.7288 29.0443 39.6992 28.954 39.6686 28.8492C39.6552 28.7926 39.6361 28.7354 39.6195 28.6814L39.5964 28.586C39.5885 28.5562 39.5812 28.5206 39.5715 28.4818L39.5665 28.4755Z" fill="black"/>
<path d="M36.1918 28.1618L36.2252 28.032L36.2623 27.92C36.2754 27.8838 36.2872 27.859 36.2997 27.8284C36.3122 27.7979 36.3253 27.7616 36.3396 27.74C36.3932 27.6356 36.4471 27.5516 36.5032 27.4968C36.6111 27.3752 36.7218 27.3496 36.8282 27.3583C37.0424 27.3643 37.2559 27.3761 37.4655 27.3961C37.8904 27.4367 38.3086 27.5086 38.7219 27.6204C39.1351 27.7323 39.5434 27.8843 39.9314 28.0833C40.0297 28.1346 40.1247 28.1885 40.219 28.2481C40.3134 28.3077 40.4045 28.3699 40.4924 28.4346C40.5795 28.5051 40.6635 28.5781 40.7475 28.651C40.8275 28.7323 40.8986 28.8155 40.969 28.9044C40.5201 28.893 40.1208 28.9045 39.7189 28.9127C39.3195 28.9242 38.9251 28.942 38.5354 28.9458C38.1424 28.9521 37.7527 28.9559 37.3637 28.954L36.7834 28.9486C36.7368 28.9493 36.687 28.9526 36.6408 28.9272C36.5913 28.9044 36.5464 28.8676 36.4987 28.8073C36.4534 28.7501 36.402 28.672 36.3535 28.571C36.3416 28.5494 36.3286 28.5132 36.3175 28.4858C36.3038 28.4553 36.2927 28.428 36.2765 28.3943L36.2376 28.2857L36.1925 28.156L36.1918 28.1618Z" fill="black"/>
<path d="M31.341 25.1633C31.5677 25.6811 31.9476 26.1345 32.4197 26.4993C32.8919 26.8642 33.453 27.143 34.0424 27.3583C34.6317 27.5735 35.2524 27.7226 35.8852 27.8208C36.518 27.9189 37.1622 27.9719 37.8038 27.9754C37.9313 27.9777 38.0322 28.0786 38.0281 28.2058C38.0248 28.3273 37.9286 28.4241 37.8086 28.4312C37.1417 28.4686 36.4722 28.4563 35.8 28.3944C35.1311 28.33 34.4653 28.2166 33.8094 28.0231C33.156 27.8328 32.5125 27.5623 31.9278 27.1677C31.3456 26.7764 30.8194 26.2374 30.4821 25.5799L30.4796 25.5767C30.3656 25.3467 30.4556 25.0636 30.6886 24.9412C30.9215 24.8187 31.2036 24.9104 31.3209 25.1379C31.3259 25.1442 31.3302 25.1563 31.332 25.1652L31.341 25.1633Z" fill="black"/>
<path d="M58.5515 32.6388L58.7909 32.8419C58.8558 32.9041 58.9215 32.9606 58.9897 33.0203C59.0496 33.0761 59.0956 33.1275 59.153 33.1802L59.2337 33.2558L59.2754 33.2951L59.3055 33.3332C59.4875 33.53 59.6194 33.7098 59.7042 33.8698C59.7941 34.0363 59.8299 34.1939 59.8384 34.337C59.8469 34.48 59.8014 34.6142 59.7583 34.7517L59.5121 35.5716L59.2644 36.4031C58.9356 37.5156 58.5947 38.6327 58.2302 39.753C57.8656 40.8732 57.487 41.9891 57.0727 43.1126L56.7567 43.9569C56.6551 44.2387 56.5332 44.5212 56.4259 44.8024L56.2577 45.2249L56.0805 45.6493C55.9668 45.9356 55.8474 46.2212 55.7075 46.5076C55.6077 46.2095 55.529 45.9051 55.4561 45.6013C55.3888 45.2981 55.3363 44.9936 55.2805 44.6917C55.1869 44.084 55.1169 43.4731 55.087 42.8666C55.0158 41.6523 55.0485 40.4435 55.1499 39.2423C55.2596 38.0448 55.4382 36.8549 55.6976 35.668L55.796 35.2234L55.909 34.7775C55.98 34.4837 56.069 34.186 56.1522 33.8876C56.1728 33.8145 56.191 33.7381 56.2205 33.6631C56.2501 33.588 56.2879 33.5167 56.334 33.4492C56.4326 33.3092 56.5617 33.1812 56.7441 33.0677C56.9273 32.9485 57.1606 32.8464 57.4435 32.7671C57.5068 32.748 57.6021 32.7294 57.6801 32.7089C57.7664 32.6922 57.8413 32.6743 57.9301 32.6608C58.0271 32.6511 58.1185 32.6408 58.2155 32.6311C58.3208 32.6252 58.4369 32.6263 58.5415 32.6261L58.5515 32.6388Z" fill="black"/>
<path d="M60.899 28.9568C60.9353 29.0159 60.9742 29.0781 61.0137 29.1347C61.0482 29.1848 61.0801 29.2318 61.1146 29.282C61.1498 29.3265 61.1717 29.3608 61.2019 29.3989C61.2296 29.4338 61.2673 29.4814 61.286 29.5183C61.3805 29.6707 61.4513 29.78 61.4902 29.8886C61.5316 30.0005 61.5382 30.0882 61.5316 30.1658C61.5241 30.2027 61.5135 30.2421 61.4945 30.2777C61.4756 30.3134 61.4542 30.3458 61.4328 30.3783C61.2599 30.6494 61.0932 30.9416 60.9158 31.2267C60.5741 31.8071 60.2196 32.3977 59.8619 32.9909C59.4984 33.5834 59.1235 34.1747 58.7331 34.773C58.3346 35.3675 57.941 35.9684 57.4644 36.5833C57.2963 35.8486 57.3024 35.1155 57.3618 34.3969C57.4245 33.6758 57.5667 32.9691 57.7681 32.2777C57.9695 31.5862 58.2242 30.9093 58.5446 30.2424C58.7047 29.909 58.8814 29.5832 59.0849 29.2516C59.1363 29.1644 59.1813 29.0823 59.2707 29.0166C59.3609 28.9453 59.4693 28.8904 59.6132 28.854C59.6465 28.8431 59.6848 28.8386 59.7271 28.8258L59.8574 28.8052C59.9487 28.7949 60.0394 28.7903 60.1465 28.7933C60.1963 28.7901 60.2554 28.8052 60.3134 28.8058C60.3765 28.8127 60.4313 28.8158 60.4969 28.8258C60.565 28.8391 60.6298 28.8549 60.6947 28.8707C60.7646 28.8928 60.8395 28.9213 60.9055 28.9517L60.899 28.9568Z" fill="black"/>
<path d="M62.2847 27.9424C62.2995 27.9875 62.3168 28.0358 62.3291 28.0777C62.3395 28.1108 62.3525 28.147 62.3629 28.18C62.3759 28.2163 62.3896 28.2468 62.4058 28.2804C62.4194 28.3109 62.4374 28.3535 62.4436 28.3745L62.4987 28.5168C62.5116 28.553 62.5246 28.5893 62.5376 28.6255C62.5585 28.6916 62.565 28.7329 62.5615 28.7615C62.5605 28.7933 62.5393 28.7997 62.5207 28.8093C62.4463 28.8475 62.368 28.8941 62.2846 28.9343C62.1203 29.0178 61.9446 29.1001 61.7549 29.178C61.5677 29.259 61.3615 29.3293 61.1367 29.4092C60.9119 29.489 60.6692 29.5727 60.3517 29.6743C60.2286 29.3998 60.2242 29.1296 60.2706 28.8707C60.3195 28.615 60.4218 28.3739 60.564 28.1632C60.7068 27.9468 60.8812 27.7571 61.093 27.5946C61.1992 27.5105 61.3097 27.4385 61.435 27.3651C61.4664 27.3454 61.4947 27.3282 61.5438 27.3306C61.5929 27.3331 61.6488 27.3508 61.7223 27.3907L61.8382 27.4643C61.878 27.4948 61.9279 27.5379 61.9702 27.5716C61.9777 27.5811 61.991 27.5912 62.0068 27.6046L62.0484 27.6439C62.0768 27.6731 62.1026 27.6991 62.131 27.7283C62.1593 27.7575 62.182 27.7861 62.2046 27.8147C62.2348 27.8528 62.2674 27.8941 62.2912 27.9373L62.2847 27.9424Z" fill="black"/>
<path d="M64.8483 24.1099C64.7679 24.5507 64.6645 24.9889 64.5135 25.4133C64.3592 25.8402 64.163 26.2538 63.9142 26.6471C63.6653 27.0404 63.3644 27.4078 63.0047 27.7339C62.6507 28.0607 62.2271 28.3392 61.7472 28.5333C61.6068 28.5875 61.4391 28.5344 61.3697 28.4137C61.3054 28.2993 61.3542 28.1626 61.4748 28.1032L61.4844 28.0956C61.8598 27.9017 62.192 27.6335 62.4655 27.324C62.7389 27.0146 62.961 26.6734 63.1394 26.3101C63.3145 25.9493 63.4427 25.5689 63.5372 25.1789C63.626 24.7884 63.6689 24.3929 63.6946 23.9954L63.696 23.984C63.7127 23.7074 63.9856 23.4965 64.3087 23.5144C64.6286 23.5349 64.8752 23.7735 64.8611 24.0533C64.859 24.0705 64.8569 24.0877 64.8547 24.1048L64.8483 24.1099Z" fill="black"/>
<path d="M68.1487 63.8485C68.0951 63.9064 68.0357 63.9637 67.9796 64.0185C67.9249 64.0618 67.8701 64.1051 67.8154 64.1485C67.7639 64.1892 67.7113 64.2154 67.658 64.2473C67.6079 64.2766 67.5482 64.3136 67.4988 64.3372C67.3943 64.3838 67.3084 64.4208 67.2149 64.4483L67.0857 64.4834C67.0442 64.4905 66.9994 64.5001 66.9586 64.5015C66.8787 64.513 66.7945 64.5125 66.7257 64.505C66.657 64.4975 66.5946 64.4849 66.5329 64.4665C66.4713 64.4482 66.4168 64.419 66.3623 64.3899C66.311 64.3582 66.2604 64.3207 66.2098 64.2833C66.0215 64.138 65.8267 63.9978 65.648 63.8448C65.4718 63.6951 65.2899 63.5447 65.1176 63.3866C64.4329 62.7665 63.8133 62.0897 63.2516 61.3671C62.6931 60.6418 62.1933 59.865 61.7872 59.0346C61.6883 58.8237 61.5918 58.6159 61.5026 58.3974C61.419 58.1794 61.3387 57.9589 61.2641 57.739C61.1992 57.5115 61.14 57.2846 61.0865 57.0583C61.0459 56.8219 61.0103 56.5918 60.9952 56.361C61.1764 56.5171 61.334 56.6764 61.4948 56.8332C61.6652 56.9824 61.8267 57.1335 61.9857 57.2813C62.1536 57.4273 62.3191 57.5701 62.4788 57.7123L62.9732 58.1318C63.6313 58.6852 64.2825 59.2233 64.9345 59.7557C65.5832 60.2907 66.2391 60.8148 66.8856 61.3205L67.3685 61.6923L67.8503 62.0496C67.8876 62.0768 67.9281 62.1016 67.9679 62.132C68.002 62.1618 68.0379 62.2006 68.0681 62.2387C68.0975 62.2825 68.1238 62.3289 68.1429 62.3861C68.1652 62.4407 68.1786 62.4973 68.188 62.5621C68.2126 62.6924 68.2234 62.8647 68.2134 63.0637C68.2135 63.1102 68.2032 63.1699 68.1994 63.2246L68.1897 63.3976C68.1845 63.4637 68.176 63.5324 68.1733 63.6017C68.1641 63.6761 68.1535 63.762 68.1494 63.8427L68.1487 63.8485Z" fill="black"/>
<path d="M72.4622 65.0769C72.4387 65.1265 72.4152 65.1761 72.3916 65.2258C72.3663 65.2665 72.3409 65.3072 72.3156 65.348C72.2623 65.4263 72.208 65.4899 72.1519 65.5447C72.0429 65.6517 71.9373 65.7301 71.8328 65.7766C71.7802 65.8028 71.7283 65.8232 71.6778 65.8322C71.6299 65.8444 71.5826 65.8508 71.536 65.8515C71.4422 65.8587 71.3583 65.8321 71.2712 65.8081C71.106 65.7581 70.94 65.7139 70.778 65.6613C70.6192 65.6063 70.4572 65.5538 70.3023 65.4904C69.6757 65.2479 69.0841 64.957 68.516 64.6165C67.9511 64.2734 67.409 63.8864 66.9156 63.4351C66.7932 63.3203 66.6741 63.2028 66.5549 63.0854C66.4422 62.9629 66.3301 62.8346 66.2206 62.7095C66.1151 62.5762 66.0159 62.4377 65.9218 62.3056C65.8323 62.1595 65.7486 62.014 65.6738 61.8666C65.8344 61.9306 65.9828 61.999 66.1287 62.0643C66.2811 62.1245 66.4277 62.184 66.5743 62.2435C66.7242 62.3005 66.8715 62.3543 67.0181 62.4138C67.1623 62.4702 67.316 62.5189 67.4569 62.5778C68.0445 62.7842 68.6237 62.9867 69.2037 63.1835C69.7837 63.3803 70.3619 63.5682 70.9325 63.7466L71.3583 63.8744L71.7766 63.9926C71.8447 64.0058 71.9153 64.0223 71.9741 64.0635C72.0064 64.0844 72.0355 64.1079 72.0631 64.1428C72.0915 64.172 72.1134 64.2063 72.1436 64.2444C72.1949 64.3226 72.2453 64.4325 72.2936 64.5596C72.3177 64.6231 72.3404 64.6981 72.3682 64.7794C72.3829 64.8246 72.3952 64.8665 72.41 64.9116C72.424 64.9625 72.4406 65.0165 72.4572 65.0705L72.4622 65.0769Z" fill="black"/>
<path d="M74.7906 65.0414C74.7859 65.2207 74.761 65.3282 74.7362 65.4357C74.7223 65.4776 74.7102 65.5285 74.6938 65.5673L74.6696 65.6227L74.6435 65.6692C74.5796 65.7869 74.5059 65.8194 74.4275 65.8196C74.2781 65.8293 74.1288 65.8391 73.9808 65.8374C73.6849 65.8341 73.3861 65.8072 73.094 65.7492C72.7995 65.688 72.5052 65.6007 72.223 65.4626C72.1545 65.429 72.0835 65.3922 72.0157 65.3529C71.948 65.3136 71.8809 65.2686 71.817 65.221C71.7507 65.1702 71.69 65.1201 71.6326 65.0674C71.5759 65.009 71.5192 64.9506 71.4696 64.8814C71.7944 64.8154 72.0611 64.7488 72.3361 64.686C72.6086 64.6201 72.8707 64.5676 73.1378 64.5214C73.4017 64.4777 73.6656 64.434 73.9249 64.4044C74.0578 64.387 74.1867 64.3779 74.3164 64.3631C74.3489 64.3579 74.3815 64.3528 74.4113 64.3705C74.4443 64.3857 74.4809 64.4187 74.5154 64.4689L74.5455 64.507L74.5743 64.5566C74.5962 64.5909 74.6167 64.6366 74.638 64.6766C74.6815 64.7713 74.7275 64.8691 74.788 65.0382L74.7906 65.0414Z" fill="black"/>
<path d="M78.2383 66.79C78.0603 66.4661 77.7829 66.195 77.4461 65.9813C77.1093 65.7675 76.7125 65.6168 76.3042 65.5113C75.8928 65.4083 75.4618 65.3467 75.0265 65.3194C74.5912 65.2922 74.1484 65.3018 73.7079 65.3406C73.593 65.3542 73.4932 65.2678 73.4844 65.1509C73.4774 65.0428 73.5531 64.9467 73.663 64.9268C74.12 64.8491 74.5791 64.8007 75.0448 64.7936C75.5079 64.7833 75.9783 64.8086 76.4474 64.8918C76.9139 64.9718 77.3824 65.1071 77.8249 65.3353C78.2674 65.5635 78.6793 65.8985 78.9739 66.3368L78.9789 66.3431C79.1086 66.54 79.0525 66.8065 78.8558 66.9416C78.6565 67.0736 78.3899 67.0212 78.257 66.8269C78.2495 66.8174 78.2419 66.8078 78.2376 66.7958L78.2383 66.79Z" fill="black"/>
<path d="M41.9068 64.9707L41.9134 64.8931L41.9194 64.8213L41.9306 64.6833L41.9577 64.4397C41.9767 64.2852 41.9968 64.1453 42.0199 64.0289C42.0656 63.7757 42.1214 63.5817 42.1949 63.4099C42.2316 63.324 42.2694 63.2528 42.3155 63.1853C42.3591 63.1147 42.4069 63.0561 42.4631 63.0013C42.516 62.9491 42.5739 62.9032 42.6344 62.8605C42.6948 62.8178 42.7596 62.7872 42.8226 62.7477C43.3306 62.4436 43.8447 62.114 44.3538 61.7781C45.3783 61.1012 46.4039 60.3926 47.4176 59.6623C48.4364 58.9383 49.4465 58.1903 50.4504 57.4212C50.9512 57.0351 51.4526 56.6433 51.9479 56.2304C52.4457 55.8208 52.9284 55.3921 53.4261 54.9361C53.2756 55.5925 53.0182 56.2198 52.7253 56.8288C52.4242 57.4339 52.0826 58.0144 51.7086 58.5739C50.9608 59.6928 50.096 60.7236 49.1619 61.6801C48.2278 62.6366 47.2212 63.5214 46.1371 64.3281C45.5991 64.7334 45.0321 65.1151 44.4386 65.4766C44.2851 65.5671 44.1398 65.6615 43.9626 65.7088C43.7854 65.7561 43.5938 65.7787 43.3785 65.7581C43.3237 65.755 43.2695 65.7461 43.2154 65.7373C43.1588 65.7253 43.1022 65.7134 43.0431 65.6982C42.928 65.6653 42.8111 65.6235 42.6849 65.5633C42.5587 65.5031 42.4314 65.4283 42.303 65.3389L42.2018 65.264L42.0988 65.1802C42.0648 65.1504 42.0314 65.1149 42.0005 65.0825L41.9513 65.0336L41.9036 64.9733L41.9068 64.9707Z" fill="black"/>
<path d="M35.4273 66.1855C35.4463 66.1499 35.4587 66.1193 35.4769 66.0894L35.5201 65.9984C35.5494 65.9494 35.5794 65.8947 35.6061 65.8425C35.6589 65.7439 35.7096 65.6624 35.7539 65.586C35.8482 65.4339 35.9453 65.3053 36.0376 65.2168C36.0841 65.1697 36.1291 65.134 36.1767 65.1015C36.225 65.0633 36.2744 65.0397 36.327 65.0135C36.4257 64.9663 36.5292 64.9515 36.6327 64.9367L37.2694 64.8149L37.5916 64.7457C37.6991 64.7227 37.809 64.7028 37.9139 64.6765C38.7804 64.4812 39.6522 64.2662 40.5236 64.0308C41.3976 63.7986 42.2704 63.5518 43.1421 63.2903C43.3573 63.2181 43.5799 63.1555 43.8008 63.0839C44.0134 63.0085 44.2368 62.9401 44.4584 62.8628C44.6743 62.7849 44.8908 62.7013 45.1181 62.6246C45.3322 62.5378 45.5526 62.4459 45.7864 62.3641C45.6463 62.5576 45.4948 62.7499 45.3351 62.9384C45.1685 63.1116 44.9962 63.2842 44.8207 63.4593C44.6383 63.6192 44.4559 63.7791 44.2653 63.9352C44.0754 64.0855 43.8805 64.2295 43.6798 64.3729C42.8843 64.9356 42.0362 65.4056 41.1584 65.8114C40.2805 66.2172 39.376 66.5562 38.4372 66.8191C38.2024 66.8862 37.9657 66.9444 37.7291 67.0027C37.4892 67.0635 37.2457 67.1065 37.0015 67.1552C36.8769 67.1764 36.749 67.2001 36.6172 67.1857C36.5541 67.1788 36.4885 67.1687 36.4212 67.1497C36.3563 67.134 36.2846 67.1029 36.2161 67.0693C36.1806 67.0509 36.1451 67.0326 36.1128 67.0116L36.011 66.9425C35.9421 66.8886 35.8789 66.8352 35.8064 66.7635C35.7371 66.6892 35.6686 66.6092 35.6078 66.5127C35.5765 66.46 35.5478 66.4104 35.5165 66.3577C35.5021 66.3329 35.4892 66.2967 35.4748 66.2719C35.4611 66.2414 35.4475 66.2109 35.4345 66.1747L35.4273 66.1855Z" fill="black"/>
<path d="M32.0555 65.8487L32.1251 65.7316L32.1894 65.6342C32.2076 65.6043 32.2283 65.5775 32.2459 65.5533C32.2634 65.5292 32.2848 65.4967 32.3016 65.4782C32.3709 65.3872 32.4374 65.319 32.4953 65.2732C32.5533 65.2273 32.6091 65.1986 32.6603 65.1839C32.7115 65.1692 32.7566 65.1799 32.8018 65.1907L33.3726 65.2966C33.7532 65.3672 34.1356 65.4467 34.5179 65.5262C34.9003 65.6057 35.2813 65.6966 35.6712 65.7856C36.0611 65.8747 36.4485 65.9605 36.8928 66.0323C36.8085 66.1043 36.7158 66.1725 36.6207 66.2375C36.5237 66.2936 36.4267 66.3497 36.3273 66.4026C36.226 66.4467 36.1215 66.4932 36.0177 66.5341C35.9139 66.575 35.8083 66.6069 35.7026 66.6389C35.2777 66.7635 34.8451 66.8323 34.4168 66.8667C33.9859 66.8979 33.56 66.889 33.135 66.8484C32.9222 66.8309 32.714 66.7994 32.5033 66.7648C32.3969 66.7561 32.2955 66.7073 32.2135 66.5707C32.1722 66.5053 32.1369 66.4144 32.1102 66.3013C32.1015 66.2771 32.0975 66.239 32.0928 66.2066C32.0881 66.1742 32.0801 66.1443 32.0761 66.1061L32.064 65.9917L32.0605 65.855L32.0555 65.8487Z" fill="black"/>
<path d="M25.9043 67.2993C26.3799 66.7161 27.0074 66.2916 27.6656 66.0184C28.327 65.7427 29.0124 65.603 29.6943 65.5383C30.3762 65.4736 31.0539 65.4897 31.7229 65.5541C32.3918 65.6185 33.0511 65.737 33.6966 65.8975C33.8206 65.9284 33.8925 66.0523 33.8598 66.1764C33.8278 66.2947 33.7115 66.3661 33.595 66.3446C32.9618 66.2261 32.3198 66.1559 31.681 66.1296C31.0391 66.1058 30.399 66.1374 29.7773 66.2319C29.1524 66.3289 28.5452 66.4945 28.0006 66.7656C27.4566 67.031 26.9867 67.4031 26.6534 67.8684C26.5023 68.081 26.2083 68.133 25.9945 67.982C25.7832 67.8342 25.735 67.5418 25.8893 67.3266C25.8958 67.3215 25.8997 67.3133 25.9068 67.3024L25.9133 67.2973L25.9043 67.2993Z" fill="black"/>
<path d="M57.5987 64.8095C57.5149 64.8294 57.4311 64.8492 57.3481 64.8633C57.2747 64.8698 57.2012 64.8763 57.1246 64.8853C57.0544 64.8892 56.9913 64.8823 56.9218 64.8805L56.8212 64.8724L56.7696 64.8668L56.7269 64.8592C56.499 64.8227 56.2983 64.7544 56.1412 64.6618C56.0569 64.6149 55.9931 64.5673 55.9299 64.514C55.8668 64.4607 55.8158 64.4029 55.7655 64.3394C55.7177 64.2791 55.6796 64.2111 55.6448 64.1406C55.6099 64.0701 55.5922 64.0014 55.563 63.9315C55.4579 63.6532 55.3502 63.3717 55.2597 63.0921L55.1199 62.6708C55.0763 62.5297 55.0351 62.3918 54.9947 62.2481C54.6622 61.1271 54.411 59.983 54.2249 58.8286C54.042 57.6717 53.9372 56.4943 53.9262 55.3098C53.9179 54.7172 53.9453 54.117 53.995 53.5249C54.0292 53.2241 54.0626 52.929 54.105 52.632C54.1589 52.3363 54.2159 52.038 54.2895 51.7473L55.4476 54.9627L56.5615 58.0892L57.6606 61.1706C57.7513 61.4241 57.8453 61.6751 57.9393 61.9261C58.0301 62.1797 58.128 62.4224 58.2202 62.6645C58.266 62.7884 58.3188 62.9015 58.3313 63.0363C58.3437 63.1711 58.3304 63.3262 58.2878 63.484C58.2451 63.6417 58.167 63.8275 58.0593 64.042C58.0357 64.0916 57.9968 64.1483 57.9636 64.2055C57.9304 64.2628 57.9036 64.315 57.864 64.3774C57.8211 64.4423 57.784 64.5078 57.7437 64.5759C57.6969 64.6491 57.6462 64.7306 57.5987 64.8095Z" fill="black"/>
<path d="M60.5229 68.0731C60.4771 68.1145 60.4282 68.1584 60.3831 68.1941C60.3412 68.2272 60.2944 68.254 60.2475 68.2808C60.157 68.3318 60.0628 68.365 59.9841 68.3912C59.8298 68.4411 59.6822 68.4597 59.5554 68.4517C59.4286 68.4436 59.334 68.4101 59.244 68.3625C59.1977 68.3372 59.1604 68.3099 59.1238 68.2769C59.0904 68.2413 59.0627 68.2064 59.0294 68.1708L58.8437 67.9562C58.7859 67.8832 58.7306 67.8133 58.6728 67.7403L58.5018 67.5244L58.3495 67.2989C57.9349 66.7026 57.5826 66.0724 57.2772 65.4154C56.9717 64.7585 56.7228 64.0671 56.5469 63.3489C56.3736 62.6339 56.2567 61.8844 56.3096 61.1245C56.7428 61.7113 57.1408 62.2537 57.5477 62.7941C57.9554 63.3288 58.3465 63.8559 58.7506 64.3729C59.1514 64.8923 59.5504 65.4029 59.9483 65.8988C60.0463 66.0227 60.1444 66.1465 60.2463 66.262L60.396 66.4379L60.544 66.6049C60.5666 66.6335 60.5957 66.657 60.6176 66.6913C60.6402 66.7198 60.6596 66.751 60.6726 66.7872C60.7017 66.8571 60.7166 66.9486 60.7147 67.0586C60.7109 67.1597 60.689 67.2907 60.6603 67.4529C60.6554 67.493 60.6415 67.535 60.6308 67.5744L60.5967 67.7099C60.5846 67.7608 60.5718 67.8174 60.5623 67.8714C60.5488 67.9338 60.5321 67.9987 60.5243 68.0616L60.5229 68.0731Z" fill="black"/>
<path d="M62.2737 68.8821C62.2598 68.9241 62.2427 68.9686 62.2288 69.0106L62.1849 69.1073L62.1386 69.2009L62.1125 69.2473L62.1007 69.2722L62.0879 69.2824C62.0675 69.3294 62.0357 69.3753 62.0079 69.4128L61.9697 69.4638L61.9328 69.5032C61.8335 69.6026 61.7568 69.6116 61.6966 69.5818C61.5682 69.5388 61.4406 69.49 61.3201 69.4305C61.076 69.3139 60.85 69.1674 60.6397 68.9877C60.4295 68.8081 60.2388 68.5872 60.0907 68.3274C59.9451 68.0707 59.8306 67.774 59.8364 67.444C60.1288 67.5223 60.3643 67.5684 60.594 67.6138C60.8237 67.6592 61.0362 67.7027 61.248 67.752C61.4598 67.8012 61.6684 67.8531 61.8673 67.9125L62.1641 68.0029C62.1895 68.0086 62.2118 68.0169 62.2287 68.0448C62.2488 68.0702 62.2596 68.1236 62.2666 68.1853L62.2717 68.238L62.2729 68.2991L62.275 68.4472L62.2707 68.6469L62.2695 68.7511L62.2672 68.8872L62.2737 68.8821Z" fill="black"/>
<path d="M64.2725 72.4649C64.2373 72.0434 64.1516 71.6309 64.0075 71.2439C63.8635 70.8569 63.6585 70.4923 63.4014 70.1741C62.8847 69.5347 62.158 69.0666 61.3705 68.8326C61.2555 68.7997 61.19 68.6708 61.2227 68.5467C61.2547 68.4284 61.3653 68.3564 61.476 68.3772C61.9214 68.4636 62.3559 68.6155 62.7679 68.8317C63.1742 69.0472 63.5606 69.3301 63.8958 69.6742C64.2311 70.0183 64.512 70.4261 64.7293 70.8791C64.9441 71.3289 65.0869 71.8201 65.1735 72.3198C65.217 72.5797 65.0546 72.8375 64.8096 72.892C64.5647 72.9464 64.3326 72.7789 64.2866 72.5158C64.2855 72.5011 64.2812 72.4891 64.2801 72.4744L64.2776 72.4713L64.2725 72.4649Z" fill="black"/>
<mask id="mask0_25_3432" style="mask-type:luminance" maskUnits="userSpaceOnUse" x="19" y="36" width="32" height="22">
<path d="M38.6763 57.5902C31.5361 56.9054 19.1513 50.8531 19.8038 44.9179C20.4564 38.9827 33.8962 35.4082 41.039 36.0961C48.1792 36.7809 50.6303 41.8808 49.9777 47.816C49.3251 53.7512 45.819 58.2782 38.6788 57.5934L38.6763 57.5902Z" fill="white"/>
</mask>
<g mask="url(#mask0_25_3432)">
<path d="M57.7064 45.7815L34.6811 24.031L13.884 45.8785L36.9093 67.629L57.7064 45.7815Z" fill="#B57F12"/>
<path d="M18.3023 44.774C18.8827 39.495 26.7789 35.9294 35.9373 36.8087C45.0989 37.6854 52.054 42.6801 51.4735 47.959C50.893 53.238 42.9969 56.8036 33.8385 55.9243C24.6769 55.0476 17.7218 50.0529 18.2991 44.7765L18.3023 44.774Z" fill="#B57F12"/>
<path d="M18.3915 44.781C18.9684 39.5307 26.8248 35.981 35.9374 36.8553C45.0499 37.7295 51.9709 42.6944 51.3965 47.9479C50.8195 53.1982 42.9631 56.7479 33.8506 55.8736C24.738 54.9994 17.8171 50.0345 18.3915 44.781Z" fill="#B68012"/>
<path d="M18.475 44.7872C19.0484 39.5655 26.8618 36.0343 35.9285 36.9035C44.9952 37.7728 51.8814 42.7136 51.3047 47.9378C50.7313 53.1595 42.9179 56.6907 33.8512 55.8215C24.7845 54.9522 17.8983 50.0114 18.475 44.7872Z" fill="#B78113"/>
<path d="M18.561 44.7965C19.1315 39.5977 26.9046 36.0882 35.9254 36.9524C44.9462 37.8167 51.7919 42.7327 51.2245 47.929C50.6539 53.1278 42.8809 56.6373 33.8601 55.773C24.8424 54.9062 17.9911 49.9896 18.561 44.7965Z" fill="#B88213"/>
<path d="M18.6469 44.8058C19.214 39.6356 26.9473 36.1421 35.919 37.0038C44.8908 37.8656 51.7049 42.755 51.1378 47.9252C50.5707 53.0954 42.8374 56.5889 33.8657 55.7271C24.8939 54.8654 18.0799 49.976 18.6469 44.8058Z" fill="#B98313"/>
<path d="M18.7304 44.8121C19.294 39.6706 26.9875 36.193 35.9134 37.0498C44.8393 37.9065 51.6161 42.7687 51.0525 47.9102C50.489 53.0518 42.7954 56.5294 33.8695 55.6726C24.9436 54.8158 18.1669 49.9537 18.7304 44.8121Z" fill="#BB8413"/>
<path d="M18.8164 44.8215C19.3796 39.706 27.0328 36.2501 35.9071 37.1012C44.7871 37.953 51.5291 42.791 50.9658 47.9065C50.4026 53.022 42.7495 56.4779 33.8726 55.6236C24.9926 54.7718 18.2507 49.9338 18.8139 44.8183L18.8164 44.8215Z" fill="#BC8414"/>
<path d="M18.8999 44.8277C19.4596 39.7409 27.073 36.3009 35.9039 37.1502C44.7381 37.997 51.4428 42.8077 50.8856 47.8977C50.3284 52.9878 42.7125 56.4246 33.884 55.5784C25.0499 54.7317 18.3452 49.921 18.9024 44.8309L18.8999 44.8277Z" fill="#BD8514"/>
<path d="M18.9859 44.8372C19.5396 39.7758 27.1125 36.3575 35.8951 37.1986C44.6802 38.0429 51.35 42.8295 50.7963 47.8909C50.2427 52.9524 42.6697 56.3706 33.8814 55.5289C25.0963 54.6846 18.4265 49.898 18.9827 44.8397L18.9859 44.8372Z" fill="#BE8614"/>
<path d="M19.0719 44.8465C19.6252 39.8112 27.1552 36.4114 35.8945 37.2507C44.6337 38.09 51.2662 42.8493 50.7129 47.8847C50.1595 52.92 42.6295 56.3198 33.8928 55.4837C25.1536 54.6444 18.521 49.8851 19.0744 44.8497L19.0719 44.8465Z" fill="#BF8714"/>
<path d="M19.1553 44.8527C19.7052 39.846 27.1955 36.4622 35.8863 37.2933C44.5765 38.1301 51.1774 42.8628 50.6276 47.8695C50.0777 52.8762 42.5875 56.26 33.8941 55.4258C25.204 54.589 18.603 49.8563 19.1528 44.8495L19.1553 44.8527Z" fill="#C08815"/>
<path d="M19.2413 44.8622C19.7877 39.8841 27.2382 36.5162 35.8825 37.348C44.5242 38.1766 51.0904 42.8852 50.5434 47.8691C49.9971 52.8472 42.5465 56.215 33.9023 55.3832C25.2605 54.5546 18.6943 49.846 19.2413 44.8622Z" fill="#C18915"/>
<path d="M19.3273 44.8715C19.8708 39.9163 27.2809 36.5701 35.8794 37.3969C44.4753 38.2205 51.0034 42.9075 50.4606 47.857C49.9171 52.8123 42.507 56.1584 33.9086 55.3316C25.3127 54.508 18.7845 49.821 19.3273 44.8715Z" fill="#C28A15"/>
<path d="M19.4108 44.8777C19.9508 39.9511 27.3179 36.6234 35.8705 37.4452C44.4205 38.2638 50.9114 42.9235 50.3714 47.8501C49.8314 52.7768 42.4586 56.1038 33.9117 55.2826C25.3617 54.464 18.8708 49.8043 19.4108 44.8777Z" fill="#C38B15"/>
<path d="M19.4968 44.8871C20.0332 39.9891 27.3607 36.6774 35.8674 37.4942C44.3683 38.3103 50.8276 42.9434 50.2879 47.8439C49.7515 52.7419 42.4216 56.0504 33.9174 55.2369C25.4164 54.4207 18.9571 49.7876 19.4968 44.8871Z" fill="#C48C16"/>
<path d="M19.5828 44.8965C20.1189 40.0246 27.4059 36.7346 35.861 37.5457C44.3161 38.3568 50.7381 42.9626 50.202 47.8346C49.6658 52.7065 42.3788 55.9965 33.9237 55.1854C25.4686 54.3743 19.0466 49.7685 19.5828 44.8965Z" fill="#C58D16"/>
<path d="M19.6663 44.9029C20.1989 40.0596 27.4461 36.7856 35.8554 37.5917C44.2646 38.3978 50.6486 42.982 50.116 47.8253C49.5833 52.6686 42.3361 55.9427 33.9268 55.1366C25.5176 54.3305 19.1336 49.7462 19.6663 44.9029Z" fill="#C78E16"/>
<path d="M19.7522 44.9123C20.2813 40.0976 27.4889 36.8395 35.849 37.6432C44.2124 38.4443 50.5591 43.0012 50.0325 47.8191C49.5059 52.637 42.2959 55.8919 33.9357 55.0882C25.5723 54.2872 19.2257 49.7302 19.7522 44.9123Z" fill="#C88E16"/>
<path d="M19.8382 44.9217C20.3645 40.1299 27.5316 36.8935 35.8459 37.6921C44.1602 38.4907 50.4753 43.021 49.9465 47.8097C49.4202 52.6015 42.2531 55.8379 33.9388 55.0392C25.6245 54.2406 19.3094 49.7103 19.8382 44.9217Z" fill="#C98F17"/>
<path d="M19.9217 44.9279C20.4445 40.1647 27.5686 36.9468 35.8371 37.7405C44.1055 38.5341 50.3833 43.0371 49.8605 47.8003C49.3378 52.5635 42.2136 55.7814 33.9452 54.9878C25.6767 54.1941 19.399 49.6911 19.9217 44.9279Z" fill="#CA9017"/>
<path d="M20.0077 44.9372C20.5301 40.2001 27.6113 37.0007 35.8339 37.7893C44.0533 38.5804 50.2963 43.0594 49.777 47.7939C49.2578 52.5285 42.1734 55.7304 33.9508 54.9418C25.7314 54.1507 19.4885 49.6717 20.0077 44.9372Z" fill="#CB9117"/>
<path d="M20.0912 44.9434C20.6101 40.2349 27.6516 37.0514 35.8251 37.8376C43.9986 38.6237 50.2042 43.0754 49.6878 47.787C49.1689 52.4955 42.1274 55.6789 33.9539 54.8928C25.7829 54.1099 19.5748 49.655 20.0937 44.9465L20.0912 44.9434Z" fill="#CC9217"/>
<path d="M20.1772 44.9529C20.6926 40.273 27.6968 37.1087 35.8219 37.8867C43.9496 38.6678 50.1179 43.0922 49.6051 47.7752C49.0922 52.4583 42.0879 55.6226 33.9603 54.8414C25.8326 54.0603 19.6618 49.6328 20.1772 44.9529Z" fill="#CD9318"/>
<path d="M20.2632 44.9622C20.7757 40.3052 27.7396 37.1626 35.8156 37.9381C43.8949 38.711 50.0309 43.1145 49.5184 47.7714C49.0058 52.4284 42.042 55.571 33.9659 54.7956C25.8867 54.0226 19.7506 49.6192 20.2632 44.9622Z" fill="#CE9418"/>
<path d="M20.3466 44.9686C20.8557 40.3402 27.7798 37.2136 35.81 37.984C43.8401 38.7545 49.9389 43.1307 49.4331 47.7565C48.924 52.3848 41.9999 55.5115 33.9697 54.741C25.9396 53.9706 19.8383 49.5912 20.3441 44.9654L20.3466 44.9686Z" fill="#CF9518"/>
<path d="M20.4326 44.9779C20.9382 40.3782 27.8193 37.2701 35.8036 38.0355C43.7879 38.801 49.8519 43.153 49.3464 47.7528C48.8408 52.3525 41.9597 55.4607 33.9722 54.6977C25.9878 53.9323 19.9239 49.5802 20.4294 44.9805L20.4326 44.9779Z" fill="#D09518"/>
<path d="M20.5186 44.9874C21.0213 40.4105 27.862 37.324 35.8005 38.0845C43.739 38.8449 49.7681 43.1729 49.2629 47.7465C48.7634 52.3209 41.9195 55.4099 33.981 54.6494C26.0426 53.889 20.0134 49.561 20.5154 44.9899L20.5186 44.9874Z" fill="#D19619"/>
<path d="M20.6021 44.9935C21.1013 40.4453 27.9022 37.3748 35.7916 38.1328C43.681 38.8908 49.6761 43.1889 49.1769 47.7371C48.6777 52.2853 41.8767 55.3558 33.9874 54.5979C26.098 53.8399 20.1029 49.5418 20.6021 44.9935Z" fill="#D29719"/>
<path d="M20.6881 45.003C21.1837 40.4834 27.945 37.4289 35.7885 38.1818C43.632 38.9348 49.5898 43.2056 49.0909 47.7278C48.5953 52.2474 41.834 55.3019 33.9905 54.549C26.147 53.796 20.1892 49.5252 20.6881 45.003Z" fill="#D39819"/>
<path d="M20.7716 45.0091C21.2637 40.5181 27.9852 37.4795 35.7797 38.23C43.5773 38.978 49.4971 43.2272 49.0049 47.7182C48.5128 52.2092 41.7913 55.2478 33.9968 54.4973C26.1992 53.7494 20.2794 49.5001 20.7716 45.0091Z" fill="#D49919"/>
<path d="M20.8575 45.0186C21.3494 40.5536 28.0279 37.5336 35.7765 38.279C43.5283 39.022 49.4108 43.244 48.9215 47.7121C48.4296 52.177 41.7485 55.1939 34.0025 54.4516C26.2507 53.7087 20.3657 49.4835 20.8575 45.0186Z" fill="#D59A1A"/>
<path d="M20.9435 45.028C21.4318 40.5917 28.07 37.5933 35.7734 38.328C43.4761 39.0685 49.327 43.2639 48.8355 47.7027C48.3497 52.1422 41.709 55.1374 34.0056 54.4027C26.3029 53.6622 20.452 49.4668 20.9435 45.028Z" fill="#D79B1A"/>
<path d="M21.027 45.0341C21.5093 40.6233 28.1102 37.644 35.7671 38.3795C43.4239 39.1149 49.2343 43.2855 48.752 47.6964C48.2697 52.1073 41.6688 55.0865 34.0145 54.3543C26.3576 53.6188 20.5447 49.445 21.0295 45.0373L21.027 45.0341Z" fill="#D89C1A"/>
<path d="M21.113 45.0435C21.595 40.6587 28.1529 37.6979 35.7614 38.4252C43.3724 39.1557 49.148 43.3022 48.666 47.687C48.184 52.0718 41.6261 55.0325 34.0151 54.3021C26.4041 53.5716 20.6285 49.4251 21.1105 45.0403L21.113 45.0435Z" fill="#D99C1A"/>
<path d="M21.199 45.053C21.6774 40.6968 28.1957 37.752 35.7576 38.48C43.3195 39.208 49.0635 43.3278 48.585 47.684C48.1066 52.0402 41.5884 54.985 34.029 54.2602C26.467 53.5322 20.7256 49.4155 21.2015 45.0561L21.199 45.053Z" fill="#DA9D1B"/>
<path d="M21.2825 45.0591C21.7549 40.7283 28.2359 37.8027 35.7494 38.5225C43.2655 39.2454 48.9721 43.338 48.494 47.6681C48.0191 51.9957 41.5406 54.9245 34.0245 54.2016C26.511 53.4818 20.8018 49.386 21.28 45.0559L21.2825 45.0591Z" fill="#DB9E1B"/>
<path d="M21.3685 45.0686C21.8405 40.764 28.2786 37.8568 35.7456 38.5773C43.2133 39.2921 48.8851 43.3606 48.4131 47.6652C47.941 51.9699 41.5029 54.877 34.0384 54.1597C26.5708 53.4449 20.8989 49.3765 21.371 45.0718L21.3685 45.0686Z" fill="#DC9F1B"/>
<path d="M21.4545 45.078C21.923 40.8019 28.3181 37.9133 35.74 38.6231C43.1611 39.3386 48.7956 43.3798 48.3271 47.6558C47.8585 51.9319 41.4634 54.8205 34.039 54.1075C26.6204 53.3952 20.9834 49.3509 21.4545 45.078Z" fill="#DDA01B"/>
<path d="M21.5379 45.0841C22.003 40.8367 28.3584 37.964 35.7336 38.6745C43.1089 39.385 48.7061 43.3989 48.2411 47.6463C47.776 51.8937 41.4181 54.7632 34.0454 54.0559C26.6727 53.3486 21.0729 49.3316 21.5379 45.0841Z" fill="#DEA11C"/>
<path d="M21.6239 45.0936C22.0887 40.8722 28.4036 38.0212 35.7305 38.7235C43.0574 39.4258 48.6223 43.4188 48.1576 47.6402C47.6929 51.8615 41.3779 54.7125 34.051 54.0102C26.7242 53.3079 21.1592 49.315 21.6239 45.0936Z" fill="#DFA11C"/>
<path d="M21.7106 45.0972C22.1718 40.9044 28.4471 38.0694 35.7248 38.7692C43.0059 39.4665 48.5303 43.4347 48.0716 47.6307C47.6104 51.8234 41.3352 54.6584 34.0574 53.9586C26.7764 53.2613 21.2519 49.2931 21.7106 45.0972Z" fill="#E0A21C"/>
<path d="M21.7966 45.1066C22.2518 40.9393 28.4898 38.1234 35.7217 38.8182C42.9537 39.513 48.4465 43.4546 47.9888 47.6187C47.5337 51.786 41.2957 54.6019 34.0637 53.9071C26.8318 53.2123 21.3389 49.2707 21.7966 45.1066Z" fill="#E1A31C"/>
<path d="M21.8826 45.1162C22.3375 40.975 28.5293 38.1801 35.7154 38.8699C42.9015 39.5597 48.357 43.474 47.9021 47.6153C47.4473 51.7565 41.2554 54.5513 34.0694 53.8615C26.8833 53.1717 21.4277 49.2574 21.8826 45.1162Z" fill="#E2A41D"/>
<path d="M21.9661 45.1223C22.4174 41.0097 28.5695 38.2308 35.7097 38.9156C42.8499 39.6004 48.2707 43.4906 47.8194 47.6032C47.368 51.7158 41.2159 54.4947 34.0757 53.8099C26.9387 53.1226 21.5147 49.2349 21.9693 45.1198L21.9661 45.1223Z" fill="#E3A51D"/>
<path d="M22.0521 45.1316C22.4999 41.0476 28.6123 38.2847 35.7034 38.967C42.7945 39.6493 48.1812 43.5097 47.7302 47.5962C47.2791 51.6828 41.17 54.4432 34.0788 53.7608C26.9877 53.0785 21.6042 49.2156 22.0521 45.1316Z" fill="#E4A61D"/>
<path d="M22.138 45.1412C22.5856 41.0833 28.655 38.3389 35.7003 39.0162C42.7455 39.6935 48.0942 43.5323 47.6499 47.5877C47.2024 51.6456 41.133 54.39 34.0877 53.7127C27.0424 53.0354 21.6938 49.1966 22.1413 45.1387L22.138 45.1412Z" fill="#E5A61D"/>
<path d="M22.2215 45.1474C22.663 41.1149 28.6977 38.3928 35.6914 39.0644C42.6908 39.7367 48.0022 43.5483 47.5607 47.5808C47.1192 51.6132 41.087 54.3385 34.0908 53.6637C27.0939 52.9946 21.78 49.1799 22.2215 45.1474Z" fill="#E6A71E"/>
<path d="M22.3075 45.1568C22.7487 41.1504 28.738 38.4436 35.6883 39.1134C42.6393 39.7776 47.9184 43.5682 47.4747 47.5714C47.0335 51.5778 41.0443 54.2846 34.0939 53.6148C27.1404 52.9475 21.8638 49.1601 22.3075 45.1568Z" fill="#E7A81E"/>
<path d="M22.3935 45.1661C22.8311 41.1883 28.78 38.5033 35.6852 39.1623C42.5871 39.824 47.8289 43.5873 47.3944 47.5626C46.9568 51.5404 41.0047 54.228 34.1028 53.5664C27.2008 52.9047 21.9591 49.1414 22.3935 45.1661Z" fill="#E8A91E"/>
<path d="M22.477 45.1723C22.9111 41.2231 28.8202 38.554 35.6763 39.2106C42.5324 39.8673 47.7394 43.6065 47.3052 47.5557C46.8711 51.5048 40.962 54.174 34.1059 53.5174C27.2498 52.8607 22.0429 49.1215 22.477 45.1723Z" fill="#E9AA1E"/>
<path d="M22.563 45.1818C22.9943 41.2555 28.8629 38.6081 35.6732 39.2597C42.4834 39.9113 47.6531 43.6232 47.225 47.547C46.7912 51.4701 40.925 54.1207 34.1148 53.4691C27.3046 52.8175 22.1349 49.1055 22.563 45.1818Z" fill="#EAAA1F"/>
<path d="M22.6464 45.1879C23.0742 41.2903 28.9032 38.6588 35.6643 39.3079C42.4255 39.9571 47.561 43.6392 47.1333 47.5368C46.7055 51.4345 40.8765 54.066 34.1154 53.4169C27.3542 52.7677 22.2162 49.0824 22.6464 45.1879Z" fill="#EBAB1F"/>
<path d="M22.7324 45.1975C23.1567 41.3284 28.9459 38.7129 35.6612 39.357C42.3765 40.0012 47.474 43.6617 47.0498 47.5308C46.6255 51.3998 40.8363 54.0154 34.121 53.3712C27.4057 52.7271 22.3082 49.0665 22.7324 45.1975Z" fill="#EBAC1F"/>
<path d="M22.8184 45.2069C23.2424 41.3639 28.9886 38.7669 35.6548 39.4086C42.3243 40.0477 47.387 43.6841 46.9663 47.5246C46.5456 51.365 40.7961 53.9646 34.1299 53.3229C27.4605 52.6838 22.3977 49.0473 22.8184 45.2069Z" fill="#ECAD1F"/>
<path d="M22.9019 45.2129C23.3223 41.3985 29.0256 38.82 35.6492 39.4541C42.2695 40.0908 47.2982 43.6974 46.8803 47.5149C46.4599 51.3293 40.7566 53.9078 34.133 53.2737C27.5127 52.637 22.484 49.0304 22.9044 45.2161L22.9019 45.2129Z" fill="#EDAD1F"/>
<path d="M22.9879 45.2225C23.4023 41.4336 29.0684 38.8742 35.6429 39.5058C42.2173 40.1375 47.2112 43.72 46.7943 47.5057C46.3799 51.2947 40.7113 53.8509 34.1394 53.2224C27.5649 52.5907 22.571 49.0082 22.9879 45.2225Z" fill="#EEAE20"/>
<path d="M23.0739 45.2318C23.4847 41.4715 29.1136 38.9313 35.6397 39.5547C42.1684 40.1814 47.1217 43.7391 46.7109 47.4994C46.3 51.2597 40.6711 53.8 34.145 53.1765C27.6164 52.5499 22.663 48.9921 23.0739 45.2318Z" fill="#EFAF20"/>
<path d="M23.1574 45.238C23.5679 41.5038 29.1538 38.982 35.6309 39.603C42.1136 40.2246 47.0297 43.7551 46.6191 47.4894C46.2086 51.2236 40.6226 53.7453 34.1456 53.1243C27.6628 52.5027 22.7468 48.9722 23.1516 45.2374L23.1574 45.238Z" fill="#F0B020"/>
<path d="M23.2433 45.2475C23.6504 41.5419 29.1966 39.0361 35.6278 39.6521C42.0614 40.2712 46.9459 43.7751 46.5389 47.4807C46.1318 51.1863 40.5856 53.6921 34.152 53.0729C27.7183 52.4538 22.8338 48.9499 23.2408 45.2443L23.2433 45.2475Z" fill="#F1B020"/>
<path d="M23.3268 45.2538C23.7303 41.5768 29.2368 39.087 35.6214 39.7036C42.0067 40.3146 46.8564 43.7944 46.4522 47.4771C46.0487 51.1541 40.5422 53.6439 34.1601 53.0304C27.7748 52.4194 22.9226 48.9365 23.3293 45.257L23.3268 45.2538Z" fill="#F2B120"/>
<path d="M23.4128 45.263C23.8135 41.6089 29.2763 39.1433 35.6158 39.7492C41.9577 40.3584 46.7669 43.8134 46.3694 47.4649C45.9687 51.119 40.5059 53.5846 34.1639 52.9755C27.8277 52.367 23.0128 48.9113 23.4103 45.2598L23.4128 45.263Z" fill="#F3B221"/>
<path d="M23.4988 45.2724C23.896 41.6469 29.3191 39.1973 35.6119 39.8039C41.9023 40.4074 46.6799 43.8358 46.2827 47.4613C45.8856 51.0868 40.4625 53.5364 34.1721 52.9329C27.8817 52.3294 23.1017 48.8979 23.5013 45.2756L23.4988 45.2724Z" fill="#F3B221"/>
<path d="M23.5823 45.2787C23.9759 41.6819 29.3593 39.2482 35.6063 39.8499C41.8508 40.4483 46.5936 43.8526 46.1999 47.4494C45.8063 51.0463 40.4229 53.48 34.1759 52.8783C27.9314 52.2799 23.1887 48.8756 23.5823 45.2787Z" fill="#F4B321"/>
<path d="M23.6683 45.2881C24.0616 41.7173 29.4045 39.3053 35.6 39.9013C41.7986 40.4948 46.5041 43.8718 46.1132 47.4457C45.7199 51.0165 40.3795 53.4317 34.1841 52.8357C27.9854 52.2422 23.28 48.8653 23.6708 45.2913L23.6683 45.2881Z" fill="#F4B321"/>
<path d="M23.8664 45.3068C24.252 41.799 29.5001 39.4259 35.5891 40.0132C41.6756 40.5973 46.3014 43.9134 45.9183 47.4244C45.5328 50.9322 40.2847 53.3053 34.1957 52.718C28.1092 52.1339 23.4808 48.8147 23.8664 45.3068Z" fill="#F4B322"/>
<path d="M24.0645 45.3256C24.4423 41.8807 29.5981 39.5498 35.5782 40.1251C41.5583 40.7005 46.1012 43.9582 45.7234 47.4031C45.3456 50.848 40.1899 53.1789 34.2098 52.6035C28.2297 52.0282 23.6867 48.7705 24.0645 45.3256Z" fill="#F4B423"/>
<path d="M24.2569 45.3438C24.627 41.9619 29.6904 39.6731 35.5616 40.2365C41.4328 40.8 45.8928 43.9993 45.5196 47.3838C45.1495 50.7657 40.0861 53.0545 34.2149 52.4911C28.3437 51.9276 23.8837 48.7283 24.2569 45.3438Z" fill="#F4B424"/>
<path d="M24.4551 45.3626C24.8206 42.0411 29.7884 39.7969 35.55 40.3542C41.3122 40.9058 45.6895 44.0467 45.3239 47.3682C44.9584 50.6897 39.9938 52.9314 34.2283 52.3824C28.4635 51.8276 24.0888 48.6898 24.4544 45.3683L24.4551 45.3626Z" fill="#F4B425"/>
<path d="M24.6532 45.3811C25.011 42.1226 29.8833 39.9231 35.5391 40.4659C41.195 41.0087 45.4868 44.0882 45.129 47.3467C44.7713 50.6053 39.899 52.8048 34.2431 52.2619C28.5873 51.7191 24.2954 48.6397 24.6532 45.3811Z" fill="#F4B526"/>
<path d="M24.8513 45.3999C25.2013 42.2043 29.9813 40.0469 35.5282 40.5778C41.0752 41.1088 45.2841 44.1298 44.9341 47.3254C44.5841 50.521 39.8041 52.6784 34.2572 52.1475C28.7135 51.614 24.5013 48.5955 24.8513 45.3999Z" fill="#F4B527"/>
<path d="M25.0462 45.4212C25.3885 42.2886 30.0761 40.1733 35.5141 40.6923C40.9489 41.2139 45.0808 44.1772 44.7328 47.3092C44.3905 50.4419 39.7029 52.5572 34.2649 52.0381C28.8301 51.5166 24.6982 48.5532 25.0405 45.4206L25.0462 45.4212Z" fill="#F4B528"/>
<path d="M25.2444 45.4401C25.5821 42.3679 30.1742 40.2973 35.5 40.807C40.8284 41.3198 44.8749 44.2216 44.5372 47.2938C44.2027 50.3635 39.6073 52.4366 34.279 51.9238C28.9506 51.411 24.9041 48.5092 25.2444 45.4401Z" fill="#F4B629"/>
<path d="M25.44 45.4557C25.7725 42.4496 30.2697 40.4179 35.4892 40.9188C40.7086 41.4198 44.6722 44.2632 44.3422 47.2724C44.0123 50.2817 39.5125 52.3102 34.2931 51.8093C29.0736 51.3084 25.11 48.4649 25.44 45.4557Z" fill="#F4B62A"/>
<path d="M25.6381 45.4744C25.9603 42.5281 30.3677 40.5417 35.4783 41.0307C40.5888 41.5197 44.4695 44.3048 44.1473 47.2511C43.8251 50.1974 39.4177 52.1838 34.3072 51.6948C29.1966 51.2057 25.3159 48.4207 25.6381 45.4744Z" fill="#F4B62B"/>
<path d="M25.833 45.4956C26.15 42.6155 30.46 40.6648 35.4642 41.1451C40.4683 41.6254 44.2637 44.3489 43.9492 47.2323C43.6322 50.1125 39.3222 52.0631 34.318 51.5828C29.3139 51.1025 25.5186 48.379 25.833 45.4956Z" fill="#F4B72C"/>
<path d="M26.0311 45.5145C26.3404 42.6973 30.5581 40.7887 35.4501 41.2597C40.3453 41.7281 44.0603 44.3964 43.7479 47.2162C43.4412 50.0365 39.2209 51.9419 34.3289 51.471C29.4337 51.0026 25.7187 48.3342 26.0311 45.5145Z" fill="#F4B72D"/>
<path d="M26.2293 45.5332C26.5307 42.779 30.6561 40.9125 35.4392 41.3716C40.2223 41.8306 43.8576 44.438 43.5529 47.1948C43.2483 49.9516 39.1261 51.8155 34.3405 51.3533C29.5574 50.8942 25.9221 48.2868 26.2268 45.53L26.2293 45.5332Z" fill="#F4B72E"/>
<path d="M26.4274 45.5521C26.7243 42.8583 30.7542 41.0365 35.4308 41.4868C40.1075 41.9371 43.6575 44.483 43.3605 47.1768C43.0636 49.8707 39.0338 51.6924 34.3571 51.2421C29.683 50.795 26.1305 48.2459 26.4274 45.5521Z" fill="#F4B82F"/>
<path d="M26.6223 45.5733C26.9115 42.9424 30.849 41.1628 35.4167 41.6012C39.9845 42.0396 43.4516 44.5271 43.1624 47.158C42.8732 49.7889 38.9357 51.5685 34.368 51.1301C29.8003 50.6917 26.3331 48.2042 26.6223 45.5733Z" fill="#F4B830"/>
<path d="M26.8179 45.5888C27.0993 43.0209 30.9413 41.2859 35.4001 41.7124C39.8589 42.1389 43.2432 44.568 42.9618 47.1359C42.6804 49.7039 38.8384 51.4388 34.3796 51.0124C29.9208 50.5859 26.5365 48.1567 26.8179 45.5888Z" fill="#F4B831"/>
<path d="M27.0161 45.6076C27.2897 43.1026 31.0393 41.4097 35.3892 41.8243C39.7391 42.2389 43.0405 44.6097 42.7694 47.1178C42.4957 49.6228 38.7461 51.3156 34.3962 50.9011C30.0438 50.4833 26.7424 48.1125 27.0218 45.6082L27.0161 45.6076Z" fill="#F4B832"/>
<path d="M27.211 45.629C27.4801 43.1845 31.1342 41.5363 35.3777 41.9421C39.6179 42.3505 42.8397 44.6604 42.5705 47.105C42.3014 49.5495 38.6474 51.1977 34.4039 50.7919C30.1636 50.3835 26.9418 48.0736 27.211 45.629Z" fill="#F4B933"/>
<path d="M27.4091 45.6477C27.6705 43.2661 31.2322 41.66 35.3636 42.0565C39.4949 42.453 42.6338 44.7045 42.3724 47.0861C42.111 49.4677 38.5493 51.0738 34.418 50.6773C30.2866 50.2808 27.1477 48.0293 27.4091 45.6477Z" fill="#F4B934"/>
<path d="M27.6072 45.6664C27.8609 43.3478 31.3277 41.7807 35.3527 42.1684C39.3751 42.553 42.4311 44.7462 42.1775 47.0648C41.9239 49.3834 38.4545 50.9474 34.4321 50.5628C30.4096 50.1782 27.3536 47.9851 27.6072 45.6664Z" fill="#F4B935"/>
<path d="M27.8028 45.682C28.0487 43.4264 31.4233 41.9013 35.3393 42.2772C39.2553 42.653 42.2259 44.7847 41.9801 47.0403C41.7342 49.296 38.3597 50.821 34.4436 50.4452C30.5276 50.0693 27.557 47.9377 27.8028 45.682Z" fill="#F4BA36"/>
<path d="M27.9978 45.7034C28.2391 43.5082 31.5181 42.0278 35.3252 42.3917C39.1323 42.7557 42.0226 44.8321 41.7787 47.0242C41.5374 49.2195 38.2584 50.6998 34.4488 50.3327C30.6417 49.9688 27.7539 47.8955 27.9952 45.7003L27.9978 45.7034Z" fill="#F4BA37"/>
<path d="M28.1959 45.722C28.432 43.5929 31.6161 42.1514 35.3136 42.5092C39.0086 42.8638 41.8192 44.8793 41.5831 47.0084C41.347 49.1375 38.1629 50.579 34.4654 50.2212C30.7704 49.8666 27.9598 47.8511 28.1959 45.722Z" fill="#F4BA38"/>
<path d="M28.394 45.7407C28.6224 43.6746 31.7142 42.2753 35.3027 42.6211C38.8913 42.967 41.6165 44.921 41.3882 46.9871C41.1624 49.0565 38.0681 50.4526 34.4795 50.1068C30.8909 49.7609 28.1657 47.8069 28.394 45.7407Z" fill="#F4BB39"/>
<path d="M28.5921 45.7595C28.8127 43.7563 31.8122 42.3991 35.2918 42.7331C38.7715 43.067 41.4139 44.9626 41.1933 46.9658C40.9727 48.969 37.9732 50.3263 34.4936 49.9923C31.014 49.6583 28.3716 47.7627 28.5921 45.7595Z" fill="#F4BB3A"/>
<path d="M28.7871 45.781C28.9999 43.8407 31.907 42.5256 35.2777 42.8477C38.6485 43.1697 41.208 45.007 40.9952 46.9472C40.7823 48.8875 37.8752 50.2026 34.5045 49.8805C31.1338 49.5585 28.5742 47.7212 28.7871 45.781Z" fill="#F4BB3B"/>
<path d="M28.9827 45.7965C29.191 43.9167 31.9993 42.6488 35.2636 42.9621C38.5254 43.2723 41.0021 45.0511 40.7963 46.9342C40.588 48.814 37.7797 50.0819 34.5179 49.7717C31.2536 49.4584 28.7794 47.6827 28.9852 45.7997L28.9827 45.7965Z" fill="#F4BC3C"/>
<path d="M29.1808 45.8153C29.3813 43.9984 32.0974 42.7726 35.2528 43.074C38.4081 43.3755 40.802 45.096 40.6014 46.9129C40.4009 48.7297 37.6816 49.9581 34.5295 49.6541C31.3773 49.3501 28.9803 47.6322 29.1808 45.8153Z" fill="#F4BC3E"/>
<path d="M29.3789 45.834C29.5717 44.0801 32.1954 42.8964 35.2419 43.1859C38.2851 43.478 40.5993 45.1376 40.4065 46.8915C40.2137 48.6454 37.59 49.8291 34.5436 49.5396C31.5003 49.2475 29.1861 47.5879 29.3789 45.834Z" fill="#F4BC3F"/>
<path d="M29.5771 45.8527C29.7621 44.1617 32.2934 43.0202 35.2278 43.3003C38.1646 43.5836 40.3934 45.1817 40.2084 46.8727C40.0233 48.5636 37.492 49.7052 34.5577 49.425C31.6233 49.1449 29.392 47.5436 29.5771 45.8527Z" fill="#F4BD40"/>
<path d="M29.772 45.8741C29.9492 44.2461 32.3858 43.1435 35.2137 43.4149C38.0416 43.6863 40.1875 45.226 40.0102 46.854C39.833 48.482 37.394 49.5815 34.5685 49.3132C31.7406 49.0418 29.5947 47.5021 29.772 45.8741Z" fill="#F4BD41"/>
<path d="M29.9701 45.8927C30.1428 44.3251 32.4838 43.2672 35.2053 43.5298C37.9243 43.7894 39.9874 45.2707 39.8146 46.8383C39.6419 48.4059 37.3009 49.4638 34.5794 49.2011C31.8604 48.9416 29.7974 47.4603 29.9701 45.8927Z" fill="#F4BD42"/>
<path d="M30.1657 45.9083C30.3307 44.4037 32.5793 43.3878 35.1919 43.6386C37.8045 43.8894 39.7847 45.3124 39.6172 46.8138C39.4522 48.3185 37.2036 49.3343 34.591 49.0835C31.9809 48.8359 30.0007 47.4129 30.1657 45.9083Z" fill="#F4BE43"/>
<path d="M30.3606 45.9296C30.5179 44.4879 32.6741 43.5142 35.1746 43.7556C37.6751 43.997 39.5756 45.3591 39.4184 46.8008C39.2611 48.2425 37.1049 49.2162 34.6044 48.9748C32.1039 48.7333 30.2034 47.3713 30.3631 45.9328L30.3606 45.9296Z" fill="#F4BE44"/>
<path d="M30.5588 45.9484C30.7082 44.5697 32.7722 43.638 35.1637 43.8676C37.5553 44.0971 39.3729 45.4008 39.2209 46.7763C39.0715 48.155 37.0075 49.0866 34.616 48.8571C32.2245 48.6276 30.4068 47.3239 30.5562 45.9452L30.5588 45.9484Z" fill="#F4BE45"/>
<path d="M30.7569 45.9671C30.8986 44.6514 32.8702 43.7619 35.1528 43.9795C37.4355 44.1971 39.1703 45.4424 39.0286 46.7582C38.8868 48.074 36.9152 48.9635 34.6301 48.7427C32.3475 48.5251 30.6127 47.2797 30.7569 45.9671Z" fill="#F4BF46"/>
<path d="M30.955 45.986C31.0947 44.7339 32.9683 43.8858 35.1445 44.0947C37.3207 44.3036 38.9701 45.4874 38.8329 46.7427C38.6932 47.9949 36.8197 48.8429 34.6467 48.6315C32.4705 48.4226 30.8211 47.2388 30.9582 45.9835L30.955 45.986Z" fill="#F4BF47"/>
<path d="M31.1499 46.0074C31.2819 44.8182 33.0631 44.0123 35.1272 44.2118C37.1944 44.4087 38.761 45.5342 38.6316 46.7266C38.5022 47.919 36.7184 48.7217 34.6544 48.5222C32.5871 48.3252 31.018 47.1966 31.1499 46.0074Z" fill="#F4BF48"/>
<path d="M31.3481 46.0261C31.4723 44.8998 33.1579 44.1386 35.1163 44.3237C37.0714 44.5113 38.5609 45.579 38.4367 46.7052C38.3125 47.8315 36.6236 48.5953 34.6685 48.4077C32.7133 48.22 31.2239 47.1523 31.3481 46.0261Z" fill="#F4C049"/>
<path d="M31.5437 46.0417C31.6601 44.9784 33.2534 44.2593 35.1029 44.4324C36.9516 44.6113 38.3557 45.6175 38.2393 46.6808C38.1228 47.7441 36.5263 48.4657 34.68 48.29C32.8313 48.1111 31.4272 47.105 31.5437 46.0417Z" fill="#F4C04A"/>
<path d="M31.7418 46.0604C31.8537 45.0575 33.3515 44.3831 35.0913 44.55C36.8311 44.717 38.1523 45.6648 38.0404 46.6677C37.9285 47.6706 36.4307 48.345 34.6934 48.1812C32.9536 48.0143 31.6324 47.0665 31.7443 46.0636L31.7418 46.0604Z" fill="#F4C04B"/>
<path d="M31.9367 46.0816C32.0409 45.1417 33.4438 44.5062 35.0772 44.6644C36.7081 44.8195 37.9464 45.7089 37.8423 46.6488C37.7381 47.5888 36.3352 48.2243 34.7018 48.066C33.0709 47.911 31.8326 47.0215 31.9367 46.0816Z" fill="#F4C14C"/>
<path d="M32.1348 46.1004C32.2312 45.2234 33.5418 44.63 35.0663 44.7763C36.5908 44.9227 37.7438 45.7506 37.6474 46.6275C37.551 47.5045 36.2404 48.0979 34.7159 47.9516C33.1914 47.8052 32.0385 46.9773 32.1348 46.1004Z" fill="#F4C14D"/>
<path d="M32.333 46.1191C32.4216 45.3051 33.6399 44.7538 35.0554 44.8882C36.4678 45.0252 37.5436 45.7954 37.455 46.6094C37.3663 47.4234 36.1481 47.9747 34.7325 47.8402C33.3202 47.7033 32.2468 46.9363 32.333 46.1191Z" fill="#F4C14E"/>
<path d="M32.5311 46.1379C32.612 45.3869 33.7379 44.8777 35.0413 45.0028C36.3448 45.1279 37.3377 45.8397 37.2536 46.5933C37.1727 47.3443 36.0468 47.8535 34.7434 47.7284C33.44 47.6033 32.447 46.8915 32.5311 46.1379Z" fill="#F4C14F"/>
<path d="M32.7235 46.1561C32.7998 45.4655 33.8302 45.0009 35.0272 45.1173C36.2243 45.2336 37.1318 45.8839 37.0555 46.5745C36.9792 47.2652 35.9488 47.7297 34.7518 47.6133C33.5547 47.497 32.6472 46.8467 32.7235 46.1561Z" fill="#F4C250"/>
<path d="M32.9216 46.1749C32.9902 45.5472 33.9283 45.1248 35.0164 45.2292C36.1045 45.3337 36.9292 45.9256 36.8606 46.5532C36.792 47.1809 35.854 47.6033 34.7659 47.4989C33.6778 47.3944 32.853 46.8025 32.9216 46.1749Z" fill="#F4C251"/>
<path d="M33.1198 46.1936C33.1806 45.6289 34.0263 45.2486 35.0055 45.3412C35.9847 45.4337 36.7265 45.9672 36.6657 46.5319C36.6048 47.0966 35.7591 47.477 34.7832 47.3819C33.804 47.2893 33.0621 46.7558 33.123 46.1911L33.1198 46.1936Z" fill="#F4C252"/>
<path d="M33.3179 46.2123C33.3735 45.7137 34.1243 45.3724 34.9914 45.4555C35.8584 45.5387 36.5206 46.0113 36.4676 46.5131C36.412 47.0117 35.6611 47.353 34.7941 47.2699C33.927 47.1867 33.2623 46.7109 33.3179 46.2123Z" fill="#F4C353"/>
<path d="M33.5128 46.2337C33.5639 45.7955 34.2192 45.4988 34.9798 45.5733C35.7436 45.6452 36.3198 46.062 36.2719 46.4976C36.2266 46.9364 35.5656 47.2325 34.8075 47.1612C34.0436 47.0893 33.4675 46.6725 33.5153 46.2369L33.5128 46.2337Z" fill="#F4C354"/>
<path d="M33.7109 46.2525C33.7517 45.8741 34.3147 45.6195 34.9689 45.6853C35.6206 45.7478 36.1171 46.1037 36.0738 46.4789C36.033 46.8573 35.47 47.1119 34.8158 47.0462C34.1641 46.9836 33.6676 46.6277 33.7109 46.2525Z" fill="#F4C355"/>
<path d="M33.9065 46.2681C33.9421 45.9558 34.4095 45.7459 34.9523 45.7965C35.4976 45.8503 35.9087 46.1447 35.8757 46.4601C35.8401 46.7724 35.3727 46.9823 34.8299 46.9317C34.2871 46.881 33.8735 46.5835 33.9091 46.2713L33.9065 46.2681Z" fill="#F4C456"/>
<path d="M34.1015 46.2893C34.1293 46.04 34.5043 45.8722 34.9382 45.9109C35.3746 45.9528 35.7028 46.1888 35.6775 46.4413C35.6523 46.6937 35.2772 46.8616 34.8408 46.8197C34.4044 46.7778 34.0762 46.5418 34.1015 46.2893Z" fill="#F4C457"/>
<path d="M34.2996 46.308C34.3196 46.1217 34.5999 45.9928 34.9273 46.0228C35.2516 46.0553 35.5002 46.2304 35.4826 46.4199C35.4626 46.6062 35.1824 46.7351 34.8549 46.7051C34.5306 46.6726 34.2821 46.4975 34.2996 46.308Z" fill="#F4C458"/>
<path d="M34.4977 46.3269C34.5132 46.201 34.6979 46.1168 34.919 46.1381C35.1375 46.1561 35.3025 46.2786 35.2902 46.402C35.2747 46.5279 35.0901 46.6121 34.8715 46.594C34.653 46.5759 34.4879 46.4535 34.5002 46.3301L34.4977 46.3269Z" fill="#F4C559"/>
<path d="M34.6958 46.3455C34.7036 46.2825 34.7959 46.2404 34.9049 46.2523C35.0138 46.2642 35.0966 46.3226 35.0889 46.3856C35.0811 46.4485 34.9888 46.4906 34.8799 46.4787C34.771 46.4668 34.6881 46.4084 34.6958 46.3455Z" fill="#F4C55A"/>
</g>
<path d="M32.7726 36.7006C30.9225 37.0756 29.0719 37.5954 27.367 38.2531C25.8151 42.9995 25.2748 47.9522 25.7844 52.8949C27.3127 53.8595 29.0163 54.7215 30.7465 55.4385C29.7168 49.1048 30.4111 42.713 32.7751 36.7038L32.7726 36.7006Z" fill="black"/>
<path d="M23.5401 40.126C21.4415 41.4569 20.0022 43.0717 19.8013 44.9146C19.5998 46.7633 20.6602 48.6252 22.4368 50.3334C22.3024 46.8963 22.6724 43.468 23.5401 40.126Z" fill="black"/>
<path d="M46.7177 55.2268C48.5966 53.4396 49.6505 50.8024 49.9784 47.8103C50.3076 44.8068 49.8435 42.0182 48.3778 39.9089C46.6984 44.8647 46.1349 50.0527 46.7152 55.2236L46.7177 55.2268Z" fill="black"/>
<path d="M39.7317 57.6533C40.398 57.6681 41.0291 57.6385 41.6225 57.5612C40.2493 50.5025 41.0255 43.3279 43.8876 36.6713C43.0362 36.3897 42.0844 36.1929 41.0364 36.0928C40.0089 35.9921 38.8508 35.9844 37.6158 36.0582C34.7491 42.7288 33.969 49.9118 35.3491 56.9857C36.1096 57.179 36.8489 57.3323 37.5523 57.4469C38.2785 57.5176 39.0048 57.5883 39.7285 57.6558L39.7317 57.6533Z" fill="black"/>
<path style="mix-blend-mode:screen" opacity="0.77" d="M48.4507 47.6665C48.4898 47.3257 48.517 46.9632 48.5323 46.5791C48.1715 47.5983 46.4467 48.8657 39.7085 48.2191C36.3034 47.8933 31.4992 47.0636 27.7533 46.1553C24.4697 45.3613 22.3053 44.5853 21.6744 44C21.4852 44.3564 21.3688 44.712 21.3315 45.0618C21.1138 47.0421 23.279 49.6048 27.1207 51.9042C30.7269 54.0646 35.439 55.7369 38.8441 56.0628C46.32 56.7813 48.0703 51.1082 48.4482 47.6634L48.4507 47.6665Z" fill="url(#paint5_linear_25_3432)"/>
<path opacity="0.71" d="M61.3543 42.7136C59.8983 41.5161 52.5554 35.1188 48.6412 30.8364C44.8422 26.6797 38.5454 19.6658 32.0458 19.5586C25.7808 19.4568 26.5146 24.2065 27.1177 26.787C27.7268 29.3884 29.4534 33.2954 30.258 36.1966C31.4523 40.5094 34.8374 40.4792 39.944 40.9765C51.4625 42.1051 55.8284 43.3799 59.1316 44.1325C61.2396 44.6124 61.3543 42.7136 61.3543 42.7136Z" fill="url(#paint6_linear_25_3432)"/>
<path d="M60.9316 43.9523C61.4418 43.4657 61.4891 42.7516 61.4926 42.7229L61.4989 42.625L61.4357 42.5717C59.9266 41.3336 52.645 34.9807 48.7383 30.7078L48.5312 30.4792C45.2593 26.9022 40.0731 21.225 34.5379 19.7498C34.5297 19.746 34.5214 19.7422 34.51 19.741C33.6967 19.5274 32.8755 19.4028 32.0523 19.3882C29.6955 19.3481 28.0813 20.0012 27.2507 21.3199C26.8315 21.9876 26.6482 22.768 26.605 23.5667C26.5418 24.717 26.762 25.9012 26.9831 26.8419C27.3122 28.2497 27.9746 30.0652 28.6186 31.8178C29.1773 33.3435 29.7532 34.9175 30.1227 36.2573C31.2572 40.3489 34.2585 40.6277 38.7997 41.0458C39.1647 41.077 39.5406 41.1151 39.9254 41.1514C42.299 41.3848 44.3614 41.6218 46.1737 41.8605C52.0227 42.6275 55.2428 43.3942 57.7601 43.9942C58.2314 44.1066 58.6747 44.2102 59.0983 44.3087C59.8838 44.4874 60.5026 44.3694 60.9341 43.9554L60.9316 43.9523ZM48.3361 30.7422L48.5433 30.9707C52.2837 35.0601 59.0996 41.0431 61.0297 42.6607C61.1402 42.754 61.1821 42.9326 61.1273 43.0948C61.1055 43.1534 61.0831 43.2176 61.0517 43.2838C60.9707 43.4461 60.8061 43.5093 60.6705 43.4307C59.8464 42.9519 58.8668 42.2967 57.7537 41.5457C54.5929 39.4252 50.6594 36.7851 46.5746 35.6339C46.4735 35.6054 46.3768 35.589 46.2901 35.5853C46.1772 35.5817 46.08 35.4986 46.0374 35.3721C45.3532 33.357 44.724 30.0689 46.0445 28.6877C46.1549 28.5692 46.3175 28.5696 46.4285 28.6832C47.1202 29.4114 47.7599 30.1136 48.3386 30.7453L48.3361 30.7422ZM40.0349 36.4417C39.5702 36.5823 39.0624 36.318 38.6364 35.7203C38.1213 34.997 37.7261 33.724 38.0674 32.6273C38.119 32.4676 38.1631 32.2984 38.2015 32.1286C38.2373 31.9556 38.3739 31.8371 38.5172 31.8528C38.9651 31.8959 39.4832 31.9816 40.0268 32.0729C41.592 32.3368 43.3425 32.6297 44.7236 32.1716C44.89 32.1173 45.0504 32.2537 45.0773 32.4597C45.2023 33.4971 45.4605 34.5376 45.7369 35.3828C45.7874 35.5391 45.7451 35.7172 45.6311 35.8178C45.5724 35.8694 45.522 35.9248 45.4799 35.984C45.3198 36.1986 45.2022 36.4931 45.1248 36.8385C45.0836 37.0312 44.9202 37.1555 44.7664 37.1068C43.7234 36.8013 41.1357 36.1124 40.0374 36.4448L40.0349 36.4417ZM35.2377 24.4697C35.477 23.0922 35.4139 21.7888 35.1954 20.8977C35.1278 20.6206 35.3465 20.3545 35.5745 20.4374C38.4062 21.4807 41.1256 23.553 43.501 25.7529C43.6234 25.8678 43.6489 26.0852 43.5564 26.2463C42.5726 27.9601 42.0302 28.0951 40.456 27.2908C39.8988 27.0037 39.1455 26.8459 38.3471 26.6774C37.0817 26.4086 35.7794 26.1328 35.3555 25.3527C35.2207 25.103 35.1832 24.8176 35.2434 24.4704L35.2377 24.4697ZM38.2819 27.0183C39.0631 27.1849 39.8049 27.3414 40.3349 27.614C42.0131 28.4703 42.7033 28.2905 43.7532 26.4882C43.8528 26.3164 44.0465 26.2766 44.1765 26.401C44.7295 26.9342 45.2622 27.4681 45.7669 27.9931C45.9011 28.1296 45.8963 28.3814 45.7701 28.533C45.2837 29.1092 45.0637 29.9291 45.0128 30.8371C45.0003 31.033 44.9993 31.2301 45.0033 31.4336C45.0065 31.5963 44.9179 31.7491 44.7841 31.7982C43.4414 32.2982 41.6598 31.9991 40.0716 31.7327C39.551 31.6439 39.0557 31.5607 38.6111 31.515C38.4506 31.4975 38.3353 31.3253 38.3535 31.1301C38.4596 29.9149 38.3123 28.611 37.934 27.5314C37.8389 27.2657 38.0292 26.9704 38.2614 27.019C38.2614 27.019 38.2697 27.0228 38.2754 27.0234L38.2819 27.0183ZM27.4696 21.5237C28.2391 20.2998 29.7775 19.6964 32.0361 19.7316C32.8332 19.7462 33.629 19.8651 34.4225 20.0737C34.4422 20.0787 34.4619 20.0838 34.4809 20.0946C34.8952 20.34 35.3477 22.1615 34.961 24.4047C34.9302 24.584 34.9212 24.7513 34.9333 24.9121C34.9404 25.0202 34.9098 25.1271 34.8483 25.2016C34.5728 25.5282 34.1749 25.4093 33.5189 25.1694C33.035 24.9946 32.4869 24.7984 31.8686 24.8178C31.4979 24.8324 31.0593 24.7613 30.6003 24.6908C29.5289 24.5215 28.2461 24.3233 27.4118 25.2008C27.2349 25.3873 26.9692 25.2568 26.936 24.9834C26.7928 23.7642 26.8547 22.5064 27.4761 21.5186L27.4696 21.5237ZM28.8755 31.666C28.2366 29.9198 27.5785 28.1164 27.2522 26.7321C27.2244 26.6043 27.1941 26.4734 27.1637 26.3425C27.1431 26.2503 27.1551 26.153 27.195 26.0646C27.8498 24.6164 29.2211 24.8272 30.5516 25.0393C31.0246 25.1142 31.4721 25.1834 31.8633 25.1682C32.4381 25.1469 32.9665 25.3381 33.4282 25.5046C34.0792 25.7382 34.6521 25.9458 35.0555 25.4301C35.0709 25.4695 35.0922 25.5095 35.1109 25.5464C35.4585 26.1906 36.2602 26.5218 37.1719 26.7607C37.2451 26.7803 37.3057 26.8304 37.3488 26.9047C38.1514 28.4078 38.3539 30.7734 37.8086 32.512C37.7463 32.7111 37.7062 32.9185 37.6841 33.122C37.6591 33.3484 37.4774 33.5025 37.3028 33.4341C36.906 33.2834 36.3702 33.1756 35.7327 33.045C34.9787 32.8929 34.1255 32.7214 33.2723 32.4309C31.1678 31.7107 30.0479 31.6521 29.5397 32.2404C29.5397 32.2404 29.5397 32.2404 29.5365 32.243C29.3839 32.4206 29.1453 32.3771 29.0599 32.1503C29.0019 31.9844 28.9407 31.8211 28.8795 31.6578L28.8755 31.666ZM30.3908 36.1328C30.1736 35.3492 29.8871 34.4913 29.5747 33.6074C29.5661 33.5832 29.5606 33.5565 29.5552 33.5298C29.4844 33.0435 29.5374 32.7071 29.7204 32.4951C30.2654 31.8673 31.9575 32.351 33.181 32.7718C34.0481 33.0667 34.9096 33.2421 35.6718 33.398C36.5136 33.5683 37.2593 33.7165 37.5937 33.9735C37.6601 34.0242 37.7018 34.11 37.7167 34.2015C37.833 34.8842 38.1069 35.5145 38.4187 35.9547C38.5103 36.0836 38.6065 36.1985 38.7017 36.2988C38.8384 36.4385 38.8354 36.6992 38.6952 36.8463C38.1262 37.457 37.8083 38.4576 37.7519 39.4579C37.7402 39.6944 37.74 39.9322 37.7584 40.1604C37.7742 40.3855 37.6163 40.5829 37.4303 40.5596C33.7758 40.1834 31.342 39.5896 30.385 36.1322L30.3908 36.1328ZM39.9594 40.8042C39.5746 40.7679 39.1956 40.7323 38.8337 40.6985C38.6642 40.6829 38.4948 40.6673 38.331 40.6523C38.196 40.6404 38.0915 40.5217 38.0736 40.3602C37.914 39.0144 38.3356 37.3841 39.2397 36.813C39.3058 36.7709 39.3832 36.7562 39.4506 36.7751C39.666 36.8422 39.8866 36.8431 40.0979 36.7792C41.2685 36.4257 44.4191 37.3559 45.0291 37.5444C45.0249 37.5788 45.0239 37.6106 45.0197 37.6449C44.9734 38.4926 45.0806 39.4614 45.2828 40.2724C45.3262 40.4395 45.3818 40.6486 45.4578 40.8571C45.5485 41.1106 45.3761 41.4021 45.15 41.3745C43.5993 41.1818 41.8827 40.9912 39.9594 40.8042ZM59.1642 43.9621C58.7374 43.8661 58.2973 43.76 57.8285 43.6508C55.317 43.0514 52.0937 42.2872 46.2593 41.5189C46.2421 41.5171 46.2224 41.512 46.2059 41.5044C46.0353 41.4277 45.7777 41.0428 45.5552 40.16C45.2035 38.77 45.1565 36.9116 45.6838 36.2152C45.8853 35.9471 46.1534 35.8691 46.5043 35.9684C50.553 37.107 54.4674 39.7363 57.615 41.8466C58.4572 42.4143 59.2248 42.9275 59.9048 43.3499C60.1803 43.5192 60.0638 44.0401 59.7508 44.0349C59.5709 44.0326 59.3735 44.0082 59.1674 43.9595L59.1642 43.9621Z" fill="#A67C52"/>
<path opacity="0.71" d="M60.0804 55.5095C58.3813 56.3795 49.7296 61.1271 44.9188 64.5022C40.2474 67.7823 32.4778 73.3398 26.1042 72.1152C19.9635 70.9335 21.7828 66.4455 22.9691 64.0548C24.1671 61.6392 26.7543 58.1807 28.2155 55.5155C30.3826 51.5527 33.6754 52.2723 38.7774 52.83C50.2804 54.0845 54.8383 53.73 58.2351 53.6749C60.404 53.6365 60.074 55.5146 60.074 55.5146L60.0804 55.5095Z" fill="url(#paint7_linear_25_3432)"/>
<path d="M59.9578 54.2172C60.3426 54.7958 60.2233 55.505 60.2198 55.5336L60.2021 55.6303L60.1244 55.6711C58.3638 56.5691 49.7833 61.281 44.9814 64.6541L44.7267 64.8351C40.7043 67.6583 34.3256 72.1352 28.5819 72.4471C28.5729 72.449 28.564 72.4509 28.555 72.4528C27.7133 72.4942 26.8822 72.4498 26.0766 72.2921C23.7667 71.8482 22.343 70.8834 21.8371 69.4243C21.5849 68.6891 21.5847 67.8886 21.7254 67.1006C21.9294 65.9627 22.4208 64.8505 22.8532 63.9813C23.4993 62.6743 24.5696 61.0366 25.6035 59.4587C26.5016 58.0864 27.429 56.6651 28.1004 55.4363C30.1554 51.6759 33.149 52.0176 37.6807 52.5362C38.0444 52.5788 38.4195 52.6227 38.8036 52.6647C41.1712 52.9235 43.2424 53.1122 45.0667 53.2536C50.952 53.7026 54.2746 53.6134 56.8686 53.5431C57.3554 53.5296 57.8129 53.5187 58.2466 53.511C59.0562 53.4951 59.6305 53.7377 59.9564 54.2287L59.9578 54.2172ZM44.5982 64.534L44.8529 64.353C49.4509 61.1258 57.4932 56.6799 59.7508 55.4968C59.8811 55.4299 59.9628 55.2619 59.9456 55.0947C59.9387 55.033 59.9299 54.9624 59.9147 54.897C59.8754 54.7215 59.7272 54.627 59.5761 54.6743C58.6619 54.9746 57.5534 55.4132 56.2917 55.9163C52.7174 57.3412 48.2641 59.1108 44.0105 59.4C43.9052 59.4059 43.807 59.4009 43.7243 59.389C43.6135 59.3682 43.5012 59.4313 43.4291 59.5452C42.2947 61.3731 40.9192 64.4508 41.8875 66.0706C41.9694 66.2072 42.1278 66.2419 42.2609 66.1521C43.1037 65.5829 43.8896 65.0279 44.6015 64.5314L44.5982 64.534ZM37.8177 57.2729C37.3989 57.0415 36.8397 57.195 36.2847 57.6912C35.615 58.2937 34.9317 59.4546 35.0128 60.5888C35.0242 60.7553 35.0292 60.927 35.0278 61.1037C35.0263 61.2805 35.128 61.4221 35.2713 61.4378C35.721 61.4899 36.2444 61.5094 36.7964 61.532C38.3806 61.595 40.161 61.6678 41.4019 62.3951C41.5507 62.4838 41.7433 62.3831 41.8138 62.1878C42.1736 61.2004 42.6696 60.2395 43.1359 59.4726C43.2198 59.3338 43.2194 59.1482 43.1328 59.0256C43.0883 58.9627 43.0527 58.8979 43.0228 58.8337C42.9135 58.5898 42.8706 58.2776 42.8759 57.9273C42.877 57.7302 42.7506 57.5772 42.5858 57.594C41.4974 57.6809 38.81 57.8251 37.8177 57.2729ZM30.3583 67.9775C30.2711 69.3689 29.9126 70.629 29.4883 71.4556C29.3577 71.714 29.5092 72.0177 29.7487 71.9829C32.754 71.5458 35.8861 70.0783 38.717 68.4156C38.864 68.3301 38.9392 68.1208 38.8851 67.9467C38.3229 66.0725 37.8238 65.8324 36.0996 66.2936C35.4899 66.456 34.7168 66.4585 33.8972 66.4618C32.6012 66.4651 31.2644 66.4698 30.6704 67.1416C30.481 67.3587 30.3776 67.6316 30.355 67.9801L30.3583 67.9775ZM33.923 66.1107C34.728 66.1088 35.4838 66.1044 36.0634 65.9503C37.9022 65.4552 38.5311 65.7734 39.1387 67.7511C39.1971 67.9373 39.376 68.0178 39.5302 67.9215C40.1932 67.5154 40.8364 67.1043 41.4535 66.6932C41.6148 66.5861 41.6681 66.3425 41.5796 66.1646C41.2398 65.5039 41.2134 64.657 41.3731 63.7609C41.4086 63.5675 41.4529 63.3723 41.5031 63.1776C41.5432 63.0167 41.4909 62.8515 41.3783 62.7753C40.185 62.0155 38.3727 61.9421 36.7631 61.8735C36.2372 61.8508 35.731 61.8332 35.2896 61.7849C35.129 61.7674 34.9774 61.9132 34.9503 62.1104C34.7754 63.3181 34.3258 64.5625 33.7091 65.5363C33.5577 65.775 33.6712 66.1035 33.9123 66.1038C33.9123 66.1038 33.9212 66.1018 33.927 66.1025L33.923 66.1107ZM22.1012 69.2618C22.5649 70.6147 23.9293 71.5179 26.1425 71.9455C26.9259 72.0949 27.7309 72.1394 28.549 72.1012C28.5694 72.1006 28.5898 72.0999 28.6109 72.0935C29.0745 71.9382 29.9355 70.2545 30.0789 67.9818C30.0893 67.8031 30.1187 67.6352 30.1696 67.4812C30.1995 67.3801 30.1957 67.2695 30.1514 67.1805C29.9594 66.8057 29.5425 66.8413 28.8481 66.9366C28.3339 67.008 27.7544 67.0896 27.1541 66.9399C26.7961 66.8515 26.3544 66.8293 25.8865 66.8071C24.801 66.7523 23.5077 66.6863 22.8967 65.6566C22.7666 65.4394 22.4762 65.5092 22.3825 65.7745C21.9607 66.9349 21.73 68.1713 22.1069 69.2624L22.1012 69.2618ZM25.8238 59.651C24.7964 61.2238 23.7332 62.8507 23.0957 64.1354C23.0375 64.2538 22.9761 64.3747 22.9205 64.4962C22.8806 64.5847 22.8686 64.682 22.8867 64.7709C23.1867 66.3206 24.5782 66.3915 25.9238 66.4574C26.4031 66.4808 26.8531 66.5068 27.234 66.5977C27.7924 66.7341 28.3482 66.6557 28.8388 66.5875C29.5275 66.4917 30.1363 66.4074 30.41 66.9913C30.4347 66.9563 30.4651 66.9219 30.4922 66.89C30.9822 66.3316 31.838 66.1758 32.785 66.1285C32.861 66.1252 32.9322 66.0894 32.9897 66.0232C34.1198 64.7256 34.8671 62.4551 34.7385 60.6458C34.7237 60.4353 34.7319 60.2274 34.7598 60.0245C34.7905 59.7988 34.6454 59.6089 34.4556 59.6404C34.032 59.7072 33.4836 59.7023 32.8305 59.6976C32.0614 59.6919 31.1877 59.6863 30.2853 59.7965C28.0613 60.0696 26.9612 59.8972 26.5974 59.2193C26.5974 59.2193 26.5974 59.2193 26.5949 59.2161C26.4863 59.0129 26.2434 59.0037 26.1109 59.2067C26.0141 59.3557 25.9173 59.5046 25.8238 59.651ZM28.3357 55.6012C27.942 56.321 27.4622 57.1038 26.9572 57.9013C26.943 57.923 26.9312 57.9478 26.9194 57.9726C26.738 58.4313 26.7104 58.7734 26.8402 59.0167C27.2271 59.7435 28.9889 59.6141 30.281 59.4538C31.1982 59.3423 32.0776 59.3485 32.8556 59.3523C33.7179 59.3567 34.478 59.3644 34.8667 59.1806C34.9436 59.1455 35.0018 59.0736 35.0418 58.9852C35.3127 58.3419 35.7243 57.7836 36.1355 57.4167C36.256 57.311 36.3751 57.2167 36.4896 57.1364C36.6541 57.0268 36.7145 56.7723 36.6106 56.6015C36.1987 55.8894 36.1178 54.848 36.2978 53.8584C36.3382 53.625 36.3957 53.3934 36.4666 53.172C36.5342 52.9532 36.422 52.7321 36.2385 52.7121C32.584 52.3358 30.0734 52.4123 28.3339 55.5923L28.3357 55.6012ZM38.7563 53.0018C38.3722 52.9598 37.9971 52.9159 37.6302 52.8758C37.4614 52.8544 37.2919 52.8388 37.1289 52.8181C36.9971 52.8037 36.8665 52.8967 36.8099 53.0501C36.3414 54.3301 36.3727 56.0099 37.1243 56.7475C37.1785 56.8027 37.2502 56.8338 37.3236 56.8273C37.5496 56.8085 37.7653 56.8495 37.9554 56.9573C39.0161 57.5431 42.3051 57.279 42.9455 57.2214C42.9497 57.1871 42.9539 57.1527 42.9607 57.1216C43.1101 56.2852 43.4418 55.3615 43.8275 54.6118C43.9078 54.4553 44.0127 54.2637 44.1374 54.0773C44.2849 53.8468 44.1846 53.5285 43.9578 53.5066C42.4019 53.38 40.6792 53.2149 38.7588 53.005L38.7563 53.0018ZM58.2287 53.8455C57.7949 53.8532 57.3375 53.8641 56.8507 53.8776C54.2567 53.9479 50.934 54.0371 45.066 53.59C45.0488 53.5881 45.0283 53.5888 45.0104 53.5926C44.8282 53.6336 44.4864 53.9559 44.0635 54.7711C43.3966 56.0584 42.922 57.8598 43.275 58.6496C43.4092 58.9514 43.6545 59.0826 44.0177 59.0585C48.2329 58.7739 52.6626 57.0075 56.224 55.5928C57.1801 55.2129 58.0445 54.8695 58.808 54.5904C59.118 54.4792 59.1223 53.949 58.8155 53.8922C58.6399 53.8556 58.4443 53.84 58.2287 53.8455Z" fill="#A67C52"/>
<path style="mix-blend-mode:screen" opacity="0.69" d="M68.6532 54.6109C68.7404 53.8083 69.2566 52.9193 70.4546 52.0844C71.3567 51.4579 72.3493 51.0647 73.2496 50.9717C73.7234 50.922 74.1516 50.9601 74.5143 51.0809C74.6212 50.7794 74.6976 50.4658 74.7313 50.1446C74.7591 49.8953 74.7633 49.6493 74.7438 49.4064C73.5853 49.7554 72.1098 49.8958 70.528 49.7432C68.4549 49.5456 66.6672 48.8948 65.5973 48.0528C65.4781 48.4313 65.3911 48.8307 65.3461 49.2435C65.0545 51.9176 66.5154 54.2786 68.6472 54.6827C68.65 54.6599 68.6503 54.6338 68.6532 54.6109Z" fill="url(#paint8_linear_25_3432)"/>
<path d="M48.4962 47.1552L48.386 47.0358L47.8872 46.6043L48.3387 46.1228L48.4949 46.1283L48.3727 45.9409L48.5679 45.9362L48.1229 45.5395L48.6316 45.5603L48.3848 45.3477L48.6957 44.8277L49.3682 45.0753L49.1275 44.7183L49.7411 44.8782L49.0657 44.2765L49.4287 43.7825L49.8924 44.0507L49.7607 43.9174L50.1272 43.4412L49.7862 42.7195L50.7526 43.2457L50.6833 43.125L51.1205 42.7116L51.2522 42.7985L51.2308 42.6657L51.5112 42.7949L51.311 42.4627L51.5018 42.3995L51.3403 42.0831L51.7876 41.6824L51.916 41.7719L51.7358 40.8763L52.1426 41.1586L52.1157 41.1179L52.6035 40.742L52.7636 40.9045L53.0093 40.7255L53.0276 40.742L53.0552 40.3534L53.1629 40.4696L52.951 39.3356L54.2683 40.8341L54.1818 40.5462L54.7271 40.2694L54.7322 40.2757L54.893 39.3942L55.2899 39.9219L55.1542 39.4198L55.7039 39.1551L55.8602 39.3723L55.7919 39.1009L56.1887 38.3322L56.5745 38.879L57.0318 38.2793L57.3641 39.0958L57.1929 37.8677L58.1118 38.8034L58.1444 38.4213L58.7356 38.3148L58.7604 38.3726L58.9617 37.8464L59.3364 37.9889L59.7326 37.8611L59.8524 38.4687L60.0563 38.3228L60.1643 38.4129L60.6045 37.8578L60.6545 38.3244L61.0422 38.3378L61.0695 38.7758L61.3594 38.8046L61.3641 39.0023L61.6766 38.1867L61.8647 38.5698L62.4077 38.7133L62.9542 38.1204L62.8602 39.1195L63.1719 38.4285L63.9202 38.4145L63.8046 39.1879L63.8853 39.0517L65.0219 38.3377L64.508 39.6331L64.6822 39.7276L64.7662 39.6352L65.0241 39.7823L65.2332 39.5703L65.6266 39.796L66.0475 39.5868L65.9632 40.0822L66.0469 40.016L66.5008 40.4107L66.2909 40.7474L67.2619 40.0096L66.9443 41.1031L67.1881 41.411L67.6466 41.203L67.6749 41.5629L68.3827 41.5706L67.6189 42.4181L67.8445 42.379L68.0593 42.8288L68.0847 42.8345L68.6888 43.0948L68.2501 43.685L68.1158 43.8791L68.15 43.9553L68.6524 43.8623L68.8684 44.4196L68.3651 44.7561L68.3147 44.8115L69.5864 45.0289L68.712 45.3596L68.9083 45.3695L68.3794 45.6539L68.5489 45.6695L68.6153 46.2627L68.1338 46.4217L68.1299 46.43L68.8603 46.4664L68.935 47.0633L68.4252 47.2396L68.4268 47.321L68.4939 47.366L68.803 47.4984L69.6932 47.7233L69.5455 48.3568L68.8521 48.5856L68.7722 48.5972L68.9626 48.6789L68.8638 49.2684L68.6206 49.2854L68.6123 49.4469L68.7776 49.4968L68.6942 50.0794L69.7162 50.4376L68.9009 50.9489L68.5986 50.997L68.6012 51.212L68.9189 51.3685L68.7989 51.3757L69.0086 51.4421L68.9027 52.0425L68.5119 52.0317L68.8955 52.2186L68.5849 52.5472L68.9221 53.1583L68.1445 53.1748L68.2072 53.2078L68.0232 53.7823L67.8799 53.7666L67.7384 54.1369L67.8055 54.1819L67.5745 54.7367L67.472 54.7197L67.8743 55.1088L67.5121 55.0547L67.2082 55.5639L66.7523 55.398L66.723 55.447L66.9199 55.7354L66.5084 56.1748L66.0282 55.8989L66.5852 56.9198L66.0938 56.6167L66.1922 56.7609L65.9044 57.0455L66.3708 57.9057L65.6374 57.4688L65.7624 57.845L65.3256 57.6174L65.0505 57.7991L65.1153 57.9338L64.5674 57.8304L64.6495 58.0598L64.116 58.3582L63.8502 58.0159L64.1657 58.8509L63.2522 58.6495L62.9754 58.161L62.5857 58.3301L62.6503 58.9608L62.061 59.1226L62.0276 59.0406L61.6874 59.1136L61.6521 59.0228L61.4093 59.06L61.4078 59.1904L60.7979 59.26L60.7454 59.002L60.3827 59.4235L60.1901 58.6048L60.0601 58.7646L59.9186 58.2619L59.6743 58.2642L59.5061 58.6867L59.2551 59.4742L58.8965 59.4379L58.8905 59.4634L58.4214 59.3802L58.3765 59.5087L58.3189 59.3632L58.2909 59.3543L58.2955 59.2939L58.1478 58.8891L58.0241 59.2092L57.4339 59.0721L57.4395 59.0263L57.1048 58.9608L57.1092 58.8075L56.6428 58.655L56.7834 58.0323L56.6741 58.0001L56.1327 58.811L55.9956 57.9433L55.6357 58.5536L54.7737 58.6885L55.1385 57.6611L55.0567 57.6174L54.8744 57.7772L54.4726 57.5013L54.0953 57.2628L54.2901 56.8607L54.0701 57.0194L54.1178 56.5373L53.5463 56.8142L52.6903 57.7502L52.8471 56.4535L52.9666 56.0489L52.9545 56.0534L52.6754 55.8663L52.3068 55.6984L52.0697 55.9016L51.619 55.5043L51.7748 55.2777L51.5008 55.3087L51.0863 55.6317L50.6721 55.221L50.7277 54.7224L51.0989 54.2786L50.7693 53.8888L49.9709 54.2626L49.7122 54.0284L49.2588 53.7468L50.1267 52.8324L50.1435 52.8139L50.2445 52.6307L48.7964 53.2555L49.0801 52.6745L48.3912 52.6775L49.0546 52.1264L48.9195 51.7375L48.7223 51.8059L48.5024 51.3033L48.3674 51.3379L48.2338 50.6069L48.7559 50.3536L48.767 50.3345L48.6828 50.334L48.5351 49.7639L48.6289 49.7104L48.1615 49.755L48.0899 49.4397L47.3635 49.4415L47.6569 48.734L47.7577 48.6696L47.4932 48.3884L48.1828 48.2143L48.1852 48.1711L47.8254 48.1202L47.8209 47.6382L47.0029 47.1805L48.4962 47.1552Z" fill="#CE9115"/>
<path d="M49.2615 47.758L49.1005 47.5084L48.6134 47.1709L49.4859 47.1155L48.2435 46.5185L49.001 46.4766L49.502 46.3951L49.3609 46.078L48.6429 45.4688L49.3648 45.5274L50.3042 45.7548L49.8797 45.2385L50.401 45.2752L49.2121 44.1968L49.7556 44.2418L50.4757 44.4568L49.807 43.6122L50.3657 43.7226L50.0287 43.0854L50.3258 42.9844L51.2586 43.5012L51.1725 43.0683L52.0318 43.5915L51.0155 42.1491L52.3258 43.2089L51.8418 42.2801L51.8956 41.9379L52.1034 41.7837L52.2868 41.592L52.533 41.4797L53.1812 41.9479L53.5888 42.1056L53.7148 41.8612L54.0262 41.904L54.1316 41.6139L53.7468 40.4929L53.9697 40.3577L54.5935 40.9538L54.9563 41.121L55.0653 40.8023L55.3706 40.8705L55.7516 41.1268L55.3552 39.6275L56.072 40.6716L56.1877 40.3217L55.9651 39.0155L56.768 40.4925L56.8097 39.8706L56.7294 38.7771L56.9861 38.6978L57.354 39.0368L57.5081 38.5635L57.9701 39.4116L58.3344 39.9444L58.4407 39.1991L58.6958 39.2038L58.8916 38.7698L59.275 39.9022L59.4854 39.5859L59.6621 38.5988L59.9721 39.903L60.2001 39.986L60.4323 39.4922L60.6587 39.7055L60.8675 40.0154L61.2651 38.4144L61.3418 39.8671L61.782 38.6043L62.072 38.5142L61.9702 40.2375L62.258 39.9992L62.6361 39.5243L63.0029 39.1873L63.4686 38.6379L63.169 40.1974L63.751 39.4112L63.4326 40.7222L63.9342 40.2114L64.2032 40.2205L64.2274 40.6611L64.7342 40.296L64.9412 40.4317L64.6166 41.2982L65.5595 40.4587L65.7326 40.6574L65.52 41.2752L66.0594 41.0702L66.2442 41.2441L66.8324 41.0677L65.8054 42.2838L67.1936 41.4842L67.2501 41.7804L67.3137 42.0658L66.3044 43.0199L67.1658 42.7718L67.561 42.8411L67.8822 42.969L67.0257 43.673L67.5176 43.7123L67.6574 43.9219L68.4941 43.8741L68.3876 44.196L67.0701 44.8931L68.5795 44.6897L67.5296 45.242L68.8724 45.1655L67.3283 45.7682L68.3335 45.8143L67.4857 46.2117L69.0501 46.2232L68.108 46.6075L68.9806 46.7638L68.9826 47.0308L68.9559 47.2947L68.9789 47.5554L68.1542 47.8365L67.7431 48.0845L68.6592 48.3354L68.0199 48.573L68.6366 48.8492L68.2595 49.0806L68.2521 49.3292L69.0226 49.6542L67.6748 49.7708L68.6979 50.1437L68.0098 50.3063L68.1812 50.5889L68.2132 50.8477L67.2437 50.9128L68.5189 51.4321L67.0275 51.3474L67.4774 51.704L68.1661 52.1505L67.8064 52.3114L66.9226 52.2931L67.0156 52.5758L67.6051 53.0492L66.7144 52.9693L66.5662 53.159L67.5458 53.8606L67.2736 54.0194L67.6847 54.5255L66.46 54.1625L65.9728 54.1556L67.0752 55.1114L66.1949 54.8528L66.6987 55.5024L66.3206 55.5539L65.839 55.5013L65.2089 55.2874L64.997 55.4034L65.742 56.4304L65.7263 56.7941L64.5693 55.928L64.6231 56.34L64.5025 56.5646L65.0899 57.7628L64.8847 57.9666L63.6956 56.6301L63.8525 57.3375L63.2703 56.7809L63.8029 58.353L63.1829 57.6559L63.2375 58.4391L62.5263 57.3028L62.5144 57.9889L62.4798 58.7653L62.2997 59.1661L61.9513 58.9047L61.7418 59.2618L61.3837 58.7963L60.9795 57.6442L60.8239 58.4595L60.5261 57.6932L60.3206 58.4654L60.0682 58.1797L59.7983 59.1682L59.5617 58.5652L59.3344 58.2648L59.1656 57.5358L58.7609 58.817L58.7165 57.5505L58.3677 58.1418L58.112 58.1892L57.6785 58.8785L57.5187 58.4782L57.1528 58.7833L56.9824 58.4689L56.9143 57.9133L56.8502 57.3958L56.5709 57.4465L56.1358 57.8427L56.1043 57.3201L55.3779 58.2413L55.9159 56.6324L55.0456 57.7554L55.485 56.4519L55.2177 56.4517L54.1543 57.7276L54.7 56.3864L54.0423 56.9381L53.8647 56.7533L54.2342 55.8047L53.116 56.9122L53.0472 56.5741L53.1829 55.9914L52.714 56.1664L52.5059 56.016L52.1395 56.0427L52.2313 55.5568L52.9312 54.45L52.1405 54.9262L51.9375 54.7822L51.8667 54.5076L51.8617 54.1706L51.6812 54.0088L52.0053 53.4061L50.5256 54.3349L51.2384 53.4296L51.197 53.1525L50.9528 53.0359L49.7768 53.5744L50.2326 52.9397L49.5047 53.1183L50.5634 52.1406L50.516 51.8889L50.4049 51.6824L50.3124 51.4664L49.5379 51.5993L49.1519 51.502L49.0718 51.2554L48.8662 51.0618L49.4544 50.5547L49.5542 50.264L49.1839 50.1336L48.879 49.9669L48.6544 49.7625L48.3481 49.5608L49.5489 49.0801L49.5062 48.8608L48.8371 48.7036L49.7009 48.4122L48.2178 48.2124L47.7921 47.9193L49.2615 47.758Z" fill="#6B4628"/>
<path d="M59.1649 57.5415C54.3303 57.0768 49.2532 51.6696 49.6775 47.8006C50.1024 43.9258 56.2478 39.5974 61.0825 40.0621C65.9172 40.5268 67.9164 44.6723 67.3859 49.4985C66.8554 54.3246 63.9996 58.0062 59.1617 57.544L59.1649 57.5415Z" fill="url(#paint9_radial_25_3432)"/>
<path style="mix-blend-mode:screen" opacity="0.77" d="M66.1628 49.3821C66.2299 48.7658 66.2527 48.1331 66.2217 47.512C65.6052 48.7439 63.7792 49.7248 60.1186 49.3739C58.143 49.187 55.8388 48.532 53.9564 47.6359C52.8864 47.1245 52.0808 46.5898 51.6195 46.1131C51.2174 46.7362 50.9672 47.3527 50.9032 47.9199C50.7466 49.3559 51.6834 51.3261 53.3576 53.0637C55.1369 54.9143 57.3778 56.1308 59.3502 56.3203C63.7599 56.7443 65.7592 53.0126 66.157 49.3814L66.1628 49.3821Z" fill="url(#paint10_linear_25_3432)"/>
</g>
<defs>
<linearGradient id="paint0_linear_25_3432" x1="41.2221" y1="58.6092" x2="52.7844" y2="59.8778" gradientUnits="userSpaceOnUse">
<stop stop-color="#1A1A1A"/>
<stop offset="0.1" stop-color="#2B241E"/>
<stop offset="0.38" stop-color="#543F29"/>
<stop offset="0.63" stop-color="#735232"/>
<stop offset="0.85" stop-color="#855D37"/>
<stop offset="1" stop-color="#8C6239"/>
</linearGradient>
<linearGradient id="paint1_linear_25_3432" x1="51.579" y1="53.9269" x2="48.6673" y2="56.8804" gradientUnits="userSpaceOnUse">
<stop/>
<stop offset="0.16" stop-color="#111111"/>
<stop offset="0.49" stop-color="#313131"/>
<stop offset="0.78" stop-color="#454545"/>
<stop offset="0.97" stop-color="#4D4D4D"/>
<stop offset="0.98" stop-color="#676767"/>
<stop offset="0.99" stop-color="#797979"/>
<stop offset="1" stop-color="#808080"/>
</linearGradient>
<linearGradient id="paint2_linear_25_3432" x1="12.7586" y1="-1054.92" x2="11.157" y2="-1052.69" gradientUnits="userSpaceOnUse">
<stop stop-color="#F2F2F2"/>
<stop offset="0.07" stop-color="#D8D8D8"/>
<stop offset="0.27" stop-color="#979797"/>
<stop offset="0.45" stop-color="#616161"/>
<stop offset="0.62" stop-color="#373737"/>
<stop offset="0.78" stop-color="#191919"/>
<stop offset="0.91" stop-color="#060606"/>
<stop offset="1"/>
</linearGradient>
<linearGradient id="paint3_linear_25_3432" x1="49.9954" y1="68.4597" x2="47.7653" y2="65.0282" gradientUnits="userSpaceOnUse">
<stop/>
<stop offset="0.16" stop-color="#111111"/>
<stop offset="0.49" stop-color="#313131"/>
<stop offset="0.78" stop-color="#454545"/>
<stop offset="0.97" stop-color="#4D4D4D"/>
<stop offset="0.98" stop-color="#676767"/>
<stop offset="0.99" stop-color="#797979"/>
<stop offset="1" stop-color="#808080"/>
</linearGradient>
<linearGradient id="paint4_linear_25_3432" x1="-167.444" y1="908.866" x2="-168.564" y2="906.401" gradientUnits="userSpaceOnUse">
<stop stop-color="#F2F2F2"/>
<stop offset="0.07" stop-color="#D8D8D8"/>
<stop offset="0.27" stop-color="#979797"/>
<stop offset="0.45" stop-color="#616161"/>
<stop offset="0.62" stop-color="#373737"/>
<stop offset="0.78" stop-color="#191919"/>
<stop offset="0.91" stop-color="#060606"/>
<stop offset="1"/>
</linearGradient>
<linearGradient id="paint5_linear_25_3432" x1="12.2717" y1="54.7871" x2="11.2902" y2="65.0214" gradientUnits="userSpaceOnUse">
<stop/>
<stop offset="0.02" stop-color="#0A0A0A"/>
<stop offset="0.18" stop-color="#464646"/>
<stop offset="0.33" stop-color="#7B7B7B"/>
<stop offset="0.48" stop-color="#A5A5A5"/>
<stop offset="0.63" stop-color="#C6C6C6"/>
<stop offset="0.76" stop-color="#DEDEDE"/>
<stop offset="0.89" stop-color="#EDEDED"/>
<stop offset="1" stop-color="#F2F2F2"/>
</linearGradient>
<linearGradient id="paint6_linear_25_3432" x1="36.9885" y1="51.372" x2="1.29445" y2="34.8167" gradientUnits="userSpaceOnUse">
<stop offset="0.15" stop-color="#704F2E"/>
<stop offset="0.35" stop-color="#967951"/>
<stop offset="0.66" stop-color="#CEB787"/>
<stop offset="0.88" stop-color="#F1DFA8"/>
<stop offset="1" stop-color="#FFEEB5"/>
</linearGradient>
<linearGradient id="paint7_linear_25_3432" x1="36.374" y1="68.5213" x2="-2.48087" y2="76.535" gradientUnits="userSpaceOnUse">
<stop offset="0.15" stop-color="#704F2E"/>
<stop offset="0.35" stop-color="#967951"/>
<stop offset="0.66" stop-color="#CEB787"/>
<stop offset="0.88" stop-color="#F1DFA8"/>
<stop offset="1" stop-color="#FFEEB5"/>
</linearGradient>
<linearGradient id="paint8_linear_25_3432" x1="48.9416" y1="64.3944" x2="45.847" y2="57.0927" gradientUnits="userSpaceOnUse">
<stop stop-color="#F2F2F2"/>
<stop offset="0.07" stop-color="#D8D8D8"/>
<stop offset="0.27" stop-color="#979797"/>
<stop offset="0.45" stop-color="#616161"/>
<stop offset="0.62" stop-color="#373737"/>
<stop offset="0.78" stop-color="#191919"/>
<stop offset="0.91" stop-color="#060606"/>
<stop offset="1"/>
</linearGradient>
<radialGradient id="paint9_radial_25_3432" cx="0" cy="0" r="1" gradientUnits="userSpaceOnUse" gradientTransform="translate(35.5982 58.1273) rotate(96.2615) scale(8.76852 8.77089)">
<stop stop-color="#5E3D23"/>
<stop offset="0.42" stop-color="#5B3B21"/>
<stop offset="0.66" stop-color="#53341C"/>
<stop offset="0.85" stop-color="#452A13"/>
<stop offset="1" stop-color="#351E09"/>
</radialGradient>
<linearGradient id="paint10_linear_25_3432" x1="35.8003" y1="56.2854" x2="34.908" y2="65.5891" gradientUnits="userSpaceOnUse">
<stop/>
<stop offset="0.17" stop-color="#303030"/>
<stop offset="0.47" stop-color="#828282"/>
<stop offset="0.72" stop-color="#BEBEBE"/>
<stop offset="0.9" stop-color="#E3E3E3"/>
<stop offset="1" stop-color="#F2F2F2"/>
</linearGradient>
<clipPath id="clip0_25_3432">
<rect width="68" height="68" fill="white" transform="translate(53.5515 0.238281) rotate(51.6299)"/>
</clipPath>
</defs>
</svg>
