<svg width="96" height="96" viewBox="0 0 96 96" fill="none" xmlns="http://www.w3.org/2000/svg">
<g clip-path="url(#clip0_25_3625)">
<path d="M80.0852 38.7435C80.1394 38.8384 80.1472 38.9333 80.1276 39.0171C80.108 39.101 80.0553 39.1745 80.0052 39.2447C79.9519 39.3125 79.8922 39.3752 79.8459 39.4276C79.8097 39.467 79.7596 39.5373 79.7139 39.5954L79.4347 39.9503L79.1396 40.2928C79.0393 40.4071 78.9352 40.5133 78.8285 40.6227L78.6666 40.7826C78.6114 40.8332 78.5561 40.8838 78.4977 40.9318C78.2736 41.1316 78.0297 41.3106 77.7877 41.4807C77.291 41.8108 76.7701 42.1062 76.2064 42.3053C75.9281 42.4102 75.6383 42.4904 75.351 42.5674C75.2042 42.6034 75.0599 42.6362 74.9156 42.6689C74.845 42.6866 74.7637 42.6852 74.674 42.6617C74.5868 42.6349 74.4895 42.5949 74.3768 42.4958C74.3975 42.345 74.4362 42.25 74.4825 42.1715C74.5288 42.093 74.5802 42.0342 74.6399 41.9976C74.7587 41.9186 74.8768 41.834 74.9956 41.755C75.2325 41.5914 75.463 41.4228 75.6981 41.2681C76.1668 40.9474 76.6503 40.6799 77.1388 40.4061C77.3815 40.2679 77.628 40.1379 77.8713 40.0055L78.6261 39.6224L79.0072 39.426L79.3808 39.2132C79.443 39.1734 79.504 39.1482 79.5733 39.093C79.6355 39.0531 79.6812 39.0212 79.7289 38.9803C79.7771 38.9452 79.8095 38.8975 79.8628 38.8559C79.9162 38.8143 79.9848 38.7794 80.0877 38.7403L80.0852 38.7435Z" fill="black"/>
<path d="M79.8633 39.1698C79.832 39.0982 79.8142 39.0423 79.8026 38.9914C79.7911 38.9406 79.7834 38.898 79.7814 38.8546C79.7801 38.817 79.7813 38.7762 79.7857 38.7378C79.7933 38.702 79.804 38.6687 79.8148 38.6354C79.8363 38.5687 79.8547 38.4996 79.8698 38.4279L79.9216 38.2179C79.9822 37.9313 80.0371 37.6454 80.0888 37.3569C80.1896 36.7833 80.2962 36.209 80.3914 35.6361C80.4833 35.0607 80.5492 34.4857 80.6354 33.911L80.7676 33.0487C80.789 32.9036 80.8104 32.7585 80.8318 32.6134C80.838 32.5399 80.8735 32.4686 80.9313 32.3887C80.9947 32.308 81.0728 32.2284 81.2189 32.1344C81.3792 32.1926 81.4677 32.2569 81.5428 32.3317C81.6116 32.4015 81.655 32.4774 81.6754 32.5562C81.7075 32.712 81.7338 32.8685 81.7658 33.0243C81.8102 33.3412 81.8456 33.6564 81.8493 33.9727C81.8566 34.6053 81.7705 35.2323 81.6513 35.8489C81.5263 36.4662 81.3537 37.0722 81.0977 37.6596C80.9741 37.9542 80.8201 38.2352 80.6571 38.5144C80.6159 38.5865 80.5683 38.6535 80.5239 38.723C80.4795 38.7926 80.4351 38.8621 80.3843 38.9267C80.331 38.9944 80.286 39.0582 80.2015 39.1067C80.1576 39.1297 80.1074 39.1476 80.0566 39.1599C80 39.1728 79.9428 39.1801 79.8722 39.1715L79.8633 39.1698Z" fill="black"/>
<path d="M80.3269 45.8184C80.2162 45.8149 80.1418 45.7982 80.0788 45.78C80.0184 45.7585 79.9713 45.7267 79.9141 45.7078C79.8593 45.6856 79.8027 45.6725 79.734 45.655C79.6494 45.625 79.5852 45.6215 79.514 45.6072L79.0961 45.5293L78.6745 45.4692L77.8433 45.3534C77.5685 45.3096 77.297 45.2684 77.0241 45.2157C76.479 45.116 75.9404 45.0213 75.3984 44.8718C75.1293 44.8012 74.859 44.7191 74.5861 44.6403C74.4512 44.6021 74.3132 44.5614 74.1758 44.5265C74.1071 44.509 74.039 44.4711 73.9715 44.4128C73.9066 44.3512 73.8397 44.2725 73.7753 44.1382C73.8533 44.0063 73.9327 43.9382 74.0076 43.8822C74.0832 43.832 74.1582 43.8022 74.2357 43.7953C74.3845 43.7765 74.5339 43.7634 74.6801 43.7478C74.9764 43.7249 75.2758 43.7045 75.5702 43.7167C76.1653 43.72 76.7492 43.8293 77.3204 43.9809C77.6054 44.0641 77.8878 44.1504 78.162 44.2669C78.232 44.2958 78.2988 44.3223 78.3663 44.3544L78.5661 44.4541C78.701 44.5185 78.8333 44.586 78.9613 44.6658L79.3469 44.896L79.7199 45.1424C79.7791 45.1785 79.8459 45.2311 79.8949 45.254C79.9566 45.2868 80.0336 45.3265 80.103 45.3759C80.1699 45.4285 80.2418 45.4746 80.2851 45.5505C80.3285 45.6264 80.3502 45.7166 80.325 45.8273L80.3269 45.8184Z" fill="black"/>
<path d="M79.9881 45.4892C80.0542 45.4576 80.1108 45.4446 80.168 45.4374C80.2252 45.4302 80.2748 45.4326 80.325 45.4408C80.4198 45.4579 80.486 45.5047 80.5522 45.5516C80.6209 45.5952 80.6846 45.6453 80.7457 45.6986C80.8094 45.7487 80.873 45.7988 80.9367 45.8488C81.178 46.0596 81.4059 46.2807 81.6123 46.5161C82.0308 46.9864 82.3794 47.5061 82.6816 48.052C82.9838 48.598 83.2536 49.1654 83.4402 49.7666C83.5348 50.0657 83.5963 50.3804 83.6489 50.6935C83.667 50.8539 83.6933 51.0104 83.7081 51.1684C83.7114 51.2493 83.695 51.3357 83.65 51.4257C83.6025 51.5188 83.5378 51.6142 83.4044 51.7182C83.2346 51.6787 83.136 51.6272 83.0545 51.5736C82.9781 51.5135 82.9227 51.4594 82.8921 51.3936C82.8308 51.2618 82.7639 51.1308 82.7026 50.999L82.3136 50.2229C82.061 49.7055 81.8224 49.1835 81.5641 48.6669C81.2975 48.1542 81.0284 47.6448 80.7587 47.1297C80.6229 46.8765 80.4864 46.6177 80.3423 46.3686L80.2289 46.1853C80.19 46.1234 80.1543 46.0639 80.1103 46.0085C80.0925 45.9788 80.0664 45.953 80.0511 45.9201C80.0332 45.8903 80.0198 45.8484 80.0096 45.8091C79.9993 45.7697 79.9917 45.727 79.9884 45.6722C79.9826 45.6207 79.9819 45.5626 79.9932 45.4827L79.9881 45.4892Z" fill="black"/>
<path d="M69.8411 50.5609C66.9188 50.9679 64.2001 48.5158 63.7675 45.0831C63.335 41.6505 65.3547 38.5328 68.2769 38.1258C71.1992 37.7188 74.9548 40.0254 75.3848 43.4612C75.8148 46.8971 72.7634 50.1538 69.8417 50.5666L69.8411 50.5609Z" fill="url(#paint0_linear_25_3625)"/>
<path d="M70.2497 41.4014C68.5255 40.2854 68.3195 39.0212 68.9583 38.0454C69.597 37.0696 70.837 36.7444 72.5587 37.8636C74.2828 38.9797 75.1616 40.6791 74.526 41.6574C73.8872 42.6332 71.9745 42.5232 70.2529 41.4039L70.2497 41.4014Z" fill="url(#paint1_linear_25_3625)"/>
<path style="mix-blend-mode:screen" opacity="0.69" d="M71.2441 40.0265C69.8795 39.1411 69.5865 38.3411 69.9277 37.8156C70.2715 37.2869 71.1216 37.2347 72.4861 38.1201C73.8507 39.0055 74.5559 40.2967 74.2146 40.8223C73.8708 41.351 72.6087 40.9118 71.2416 40.0297L71.2441 40.0265Z" fill="url(#paint2_linear_25_3625)"/>
<path d="M74.523 41.6551C74.5528 41.6107 74.5795 41.5637 74.6004 41.5175C73.8098 42.2015 72.1055 42.01 70.5532 41.003C68.8723 39.9106 68.6358 38.685 69.2174 37.7165C69.1183 37.8162 69.032 37.9259 68.9559 38.0489C68.3171 39.0246 68.5232 40.2889 70.2473 41.4049C71.969 42.5242 73.8849 42.6366 74.5205 41.6584L74.523 41.6551Z" fill="black"/>
<path d="M70.9329 46.8542C69.5466 48.4068 69.6579 49.6801 70.5162 50.4493C71.3745 51.2185 72.6505 51.188 74.0374 49.6411C75.4237 48.0885 75.8532 46.2063 74.9949 45.4371C74.1366 44.6679 72.3191 45.3015 70.9303 46.8574L70.9329 46.8542Z" fill="url(#paint3_linear_25_3625)"/>
<path style="mix-blend-mode:screen" opacity="0.69" d="M72.2354 47.9102C71.1347 49.139 71.0508 49.9924 71.5125 50.4077C71.9741 50.8231 72.8124 50.6416 73.9074 49.4135C75.008 48.1846 75.3682 46.7442 74.9066 46.3288C74.445 45.9135 73.3303 46.682 72.2328 47.9134L72.2354 47.9102Z" fill="url(#paint4_linear_25_3625)"/>
<path d="M74.9974 45.4341C75.0388 45.4666 75.0725 45.5088 75.1057 45.5453C74.1741 45.1051 72.576 45.7545 71.3262 47.1533C69.9736 48.6698 70.0474 49.9188 70.851 50.692C70.7332 50.6255 70.6218 50.5378 70.5155 50.4437C69.6572 49.6746 69.5459 48.4012 70.9322 46.8486C72.3184 45.296 74.1385 44.6591 74.9968 45.4283L74.9974 45.4341Z" fill="black"/>
<path d="M67.5398 31.7792C67.5488 31.8594 67.5579 31.9396 67.5662 32.0141C67.5708 32.0804 67.5785 32.1492 67.5831 32.2154L67.5967 32.3881C67.6 32.4429 67.6096 32.5027 67.6116 32.546C67.622 32.7423 67.6153 32.9146 67.5977 33.0418C67.5876 33.107 67.5737 33.164 67.5566 33.2184C67.537 33.2761 67.5136 33.3256 67.4863 33.3668C67.459 33.4081 67.4254 33.4443 67.3885 33.478C67.3543 33.5085 67.3136 33.5339 67.2736 33.5652L66.8075 33.935L66.3375 34.3228C65.7121 34.8493 65.0771 35.3945 64.4491 35.9505C63.8179 36.5039 63.1874 37.0631 62.5525 37.6344L62.0763 38.0695C61.922 38.2197 61.7613 38.365 61.6014 38.516C61.4471 38.6663 61.2934 38.8223 61.1252 38.9772C60.969 39.1364 60.816 39.2981 60.6459 39.462C60.6576 39.231 60.6897 39.0003 60.7275 38.7688C60.7748 38.5449 60.8304 38.317 60.8892 38.0916C60.9633 37.873 61.0341 37.6519 61.1139 37.4326C61.1969 37.2158 61.2894 37.0065 61.3844 36.794C61.7716 35.9546 62.2492 35.1706 62.7841 34.4317C63.3221 33.6954 63.92 33.0008 64.5822 32.3621C64.7466 32.1989 64.9206 32.0433 65.092 31.8908C65.266 31.7352 65.4553 31.5863 65.6356 31.4356C65.6839 31.4005 65.7315 31.3596 65.783 31.3269C65.8344 31.2943 65.889 31.2641 65.9475 31.2422C66.006 31.2203 66.0708 31.2034 66.1395 31.1947C66.2081 31.186 66.2889 31.1816 66.3652 31.1894C66.4059 31.1901 66.4472 31.1965 66.4885 31.2029L66.6164 31.2304C66.7061 31.2539 66.7907 31.2839 66.8944 31.3289C66.9427 31.346 67.0019 31.3822 67.0516 31.4108C67.1044 31.4419 67.1534 31.4647 67.2068 31.5016C67.261 31.5441 67.3144 31.581 67.3685 31.6235C67.4258 31.6686 67.4819 31.7284 67.5373 31.7824L67.5398 31.7792Z" fill="black"/>
<path d="M71.7494 30.3841C71.7323 30.4385 71.7184 30.4955 71.7064 30.5435C71.6912 30.589 71.6785 30.6313 71.6665 30.6793C71.6412 30.7639 71.6203 30.8363 71.5982 30.8972C71.552 31.028 71.5064 31.1384 71.4569 31.2144C71.4296 31.2556 71.4074 31.2904 71.3788 31.3202C71.3535 31.3524 71.3217 31.3797 71.2919 31.398C71.2302 31.4435 71.1654 31.4605 71.1006 31.4774L70.6894 31.6136L70.2732 31.7563C69.7152 31.9546 69.1471 32.1659 68.586 32.3879C68.0186 32.6049 67.4549 32.8302 66.883 33.0594C66.742 33.1208 66.5946 33.1772 66.4535 33.2386C66.3124 33.3 66.1682 33.3589 66.0246 33.4236C65.8842 33.4907 65.7406 33.5553 65.5913 33.6207C65.4483 33.6911 65.3028 33.7647 65.1478 33.8308C65.2181 33.6824 65.2999 33.5326 65.3849 33.3852C65.4737 33.2461 65.5714 33.1088 65.6691 32.9715C65.7706 32.8425 65.8779 32.7127 65.9915 32.5879C66.1026 32.4663 66.2194 32.344 66.3369 32.2275C66.8124 31.7606 67.3357 31.3573 67.8838 30.9946C68.4352 30.6343 69.012 30.3202 69.6207 30.0573C69.7726 29.9887 69.9283 29.9283 70.084 29.868C70.2397 29.8076 70.4049 29.7548 70.5669 29.6994C70.6508 29.6714 70.7354 29.6491 70.825 29.6465C70.8714 29.6464 70.9185 29.6521 70.963 29.661C71.0107 29.6724 71.0648 29.6888 71.1138 29.7117C71.2175 29.7567 71.3212 29.8279 71.4314 29.9302C71.4868 29.9843 71.5428 30.044 71.5944 30.116C71.6218 30.1532 71.6467 30.1936 71.6716 30.2341C71.6971 30.2803 71.72 30.3297 71.7455 30.3758L71.7494 30.3841Z" fill="black"/>
<path d="M74.0344 30.322C73.9781 30.4919 73.9312 30.5908 73.8926 30.6858C73.871 30.7263 73.8526 30.7693 73.8336 30.8065L73.807 30.8535L73.7765 30.8922C73.7474 30.9424 73.708 30.9793 73.6775 30.9919C73.6451 31.0134 73.6127 31.0088 73.5802 31.0042C73.4518 30.9972 73.3233 30.9902 73.1974 30.9799C72.9399 30.9602 72.6817 30.9347 72.4222 30.8977C72.1628 30.8607 71.9001 30.8213 71.6362 30.7703C71.3665 30.7201 71.0994 30.6667 70.7801 30.6141C70.8277 30.547 70.8816 30.485 70.9356 30.423C70.9934 30.3692 71.0511 30.3154 71.1146 30.2608C71.1762 30.2153 71.2404 30.1665 71.3083 30.1259C71.3731 30.0829 71.4443 30.0448 71.5097 30.0075C71.7835 29.8625 72.074 29.7618 72.3619 29.6906C72.6498 29.6193 72.9384 29.58 73.2328 29.566C73.3771 29.5594 73.5252 29.561 73.6709 29.5659C73.7459 29.5622 73.8159 29.5911 73.8834 29.7018L73.9058 29.7454L73.9294 29.8006C73.9453 29.8392 73.9594 29.8869 73.9728 29.9288C73.999 30.033 74.0253 30.1372 74.0338 30.3163L74.0344 30.322Z" fill="black"/>
<path d="M78.1187 28.8703C77.8383 29.3183 77.4364 29.6655 77.0082 29.9085C76.58 30.1515 76.1187 30.3057 75.6623 30.4012C75.2034 30.4998 74.7444 30.5462 74.2898 30.5543C73.8326 30.5655 73.3799 30.5384 72.9322 30.4788C72.8202 30.4639 72.7419 30.3604 72.7582 30.2479C72.7752 30.1412 72.8679 30.0626 72.9729 30.0668C73.4046 30.0878 73.8382 30.0737 74.2629 30.0316C74.6901 29.9864 75.1109 29.91 75.5151 29.7892C75.9161 29.6658 76.298 29.5013 76.6296 29.2764C76.9611 29.0514 77.2226 28.7713 77.3919 28.4448C77.499 28.2366 77.7564 28.1517 77.9626 28.2565C78.1688 28.3612 78.2499 28.6183 78.1428 28.8265C78.1351 28.8362 78.1301 28.8427 78.1256 28.8548L78.1206 28.8613L78.1187 28.8703Z" fill="black"/>
<path d="M41.4835 31.6537L41.5317 31.5924L41.5812 31.5425C41.6123 31.5095 41.6459 31.4733 41.6802 31.4428L41.7774 31.3521L41.8758 31.2728C42.0041 31.1752 42.1286 31.0956 42.2518 31.0306C42.3751 30.9656 42.4914 30.916 42.609 30.8779C42.6649 30.8592 42.724 30.8431 42.7805 30.8301C42.8346 30.8204 42.8911 30.8074 42.9426 30.8009C43.1569 30.7709 43.3495 30.7815 43.5257 30.826C43.707 30.8642 43.8534 30.9532 44.0048 31.0358C44.6056 31.3725 45.1714 31.734 45.7162 32.1156C46.8085 32.8756 47.8207 33.7241 48.7683 34.6419C49.7132 35.5628 50.5909 36.5562 51.355 37.6483C51.7354 38.1931 52.0866 38.7619 52.394 39.3536C52.6988 39.9486 52.963 40.5691 53.1204 41.2205C52.6187 40.7841 52.1291 40.3781 51.6269 39.9882C51.1303 39.5976 50.6243 39.2256 50.1189 38.8594C49.1081 38.1269 48.089 37.4245 47.0605 36.7408C46.0376 36.0563 45.0021 35.388 43.973 34.7508C43.4562 34.4383 42.9395 34.1258 42.4291 33.8445C42.3642 33.8091 42.2999 33.7795 42.2376 33.7408C42.1752 33.7022 42.1179 33.6572 42.0657 33.6056C42.0135 33.5541 41.9606 33.4969 41.9179 33.4267C41.8727 33.3598 41.8299 33.2896 41.7942 33.204C41.7145 33.0368 41.6576 32.8406 41.6095 32.5938C41.5845 32.4749 41.5633 32.3381 41.5428 32.1809L41.5125 31.9377L41.497 31.8002L41.4893 31.7314L41.4835 31.6537Z" fill="black"/>
<path d="M35.0036 30.7143C35.0143 30.6809 35.0308 30.6469 35.0422 30.6193C35.0561 30.5885 35.0669 30.5551 35.0815 30.53C35.1075 30.4774 35.1392 30.424 35.1683 30.3738C35.2299 30.2759 35.2927 30.1895 35.3657 30.1163C35.4355 30.0407 35.4958 29.9837 35.5651 29.9284L35.6667 29.8516C35.6991 29.8301 35.7372 29.8079 35.7702 29.7921C35.8388 29.7572 35.9075 29.7224 35.9748 29.7023C36.039 29.6796 36.1045 29.6685 36.1699 29.6573C36.2984 29.6382 36.4249 29.6541 36.5515 29.6701C36.7938 29.7092 37.0386 29.7451 37.279 29.7932C37.5169 29.8445 37.7542 29.8901 37.9901 29.9504C38.9264 30.175 39.8336 30.476 40.7167 30.8468C41.594 31.2183 42.4524 31.6533 43.2518 32.1829C43.4498 32.3177 43.6477 32.4525 43.8406 32.5938C44.0316 32.7441 44.2194 32.8918 44.4021 33.046C44.5804 33.2123 44.7555 33.3762 44.9255 33.5465C45.0879 33.7265 45.2453 33.913 45.3854 34.1016C45.1539 34.0291 44.9325 33.9438 44.7149 33.8666C44.4897 33.7992 44.2696 33.7253 44.0559 33.6564C43.8339 33.5915 43.6125 33.5322 43.3988 33.4634C43.18 33.4009 42.9567 33.3507 42.7404 33.285C41.862 33.0589 40.9912 32.8492 40.116 32.6518C39.244 32.4568 38.3676 32.274 37.5026 32.116C37.3926 32.0921 37.2864 32.0765 37.1802 32.0608L36.8577 32.0057L36.2205 31.9118C36.1149 31.9019 36.0125 31.8945 35.9145 31.8488C35.8655 31.8259 35.8134 31.8005 35.7663 31.7687C35.7192 31.7369 35.6746 31.7018 35.6262 31.6585C35.5326 31.5744 35.4345 31.4503 35.3395 31.3024C35.2936 31.2298 35.2439 31.1489 35.1897 31.054C35.1636 31.0021 35.1317 30.9509 35.103 30.9022L35.0584 30.8149C35.0437 30.7876 35.0284 30.7547 35.0099 30.7193L35.0036 30.7143Z" fill="black"/>
<path d="M31.6484 31.1934L31.6507 31.0594L31.6607 30.9419C31.6651 30.9036 31.6708 30.8767 31.6758 30.8441C31.6809 30.8115 31.6853 30.7731 31.6941 30.7488C31.7219 30.6348 31.7549 30.5406 31.7967 30.4743C31.8734 30.3309 31.9751 30.2803 32.0806 30.264C32.2904 30.2201 32.5008 30.1819 32.7093 30.1526C33.132 30.0934 33.5554 30.0661 33.9834 30.0788C34.4113 30.0916 34.8437 30.1445 35.2674 30.2479C35.3748 30.275 35.4798 30.3053 35.5854 30.3414C35.691 30.3774 35.7941 30.4167 35.8946 30.4592C35.9958 30.5075 36.0944 30.559 36.193 30.6104C36.2898 30.6709 36.3783 30.7352 36.4674 30.8053C36.0282 30.8986 35.6424 31.0026 35.2534 31.104C34.8676 31.208 34.4882 31.317 34.11 31.4112C33.7293 31.5087 33.3511 31.603 32.9723 31.6916L32.4066 31.8212C32.3615 31.8327 32.3139 31.8474 32.263 31.8335C32.2095 31.8228 32.1574 31.7975 32.0969 31.7499C32.0396 31.7048 31.9715 31.6408 31.9007 31.5538C31.8842 31.5356 31.8632 31.5033 31.846 31.4794C31.8256 31.4529 31.8084 31.4289 31.7848 31.3999L31.7217 31.3033L31.6478 31.1876L31.6484 31.1934Z" fill="black"/>
<path d="M26.2335 29.4047C26.5743 29.8556 27.0492 30.2083 27.5932 30.4534C28.1372 30.6985 28.7478 30.8393 29.3711 30.9117C29.9943 30.9841 30.6327 30.9848 31.2709 30.9332C31.9092 30.8816 32.5481 30.7834 33.1729 30.6377C33.2975 30.6103 33.419 30.685 33.4446 30.8096C33.4696 30.9285 33.3986 31.045 33.2836 31.0799C32.6436 31.2712 31.9895 31.4149 31.3214 31.5109C30.6559 31.6037 29.982 31.6482 29.299 31.6124C28.6193 31.5792 27.9305 31.4657 27.2701 31.2178C26.6129 30.9725 25.9759 30.5706 25.4949 30.0094L25.4918 30.0069C25.3274 29.8098 25.3492 29.5135 25.5473 29.3402C25.7454 29.167 26.0411 29.1907 26.208 29.3846C26.2144 29.3896 26.2214 29.4004 26.2252 29.4086L26.2335 29.4047Z" fill="black"/>
<path d="M54.4364 30.3514L54.7164 30.4933C54.794 30.5387 54.871 30.5783 54.9512 30.6205C55.0225 30.6609 55.0791 30.7003 55.1472 30.7382L55.2433 30.7928L55.293 30.8215L55.3312 30.8515C55.5539 31.0006 55.7239 31.1448 55.8437 31.2808C55.9698 31.4218 56.0412 31.5668 56.0827 31.7039C56.1243 31.8411 56.1112 31.9822 56.1012 32.1259L56.0523 32.9806L56.0046 33.8468C55.9435 35.0054 55.8715 36.1711 55.7773 37.3454C55.6831 38.5197 55.5743 39.693 55.4324 40.8821L55.3212 41.7766C55.288 42.0744 55.235 42.3775 55.1961 42.6759L55.1306 43.1259L55.0569 43.5798C55.0129 43.8847 54.9631 44.1903 54.8937 44.5013C54.7273 44.2347 54.58 43.9569 54.4384 43.6783C54.3026 43.3991 54.1807 43.1151 54.0563 42.8345C53.824 42.2652 53.6139 41.6872 53.4439 41.1043C53.0924 39.9397 52.8432 38.7565 52.6627 37.5646C52.4911 36.3744 52.3882 35.1756 52.3647 33.9609L52.357 33.5056L52.3633 33.0457C52.3641 32.7434 52.3814 32.4331 52.3931 32.1236C52.3961 32.0477 52.396 31.9692 52.4073 31.8893C52.4186 31.8094 52.4389 31.7313 52.468 31.655C52.5313 31.4959 52.6271 31.3414 52.7782 31.1886C52.9286 31.0301 53.1319 30.8766 53.3885 30.7337C53.4457 30.7003 53.534 30.6601 53.6052 30.622C53.6852 30.5858 53.7539 30.551 53.8371 30.5172C53.9292 30.4852 54.0157 30.4539 54.1078 30.422C54.2089 30.3917 54.322 30.3658 54.4237 30.3414L54.4364 30.3514Z" fill="black"/>
<path d="M55.8639 26.2246C55.9129 26.2737 55.9651 26.3252 56.0167 26.371C56.0619 26.4118 56.1039 26.45 56.1491 26.4908C56.1937 26.5259 56.223 26.5541 56.2612 26.5842C56.2962 26.6117 56.3439 26.6493 56.3707 26.6808C56.498 26.8071 56.5923 26.8969 56.6554 26.9935C56.7216 27.0927 56.7485 27.1765 56.76 27.2535C56.7614 27.2911 56.7602 27.3319 56.7501 27.371C56.7399 27.41 56.7266 27.4466 56.7133 27.4832C56.6083 27.787 56.514 28.1099 56.4077 28.4285C56.2103 29.0724 56.0028 29.7292 55.7927 30.3893C55.5769 31.0501 55.3496 31.7123 55.1091 32.385C54.8596 33.0558 54.6164 33.7317 54.2958 34.4406C53.9616 33.765 53.7971 33.0506 53.6879 32.3379C53.5813 31.6219 53.5554 30.9016 53.5905 30.1822C53.6256 29.4629 53.7161 28.7453 53.8727 28.0223C53.951 27.6607 54.047 27.3028 54.1679 26.933C54.1977 26.8362 54.2223 26.7459 54.294 26.6613C54.3651 26.5709 54.4578 26.4924 54.5893 26.4235C54.6192 26.4052 54.6554 26.3919 54.6935 26.3696L54.8155 26.3193C54.902 26.2881 54.989 26.2625 55.0939 26.2406C55.1416 26.2258 55.2026 26.2268 55.2592 26.2139C55.3221 26.2059 55.3761 26.1962 55.4423 26.1907C55.5116 26.1878 55.5783 26.1881 55.6451 26.1883C55.7182 26.1936 55.7977 26.2039 55.8689 26.2182L55.8639 26.2246Z" fill="black"/>
<path d="M56.9758 24.9159C57.0007 24.9564 57.0287 24.9993 57.0504 25.0373C57.0682 25.067 57.0893 25.0992 57.1071 25.1289C57.1281 25.1611 57.1485 25.1876 57.1721 25.2166C57.1925 25.2431 57.2199 25.2803 57.2307 25.2993L57.3174 25.4249C57.3384 25.4571 57.3595 25.4893 57.3805 25.5215C57.4162 25.581 57.4321 25.6196 57.4354 25.6483C57.4418 25.6794 57.4227 25.6906 57.4068 25.7042C57.3433 25.7587 57.2779 25.8222 57.2062 25.8807C57.0659 26.0001 56.9141 26.121 56.7477 26.2408C56.5845 26.3632 56.4002 26.4794 56.2002 26.6093C56.0001 26.7392 55.7835 26.877 55.4982 27.0497C55.3148 26.8113 55.2476 26.5495 55.2326 26.287C55.2207 26.0269 55.2642 25.7686 55.3535 25.5306C55.4421 25.287 55.5677 25.0619 55.7359 24.8546C55.8196 24.7481 55.9104 24.6524 56.0152 24.552C56.0412 24.5254 56.0647 24.5021 56.113 24.4931C56.1613 24.4841 56.2198 24.4883 56.3006 24.5101L56.4304 24.5547C56.4762 24.5751 56.5347 24.6055 56.5837 24.6283C56.5932 24.6359 56.6085 24.6426 56.627 24.6519L56.6766 24.6805C56.711 24.7024 56.7422 24.7217 56.7765 24.7435C56.8109 24.7653 56.8395 24.7878 56.8682 24.8104C56.9064 24.8404 56.9478 24.873 56.9809 24.9095L56.9758 24.9159Z" fill="black"/>
<path d="M58.5785 20.5926C58.6027 21.0399 58.604 21.4902 58.5557 21.938C58.5049 22.3891 58.4102 22.837 58.2596 23.2774C58.1089 23.7178 57.9017 24.145 57.6276 24.5458C57.3593 24.9459 57.012 25.3152 56.5903 25.6155C56.4665 25.7009 56.291 25.6882 56.1954 25.587C56.1063 25.4907 56.1219 25.3463 56.2254 25.2606L56.2331 25.2509C56.5531 24.9751 56.8139 24.637 57.0079 24.2725C57.2019 23.908 57.3387 23.5245 57.4277 23.1297C57.5142 22.738 57.5505 22.3382 57.5518 21.937C57.5473 21.5365 57.4971 21.1419 57.4298 20.7493L57.4285 20.7379C57.3804 20.465 57.5968 20.1964 57.9152 20.1387C58.2312 20.0843 58.5265 20.2591 58.5777 20.5345C58.5797 20.5517 58.5816 20.5689 58.5835 20.5861L58.5785 20.5926Z" fill="black"/>
<path d="M71.0244 58.4756C70.9857 58.5444 70.9413 58.614 70.8995 58.6803C70.8563 58.7351 70.8132 58.79 70.77 58.8448C70.7294 58.8965 70.6843 58.9341 70.6399 58.9775C70.598 59.0177 70.5484 59.0675 70.5059 59.102C70.4151 59.1716 70.3401 59.2275 70.2557 59.276L70.1381 59.3403C70.0994 59.3568 70.0581 59.3765 70.0187 59.3873C69.9437 59.4171 69.8617 59.4362 69.793 59.4449C69.7244 59.4536 69.6608 59.4558 69.5966 59.4523C69.5323 59.4488 69.4726 59.4331 69.4128 59.4174C69.3555 59.3985 69.2976 59.3738 69.2397 59.3492C69.0227 59.2516 68.8007 59.1605 68.5914 59.0533C68.3852 58.9486 68.1733 58.8446 67.969 58.7309C67.1589 58.2869 66.399 57.7726 65.6847 57.2003C64.973 56.6248 64.3063 55.9854 63.7183 55.2721C63.573 55.09 63.431 54.9103 63.2933 54.7185C63.1614 54.5259 63.0321 54.3301 62.9084 54.1336C62.7924 53.9274 62.6821 53.7205 62.5775 53.5128C62.483 53.2923 62.395 53.0767 62.3266 52.8558C62.5391 52.9655 62.7294 53.0839 62.9222 53.199C63.1227 53.3044 63.3149 53.4138 63.5039 53.5207C63.7011 53.6237 63.8952 53.7241 64.0836 53.8253L64.662 54.1183C65.4307 54.5036 66.1891 54.8757 66.947 55.242C67.7023 55.6115 68.462 55.9689 69.2083 56.3105L69.7644 56.5599L70.3161 56.7953C70.3587 56.8132 70.4039 56.8278 70.4497 56.8482C70.4898 56.8693 70.5337 56.8986 70.5719 56.9286C70.6107 56.9644 70.647 57.0034 70.6789 57.0546C70.7133 57.1026 70.7394 57.1545 70.7637 57.2153C70.8179 57.3364 70.8684 57.5014 70.905 57.6973C70.9158 57.7425 70.9197 57.803 70.9287 57.8571L70.9595 58.0275C70.9698 58.0931 70.9775 58.1619 70.991 58.2299C70.9994 58.3044 71.009 58.3904 71.0238 58.4699L71.0244 58.4756Z" fill="black"/>
<path d="M75.5054 58.6678C75.494 58.7215 75.4826 58.7753 75.4713 58.829C75.4561 58.8745 75.4409 58.9201 75.4257 58.9656C75.3921 59.0541 75.3541 59.1286 75.3122 59.195C75.2311 59.3244 75.1466 59.4251 75.0558 59.4947C75.0107 59.5324 74.965 59.5643 74.918 59.5848C74.8742 59.6078 74.8297 59.625 74.7845 59.6365C74.6949 59.6653 74.6072 59.6589 74.5169 59.6558C74.3446 59.6456 74.1729 59.6411 74.0031 59.6277C73.8359 59.6111 73.6661 59.5977 73.5007 59.5721C72.8349 59.4818 72.1918 59.3364 71.5601 59.1372C70.931 58.9348 70.3139 58.6844 69.729 58.3602C69.5833 58.2769 69.4401 58.1904 69.2969 58.1038C69.1588 58.0109 69.02 57.9122 68.8845 57.8159C68.7508 57.7108 68.6222 57.5992 68.4999 57.4926C68.3789 57.3713 68.2637 57.2492 68.1567 57.1233C68.3277 57.1482 68.488 57.1802 68.6451 57.2098C68.8073 57.2329 68.9637 57.2567 69.1202 57.2805C69.2792 57.3011 69.435 57.3192 69.5914 57.343C69.7447 57.3643 69.9056 57.376 70.0563 57.4005C70.6757 57.4647 71.2862 57.527 71.896 57.5836C72.5059 57.6403 73.1119 57.6886 73.7083 57.7295L74.1522 57.7548L74.5865 57.7726C74.6558 57.7696 74.7283 57.7692 74.7951 57.7956C74.8313 57.8085 74.8651 57.8246 74.9001 57.8521C74.9344 57.8739 74.9637 57.9022 75.0019 57.9322C75.0701 57.9963 75.1446 58.0915 75.2211 58.2039C75.2593 58.2601 75.2988 58.3277 75.3447 58.4004C75.3696 58.4408 75.3913 58.4788 75.4161 58.5192C75.4416 58.5654 75.4703 58.6141 75.499 58.6628L75.5054 58.6678Z" fill="black"/>
<path d="M77.7617 58.0923C77.7988 58.2678 77.7996 58.3781 77.8004 58.4884C77.7967 58.5325 77.7968 58.5848 77.7898 58.6263L77.7791 58.6858L77.7646 58.7371C77.7298 58.8664 77.6657 58.9152 77.5894 58.9336C77.4464 58.9778 77.3034 59.022 77.1591 59.0548C76.8706 59.1203 76.5737 59.1636 76.2761 59.175C75.9754 59.184 75.6689 59.1675 75.3623 59.0987C75.2879 59.0819 75.2103 59.0627 75.1353 59.0402C75.0602 59.0177 74.9845 58.9895 74.9113 58.9581C74.835 58.9241 74.7643 58.8895 74.6963 58.8516C74.6275 58.8079 74.5588 58.7643 74.4945 58.7085C74.795 58.5688 75.039 58.4421 75.2918 58.3172C75.5415 58.1897 75.7842 58.0777 76.0333 57.9706C76.2799 57.8668 76.5264 57.763 76.7717 57.6739C76.8969 57.6261 77.0202 57.5873 77.1428 57.5428C77.1733 57.5302 77.2038 57.5176 77.2369 57.528C77.2725 57.5351 77.3158 57.5587 77.361 57.5995L77.3992 57.6295L77.4387 57.671C77.468 57.6993 77.4985 57.739 77.5285 57.773C77.5928 57.855 77.6603 57.9394 77.7585 58.0898L77.7617 58.0923Z" fill="black"/>
<path d="M81.5214 58.9916C81.273 58.7178 80.9402 58.5187 80.5629 58.3891C80.1857 58.2595 79.7647 58.2052 79.3431 58.1974C78.919 58.1929 78.4855 58.2331 78.0558 58.3078C77.6261 58.3824 77.1977 58.4946 76.7782 58.6348C76.6696 58.6747 76.5525 58.6139 76.5167 58.5022C76.4848 58.3987 76.5361 58.2876 76.6384 58.2427C77.0648 58.061 77.5001 57.9072 77.9513 57.792C78.3994 57.6744 78.8628 57.5897 79.3383 57.5616C79.8107 57.531 80.2978 57.5537 80.7812 57.6728C81.2646 57.7919 81.7431 58.022 82.1315 58.3798L82.1379 58.3848C82.3098 58.5462 82.3172 58.8184 82.1573 58.9955C81.9941 59.1702 81.7226 59.1812 81.5482 59.0231C81.5386 59.0156 81.5291 59.0081 81.5221 58.9973L81.5214 58.9916Z" fill="black"/>
<path d="M45.762 65.6663L45.7504 65.5893L45.7395 65.518L45.7183 65.3812L45.688 65.138C45.6706 64.9833 45.6577 64.8425 45.6531 64.724C45.6387 64.4671 45.6479 64.2654 45.6794 64.0813C45.6952 63.9892 45.7154 63.9111 45.7445 63.8348C45.7705 63.7559 45.8034 63.6878 45.8453 63.6215C45.8846 63.5584 45.9303 63.5003 45.9792 63.4448C46.0281 63.3892 46.084 63.3443 46.136 63.2913C46.5595 62.8774 46.9829 62.4374 47.3999 61.9924C48.2391 61.0959 49.0719 60.1683 49.8881 59.2224C50.7107 58.2815 51.5193 57.3191 52.317 56.3378C52.7143 55.8459 53.1109 55.3482 53.4967 54.8316C53.8857 54.3175 54.2556 53.7884 54.6336 53.2291C54.6398 53.9025 54.5353 54.5725 54.3919 55.2329C54.2397 55.8914 54.0423 56.5354 53.8087 57.1665C53.3414 58.4286 52.7398 59.6322 52.0536 60.7796C51.3674 61.927 50.594 63.0215 49.7271 64.0581C49.298 64.5773 48.8353 65.0804 48.342 65.5699C48.2138 65.6936 48.0944 65.8191 47.9331 65.9063C47.7717 65.9936 47.5906 66.06 47.3764 66.09C47.3223 66.0997 47.2676 66.1037 47.213 66.1078C47.1551 66.1092 47.0973 66.1107 47.0362 66.1097C46.9167 66.1045 46.7933 66.091 46.6566 66.0618C46.5198 66.0326 46.3786 65.9894 46.2329 65.9323L46.1171 65.883L45.9975 65.8254C45.9574 65.8043 45.9167 65.7775 45.8791 65.7532L45.8199 65.7171L45.7594 65.6695L45.762 65.6663Z" fill="black"/>
<path d="M39.7423 68.3537C39.7524 68.3146 39.7574 68.282 39.7682 68.2487L39.789 68.1501C39.8061 68.0957 39.8225 68.0355 39.8364 67.9785C39.8649 67.8703 39.8953 67.7793 39.9206 67.6947C39.9769 67.5248 40.0415 67.3772 40.1107 67.2696C40.1449 67.213 40.1805 67.1678 40.2192 67.1252C40.2572 67.0768 40.2998 67.0423 40.3449 67.0047C40.43 66.9358 40.5272 66.8973 40.6244 66.8589L41.2153 66.5924L41.5127 66.4502C41.6118 66.4029 41.7141 66.358 41.81 66.3081C42.6074 65.9167 43.4054 65.5049 44.1982 65.0735C44.9942 64.6445 45.7858 64.2016 46.5729 63.7447C46.7654 63.6244 46.9674 63.5117 47.1656 63.3908C47.3549 63.2681 47.5562 63.1496 47.7538 63.023C47.9456 62.897 48.1368 62.7653 48.3401 62.6379C48.5281 62.5038 48.7211 62.3631 48.9295 62.2293C48.8383 62.45 48.7356 62.6722 48.624 62.8927C48.5023 63.0998 48.3748 63.3078 48.2448 63.5189C48.1046 63.7168 47.9643 63.9147 47.8152 64.1108C47.6655 64.3012 47.5093 64.4865 47.3475 64.6726C46.7045 65.4048 45.9889 66.059 45.2294 66.6577C44.4699 67.2565 43.6689 67.7965 42.817 68.2703C42.6042 68.3902 42.3875 68.5018 42.1709 68.6135C41.9517 68.7283 41.7249 68.8268 41.4987 68.9309C41.3824 68.9805 41.2636 69.0332 41.132 69.0499C41.0691 69.0578 41.0029 69.0633 40.933 69.0605C40.8662 69.0602 40.7893 69.0467 40.7149 69.0299C40.6761 69.0203 40.6373 69.0107 40.601 68.9978L40.4858 68.9542C40.4063 68.9178 40.3325 68.8806 40.2453 68.8277C40.1607 68.7716 40.0754 68.7097 39.9939 68.6299C39.9512 68.5859 39.9117 68.5444 39.869 68.5004C39.8493 68.4796 39.8283 68.4474 39.8085 68.4266C39.7881 68.4002 39.7677 68.3737 39.7467 68.3415L39.7423 68.3537Z" fill="black"/>
<path d="M36.3845 68.81L36.425 68.6799L36.4649 68.5702C36.4757 68.5369 36.4896 68.5061 36.501 68.4785C36.5124 68.4509 36.5257 68.4143 36.5378 68.3925C36.584 68.2878 36.6329 68.2061 36.6786 68.148C36.7242 68.0899 36.7719 68.049 36.8182 68.0228C36.8646 67.9966 36.911 67.9966 36.9574 67.9965L37.5373 67.9669C37.9238 67.9471 38.3142 67.9355 38.7046 67.924C39.095 67.9124 39.4866 67.9124 39.8866 67.9083C40.2865 67.9043 40.6832 67.8977 41.1321 67.8643C41.0667 67.9539 40.9925 68.0418 40.915 68.1271C40.8338 68.2042 40.7525 68.2813 40.6681 68.3559C40.5798 68.4223 40.489 68.4919 40.3975 68.5558C40.306 68.6196 40.2107 68.6752 40.1155 68.7309C39.7311 68.9509 39.3264 69.1183 38.9177 69.2513C38.5059 69.3818 38.0896 69.4722 37.6668 69.5314C37.4558 69.5639 37.246 69.5817 37.033 69.5969C36.9275 69.6132 36.8175 69.5893 36.706 69.4755C36.6506 69.4215 36.5952 69.3413 36.5429 69.2375C36.5289 69.216 36.5161 69.1799 36.504 69.1494C36.4918 69.119 36.4772 69.0918 36.4644 69.0556L36.4261 68.9471L36.3909 68.815L36.3845 68.81Z" fill="black"/>
<path d="M30.7389 71.6504C31.066 70.9726 31.5776 70.4139 32.1543 69.9953C32.7335 69.5733 33.3676 69.2782 34.0158 69.0568C34.664 68.8354 35.327 68.6935 35.9926 68.6007C36.6581 68.5079 37.327 68.4699 37.992 68.4759C38.1198 68.4772 38.2186 68.581 38.2156 68.7092C38.2119 68.8317 38.1154 68.9282 37.9972 68.9344C37.3538 68.9663 36.713 69.0473 36.0856 69.1701C35.4557 69.2962 34.8405 69.4757 34.2578 69.712C33.6726 69.9516 33.1205 70.2539 32.6538 70.6441C32.1864 71.0287 31.8158 71.4998 31.5998 72.0298C31.5023 72.2717 31.2284 72.3906 30.9854 72.2934C30.7455 72.1988 30.6306 71.9256 30.7307 71.6805C30.7358 71.674 30.7377 71.6651 30.7421 71.6529L30.7472 71.6464L30.7389 71.6504Z" fill="black"/>
<path d="M60.9867 61.8624C60.9099 61.9012 60.833 61.9399 60.7555 61.973C60.6856 61.9963 60.6157 62.0197 60.5432 62.0463C60.4759 62.0664 60.4129 62.0744 60.3449 62.0888L60.2451 62.1043L60.1936 62.1108L60.1504 62.1134C59.9202 62.1308 59.7091 62.111 59.5348 62.0575C59.4419 62.0314 59.3688 62 59.295 61.9628C59.2212 61.9256 59.1581 61.8813 59.0945 61.8312C59.034 61.7836 58.9811 61.7264 58.9308 61.6659C58.8805 61.6054 58.8473 61.5428 58.8027 61.4816C58.6358 61.2353 58.4656 60.9865 58.3126 60.7356L58.0787 60.3583C58.0035 60.2312 57.9314 60.1067 57.8588 59.9764C57.2748 58.9633 56.7645 57.9089 56.3152 56.8294C55.8685 55.7467 55.4929 54.6259 55.2069 53.4764C55.0611 52.9019 54.9483 52.3117 54.859 51.7244C54.8223 51.4239 54.7862 51.1291 54.7584 50.8304C54.7421 50.5302 54.7282 50.2268 54.7322 49.927L56.606 52.7852L58.416 55.5672L60.2011 58.3087C60.3484 58.5342 60.4981 58.7565 60.6479 58.9788C60.7951 59.2043 60.9467 59.4176 61.0927 59.6317C61.166 59.7416 61.2437 59.8393 61.2871 59.9675C61.3306 60.0956 61.3537 60.2497 61.3488 60.413C61.344 60.5764 61.3113 60.7752 61.2563 61.0088C61.2449 61.0626 61.2202 61.1267 61.2013 61.1901C61.1823 61.2536 61.1684 61.3105 61.1443 61.3804C61.1177 61.4535 61.0969 61.5259 61.0735 61.6015C61.045 61.6836 61.0146 61.7746 60.9867 61.8624Z" fill="black"/>
<path d="M64.5894 64.3569C64.5545 64.4078 64.517 64.4619 64.4815 64.5071C64.4485 64.5491 64.4091 64.586 64.3698 64.623C64.2936 64.6936 64.2097 64.7478 64.1392 64.7916C64.0008 64.8759 63.8616 64.9284 63.7364 64.95C63.6111 64.9716 63.5113 64.961 63.4127 64.9357C63.3618 64.9218 63.3192 64.9039 63.2759 64.8803C63.2352 64.8535 63.2002 64.826 63.1594 64.7991L62.929 64.6335C62.8558 64.576 62.7858 64.5209 62.7126 64.4633L62.4961 64.293L62.2956 64.1091C61.7537 63.6254 61.2646 63.0944 60.8148 62.5264C60.3651 61.9584 59.9623 61.3438 59.6243 60.6862C59.2895 60.031 59.0016 59.3293 58.8765 58.5779C59.4342 59.0479 59.9473 59.4829 60.4688 59.914C60.9895 60.3393 61.4925 60.7611 62.0056 61.17C62.5161 61.582 63.0229 61.9859 63.5251 62.3758C63.6493 62.4734 63.7734 62.5711 63.8994 62.6598L64.0859 62.796L64.2686 62.9241C64.2973 62.9466 64.331 62.9627 64.3603 62.9909C64.3889 63.0135 64.415 63.0392 64.4361 63.0715C64.4807 63.1327 64.5164 63.2182 64.5401 63.3257C64.56 63.4249 64.5691 63.5574 64.5789 63.7218C64.5834 63.7619 64.5796 63.806 64.5784 63.8468L64.5767 63.9865C64.5768 64.0388 64.5775 64.0969 64.5808 64.1517C64.5822 64.2154 64.581 64.2824 64.5881 64.3455L64.5894 64.3569Z" fill="black"/>
<path d="M66.4802 64.7368C66.4765 64.7809 66.4702 64.8282 66.4665 64.8722L66.4463 64.9765L66.4229 65.0783L66.4084 65.1295L66.4027 65.1564L66.3925 65.1693C66.3837 65.2198 66.3634 65.2718 66.3451 65.3148L66.3197 65.3732L66.2931 65.4201C66.2195 65.5399 66.1471 65.5665 66.0815 65.5515C65.9467 65.5395 65.8113 65.5217 65.6803 65.4918C65.4157 65.4351 65.1618 65.3451 64.9156 65.2193C64.6693 65.0935 64.4325 64.9229 64.2281 64.7046C64.0268 64.4888 63.8465 64.2268 63.7754 63.9045C64.0781 63.9128 64.3178 63.9028 64.5518 63.8936C64.7857 63.8844 65.0025 63.8773 65.22 63.876C65.4374 63.8747 65.6523 63.8766 65.8596 63.8882L66.1693 63.9072C66.1954 63.9068 66.2189 63.9096 66.2418 63.9329C66.2673 63.9529 66.2903 64.0023 66.3113 64.0607L66.3286 64.1108L66.3439 64.1699L66.3804 64.3135L66.4227 64.5087L66.4457 64.6104L66.4752 64.7433L66.4802 64.7368Z" fill="black"/>
<path d="M69.2571 67.757C69.1248 67.3552 68.9456 66.9739 68.7155 66.631C68.4855 66.2881 68.2014 65.9811 67.8774 65.7314C67.2262 65.2296 66.4106 64.9432 65.5903 64.8987C65.4708 64.8934 65.3772 64.7832 65.3801 64.655C65.3838 64.5324 65.4745 64.4367 65.5871 64.4312C66.0404 64.4117 66.4983 64.4585 66.9492 64.5729C67.3945 64.6881 67.836 64.8736 68.2421 65.1303C68.6481 65.387 69.0162 65.7183 69.3328 66.1084C69.6462 66.496 69.8993 66.9406 70.0996 67.4064C70.2024 67.6492 70.1043 67.9376 69.8787 68.0475C69.6532 68.1574 69.3885 68.0484 69.2826 67.8032C69.2781 67.7892 69.2711 67.7785 69.2666 67.7645L69.2634 67.762L69.2571 67.757Z" fill="black"/>
<mask id="mask0_25_3625" style="mask-type:luminance" maskUnits="userSpaceOnUse" x="19" y="37" width="31" height="23">
<path d="M40.9046 59.2386C33.8007 60.2321 20.3484 57.224 19.6036 51.2997C18.8589 45.3753 31.0999 38.775 38.2069 37.784C45.3107 36.7905 48.88 41.181 49.6248 47.1054C50.3695 53.0298 48.0116 58.2477 40.9078 59.2411L40.9046 59.2386Z" fill="white"/>
</mask>
<g mask="url(#mask0_25_3625)">
<path d="M56.669 43.3302L29.219 27.5269L14.0692 53.6097L41.5192 69.4131L56.669 43.3302Z" fill="#B57F12"/>
<path d="M18.1098 51.5089C17.4474 46.2396 24.2986 40.9364 33.4106 39.663C42.5251 38.3864 50.4506 41.6279 51.1129 46.8972C51.7753 52.1664 44.9241 57.4697 35.8121 58.743C26.6976 60.0196 18.7721 56.7782 18.1072 51.5121L18.1098 51.5089Z" fill="#B57F12"/>
<path d="M18.1981 51.4946C17.539 46.254 24.3552 40.9756 33.4215 39.708C42.4877 38.4404 50.3731 41.6607 51.0354 46.9039C51.6945 52.1445 44.8783 57.4229 35.8121 58.6905C26.7458 59.9581 18.8605 56.7378 18.1981 51.4946Z" fill="#B68012"/>
<path d="M18.2808 51.4815C17.6249 46.2695 24.4036 41.019 33.4241 39.7572C42.4445 38.4954 50.2904 41.7004 50.9438 46.9156C51.5997 52.1276 44.821 57.3781 35.8005 58.6399C26.7801 59.9017 18.9341 56.6967 18.2808 51.4815Z" fill="#B78113"/>
<path d="M18.3666 51.4705C17.7133 46.2814 24.4577 41.0615 33.4324 39.8054C42.4071 38.5494 50.2079 41.7398 50.8637 46.9256C51.5171 52.1146 44.7726 57.3346 35.7979 58.5907C26.8258 59.8435 19.0193 56.6538 18.3666 51.4705Z" fill="#B88213"/>
<path d="M18.4524 51.4596C17.8023 46.2992 24.5119 41.1039 33.4382 39.8569C42.3646 38.6099 50.1284 41.7817 50.7785 46.9421C51.4287 52.1025 44.7191 57.2977 35.7928 58.5447C26.8664 59.7918 19.1025 56.62 18.4524 51.4596Z" fill="#B98313"/>
<path d="M18.535 51.4462C17.8882 46.3145 24.5628 41.144 33.4434 39.9028C42.324 38.6615 50.0452 41.8155 50.6921 46.9472C51.3389 52.0789 44.6643 57.2494 35.7837 58.4907C26.9032 59.7319 19.1819 56.578 18.535 51.4462Z" fill="#BB8413"/>
<path d="M18.6209 51.4354C17.9798 46.3291 24.6201 41.1891 33.4492 39.9544C42.284 38.7189 49.9658 41.8575 50.6069 46.9638C51.248 52.0701 44.6077 57.2101 35.7754 58.4423C26.9406 59.6778 19.2588 56.5392 18.6177 51.4329L18.6209 51.4354Z" fill="#BC8414"/>
<path d="M18.7035 51.4222C18.0656 46.3446 24.671 41.2293 33.4575 40.0029C42.2466 38.7732 49.8857 41.8939 50.5268 46.9741C51.1679 52.0543 44.5593 57.167 35.776 58.3959C26.9869 59.6256 19.3478 56.5049 18.7067 51.4247L18.7035 51.4222Z" fill="#BD8514"/>
<path d="M18.7893 51.4113C18.1515 46.3598 24.7226 41.2751 33.4601 40.0519C42.2009 38.8312 49.8006 41.9366 50.4384 46.9881C51.0763 52.0396 44.5052 57.1244 35.7619 58.3482C27.0212 59.5689 19.4215 56.4636 18.7868 51.4146L18.7893 51.4113Z" fill="#BE8614"/>
<path d="M18.8751 51.4005C18.2431 46.3745 24.7767 41.3177 33.4716 40.1028C42.1666 38.8879 49.7237 41.9754 50.3558 47.0015C50.9879 52.0276 44.4543 57.0844 35.7625 58.3017C27.0675 59.5166 19.5104 56.4291 18.8783 51.4031L18.8751 51.4005Z" fill="#BF8714"/>
<path d="M18.9578 51.3871C18.3289 46.3897 24.8276 41.3577 33.4736 40.1461C42.1203 38.9402 49.6405 42.0091 50.2693 47.0065C50.8982 52.004 44.3995 57.036 35.7503 58.2451C27.1037 59.4509 19.5835 56.382 18.9546 51.3846L18.9578 51.3871Z" fill="#C08815"/>
<path d="M19.0436 51.3763C18.418 46.4075 24.8817 41.4002 33.4826 40.2002C42.0803 38.9976 49.5611 42.0511 50.1874 47.0256C50.813 51.9944 44.3492 57.0017 35.7484 58.2017C27.1506 59.4043 19.6699 56.3508 19.0436 51.3763Z" fill="#C18915"/>
<path d="M19.1294 51.3653C18.5063 46.4195 24.9358 41.4427 33.4909 40.2484C42.0429 39.0516 49.4816 42.093 50.1041 47.0331C50.7271 51.979 44.2977 56.9557 35.7425 58.15C27.1906 59.3468 19.7518 56.3054 19.1294 51.3653Z" fill="#C28A15"/>
<path d="M19.2121 51.3521C18.5922 46.4349 24.9842 41.4861 33.4936 40.2976C41.9997 39.1066 49.3959 42.1302 50.0157 47.0474C50.6356 51.9646 44.2378 56.9141 35.7342 58.1019C27.228 59.2929 19.8319 56.2693 19.2121 51.3521Z" fill="#C38B15"/>
<path d="M19.2979 51.3413C18.6813 46.4527 25.0383 41.5287 33.5019 40.346C41.9598 39.1639 49.319 42.1689 49.9331 47.0607C50.5497 51.9492 44.1894 56.8708 35.729 58.056C27.2712 59.238 19.912 56.233 19.2979 51.3413Z" fill="#C48C16"/>
<path d="M19.3837 51.3305C18.7729 46.4674 25.0956 41.5738 33.5077 40.3976C41.9198 39.2214 49.2364 42.2085 49.8473 47.0716C50.4581 51.9347 44.1354 56.8282 35.7233 58.0045C27.3112 59.1807 19.9946 56.1936 19.3837 51.3305Z" fill="#C58D16"/>
<path d="M19.4663 51.3171C18.8587 46.4827 25.1465 41.6139 33.5129 40.4434C41.8792 39.273 49.1538 42.248 49.7614 47.0824C50.3691 51.9169 44.0812 56.7857 35.7149 57.9561C27.3486 59.1266 20.074 56.1516 19.4663 51.3171Z" fill="#C78E16"/>
<path d="M19.5522 51.3062C18.9478 46.5004 25.2007 41.6563 33.5187 40.4949C41.8392 39.3303 49.0712 42.2874 49.6788 47.0957C50.2864 51.904 44.0303 56.7455 35.7123 57.907C27.3917 59.0716 20.1598 56.1145 19.5522 51.3062Z" fill="#C88E16"/>
<path d="M19.638 51.2955C19.0361 46.5126 25.2548 41.699 33.527 40.5434C41.7993 39.3877 48.9943 42.3262 49.593 47.1066C50.1948 51.8895 43.9762 56.7031 35.704 57.8587C27.4317 59.0144 20.2366 56.0759 19.638 51.2955Z" fill="#C98F17"/>
<path d="M19.7206 51.2821C19.122 46.5278 25.3032 41.7423 33.5296 40.5924C41.7561 39.4425 48.9085 42.3632 49.5071 47.1174C50.1058 51.8717 43.9246 56.6572 35.6981 57.8071C27.4717 58.957 20.3192 56.0363 19.7206 51.2821Z" fill="#CA9017"/>
<path d="M19.8064 51.2712C19.2136 46.5424 25.3573 41.7848 33.538 40.6408C41.7161 39.4999 48.8291 42.4052 49.4245 47.1308C50.0199 51.8564 43.8737 56.6172 35.693 57.7613C27.5148 58.9021 20.4018 55.9968 19.8064 51.2712Z" fill="#CB9117"/>
<path d="M19.8891 51.2578C19.2994 46.5577 25.4082 41.8248 33.5406 40.6898C41.673 39.5547 48.7433 42.4421 49.3362 47.1448C49.9258 51.8449 43.817 56.5778 35.6846 57.7128C27.5554 58.8504 20.4819 55.9605 19.8923 51.2603L19.8891 51.2578Z" fill="#CC9217"/>
<path d="M19.9749 51.2471C19.3885 46.5756 25.4655 41.87 33.5489 40.7382C41.6356 39.6089 48.6633 42.4785 49.2529 47.1525C49.8425 51.8265 43.7655 56.5321 35.6789 57.6614C27.5922 58.7907 20.5613 55.9186 19.9749 51.2471Z" fill="#CD9318"/>
<path d="M20.0607 51.2362C19.4769 46.5877 25.5196 41.9126 33.5547 40.7898C41.5924 39.6638 48.5839 42.5205 49.1677 47.1691C49.7515 51.8177 43.7088 56.4927 35.6737 57.6155C27.636 58.7415 20.6445 55.8848 20.0607 51.2362Z" fill="#CE9418"/>
<path d="M20.1434 51.2227C19.5627 46.6028 25.5705 41.9525 33.5599 40.8355C41.5492 39.7185 48.4981 42.5573 49.0812 47.174C49.6618 51.794 43.6541 56.4443 35.6647 57.5613C27.6753 58.6783 20.7233 55.8369 20.1402 51.2202L20.1434 51.2227Z" fill="#CF9518"/>
<path d="M20.2292 51.212C19.6518 46.6207 25.6221 41.9984 33.5657 40.8872C41.5093 39.776 48.4187 42.5995 48.9961 47.1907C49.5735 51.782 43.6031 56.4043 35.657 57.5188C27.7134 58.63 20.804 55.8065 20.2266 51.2152L20.2292 51.212Z" fill="#D09518"/>
<path d="M20.315 51.201C19.7402 46.6326 25.6762 42.0408 33.574 40.9353C41.4718 39.8299 48.3418 42.638 48.9134 47.2039C49.4908 51.769 43.5522 56.3641 35.6544 57.4695C27.7566 58.575 20.8866 55.7668 20.3124 51.2042L20.315 51.201Z" fill="#D19619"/>
<path d="M20.3976 51.1876C19.826 46.6479 25.7271 42.0808 33.5766 40.9844C41.4261 39.888 48.256 42.675 48.8276 47.2147C49.3992 51.7544 43.4981 56.3215 35.6486 57.418C27.7991 58.5144 20.9692 55.7273 20.3976 51.1876Z" fill="#D29719"/>
<path d="M20.4834 51.177C19.9151 46.6659 25.7812 42.1236 33.585 41.0329C41.3887 39.9423 48.176 42.7115 48.7418 47.2257C49.3101 51.7368 43.444 56.2791 35.6402 57.3698C27.8365 58.4604 21.0493 55.6912 20.4834 51.177Z" fill="#D39819"/>
<path d="M20.5661 51.1636C20.001 46.6812 25.8322 42.1636 33.5876 41.082C41.3456 39.9971 48.0908 42.7542 48.656 47.2366C49.2211 51.719 43.3899 56.2366 35.6345 57.3182C27.8765 58.403 21.1312 55.646 20.5661 51.1636Z" fill="#D49919"/>
<path d="M20.6519 51.1527C20.0925 46.6957 25.8863 42.2061 33.596 41.1303C41.3082 40.0512 48.0108 42.7904 48.5733 47.2498C49.1327 51.7068 43.3358 56.1939 35.6293 57.2723C27.9171 58.3513 21.2113 55.6096 20.6519 51.1527Z" fill="#D59A1A"/>
<path d="M20.7377 51.142C20.1816 46.7136 25.941 42.2545 33.6043 41.1787C41.2682 40.1087 47.9339 42.8293 48.4875 47.2608C49.0468 51.6916 43.2842 56.1483 35.6209 57.224C27.9571 58.2941 21.2913 55.5735 20.7377 51.142Z" fill="#D79B1A"/>
<path d="M20.8204 51.1284C20.2643 46.7262 25.992 42.2944 33.6101 41.2301C41.2282 40.1658 47.8488 42.8718 48.4049 47.274C48.961 51.6761 43.2333 56.108 35.6184 57.1748C28.0002 58.239 21.3765 55.5306 20.8236 51.1309L20.8204 51.1284Z" fill="#D89C1A"/>
<path d="M20.9062 51.1176C20.3558 46.7408 26.0461 42.337 33.6153 41.276C41.1876 40.2175 47.7687 42.9081 48.3191 47.2848C48.8694 51.6616 43.1792 56.0654 35.6068 57.1239C28.0345 58.1824 21.4534 55.4918 20.903 51.1151L20.9062 51.1176Z" fill="#D99C1A"/>
<path d="M20.992 51.1068C20.4449 46.7587 26.1002 42.3796 33.6242 41.3301C41.1483 40.2807 47.6925 42.9527 48.2396 47.3008C48.7867 51.6488 43.1314 56.028 35.6106 57.0799C28.0865 58.1294 21.5455 55.4599 20.9952 51.1093L20.992 51.1068Z" fill="#DA9D1B"/>
<path d="M21.0746 51.0934C20.5276 46.7715 26.1511 42.4197 33.6262 41.3734C41.1045 40.3297 47.6061 42.9839 48.1474 47.3066C48.6913 51.626 43.0709 55.9804 35.5927 57.0241C28.1176 58.0703 21.6128 55.4136 21.0715 51.0909L21.0746 51.0934Z" fill="#DB9E1B"/>
<path d="M21.1605 51.0826C20.6191 46.7861 26.2052 42.4623 33.6352 41.4276C41.0645 40.3871 47.5267 43.026 48.068 47.3225C48.6093 51.619 43.0232 55.9428 35.5964 56.98C28.1671 58.0205 21.705 55.3817 21.1637 51.0852L21.1605 51.0826Z" fill="#DC9F1B"/>
<path d="M21.2463 51.0719C20.7082 46.804 26.2568 42.5082 33.6403 41.4735C41.0245 40.4446 47.444 43.0655 47.9821 47.3334C48.5202 51.6013 42.9716 55.8971 35.5849 56.9293C28.2039 57.9607 21.7812 55.3372 21.2463 51.0719Z" fill="#DDA01B"/>
<path d="M21.3289 51.0584C20.794 46.8192 26.3077 42.5481 33.6461 41.525C40.9845 40.5018 47.3614 43.1049 47.8963 47.3441C48.4312 51.5833 42.9143 55.8519 35.5791 56.8776C28.2438 57.9032 21.8638 55.2976 21.3289 51.0584Z" fill="#DEA11C"/>
<path d="M21.4147 51.0477C20.8856 46.8339 26.365 42.5932 33.6545 41.5734C40.9439 40.5535 47.2846 43.1438 47.8137 47.3575C48.3428 51.5713 42.8634 55.812 35.5739 56.8318C28.2845 57.8517 21.9439 55.2614 21.4147 51.0477Z" fill="#DFA11C"/>
<path d="M21.4999 51.0311C20.974 46.846 26.4185 42.6301 33.6597 41.6192C40.9033 40.6052 47.1988 43.1808 47.7279 47.3684C48.2538 51.5535 42.8093 55.7694 35.5682 56.7802C28.3245 57.7943 22.029 55.2187 21.4999 51.0311Z" fill="#E0A21C"/>
<path d="M21.5857 51.0201C21.0599 46.8612 26.4726 42.6725 33.668 41.6675C40.8633 40.6624 47.1219 43.2194 47.6446 47.3759C48.1704 51.5349 42.7577 55.7235 35.5623 56.7286C28.3669 57.7336 22.1084 55.1766 21.5857 51.0201Z" fill="#E1A31C"/>
<path d="M21.6715 51.0094C21.1515 46.8759 26.5242 42.7184 33.6738 41.7192C40.8234 40.7199 47.0393 43.259 47.5594 47.3926C48.0795 51.5261 42.7068 55.6835 35.5572 56.6828C28.4076 57.6821 22.1916 55.143 21.6715 51.0094Z" fill="#E2A41D"/>
<path d="M21.7542 50.9961C21.2373 46.8912 26.5751 42.7585 33.6789 41.765C40.7828 40.7715 46.9593 43.2953 47.4761 47.4002C47.993 51.5051 42.6552 55.6378 35.5514 56.6313C28.4501 57.6215 22.2711 55.101 21.7567 50.9928L21.7542 50.9961Z" fill="#E3A51D"/>
<path d="M21.84 50.9851C21.3264 46.9089 26.6292 42.801 33.6847 41.8165C40.7403 40.832 46.8767 43.3347 47.3878 47.4142C47.8989 51.4937 42.5986 55.5983 35.543 56.5828C28.4875 57.5673 22.3537 55.0614 21.84 50.9851Z" fill="#E4A61D"/>
<path d="M21.9258 50.9743C21.4179 46.9235 26.6833 42.8435 33.6931 41.8648C40.7028 40.8862 46.7972 43.3767 47.3077 47.4243C47.8156 51.4751 42.5502 55.555 35.5404 56.5337C28.5307 57.5124 22.4363 55.0219 21.9284 50.9711L21.9258 50.9743Z" fill="#E5A61D"/>
<path d="M22.0085 50.9609C21.5006 46.9363 26.7374 42.8861 33.6957 41.9139C40.6597 40.941 46.7115 43.4137 47.2193 47.4384C47.7272 51.463 42.4935 55.5157 35.5321 56.4854C28.5713 57.4608 22.5163 54.9856 22.0085 50.9609Z" fill="#E6A71E"/>
<path d="M22.0943 50.9501C21.5922 46.9508 26.7884 42.9262 33.704 41.9623C40.6191 40.9926 46.6346 43.4525 47.1335 47.4492C47.6356 51.4484 42.4394 55.4731 35.5237 56.437C28.6055 57.4041 22.5932 54.9468 22.0943 50.9501Z" fill="#E7A81E"/>
<path d="M22.1801 50.9392C21.6812 46.9686 26.8431 42.9744 33.7124 42.0106C40.5791 41.0499 46.552 43.4919 47.0534 47.4593C47.5523 51.4299 42.3878 55.4273 35.5211 56.3879C28.6544 57.3485 22.6815 54.9065 22.1801 50.9392Z" fill="#E8A91E"/>
<path d="M22.2627 50.926C21.7671 46.9841 26.894 43.0146 33.715 42.0598C40.5359 41.105 46.4694 43.5316 46.965 47.4735C47.4607 51.4154 42.3337 55.3849 35.5128 56.3397C28.6918 57.2946 22.7584 54.8679 22.2627 50.926Z" fill="#E9AA1E"/>
<path d="M22.3486 50.915C21.8555 46.996 26.9482 43.057 33.7233 42.108C40.4985 41.1589 46.3893 43.5677 46.8849 47.4835C47.3748 51.4 42.2854 55.3414 35.5102 56.2905C28.735 57.2395 22.8442 54.8308 22.3486 50.915Z" fill="#EAAA1F"/>
<path d="M22.4312 50.9016C21.9414 47.0113 26.9991 43.0971 33.726 42.157C40.4528 41.217 46.3036 43.6047 46.7934 47.495C47.2832 51.3854 42.2255 55.2996 35.4986 56.2396C28.7718 57.1797 22.9179 54.7895 22.4312 50.9016Z" fill="#EBAB1F"/>
<path d="M22.517 50.891C22.0304 47.0293 27.0532 43.1398 33.7343 42.2056C40.4154 41.2713 46.2242 43.6469 46.7108 47.5086C47.1974 51.3703 42.1746 55.2597 35.4935 56.194C28.8124 57.1282 23.0036 54.7527 22.517 50.891Z" fill="#EBAC1F"/>
<path d="M22.6029 50.88C22.122 47.0438 27.1073 43.1823 33.7401 42.2571C40.3754 41.3286 46.1447 43.6888 46.6281 47.5218C47.1115 51.3549 42.1237 55.2195 35.4909 56.1448C28.8555 57.0733 23.0862 54.7131 22.6029 50.88Z" fill="#ECAD1F"/>
<path d="M22.6855 50.8667C22.2079 47.0591 27.1557 43.2256 33.7453 42.3029C40.3323 41.3835 46.0615 43.7226 46.5423 47.5327C47.0199 51.3403 42.0721 55.1738 35.4825 56.0965C28.8955 57.0159 23.1663 54.6768 22.6887 50.8692L22.6855 50.8667Z" fill="#EDAD1F"/>
<path d="M22.7713 50.8559C22.2937 47.0744 27.2098 43.2682 33.7511 42.3545C40.2923 41.4409 45.9821 43.7646 46.4565 47.5436C46.9341 51.325 42.0148 55.1287 35.4767 56.0449C28.9355 56.9586 23.2457 54.6349 22.7713 50.8559Z" fill="#EEAE20"/>
<path d="M22.8571 50.8449C22.3827 47.0921 27.2671 43.3132 33.7594 42.4028C40.2549 41.4949 45.8995 43.804 46.3738 47.5568C46.8482 51.3096 41.9639 55.0885 35.4716 55.9989C28.9761 56.9069 23.3315 54.5978 22.8571 50.8449Z" fill="#EFAF20"/>
<path d="M22.9398 50.8318C22.4712 47.1044 27.318 43.3534 33.762 42.452C40.2117 41.5499 45.8137 43.8411 46.2823 47.5685C46.7509 51.2959 41.904 55.0469 35.46 55.9483C29.0103 56.8504 23.4084 54.5591 22.934 50.8325L22.9398 50.8318Z" fill="#F0B020"/>
<path d="M23.0256 50.8209C22.5602 47.1222 27.3721 43.396 33.7704 42.5004C40.1718 41.6072 45.7368 43.8799 46.2022 47.5786C46.6676 51.2774 41.8556 55.0036 35.4542 55.8967C29.0528 56.7898 23.4878 54.5171 23.0224 50.8184L23.0256 50.8209Z" fill="#F1B020"/>
<path d="M23.1082 50.8074C22.6461 47.1373 27.4231 43.4359 33.7762 42.5518C40.1286 41.6619 45.6542 43.9192 46.117 47.595C46.5792 51.2651 41.8022 54.9666 35.4523 55.8532C29.0998 56.743 23.571 54.4832 23.1114 50.8099L23.1082 50.8074Z" fill="#F2B120"/>
<path d="M23.194 50.7965C22.7344 47.1494 27.4746 43.4816 33.7813 42.5976C40.0912 41.716 45.5716 43.9587 46.0337 47.6026C46.4933 51.2498 41.7531 54.9175 35.4433 55.7991C29.1391 56.6799 23.653 54.438 23.1908 50.794L23.194 50.7965Z" fill="#F3B221"/>
<path d="M23.2798 50.7857C22.8235 47.1672 27.5287 43.5243 33.7903 42.6517C40.0487 41.7767 45.4922 44.0008 45.9486 47.6193C46.4049 51.2378 41.6997 54.8808 35.4413 55.7558C29.1829 56.6308 23.7362 54.4043 23.283 50.7883L23.2798 50.7857Z" fill="#F3B221"/>
<path d="M23.3625 50.7724C22.9094 47.1826 27.5797 43.5643 33.7955 42.6976C40.0081 41.8283 45.4122 44.037 45.8653 47.6269C46.3184 51.2167 41.6481 54.835 35.4323 55.7017C29.2197 56.571 23.8156 54.3623 23.3625 50.7724Z" fill="#F4B321"/>
<path d="M23.4483 50.7616C23.0009 47.1972 27.637 43.6094 33.8013 42.7492C39.9681 41.8857 45.3296 44.0766 45.7801 47.6435C46.2275 51.2079 41.5946 54.7982 35.4303 55.6584C29.2635 56.5219 23.902 54.331 23.4515 50.7641L23.4483 50.7616Z" fill="#F4B321"/>
<path d="M23.6454 50.7338C23.2051 47.2324 27.7579 43.7046 33.8167 42.8606C39.8723 42.0141 45.1421 44.1642 45.5856 47.6681C46.0259 51.1695 41.473 54.6973 35.4143 55.5413C29.3587 56.3878 24.0856 54.2352 23.6454 50.7338Z" fill="#F4B322"/>
<path d="M23.8424 50.7059C23.4092 47.2676 27.882 43.8022 33.8321 42.9719C39.7822 42.1416 44.9579 44.2542 45.391 47.6926C45.8242 51.1309 41.3514 54.5964 35.4014 55.4266C29.4513 56.2569 24.2756 54.1443 23.8424 50.7059Z" fill="#F4B423"/>
<path d="M24.0338 50.679C23.6077 47.3036 28.0005 43.9007 33.8418 43.0841C39.6832 42.2676 44.7647 44.3427 45.1883 47.7212C45.6144 51.0966 41.2216 54.4995 35.3802 55.3161C29.5389 56.1326 24.4573 54.0575 24.0338 50.679Z" fill="#F4B424"/>
<path d="M24.2308 50.6512C23.8144 47.3357 28.1246 43.9983 33.8579 43.2013C39.5906 42.3985 44.5779 44.4361 44.9944 47.7516C45.4109 51.0671 41.1032 54.4012 35.368 55.2072C29.6321 56.0075 24.6479 53.9724 24.2315 50.6569L24.2308 50.6512Z" fill="#F4B425"/>
<path d="M24.4279 50.6233C24.0185 47.3708 28.2462 44.0991 33.8733 43.3125C39.5005 42.526 44.3905 44.5236 44.7999 47.776C45.2092 51.0285 40.9816 54.3002 35.3544 55.0868C29.7273 55.8733 24.8373 53.8757 24.4279 50.6233Z" fill="#F4B526"/>
<path d="M24.625 50.5956C24.2227 47.4062 28.3703 44.1969 33.8887 43.4241C39.4072 42.6513 44.203 44.6113 44.6053 47.8008C45.0076 50.9902 40.86 54.1995 35.3415 54.9723C29.8256 55.7419 25.0272 53.785 24.625 50.5956Z" fill="#F4B527"/>
<path d="M24.8195 50.5709C24.4243 47.4445 28.4919 44.2977 33.9017 43.5386C39.3088 42.7827 44.0163 44.7046 44.4057 47.8317C44.8009 50.9581 40.7333 54.1049 35.3236 54.864C29.9164 55.6199 25.209 53.698 24.8138 50.5716L24.8195 50.5709Z" fill="#F4B528"/>
<path d="M25.0166 50.5432C24.631 47.4766 28.6161 44.3954 33.9146 43.6533C39.2162 42.9137 43.8263 44.7955 44.2119 47.8621C44.6 50.9254 40.6123 54.0099 35.3107 54.7495C30.009 55.4891 25.3989 53.6073 25.0166 50.5432Z" fill="#F4B629"/>
<path d="M25.2104 50.5129C24.8351 47.5118 28.737 44.4905 33.93 43.7646C39.1229 43.0388 43.6389 44.8831 44.0173 47.8866C44.3958 50.8902 40.4907 53.909 35.2978 54.6349C30.1048 55.3607 25.5889 53.5164 25.2104 50.5129Z" fill="#F4B62A"/>
<path d="M25.4075 50.4851C25.0361 47.5446 28.8612 44.5882 33.9454 43.8761C39.0297 43.1639 43.4514 44.9707 43.8228 47.9113C44.1942 50.8518 40.3692 53.8081 35.2849 54.5203C30.2007 55.2324 25.7789 53.4256 25.4075 50.4851Z" fill="#F4B62B"/>
<path d="M25.602 50.4603C25.2409 47.5853 28.9796 44.6864 33.9583 43.9905C38.937 43.2946 43.2615 45.0614 43.6258 47.9389C43.9869 50.8138 40.2482 53.7128 35.2695 54.4087C30.2907 55.1046 25.9663 53.3378 25.602 50.4603Z" fill="#F4B72C"/>
<path d="M25.7991 50.4326C25.4451 47.6206 29.1037 44.7841 33.9712 44.1052C38.8412 43.423 43.0747 45.1548 43.4262 47.97C43.7834 50.7844 40.1215 53.6184 35.254 54.2974C30.384 54.9796 26.1506 53.2477 25.7991 50.4326Z" fill="#F4B72D"/>
<path d="M25.9962 50.4047C25.6492 47.6558 29.2279 44.8817 33.9866 44.2165C38.7454 43.5513 42.8872 45.2424 43.2316 47.9945C43.576 50.7466 39.9999 53.5175 35.238 54.1802C30.4792 54.8454 26.3374 53.1543 25.993 50.4022L25.9962 50.4047Z" fill="#F4B72E"/>
<path d="M26.1932 50.377C25.8559 47.6879 29.352 44.9794 34.0053 44.3304C38.6585 43.6815 42.703 45.3325 43.0403 48.0216C43.3776 50.7107 39.8815 53.4192 35.2283 54.0682C30.5782 54.7196 26.5305 53.066 26.1932 50.377Z" fill="#F4B82F"/>
<path d="M26.3878 50.3525C26.0575 47.7264 29.4736 45.0804 34.0181 44.4452C38.5627 43.8099 42.513 45.4235 42.8432 48.0495C43.1734 50.6756 39.7574 53.3216 35.2128 53.9569C30.6683 54.5921 26.718 52.9785 26.3878 50.3525Z" fill="#F4B830"/>
<path d="M26.5816 50.3221C26.2585 47.7591 29.592 45.1787 34.0278 44.5572C38.4637 43.9357 42.3198 45.5117 42.643 48.0747C42.9661 50.6377 39.6326 53.2182 35.1967 53.8397C30.7609 54.4612 26.9047 52.8851 26.5816 50.3221Z" fill="#F4B831"/>
<path d="M26.7787 50.2942C26.4627 47.7942 29.7161 45.2762 34.0433 44.6685C38.3704 44.0607 42.1324 45.5993 42.4516 48.1017C42.7677 50.6017 39.5142 53.1197 35.1871 53.7275C30.8567 54.3327 27.0947 52.7942 26.7844 50.2935L26.7787 50.2942Z" fill="#F4B832"/>
<path d="M26.9732 50.2696C26.6668 47.8295 29.8377 45.3771 34.0593 44.7856C38.2784 44.1973 41.9488 45.6951 42.2552 48.1353C42.5616 50.5754 39.3907 53.0278 35.1691 53.6193C30.95 54.2076 27.2796 52.7098 26.9732 50.2696Z" fill="#F4B933"/>
<path d="M27.1703 50.2419C26.871 47.8648 29.9619 45.4749 34.0722 44.9003C38.1826 44.3257 41.7588 45.7861 42.0581 48.1632C42.3575 50.5403 39.2666 52.9302 35.1562 53.5048C31.0458 54.0794 27.4696 52.619 27.1703 50.2419Z" fill="#F4B934"/>
<path d="M27.3673 50.2141C27.0751 47.9 30.0828 45.57 34.0877 45.0117C38.0894 44.4508 41.5714 45.8737 41.8636 48.1878C42.1558 50.5018 39.145 52.8293 35.1433 53.3902C31.1416 53.951 27.6596 52.5282 27.3673 50.2141Z" fill="#F4B935"/>
<path d="M27.5612 50.1838C27.2761 47.9327 30.2038 45.6651 34.0999 45.1205C37.9961 44.5759 41.3808 45.9587 41.6659 48.2098C41.951 50.4608 39.0233 52.7284 35.1272 53.273C31.2311 53.8176 27.8463 52.4348 27.5612 50.1838Z" fill="#F4BA36"/>
<path d="M27.7558 50.1592C27.4803 47.968 30.3254 45.7661 34.1128 45.2352C37.9003 44.7044 41.194 46.0522 41.4663 48.2409C41.7418 50.4321 38.8967 52.6341 35.1061 53.1624C31.3186 53.6933 28.0281 52.348 27.7526 50.1567L27.7558 50.1592Z" fill="#F4BA37"/>
<path d="M27.9528 50.1314C27.6876 48.0057 30.4495 45.8636 34.1289 45.3522C37.8051 44.8383 41.0072 46.1454 41.2724 48.2711C41.5376 50.3968 38.7757 52.5388 35.0963 53.0502C31.4201 53.5641 28.218 52.2571 27.9528 50.1314Z" fill="#F4BA38"/>
<path d="M28.1499 50.1037C27.8917 48.041 30.5736 45.9614 34.1443 45.4638C37.715 44.9661 40.8198 46.2332 41.0779 48.2958C41.3392 50.361 38.6541 52.4381 35.0834 52.9358C31.5128 53.4334 28.408 52.1664 28.1499 50.1037Z" fill="#F4BB39"/>
<path d="M28.3469 50.0758C28.0959 48.0762 30.6978 46.059 34.1598 45.5751C37.6217 45.0911 40.6323 46.3207 40.8834 48.3203C41.1344 50.3199 38.5325 52.3371 35.0706 52.8211C31.6086 53.305 28.598 52.0754 28.3469 50.0758Z" fill="#F4BB3A"/>
<path d="M28.5415 50.0513C28.2975 48.1147 30.8194 46.16 34.1727 45.6898C37.5259 45.2196 40.4424 46.4116 40.6863 48.3482C40.9303 50.2848 38.4084 52.2396 35.0551 52.7098C31.7019 53.18 28.7854 51.9879 28.5415 50.0513Z" fill="#F4BB3B"/>
<path d="M28.7353 50.021C28.501 48.1443 30.9378 46.2584 34.1855 45.8044C37.4301 45.348 40.2524 46.5025 40.4899 48.3818C40.7242 50.2586 38.2874 52.1445 35.0429 52.6009C31.7951 53.0549 28.976 51.9028 28.7385 50.0235L28.7353 50.021Z" fill="#F4BC3C"/>
<path d="M28.9324 49.9931C28.7052 48.1794 31.0619 46.3559 34.201 45.9157C37.34 45.4755 40.0682 46.5925 40.2954 48.4063C40.5226 50.22 38.1633 52.0467 35.0268 52.4837C31.8903 52.9207 29.1596 51.8069 28.9324 49.9931Z" fill="#F4BC3E"/>
<path d="M29.1295 49.9653C28.9093 48.2146 31.1861 46.4535 34.2164 46.0271C37.2442 45.6038 39.8807 46.6801 40.1008 48.4308C40.321 50.1815 38.0442 51.9426 35.0139 52.369C31.9861 52.7923 29.3496 51.716 29.1295 49.9653Z" fill="#F4BC3F"/>
<path d="M29.3265 49.9376C29.1135 48.2499 31.3102 46.5513 34.2293 46.1418C37.1516 45.7348 39.6907 46.7711 39.9038 48.4587C40.1168 50.1464 37.9201 51.845 35.001 52.2545C32.0819 52.664 29.5396 51.6252 29.3265 49.9376Z" fill="#F4BD40"/>
<path d="M29.5211 49.9129C29.3151 48.2883 31.4286 46.6496 34.2422 46.2563C37.0558 45.863 39.5008 46.8618 39.7067 48.4865C39.9127 50.1111 37.796 51.7473 34.9856 52.1431C32.172 52.5363 29.727 51.5376 29.5211 49.9129Z" fill="#F4BD41"/>
<path d="M29.7181 49.8851C29.5218 48.3203 31.5528 46.7473 34.2608 46.3702C36.9657 45.9907 39.3165 46.952 39.5128 48.5168C39.7092 50.0816 37.6782 51.6547 34.9702 52.0317C32.2653 52.4112 29.9145 51.45 29.7181 49.8851Z" fill="#F4BD42"/>
<path d="M29.912 49.8548C29.7228 48.353 31.6737 46.8424 34.2731 46.4791C36.8724 46.1158 39.1291 47.0396 39.3151 48.5388C39.5044 50.0406 37.5534 51.5512 34.9541 51.9146C32.3579 52.2804 30.1012 51.3566 29.912 49.8548Z" fill="#F4BE43"/>
<path d="M30.1065 49.8303C29.9244 48.3916 31.7953 46.9434 34.2834 46.597C36.7715 46.2507 38.9366 47.1337 39.1187 48.5725C39.3009 50.0112 37.4299 51.4594 34.9418 51.8058C32.4537 52.1521 30.2887 51.2691 30.1097 49.8328L30.1065 49.8303Z" fill="#F4BE44"/>
<path d="M30.3036 49.8024C30.1285 48.4267 31.9194 47.0409 34.2988 46.7083C36.6782 46.3757 38.7491 47.2212 38.921 48.5944C39.0961 49.9701 37.3052 51.3559 34.9258 51.6885C32.5464 52.0212 30.4755 51.1756 30.3004 49.7999L30.3036 49.8024Z" fill="#F4BE45"/>
<path d="M30.5006 49.7745C30.3327 48.4619 32.0436 47.1385 34.3142 46.8196C36.5849 46.5007 38.5617 47.3088 38.7297 48.6214C38.8976 49.9341 37.1867 51.2575 34.9129 51.5738C32.6422 51.8927 30.6654 51.0847 30.5006 49.7745Z" fill="#F4BF46"/>
<path d="M30.6977 49.7468C30.5426 48.4965 32.1677 47.2363 34.3329 46.9336C36.498 46.631 38.3774 47.399 38.5358 48.6519C38.6909 49.9022 37.0658 51.1625 34.9032 51.4619C32.738 51.7645 30.8586 50.9965 30.7003 49.7436L30.6977 49.7468Z" fill="#F4BF47"/>
<path d="M30.8923 49.7223C30.7442 48.535 32.2893 47.3372 34.3432 47.0515C36.3997 46.7626 38.1849 47.4931 38.3362 48.6829C38.4874 49.8728 36.9391 51.0681 34.8852 51.3537C32.8288 51.6426 31.0403 50.9096 30.8923 49.7223Z" fill="#F4BF48"/>
<path d="M31.0893 49.6945C30.9483 48.5702 32.4109 47.438 34.3586 47.1628C36.3039 46.8909 38.0007 47.5832 38.1416 48.7075C38.2826 49.8317 36.8175 50.9672 34.8723 51.2391C32.9271 51.511 31.2303 50.8187 31.0893 49.6945Z" fill="#F4C049"/>
<path d="M31.2832 49.6641C31.1493 48.6029 32.5319 47.5331 34.3709 47.2717C36.2106 47.016 37.8101 47.6683 37.9439 48.7295C38.0778 49.7908 36.6927 50.8637 34.8562 51.1219C33.0165 51.3776 31.4171 50.7254 31.2832 49.6641Z" fill="#F4C04A"/>
<path d="M31.4802 49.6363C31.356 48.6349 32.656 47.6307 34.387 47.3888C36.118 47.1468 37.6233 47.7616 37.7475 48.763C37.8718 49.7645 36.5718 50.7686 34.844 51.013C33.113 51.255 31.6077 50.6402 31.4834 49.6388L31.4802 49.6363Z" fill="#F4C04B"/>
<path d="M31.6748 49.6116C31.5576 48.6732 32.7744 47.7291 34.3999 47.5033C36.0222 47.2751 37.4333 47.8524 37.5505 48.7908C37.6676 49.7291 36.4508 50.6733 34.8254 50.8991C33.2031 51.1273 31.7919 50.55 31.6748 49.6116Z" fill="#F4C14C"/>
<path d="M31.8718 49.584C31.7618 48.7086 32.8986 47.8269 34.4153 47.6149C35.9321 47.4029 37.2459 47.9401 37.3559 48.8155C37.466 49.6908 36.3292 50.5726 34.8125 50.7846C33.2957 50.9966 31.9819 50.4593 31.8718 49.584Z" fill="#F4C14D"/>
<path d="M32.0689 49.5561C31.9659 48.7438 33.0227 47.9245 34.4307 47.7262C35.8362 47.5312 37.0616 48.0302 37.1646 48.8425C37.2676 49.6548 36.2108 50.4742 34.8027 50.6724C33.3972 50.8675 32.1751 50.3709 32.0689 49.5561Z" fill="#F4C14E"/>
<path d="M32.266 49.5284C32.1701 48.7791 33.1468 48.0222 34.4436 47.8409C35.7404 47.6596 36.8716 48.1211 36.965 48.8736C37.0609 49.6229 36.0841 50.3798 34.7873 50.5611C33.4905 50.7424 32.3593 50.2809 32.266 49.5284Z" fill="#F4C14F"/>
<path d="M32.4573 49.5011C32.371 48.8117 33.2652 48.1204 34.4565 47.9553C35.6478 47.7903 36.6817 48.2118 36.7679 48.9012C36.8542 49.5907 35.96 50.282 34.7687 50.4471C33.5774 50.6121 32.5436 50.1906 32.4573 49.5011Z" fill="#F4C250"/>
<path d="M32.6544 49.4735C32.5752 48.847 33.3894 48.2182 34.4719 48.0669C35.5545 47.9155 36.4942 48.2996 36.5734 48.926C36.6526 49.5524 35.8384 50.1813 34.7558 50.3326C33.6732 50.4839 32.7335 50.0999 32.6544 49.4735Z" fill="#F4C251"/>
<path d="M32.8515 49.4456C32.7794 48.8822 33.5135 48.3157 34.4874 48.1781C35.4613 48.0406 36.3068 48.3871 36.3789 48.9505C36.451 49.5138 35.7168 50.0803 34.7455 50.2147C33.7716 50.3522 32.9261 50.0057 32.854 49.4423L32.8515 49.4456Z" fill="#F4C252"/>
<path d="M33.0485 49.4178C32.9867 48.9199 33.6376 48.4134 34.5003 48.2928C35.3629 48.1722 36.1168 48.4779 36.1818 48.9783C36.2436 49.4761 35.5927 49.9827 34.73 50.1033C33.8674 50.2239 33.1103 49.9156 33.0485 49.4178Z" fill="#F4C353"/>
<path d="M33.243 49.3931C33.1909 48.9551 33.7592 48.5142 34.5164 48.4098C35.276 48.3022 35.9332 48.5737 35.9879 49.0085C36.0458 49.4458 35.4717 49.8875 34.7178 49.9943C33.9582 50.1019 33.3009 49.8305 33.2462 49.3956L33.243 49.3931Z" fill="#F4C354"/>
<path d="M33.4401 49.3655C33.3918 48.988 33.8802 48.6095 34.5318 48.5214C35.1802 48.4307 35.7458 48.6615 35.7909 49.0365C35.8391 49.414 35.3508 49.7925 34.6992 49.8806C34.0508 49.9712 33.4852 49.7405 33.4401 49.3655Z" fill="#F4C355"/>
<path d="M33.634 49.3351C33.596 49.0232 34.0018 48.7103 34.5415 48.6334C35.0844 48.559 35.5526 48.7498 35.5938 49.0642C35.6318 49.3762 35.226 49.689 34.6863 49.7659C34.1466 49.8428 33.6751 49.6496 33.6371 49.3376L33.634 49.3351Z" fill="#F4C456"/>
<path d="M33.8285 49.3106C33.7976 49.0617 34.1234 48.8113 34.5544 48.7481C34.9886 48.6875 35.3627 48.8407 35.3967 49.0921C35.4308 49.3436 35.105 49.594 34.6709 49.6546C34.2367 49.7153 33.8626 49.5621 33.8285 49.3106Z" fill="#F4C457"/>
<path d="M34.0255 49.2829C34.0017 49.097 34.2443 48.9065 34.5698 48.8596C34.8927 48.8158 35.1752 48.9284 35.2022 49.1168C35.226 49.3026 34.9834 49.4931 34.658 49.5401C34.335 49.5838 34.0525 49.4713 34.0255 49.2829Z" fill="#F4C458"/>
<path d="M34.2226 49.2551C34.2084 49.129 34.3685 49.0041 34.5884 48.9734C34.8052 48.9402 34.9942 49.021 35.0109 49.1438C35.0251 49.2699 34.865 49.3947 34.6483 49.4279C34.4315 49.4611 34.2425 49.3804 34.2258 49.2576L34.2226 49.2551Z" fill="#F4C559"/>
<path d="M34.4197 49.2271C34.4126 49.1641 34.4926 49.1017 34.6013 49.0879C34.71 49.0742 34.8042 49.1117 34.8113 49.1747C34.8184 49.2378 34.7383 49.3002 34.6296 49.3139C34.5209 49.3277 34.4268 49.2902 34.4197 49.2271Z" fill="#F4C55A"/>
</g>
<path d="M30.3074 40.2932C28.5951 41.0879 26.9161 42.0237 25.4107 43.0595C25.0044 48.0367 25.6301 52.9793 27.2745 57.6682C28.9851 58.2512 30.8424 58.6937 32.6919 58.9889C30.2183 53.0679 29.408 46.6898 30.3106 40.2957L30.3074 40.2932Z" fill="black"/>
<path d="M22.1239 45.7706C20.3921 47.5529 19.3675 49.458 19.6005 51.2971C19.8341 53.142 21.2983 54.7065 23.4232 55.955C22.4936 52.6433 22.0567 49.2228 22.1239 45.7706Z" fill="black"/>
<path d="M48.1765 55.0708C49.5885 52.8959 50.0007 50.086 49.6241 47.0996C49.2463 44.1018 48.1468 41.4974 46.2309 39.7866C45.7493 44.997 46.4071 50.1739 48.1733 55.0683L48.1765 55.0708Z" fill="black"/>
<path d="M41.9458 59.0548C42.5973 58.9143 43.2042 58.7388 43.7634 58.5258C40.7873 51.9796 39.8747 44.821 41.1112 37.6815C40.2177 37.6055 39.2462 37.6352 38.2037 37.7815C37.1809 37.9224 36.0527 38.1841 34.8687 38.5429C33.6309 45.6971 34.5416 52.8646 37.528 59.4241C38.3126 59.4354 39.0673 59.4127 39.7781 59.3606C40.5009 59.2606 41.2236 59.1605 41.9432 59.058L41.9458 59.0548Z" fill="black"/>
<path style="mix-blend-mode:screen" opacity="0.77" d="M48.1048 47.315C48.0636 46.9743 48.0058 46.6155 47.9315 46.2384C47.8174 47.3135 46.4345 48.9471 39.7305 49.8842C36.3429 50.3588 31.4774 50.6684 27.623 50.6556C24.2448 50.6465 21.9593 50.3947 21.2096 49.9722C21.1085 50.3628 21.0779 50.7357 21.123 51.0845C21.3714 53.0612 24.0729 55.0506 28.3439 56.394C32.3535 57.6572 37.3252 58.1885 40.7128 57.714C48.151 56.6754 48.5348 50.7508 48.1017 47.3124L48.1048 47.315Z" fill="url(#paint5_linear_25_3625)"/>
<path opacity="0.71" d="M59.504 39.4986C57.8095 38.6724 49.1808 34.1568 44.3785 30.9015C39.7175 27.7416 31.963 22.3832 25.6164 23.7896C19.4993 25.1466 21.317 29.5957 22.5032 31.9654C23.7003 34.354 26.2877 37.7527 27.7446 40.3875C29.9086 44.3046 33.1939 43.4885 38.2763 42.7853C49.7416 41.2058 54.2843 41.431 57.6719 41.3953C59.8337 41.3721 59.504 39.4986 59.504 39.4986Z" fill="url(#paint6_linear_25_3625)"/>
<path d="M59.3807 40.8017C59.7639 40.2099 59.6439 39.5043 59.6407 39.4757L59.624 39.379L59.5502 39.3418C57.7946 38.4884 49.2359 34.0018 44.4431 30.7539L44.1885 30.5798C40.1748 27.8612 33.8112 23.5447 28.0847 23.3965C28.0758 23.3947 28.0669 23.3929 28.0555 23.3944C27.2149 23.3756 26.3871 23.4453 25.5831 23.6225C23.2815 24.1312 21.8633 25.1416 21.362 26.6173C21.1094 27.3641 21.1126 28.1657 21.2562 28.9526C21.462 30.0861 21.9514 31.1867 22.3851 32.0502C23.0324 33.343 24.0987 34.9548 25.1323 36.5097C26.0303 37.8638 26.9563 39.2609 27.6271 40.478C29.6814 44.194 32.6653 43.7675 37.1793 43.1187C37.5417 43.0642 37.9161 43.014 38.2988 42.9598C40.6616 42.6351 42.7226 42.3863 44.5408 42.1973C50.4079 41.5838 53.718 41.5812 56.3058 41.5797C56.7903 41.5795 57.2456 41.5772 57.6805 41.5745C58.486 41.5657 59.0604 41.3072 59.3839 40.8042L59.3807 40.8017ZM44.0599 30.8808L44.3145 31.055C48.9029 34.163 56.9228 38.398 59.176 39.5228C59.3051 39.5878 59.3874 39.7518 59.3718 39.9223C59.3642 39.9843 59.3573 40.052 59.3422 40.1237C59.3011 40.3003 59.1557 40.4001 59.0056 40.3551C58.0927 40.081 56.9877 39.6714 55.7306 39.1996C52.1634 37.8718 47.7241 36.2183 43.4835 36.048C43.3786 36.0438 43.2807 36.0503 43.1955 36.0669C43.0849 36.0896 42.971 36.0314 42.9003 35.9182C41.7664 34.1174 40.3902 31.0655 41.3535 29.4152C41.4334 29.2743 41.5916 29.2369 41.7259 29.3216C42.568 29.8691 43.3534 30.4034 44.0631 30.8833L44.0599 30.8808ZM37.3106 38.3536C36.8914 38.5984 36.3361 38.4593 35.7828 37.9771C35.1136 37.3932 34.4335 36.247 34.5105 35.101C34.5236 34.9337 34.5272 34.7589 34.525 34.5848C34.5196 34.4082 34.625 34.2612 34.768 34.2431C35.2136 34.181 35.7375 34.1439 36.2874 34.1064C37.8711 33.9993 39.6417 33.8772 40.8785 33.1107C41.0277 33.0192 41.2155 33.1146 41.2895 33.3087C41.6522 34.2887 42.1451 35.2406 42.6104 35.9984C42.6959 36.1388 42.6961 36.3218 42.6086 36.4462C42.5635 36.51 42.5274 36.5756 42.5002 36.643C42.3944 36.8889 42.3484 37.2027 42.3534 37.5566C42.3582 37.7536 42.2281 37.9125 42.0672 37.9008C40.9817 37.8462 38.3048 37.7776 37.3138 38.3561L37.3106 38.3536ZM29.8623 27.8245C29.7749 26.429 29.4106 25.176 28.991 24.3601C28.8609 24.1063 29.0117 23.7966 29.2527 23.8243C32.2493 24.1809 35.3759 25.5644 38.1976 27.152C38.3433 27.2353 38.4187 27.4408 38.3662 27.6189C37.8076 29.5145 37.3114 29.7719 35.5934 29.3555C34.9847 29.2057 34.2154 29.2273 33.3997 29.249C32.1064 29.2817 30.7757 29.3161 30.1821 28.6559C29.9929 28.4444 29.8902 28.1755 29.868 27.8238L29.8623 27.8245ZM33.4155 29.5958C34.214 29.5762 34.9719 29.556 35.5507 29.6979C37.3819 30.1408 38.0115 29.8055 38.6138 27.8085C38.6707 27.6182 38.8499 27.5345 39.0052 27.6254C39.667 28.0154 40.3092 28.4109 40.9221 28.8042C41.0844 28.9058 41.1382 29.1518 41.0507 29.3285C40.7116 30.002 40.6881 30.8506 40.8497 31.7456C40.883 31.939 40.9278 32.1309 40.979 32.3279C41.0199 32.4855 40.9693 32.6546 40.8505 32.7335C39.6609 33.5319 37.8585 33.655 36.2519 33.765C35.7249 33.7997 35.2239 33.8339 34.7808 33.8928C34.6206 33.913 34.4684 33.7724 34.4408 33.5783C34.2616 32.3717 33.8152 31.1378 33.1964 30.1756C33.0421 29.9394 33.1586 29.6079 33.3958 29.6012C33.3958 29.6012 33.4047 29.6029 33.4104 29.6022L33.4155 29.5958ZM21.6223 26.7646C22.0862 25.3953 23.4423 24.4509 25.6472 23.9602C26.4258 23.7892 27.2275 23.7198 28.0477 23.7383C28.0681 23.7386 28.0884 23.7389 28.1094 23.745C28.5693 23.8874 29.4328 25.5539 29.5781 27.8255C29.5898 28.0071 29.6199 28.1719 29.6691 28.3255C29.7011 28.429 29.6962 28.54 29.6537 28.6268C29.4616 29.0085 29.047 28.9853 28.3532 28.9044C27.8419 28.847 27.2632 28.7835 26.6664 28.9461C26.3093 29.0464 25.8661 29.0792 25.4033 29.1173C24.3219 29.2016 23.0282 29.307 22.4206 30.3544C22.2919 30.577 22.0031 30.5117 21.9074 30.2536C21.4847 29.101 21.2526 27.8633 21.6273 26.7581L21.6223 26.7646ZM25.3469 36.3024C24.3196 34.7525 23.2604 33.1514 22.6214 31.8809C22.5646 31.7631 22.5046 31.6428 22.4447 31.5225C22.4032 31.4376 22.3923 31.3402 22.4106 31.2449C22.7108 29.6842 24.0936 29.5705 25.4369 29.4676C25.9144 29.4305 26.3657 29.3938 26.7426 29.2881C27.2968 29.1338 27.8552 29.1969 28.3429 29.2515C29.0304 29.3274 29.6358 29.3962 29.9083 28.8009C29.9325 28.8356 29.9624 28.8696 29.9892 28.9011C30.4771 29.4469 31.3337 29.5827 32.2761 29.6031C32.3517 29.6052 32.4224 29.6399 32.4816 29.7021C33.6115 30.9775 34.3582 33.2313 34.232 35.049C34.2177 35.2571 34.2269 35.4681 34.2526 35.6712C34.281 35.8972 34.1401 36.0894 33.9544 36.0634C33.5334 36.0091 32.9872 36.0287 32.3368 36.0498C31.5682 36.0772 30.6984 36.1087 29.8011 36.0244C27.5868 35.8131 26.484 36.0163 26.1264 36.7067C26.1264 36.7067 26.1264 36.7067 26.1239 36.7099C26.0168 36.9181 25.7745 36.9313 25.6388 36.7305C25.5438 36.5827 25.4463 36.4381 25.3488 36.2935L25.3469 36.3024ZM27.8589 40.2947C27.4655 39.583 26.9874 38.8152 26.4782 38.0281C26.4642 38.0066 26.4527 37.9819 26.4412 37.9572C26.2593 37.5007 26.2327 37.1611 26.3614 36.9124C26.7456 36.1751 28.5037 36.2523 29.7915 36.3773C30.7034 36.4626 31.5821 36.4329 32.3596 36.4073C33.218 36.3773 33.9777 36.3482 34.3627 36.5204C34.439 36.5543 34.4995 36.6281 34.5353 36.7136C34.8071 37.3506 35.22 37.9 35.6255 38.2556C35.7446 38.3597 35.8649 38.4491 35.9807 38.5245C36.1462 38.6286 36.2038 38.8829 36.1017 39.0585C35.6902 39.7847 35.6136 40.8319 35.7912 41.8178C35.8348 42.0506 35.8899 42.2819 35.9608 42.4997C36.0285 42.7149 35.9208 42.9435 35.7345 42.9642C32.0926 43.4476 29.5874 43.4357 27.8531 40.2954L27.8589 40.2947ZM38.2512 42.6142C37.8685 42.6684 37.4915 42.7218 37.1317 42.7731C36.9633 42.7973 36.7948 42.8215 36.6321 42.8449C36.498 42.8648 36.3688 42.7736 36.3138 42.6207C35.8458 41.3489 35.8769 39.6652 36.6235 38.8996C36.6781 38.8433 36.7499 38.811 36.8198 38.8138C37.0449 38.8289 37.2598 38.7785 37.4503 38.6672C38.5068 38.0514 41.7873 38.2239 42.4244 38.2654C42.4283 38.2998 42.4347 38.331 42.4386 38.3654C42.5906 39.2005 42.9201 40.1179 43.3052 40.8597C43.3862 41.0122 43.4889 41.2026 43.6112 41.3877C43.7585 41.6132 43.6585 41.9368 43.4322 41.9625C41.8791 42.1355 40.1653 42.3491 38.2512 42.6142ZM57.664 41.2221C57.2266 41.2279 56.7739 41.227 56.2926 41.2297C53.7105 41.2305 50.3978 41.2364 44.5447 41.8452C44.5275 41.8473 44.5072 41.847 44.4894 41.8434C44.3056 41.8085 43.9656 41.494 43.544 40.6871C42.8789 39.4169 42.4012 37.6203 42.7522 36.8204C42.8859 36.5129 43.1286 36.3747 43.4929 36.3897C47.6954 36.5562 52.1137 38.2036 55.6656 39.5246C56.6167 39.881 57.4825 40.2017 58.2421 40.4545C58.5493 40.5551 58.5572 41.0889 58.2514 41.1566C58.076 41.1962 57.8783 41.2182 57.6666 41.2188L57.664 41.2221Z" fill="#A67C52"/>
<path opacity="0.71" d="M61.239 52.2407C59.7887 53.4817 52.4773 60.1102 48.5827 64.5109C44.8016 68.7869 38.5364 75.998 32.0527 76.2883C25.8055 76.5662 26.5319 71.7782 27.13 69.1773C27.7338 66.5495 29.4464 62.5843 30.2481 59.6525C31.4349 55.2945 34.8047 55.2291 39.8966 54.5857C51.3762 53.1323 55.7269 51.7282 59.0179 50.8852C61.1185 50.3437 61.2339 52.2471 61.2339 52.2471L61.239 52.2407Z" fill="url(#paint7_linear_25_3625)"/>
<path d="M60.8194 51.012C61.3282 51.4854 61.3769 52.2028 61.3802 52.2315L61.3854 52.3296L61.3194 52.3874C59.8157 53.6701 52.5653 60.2472 48.6789 64.644L48.4732 64.8792C45.2171 68.5599 40.0536 74.3968 34.5397 76.035C34.5314 76.039 34.5231 76.0429 34.5149 76.0469C33.7058 76.2828 32.8871 76.4327 32.067 76.4666C29.7171 76.5717 28.1082 75.9642 27.2771 74.6627C26.8609 74.0062 26.6746 73.2277 26.6283 72.4286C26.5623 71.2745 26.7817 70.0785 27.0003 69.1326C27.3249 67.7112 27.9852 65.8696 28.6241 64.0946C29.1787 62.5512 29.7504 60.9533 30.1177 59.602C31.2425 55.467 34.2335 55.1036 38.7617 54.5547C39.1253 54.5116 39.5004 54.4672 39.8837 54.4187C42.2466 54.1202 44.3049 53.8223 46.1122 53.5358C51.9406 52.6047 55.1515 51.7456 57.6582 51.0744C58.1285 50.9481 58.5708 50.8312 58.991 50.7229C59.7746 50.5193 60.3896 50.6217 60.8207 51.0235L60.8194 51.012ZM48.2783 64.6161L48.4839 64.3809C52.2059 60.1734 58.9947 53.9801 60.9155 52.3047C61.0266 52.2093 61.067 52.0269 61.0115 51.8683C60.9904 51.81 60.9655 51.7434 60.9355 51.6832C60.8564 51.5217 60.6904 51.4643 60.5544 51.5454C59.735 52.0499 58.7588 52.7342 57.6486 53.5167C54.5034 55.7333 50.5833 58.4895 46.5134 59.7593C46.4123 59.7895 46.3157 59.8076 46.2324 59.8152C46.1199 59.8207 46.0253 59.9082 45.9816 60.0358C45.3031 62.0773 44.6807 65.3904 45.9989 66.7408C46.1103 66.8546 46.2725 66.8515 46.381 66.7332C47.0685 65.9837 47.7038 65.2612 48.2808 64.6129L48.2783 64.6161ZM39.9958 59.1298C39.5347 59.0021 39.0264 59.2814 38.602 59.8929C38.0907 60.6347 37.6959 61.9225 38.0383 63.0068C38.0882 63.1662 38.1329 63.332 38.1726 63.5042C38.2123 63.6765 38.3441 63.7906 38.4871 63.7725C38.9366 63.7186 39.4502 63.616 39.9924 63.5097C41.5478 63.2027 43.2964 62.8597 44.6723 63.2787C44.8377 63.3305 45.0016 63.1877 45.0248 62.9814C45.1452 61.9374 45.4043 60.8875 45.6796 60.0332C45.729 59.8788 45.6854 59.6983 45.5727 59.5992C45.5148 59.5484 45.4651 59.4937 45.4212 59.4382C45.2581 59.2263 45.1438 58.9327 45.0676 58.5907C45.0228 58.3987 44.8643 58.2793 44.708 58.3339C43.6696 58.6714 41.0893 59.4363 39.9958 59.1298ZM35.2286 71.275C35.4672 72.6485 35.4114 73.9575 35.1909 74.8601C35.1239 75.1417 35.3418 75.4019 35.5667 75.3124C38.388 74.1888 41.0934 72.0336 43.4602 69.7584C43.5834 69.6411 43.6079 69.42 43.5148 69.2633C42.5324 67.5711 41.9911 67.4535 40.4213 68.3028C39.866 68.6025 39.1148 68.7847 38.3184 68.9783C37.0586 69.2827 35.7595 69.598 35.3379 70.3894C35.2041 70.6446 35.167 70.9341 35.2261 71.2783L35.2286 71.275ZM38.2619 68.6309C39.0443 68.4419 39.7784 68.262 40.3063 67.9773C41.9797 67.0684 42.6654 67.2317 43.716 69.0141C43.816 69.1816 44.0087 69.2183 44.1364 69.0888C44.6868 68.5398 45.2168 67.9904 45.7215 67.4471C45.8535 67.3055 45.8487 67.0562 45.7213 66.9037C45.2372 66.3401 45.0147 65.5225 44.9618 64.6138C44.9513 64.4175 44.9491 64.2173 44.9526 64.0163C44.9543 63.8505 44.865 63.7019 44.7378 63.654C43.4006 63.1924 41.6208 63.5422 40.0393 63.8496C39.5225 63.9497 39.0261 64.0502 38.5856 64.1059C38.4254 64.1262 38.3118 64.3032 38.3312 64.5013C38.4418 65.7166 38.2938 67.0314 37.9203 68.1219C37.8285 68.3892 38.0153 68.6824 38.2498 68.6266C38.2498 68.6266 38.2581 68.6226 38.2638 68.6219L38.2619 68.6309ZM27.4961 74.4432C28.2616 75.6513 29.7986 76.2127 32.0505 76.1142C32.8472 76.0774 33.6405 75.9336 34.4273 75.7063C34.447 75.7009 34.4667 75.6955 34.4857 75.6844C34.9005 75.4257 35.3466 73.5879 34.9578 71.3441C34.9264 71.1679 34.916 70.9978 34.9297 70.8362C34.9353 70.7309 34.9059 70.6242 34.8422 70.548C34.5683 70.228 34.1711 70.3596 33.5178 70.6136C33.0343 70.8025 32.4897 71.0167 31.871 71.0105C31.5022 71.0077 31.0675 71.0888 30.6073 71.176C29.5387 71.375 28.2655 71.6114 27.4319 70.7519C27.2549 70.5709 26.9887 70.7062 26.9592 70.986C26.8187 72.2127 26.8817 73.4689 27.5018 74.4425L27.4961 74.4432ZM28.883 64.2305C28.2493 65.999 27.5934 67.8284 27.2719 69.2261C27.2428 69.3548 27.2113 69.4866 27.1854 69.6177C27.1671 69.7131 27.1781 69.8105 27.2163 69.8928C27.8683 71.3303 29.2382 71.0759 30.5622 70.8272C31.0339 70.7385 31.4775 70.6592 31.8692 70.6591C32.444 70.6621 32.9663 70.4566 33.4277 70.2762C34.0752 70.023 34.6477 69.7995 35.0497 70.3038C35.0655 70.264 35.0871 70.2235 35.1061 70.1862C35.4529 69.5292 36.2491 69.1787 37.1592 68.9126C37.2322 68.8917 37.2932 68.8404 37.3338 68.7627C38.1313 67.2379 38.3305 64.8559 37.7848 63.126C37.7216 62.9248 37.6812 62.7207 37.6612 62.5169C37.6386 62.2901 37.4533 62.1392 37.276 62.2139C36.8795 62.3773 36.345 62.5001 35.7088 62.6473C34.9594 62.8205 34.1083 63.0181 33.2562 63.335C31.1566 64.1175 30.0466 64.2055 29.5351 63.6308C29.5351 63.6308 29.5351 63.6308 29.5319 63.6283C29.3791 63.4558 29.1407 63.5033 29.059 63.7316C28.9995 63.899 28.94 64.0663 28.883 64.2305ZM30.3849 59.7077C30.1693 60.4993 29.8845 61.3722 29.5788 62.2652C29.5699 62.2896 29.5643 62.3165 29.5586 62.3433C29.4887 62.8317 29.5414 63.1708 29.7242 63.3773C30.2694 63.9943 31.9529 63.459 33.1724 63.0027C34.0385 62.6811 34.8953 62.4827 35.6529 62.3056C36.4925 62.1095 37.2337 61.9403 37.569 61.6712C37.6356 61.6192 37.6756 61.5357 37.6939 61.4404C37.8079 60.7518 38.0784 60.1131 38.3931 59.6607C38.4857 59.5299 38.5796 59.4105 38.6723 59.3058C38.8069 59.1609 38.8065 58.8994 38.6657 58.7573C38.0996 58.1605 37.7789 57.1664 37.7239 56.1621C37.7089 55.9257 37.7111 55.6871 37.7285 55.4553C37.7435 55.2268 37.5829 55.0378 37.3999 55.0609C33.7579 55.5444 31.3339 56.2023 30.3811 59.6995L30.3849 59.7077ZM39.916 54.7576C39.5327 54.806 39.1576 54.8505 38.7914 54.8967C38.6223 54.9152 38.4539 54.9394 38.2905 54.9571C38.1589 54.9738 38.0535 55.0946 38.0341 55.2569C37.8759 56.6107 38.2968 58.2373 39.1992 58.78C39.2648 58.8211 39.3417 58.8347 39.4116 58.8113C39.6271 58.7405 39.8464 58.7302 40.0563 58.7909C41.2242 59.1141 44.3617 58.0929 44.9712 57.888C44.9673 57.8536 44.9634 57.8192 44.9627 57.7873C44.9138 56.9391 45.0216 55.9636 45.2226 55.1449C45.2643 54.9739 45.3218 54.7633 45.3997 54.5529C45.4896 54.2945 45.3181 54.0081 45.0924 54.0396C43.5496 54.2781 41.8358 54.5179 39.9192 54.7601L39.916 54.7576ZM59.0512 51.0524C58.6311 51.1607 58.1888 51.2776 57.7184 51.4039C55.2118 52.0751 52.0009 52.9342 46.1896 53.8632C46.1724 53.8653 46.1527 53.8707 46.1362 53.8786C45.9685 53.9608 45.7109 54.3537 45.4891 55.2449C45.1397 56.652 45.0968 58.5144 45.6236 59.2005C45.8243 59.4628 46.0934 59.5334 46.441 59.4256C50.4747 58.169 54.3725 55.4214 57.5076 53.2177C58.3492 52.6261 59.1101 52.0911 59.7878 51.6422C60.0635 51.4621 59.9444 50.9453 59.6329 50.9615C59.4536 50.9667 59.2597 50.997 59.0512 51.0524Z" fill="#A67C52"/>
<path style="mix-blend-mode:screen" opacity="0.69" d="M69.3681 49.3737C69.2664 48.5729 69.5618 47.5882 70.533 46.4978C71.2648 45.6788 72.1388 45.0656 72.9929 44.7659C73.4422 44.6074 73.8674 44.5449 74.2483 44.5782C74.2822 44.2601 74.2836 43.9373 74.2418 43.6171C74.2109 43.3682 74.1577 43.1279 74.0824 42.8962C73.0367 43.5049 71.6342 43.9844 70.0602 44.2036C67.998 44.4932 66.108 44.2758 64.8717 43.7055C64.8437 44.1013 64.852 44.51 64.9041 44.9219C65.242 47.5906 67.2116 49.5474 69.379 49.445C69.3764 49.4221 69.3707 49.3967 69.3681 49.3737Z" fill="url(#paint8_linear_25_3625)"/>
<path d="M48.0303 46.807L47.8954 46.7165L47.3099 46.4127L47.6371 45.8396L47.7903 45.8086L47.628 45.6547L47.8167 45.6047L47.2917 45.3223L47.7913 45.2243L47.5018 45.0749L47.6834 44.4969L48.395 44.5814L48.0779 44.2901L48.7119 44.303L47.9152 43.8748L48.1534 43.31L48.6667 43.4631L48.5076 43.364L48.7535 42.8157L48.254 42.193L49.3163 42.4801L49.2208 42.3789L49.55 41.8752L49.6982 41.9291L49.6465 41.8049L49.9493 41.8654L49.6773 41.5888L49.8482 41.483L49.6176 41.2128L49.9596 40.7191L50.1053 40.7763L49.7219 39.9471L50.1831 40.1271L50.1475 40.0938L50.5346 39.6148L50.7281 39.7357L50.9254 39.5044L50.9471 39.5162L50.8835 39.1319L51.0153 39.2199L50.5457 38.1662L52.1752 39.3174L52.0241 39.0576L52.4902 38.6616L52.4966 38.6666L52.4481 37.7718L52.9568 38.1928L52.7081 37.736L53.1812 37.3508L53.3837 37.5257L53.2542 37.2776L53.4615 36.4377L53.9638 36.8799L54.2693 36.1904L54.7822 36.9073L54.3303 35.7526L55.4415 36.4491L55.3843 36.0698L55.9346 35.8289L55.9722 35.8793L56.0457 35.3208L56.4432 35.3723L56.7989 35.1559L57.0566 35.719L57.221 35.5297L57.347 35.5923L57.6461 34.95L57.8032 35.3922L58.1833 35.3151L58.3118 35.7348L58.6004 35.6954L58.6509 35.8867L58.7653 35.0207L59.0373 35.3496L59.5988 35.363L59.9925 34.6593L60.1333 35.6529L60.2759 34.9083L61.0004 34.7209L61.0677 35.4999L61.1146 35.3487L62.0541 34.3901L61.8553 35.7695L62.0468 35.8209L62.107 35.7115L62.392 35.7947L62.5461 35.5398L62.9812 35.6679L63.3419 35.3666L63.3751 35.8681L63.4411 35.7842L63.9743 36.0626L63.8484 36.4389L64.6214 35.4955L64.5665 36.6329L64.8753 36.8758L65.2728 36.5669L65.384 36.9103L66.0742 36.7534L65.5283 37.7552L65.7387 37.6647L66.0521 38.0523L66.0781 38.0519L66.7262 38.1647L66.4367 38.8406L66.3512 39.0607L66.4022 39.1269L66.8692 38.9197L67.2088 39.4115L66.7975 39.8558L66.7613 39.9214L68.0488 39.8371L67.2751 40.3621L67.4684 40.3261L67.0201 40.7256L67.1886 40.7014L67.391 41.2629L66.9597 41.5295L66.9578 41.5385L67.6767 41.404L67.888 41.9673L67.4332 42.2572L67.4537 42.336L67.5294 42.3642L67.8607 42.4212L68.7789 42.433L68.7824 43.0835L68.1612 43.4672L68.0862 43.497L68.2903 43.5322L68.3313 44.1286L68.0987 44.2016L68.1282 44.3606L68.3005 44.3708L68.3548 44.9567L69.4321 45.0676L68.7579 45.7544L68.4751 45.8715L68.5276 46.0799L68.873 46.1583L68.7579 46.1932L68.9773 46.2091L69.0139 46.8176L68.6312 46.8979L69.0478 46.9906L68.8221 47.3824L69.2921 47.8984L68.5396 48.0952L68.6083 48.1127L68.5628 48.7142L68.4198 48.7322L68.3682 49.1253L68.4439 49.1535L68.3482 49.7468L68.2446 49.7541L68.7263 50.039L68.3614 50.0706L68.1842 50.6364L67.7022 50.5811L67.6851 50.6355L67.9436 50.8702L67.6456 51.3932L67.1144 51.2365L67.8934 52.1L67.345 51.9194L67.4743 52.0367L67.2605 52.3805L67.914 53.1087L67.0991 52.8543L67.3082 53.1911L66.8305 53.0713L66.6051 53.3119L66.6994 53.4278L66.1425 53.4546L66.2757 53.6587L65.8262 54.0729L65.4881 53.8018L65.989 54.5405L65.0537 54.557L64.671 54.1462L64.3312 54.4013L64.5407 54.9996L64.0051 55.294L63.9535 55.222L63.6396 55.3721L63.5842 55.2919L63.3567 55.3846L63.3855 55.5117L62.8085 55.7212L62.6975 55.4824L62.4427 55.9767L62.0651 55.2252L61.9757 55.4109L61.7213 54.9548L61.4843 55.0138L61.4188 55.4638L61.3578 56.2881L61.0005 56.3362L61.0006 56.3623L60.525 56.3905L60.5112 56.5259L60.4214 56.3977L60.3921 56.3956L60.3825 56.3358L60.1448 55.9764L60.0989 56.3164L59.4929 56.3203L59.4878 56.2745L59.147 56.2885L59.1156 56.1384L58.6266 56.0985L58.6186 55.4602L58.5048 55.4542L58.1667 56.3688L57.8316 55.5567L57.6235 56.234L56.8165 56.5655L56.9325 55.4814L56.8428 55.4579L56.7026 55.6558L56.2477 55.4808L55.8253 55.3365L55.9212 54.9001L55.7442 55.1056L55.6786 54.6257L55.1871 55.0278L54.572 56.1371L54.4231 54.8395L54.4454 54.4182L54.4346 54.4254L54.1197 54.3083L53.7222 54.2306L53.5388 54.4834L53.0081 54.2017L53.1069 53.9451L52.8476 54.0389L52.5195 54.4494L52.0212 54.1462L51.9594 53.6484L52.2174 53.1305L51.8062 52.8279L51.1165 53.3771L50.8104 53.2094L50.304 53.0409L50.9356 51.9498L50.9477 51.9279L51.0033 51.7262L49.7401 52.6704L49.8809 52.0395L49.2117 52.2025L49.7288 51.5124L49.507 51.1655L49.3311 51.2778L49.0004 50.8401L48.8771 50.9051L48.5773 50.2252L49.0262 49.8575L49.0326 49.8363L48.9506 49.8554L48.6744 49.3353L48.7532 49.2614L48.309 49.4134L48.1661 49.1234L47.46 49.294L47.5809 48.5377L47.664 48.4516L47.3413 48.2396L47.9716 47.91L47.9639 47.8674L47.6022 47.9015L47.4857 47.4338L46.5837 47.1787L48.0303 46.807Z" fill="#CE9115"/>
<path d="M48.9147 47.2155L48.7001 47.0101L48.1479 46.7951L48.9836 46.5384L47.6365 46.2466L48.3636 46.0297L48.8319 45.834L48.621 45.5584L47.781 45.1327L48.4968 45.0219L49.4633 45.0248L48.9305 44.6213L49.446 44.5358L48.039 43.7633L48.578 43.6807L49.3284 43.7225L48.4817 43.0564L49.0507 43.0339L48.5749 42.4925L48.8405 42.3253L49.8678 42.611L49.6834 42.2101L50.6408 42.5192L49.3171 41.3525L50.8378 42.0787L50.1512 41.2878L50.124 40.9426L50.2903 40.7443L50.4241 40.5152L50.6375 40.3488L51.3767 40.6535L51.8098 40.7121L51.8756 40.4452L52.1883 40.4144L52.2235 40.1077L51.5887 39.1068L51.774 38.9236L52.5192 39.3583L52.911 39.4367L52.943 39.1014L53.2558 39.0967L53.6858 39.2574L52.9519 37.8913L53.8917 38.7403L53.9229 38.3731L53.4028 37.1543L54.527 38.4043L54.4231 37.7897L54.0908 36.7448L54.322 36.6081L54.7586 36.8522L54.7985 36.3561L55.445 37.0736L55.9232 37.5072L55.8533 36.7575L56.1025 36.7028L56.1921 36.2352L56.8282 37.2475L56.9593 36.8909L56.9018 35.8898L57.5064 37.0863L57.7474 37.1139L57.8585 36.5797L58.1283 36.7345L58.4034 36.9875L58.418 35.3379L58.8303 36.733L58.9649 35.4025L59.226 35.2474L59.5274 36.9471L59.7521 36.6485L60.0094 36.0987L60.2879 35.6857L60.6131 35.0431L60.6842 36.6295L61.0675 35.7296L61.0625 37.0787L61.4316 36.4653L61.6954 36.4117L61.8213 36.8346L62.2294 36.3616L62.4623 36.4455L62.348 37.3638L63.07 36.3281L63.2845 36.4812L63.2212 37.1314L63.6983 36.8067L63.9184 36.9329L64.4495 36.6246L63.7332 38.046L64.8976 36.9457L65.0214 37.2207L65.1496 37.4835L64.3897 38.646L65.1698 38.2045L65.5703 38.1801L65.9125 38.2298L65.243 39.1136L65.7306 39.0375L65.9153 39.2088L66.7179 38.9679L66.6892 39.3057L65.5698 40.29L66.9906 39.7414L66.0978 40.5226L67.3861 40.136L66.0243 41.0811L67.0127 40.8923L66.2805 41.4759L67.8047 41.1235L66.9778 41.7162L67.8627 41.6654L67.9267 41.9247L67.9621 42.1876L68.0451 42.4357L67.3083 42.9008L66.9661 43.2375L67.9154 43.2687L67.3489 43.6483L68.0129 43.7737L67.6999 44.0864L67.7505 44.3299L68.5754 44.4669L67.2916 44.8935L68.3734 45.0184L67.7419 45.3365L67.9743 45.5716L68.0656 45.8158L67.1377 46.1045L68.4987 46.3132L67.0284 46.5774L67.5489 46.8197L68.3225 47.094L68.0101 47.334L67.1463 47.5216L67.3024 47.775L67.9858 48.0984L67.1009 48.2277L67.0008 48.4466L68.1167 48.9014L67.8888 49.1191L68.4063 49.5157L67.1308 49.4473L66.6553 49.5539L67.9496 50.2273L67.0333 50.1803L67.6744 50.6951L67.3186 50.833L66.838 50.8938L66.1753 50.8322L65.9963 50.9943L66.9596 51.82L67.0288 52.1774L65.7022 51.604L65.8503 51.9921L65.7852 52.2386L66.635 53.2675L66.4827 53.5134L65.0156 52.4899L65.3326 53.1415L64.637 52.7353L65.5204 54.1407L64.7553 53.6067L64.9905 54.3558L64.0347 53.4159L64.1826 54.086L64.3293 54.8491L64.2473 55.2809L63.8478 55.1076L63.7269 55.5036L63.2705 55.134L62.6096 54.1074L62.6477 54.9367L62.18 54.2605L62.1596 55.0594L61.8477 54.8401L61.8149 55.8643L61.4447 55.3328L61.1538 55.0935L60.8202 54.4236L60.7243 55.7638L60.3867 54.5423L60.1849 55.1984L59.9473 55.304L59.6859 56.0752L59.4374 55.723L59.1525 56.1048L58.9136 55.8386L58.7183 55.314L58.5357 54.8256L58.2758 54.9398L57.9446 55.4263L57.7925 54.9253L57.3001 55.9901L57.4495 54.3003L56.864 55.5948L56.9884 54.2248L56.7284 54.2868L55.9906 55.7749L56.2097 54.3436L55.6983 55.033L55.4825 54.8946L55.6215 53.8861L54.7912 55.2232L54.6458 54.9103L54.6423 54.312L54.2269 54.5912L53.9896 54.4933L53.6395 54.6044L53.6158 54.1105L54.0393 52.8713L53.3809 53.5182L53.15 53.4254L53.0173 53.1748L52.9342 52.8482L52.721 52.7327L52.8961 52.0712L51.6728 53.3185L52.1557 52.2723L52.051 52.0124L51.7864 51.9557L50.7678 52.7528L51.0636 52.0296L50.3971 52.3725L51.1996 51.1755L51.095 50.9417L50.9389 50.7667L50.7988 50.5781L50.0763 50.8873L49.6783 50.8824L49.5431 50.6612L49.2981 50.5207L49.7524 49.8908L49.7818 49.5848L49.3914 49.5441L49.0561 49.4528L48.7901 49.3062L48.4453 49.1812L49.5016 48.4346L49.4091 48.2312L48.7217 48.2338L49.4941 47.7497L48.0053 47.9L47.523 47.7139L48.9147 47.2155Z" fill="#6B4628"/>
<path d="M60.8208 54.4292C56.0106 55.101 49.8158 51.0218 49.3292 47.1601C48.8419 43.2927 53.8131 37.6545 58.6233 36.9828C63.4336 36.3111 66.3416 39.8785 66.9473 44.6957C67.553 49.513 65.6311 53.7575 60.8183 54.4325L60.8208 54.4292Z" fill="url(#paint9_radial_25_3625)"/>
<path style="mix-blend-mode:screen" opacity="0.77" d="M65.7306 44.867C65.6527 44.252 65.5278 43.6314 65.3533 43.0345C65.04 44.376 63.492 45.7543 59.8501 46.2639C57.8852 46.5412 55.4918 46.4397 53.4526 46.0057C52.2932 45.757 51.3853 45.4241 50.8259 45.0676C50.5796 45.7672 50.4795 46.4249 50.5491 46.9916C50.7306 48.4246 52.0996 50.1231 54.1318 51.424C56.2925 52.8103 58.7548 53.4727 60.7172 53.1986C65.1047 52.5861 66.1819 48.492 65.7249 44.8677L65.7306 44.867Z" fill="url(#paint10_linear_25_3625)"/>
</g>
<defs>
<linearGradient id="paint0_linear_25_3625" x1="43.6176" y1="59.6381" x2="55.158" y2="58.1847" gradientUnits="userSpaceOnUse">
<stop stop-color="#1A1A1A"/>
<stop offset="0.1" stop-color="#2B241E"/>
<stop offset="0.38" stop-color="#543F29"/>
<stop offset="0.63" stop-color="#735232"/>
<stop offset="0.85" stop-color="#855D37"/>
<stop offset="1" stop-color="#8C6239"/>
</linearGradient>
<linearGradient id="paint1_linear_25_3625" x1="52.6026" y1="52.677" x2="50.457" y2="56.2264" gradientUnits="userSpaceOnUse">
<stop/>
<stop offset="0.16" stop-color="#111111"/>
<stop offset="0.49" stop-color="#313131"/>
<stop offset="0.78" stop-color="#454545"/>
<stop offset="0.97" stop-color="#4D4D4D"/>
<stop offset="0.98" stop-color="#676767"/>
<stop offset="0.99" stop-color="#797979"/>
<stop offset="1" stop-color="#808080"/>
</linearGradient>
<linearGradient id="paint2_linear_25_3625" x1="-242.871" y1="-1016.78" x2="-243.912" y2="-1014.24" gradientUnits="userSpaceOnUse">
<stop stop-color="#F2F2F2"/>
<stop offset="0.07" stop-color="#D8D8D8"/>
<stop offset="0.27" stop-color="#979797"/>
<stop offset="0.45" stop-color="#616161"/>
<stop offset="0.62" stop-color="#373737"/>
<stop offset="0.78" stop-color="#191919"/>
<stop offset="0.91" stop-color="#060606"/>
<stop offset="1"/>
</linearGradient>
<linearGradient id="paint3_linear_25_3625" x1="54.4401" y1="67.1797" x2="51.4735" y2="64.3605" gradientUnits="userSpaceOnUse">
<stop/>
<stop offset="0.16" stop-color="#111111"/>
<stop offset="0.49" stop-color="#313131"/>
<stop offset="0.78" stop-color="#454545"/>
<stop offset="0.97" stop-color="#4D4D4D"/>
<stop offset="0.98" stop-color="#676767"/>
<stop offset="0.99" stop-color="#797979"/>
<stop offset="1" stop-color="#808080"/>
</linearGradient>
<linearGradient id="paint4_linear_25_3625" x1="38.281" y1="935.109" x2="36.6196" y2="932.972" gradientUnits="userSpaceOnUse">
<stop stop-color="#F2F2F2"/>
<stop offset="0.07" stop-color="#D8D8D8"/>
<stop offset="0.27" stop-color="#979797"/>
<stop offset="0.45" stop-color="#616161"/>
<stop offset="0.62" stop-color="#373737"/>
<stop offset="0.78" stop-color="#191919"/>
<stop offset="0.91" stop-color="#060606"/>
<stop offset="1"/>
</linearGradient>
<linearGradient id="paint5_linear_25_3625" x1="14.5716" y1="62.6492" x2="15.9955" y2="72.8314" gradientUnits="userSpaceOnUse">
<stop/>
<stop offset="0.02" stop-color="#0A0A0A"/>
<stop offset="0.18" stop-color="#464646"/>
<stop offset="0.33" stop-color="#7B7B7B"/>
<stop offset="0.48" stop-color="#A5A5A5"/>
<stop offset="0.63" stop-color="#C6C6C6"/>
<stop offset="0.76" stop-color="#DEDEDE"/>
<stop offset="0.89" stop-color="#EDEDED"/>
<stop offset="1" stop-color="#F2F2F2"/>
</linearGradient>
<linearGradient id="paint6_linear_25_3625" x1="37.8178" y1="53.583" x2="-0.746552" y2="45.7771" gradientUnits="userSpaceOnUse">
<stop offset="0.15" stop-color="#704F2E"/>
<stop offset="0.35" stop-color="#967951"/>
<stop offset="0.66" stop-color="#CEB787"/>
<stop offset="0.88" stop-color="#F1DFA8"/>
<stop offset="1" stop-color="#FFEEB5"/>
</linearGradient>
<linearGradient id="paint7_linear_25_3625" x1="41.206" y1="70.4059" x2="5.27768" y2="87.2308" gradientUnits="userSpaceOnUse">
<stop offset="0.15" stop-color="#704F2E"/>
<stop offset="0.35" stop-color="#967951"/>
<stop offset="0.66" stop-color="#CEB787"/>
<stop offset="0.88" stop-color="#F1DFA8"/>
<stop offset="1" stop-color="#FFEEB5"/>
</linearGradient>
<linearGradient id="paint8_linear_25_3625" x1="52.4702" y1="63.4707" x2="47.7633" y2="57.0881" gradientUnits="userSpaceOnUse">
<stop stop-color="#F2F2F2"/>
<stop offset="0.07" stop-color="#D8D8D8"/>
<stop offset="0.27" stop-color="#979797"/>
<stop offset="0.45" stop-color="#616161"/>
<stop offset="0.62" stop-color="#373737"/>
<stop offset="0.78" stop-color="#191919"/>
<stop offset="0.91" stop-color="#060606"/>
<stop offset="1"/>
</linearGradient>
<radialGradient id="paint9_radial_25_3625" cx="0" cy="0" r="1" gradientUnits="userSpaceOnUse" gradientTransform="translate(38.0356 60.4764) rotate(82.8219) scale(8.76852 8.77089)">
<stop stop-color="#5E3D23"/>
<stop offset="0.42" stop-color="#5B3B21"/>
<stop offset="0.66" stop-color="#53341C"/>
<stop offset="0.85" stop-color="#452A13"/>
<stop offset="1" stop-color="#351E09"/>
</radialGradient>
<linearGradient id="paint10_linear_25_3625" x1="37.8041" y1="58.6381" x2="39.0985" y2="67.8944" gradientUnits="userSpaceOnUse">
<stop/>
<stop offset="0.17" stop-color="#303030"/>
<stop offset="0.47" stop-color="#828282"/>
<stop offset="0.72" stop-color="#BEBEBE"/>
<stop offset="0.9" stop-color="#E3E3E3"/>
<stop offset="1" stop-color="#F2F2F2"/>
</linearGradient>
<clipPath id="clip0_25_3625">
<rect width="68" height="68" fill="white" transform="translate(42.0427) rotate(38.1903)"/>
</clipPath>
</defs>
</svg>
